<svg
	version="1.1"
	xmlns="http://www.w3.org/2000/svg"
	xmlns:xlink="http://www.w3.org/1999/xlink"
   x="0px"
   y="0px"
   width="512px"
   height="512px"
   viewBox="0 0 512 512"
   enable-background="new 0 0 512 512"
   id="currentlocation-marker">
<path
   id="currentlocation-marker-shell"
   d="M256,50c-93.061,0-168.5,75.44-168.5,168.5C87.5,313,169.43,375.333,256,462  c86.57-86.667,168.5-149,168.5-243.5C424.5,125.44,349.061,50,256,50z M256,336.958c-68.275,0-123.624-55.349-123.624-123.624  c0-68.276,55.349-123.625,123.624-123.625c68.276,0,123.625,55.348,123.625,123.625C379.625,281.609,324.276,336.958,256,336.958z" />
<path
   id="currentlocation-marker-content"
   d="m 330.37966,205.73244 c -4.10654,-34.26501 -31.24098,-61.39538 -65.50192,-65.50193 v -18.63728 h -18.09446 v 18.63728 c -34.26501,4.10655 -61.39539,31.24099 -65.50147,65.50193 h -18.63774 v 18.09446 h 18.63728 c 4.10654,34.26501 31.24098,61.39538 65.50193,65.50193 v 18.63728 h 18.09446 v -18.63728 c 34.26456,-4.10655 61.39538,-31.24099 65.50147,-65.50193 h 18.63774 v -18.09446 h -18.63729 z m -18.26364,-0.0312 h -15.45718 c -3.51033,-15.79691 -15.97922,-28.25766 -31.7811,-31.75577 v -15.46849 c 23.62683,3.79214 43.22086,22.31317 47.23828,47.22426 z m -56.28551,37.33067 c -15.60285,0 -28.25269,-12.64893 -28.25269,-28.25223 0,-15.6033 12.64984,-28.25223 28.25269,-28.25223 15.6033,0 28.25268,12.64893 28.25268,28.25223 0,15.6033 -12.64938,28.25223 -28.25268,28.25223 z m -9.04859,-84.54318 c 4.6e-4,0 8.6e-4,0 0.002,0 v 15.45674 c -15.80189,3.49811 -28.27077,15.95886 -31.78109,31.75577 h -15.46986 c 3.80527,-23.62276 22.33444,-43.20775 47.24959,-47.21251 z m -47.24236,65.33908 c -0.002,-0.0104 -0.003,-0.0217 -0.005,-0.0322 h 15.45403 c 3.49132,15.82631 15.97243,28.31601 31.79466,31.81865 v 15.46804 c -23.63678,-3.79396 -43.23714,-22.32855 -47.24371,-47.25457 z m 65.33908,47.24282 c -4.5e-4,0 -4.5e-4,0 -8.6e-4,0 v -15.45629 c 15.82265,-3.50264 28.3033,-15.99233 31.79462,-31.81865 h 15.46533 c -3.78264,23.65036 -22.32176,43.26611 -47.25909,47.27494 z m 2.26091,-56.29095 c 0,6.24575 -5.06329,11.30904 -11.30904,11.30904 -6.24576,0 -11.30904,-5.06329 -11.30904,-11.30904 0,-6.24575 5.06328,-11.30904 11.30904,-11.30904 6.24575,0 11.30904,5.06329 11.30904,11.30904 z"/>
</svg>
