<svg
	version="1.1"
	xmlns="http://www.w3.org/2000/svg"
	xmlns:xlink="http://www.w3.org/1999/xlink"
   x="0px"
   y="0px"
   width="512px"
   height="512px"
   viewBox="0 0 512 512"
   enable-background="new 0 0 512 512"
   id="favorite-marker">
<path
   id="favorite-marker-shell"
   d="M256,50c-93.061,0-168.5,75.44-168.5,168.5C87.5,313,169.43,375.333,256,462  c86.57-86.667,168.5-149,168.5-243.5C424.5,125.44,349.061,50,256,50z M256,336.958c-68.275,0-123.624-55.349-123.624-123.624  c0-68.276,55.349-123.625,123.624-123.625c68.276,0,123.625,55.348,123.625,123.625C379.625,281.609,324.276,336.958,256,336.958z" />
<path
   id="favorite-marker-content"
   d="m 256,143.73976 20.34789,41.97735 46.2112,6.38085 -33.63556,32.32464 8.21206,45.92052 L 256,248.34392 l -41.13607,21.99967 8.21206,-45.92051 -33.63556,-32.32465 46.2112,-6.38085 L 256,143.73976 z m 0,-32.56041 -29.81548,61.50763 -67.71095,9.34923 49.28422,47.36306 -12.03214,67.2858 L 256,264.44943 l 60.27435,32.23564 -12.03214,-67.2858 49.28422,-47.36306 -67.71095,-9.34923 L 256,111.17935 z"/>
</svg>
