<svg
	version="1.1"
	xmlns="http://www.w3.org/2000/svg"
	xmlns:xlink="http://www.w3.org/1999/xlink"
   x="0px"
   y="0px"
   width="512px"
   height="512px"
   viewBox="0 0 512 512"
   enable-background="new 0 0 512 512"
   id="favoritedark-marker">
<path
   id="favoritedark-marker-shell"
   d="M256,50c-93.061,0-168.5,75.44-168.5,168.5C87.5,313,169.43,375.333,256,462  c86.57-86.667,168.5-149,168.5-243.5C424.5,125.44,349.061,50,256,50z M256,336.958c-68.275,0-123.624-55.349-123.624-123.624  c0-68.276,55.349-123.625,123.624-123.625c68.276,0,123.625,55.348,123.625,123.625C379.625,281.609,324.276,336.958,256,336.958z" />
<polygon
   id="favoritedark-marker-content"
   points="256,383.828 128.685,451.918 154.1,309.793 49.999,209.75 193.021,190.002 256,60.082 318.979,190.002 462.001,209.75 357.9,309.793 383.315,451.918 "
   transform="matrix(0.45236402,0,0,0.45236402,142.19481,88.127014)" />
</svg>
