<svg
	version="1.1"
	xmlns="http://www.w3.org/2000/svg"
	xmlns:xlink="http://www.w3.org/1999/xlink"
   x="0px"
   y="0px"
   width="512px"
   height="512px"
   viewBox="0 0 512 512"
   enable-background="new 0 0 512 512"
   id="aquarium-marker">
   <path
     id="aquarium-marker-shell"
     d="M 256,50 C 162.939,50 87.5,125.44 87.5,218.5 87.5,313 169.43,375.333 256,462 342.57,375.333 424.5,313 424.5,218.5 424.5,125.44 349.061,50 256,50 z m 0,286.958 c -68.275,0 -123.624,-55.349 -123.624,-123.624 0,-68.276 55.349,-123.625 123.624,-123.625 68.276,0 123.625,55.348 123.625,123.625 0,68.275 -55.349,123.624 -123.625,123.624 z"/>
     <g
     transform="matrix(4.1597896,0,0,4.1597896,146.00318,110.35113)"
     id="aquarium-marker-content">
     <path
       d="m 40.968,25.355 c 0,-5.533 3.589,-10.203 8.51,-11.713 -1.569,-0.776 -3.321,-1.225 -5.181,-1.225 -5.328,0 -9.837,3.578 -11.373,8.516 -1.196,-3.422 -2.441,-9.013 -1.16,-15.611 0,0 -17.075,-0.124 -31.241,19.204 0,0 9.748,17.737 31.241,20.151 0,0 -3.671,-10.49 0.813,-17.742 1.046,5.66 5.893,9.943 11.721,9.943 1.19,0 2.34,-0.185 3.426,-0.518 -3.995,-1.977 -6.756,-6.155 -6.756,-11.005 z M 9.215,25.453 c -1.252,0 -2.267,-1.107 -2.267,-2.475 0,-1.366 1.015,-2.475 2.267,-2.475 1.253,0 2.268,1.108 2.268,2.475 -0.001,1.368 -1.015,2.475 -2.268,2.475 z"
       id="path6" />
     </g>
   </svg>
