<svg
	version="1.1"
	xmlns="http://www.w3.org/2000/svg"
	xmlns:xlink="http://www.w3.org/1999/xlink"
   x="0px"
   y="0px"
   width="512px"
   height="512px"
   viewBox="0 0 512 512"
   enable-background="new 0 0 512 512"
   id="atm-marker">
<path
   id="atm-marker-shell"
   d="M256,50c-93.061,0-168.5,75.44-168.5,168.5C87.5,313,169.43,375.333,256,462  c86.57-86.667,168.5-149,168.5-243.5C424.5,125.44,349.061,50,256,50z M256,336.958c-68.275,0-123.624-55.349-123.624-123.624  c0-68.276,55.349-123.625,123.624-123.625c68.276,0,123.625,55.348,123.625,123.625C379.625,281.609,324.276,336.958,256,336.958z" />
<path
   id="atm-marker-content"
   d="m 193.17556,146.95646 123.02322,0 c 15.09864,0 27.33837,12.23973 27.33837,27.33836 l 0,82.01548 c 0,15.09863 -12.23973,27.33836 -27.33837,27.33836 l -123.02322,0 c -15.09862,0 -27.33835,-12.23973 -27.33835,-27.33836 l 0,-82.01548 c 0,-15.09863 12.23973,-27.33836 27.33835,-27.33836 z m 143.52711,88.84997 -164.03098,0 0,13.66939 c 0,4.97921 1.33124,9.64805 3.65746,13.66897 l 156.71606,0 c 2.32622,-4.02092 3.65746,-8.68976 3.65746,-13.66897 l 0,-13.66939 z m -157.1965,-75.18101 0,27.33879 27.33878,0 0,-27.33879 -27.33878,0 z"/>
 </svg>
