<svg
	version="1.1"
	xmlns="http://www.w3.org/2000/svg"
	xmlns:xlink="http://www.w3.org/1999/xlink"
   x="0px"
   y="0px"
   width="512px"
   height="512px"
   viewBox="0 0 512 512"
   enable-background="new 0 0 512 512"
   id="bank-marker">
   <path
     id="bank-marker-shell"
     d="M 256,50 C 162.939,50 87.5,125.44 87.5,218.5 87.5,313 169.43,375.333 256,462 342.57,375.333 424.5,313 424.5,218.5 424.5,125.44 349.061,50 256,50 z m 0,286.958 c -68.275,0 -123.624,-55.349 -123.624,-123.624 0,-68.276 55.349,-123.625 123.624,-123.625 68.276,0 123.625,55.348 123.625,123.625 0,68.275 -55.349,123.624 -123.625,123.624 z" />
     <g
     transform="translate(174.37039,127.99014)"
     id="bank-marker-content">
     <path
       d="m 102.627,46.473 -47.431,0 C 31.947,69.529 3.033,105.765 17.892,132.2 c 11.742,20.892 38.288,26.294 64.043,25.935 25.755,-0.359 50.718,-6.484 59.29,-25.935 10.961,-24.868 -16.998,-62.101 -38.598,-85.727 z m -19.378,80.802 0,7.447 -7.154,0 0,-6.938 c -4.891,-0.217 -9.635,-1.533 -12.41,-3.139 l 2.189,-8.539 c 3.067,1.678 7.374,3.21 12.119,3.21 4.16,0 7.008,-1.604 7.008,-4.526 0,-2.771 -2.336,-4.525 -7.738,-6.351 -7.812,-2.628 -13.139,-6.279 -13.139,-13.359 0,-6.425 4.525,-11.462 12.337,-12.995 l 0,-6.934 7.153,0 0,6.423 c 4.891,0.22 8.178,1.243 10.586,2.411 l -2.117,8.248 c -1.898,-0.804 -5.257,-2.482 -10.512,-2.482 -4.745,0 -6.279,2.043 -6.279,4.089 0,2.409 2.555,3.942 8.76,6.277 8.687,3.067 12.19,7.082 12.19,13.652 10e-4,6.498 -4.597,12.047 -12.993,13.506 z"
       id="path6" />
       <path
       d="M 116.649,10.713 C 110.141,6.768 102.132,20.994 96.415,20.774 90.696,20.554 86.185,6.517 79.656,6.746 73.127,6.975 70.544,19.75 65.305,20.947 60.066,22.144 47.007,5.872 41.768,11.587 37.524,16.218 50.51,34.724 55.593,41.585 l 4.644,0 37.835,0 4.35,0 c 5.327,-7.268 19.558,-27.641 14.227,-30.872 z"
       id="path8" />
     </g>
   </svg>
