<svg
   xmlns:svg="http://www.w3.org/2000/svg"
   xmlns="http://www.w3.org/2000/svg"
   version="1.1"
   x="0px"
   y="0px"
   width="512px"
   height="512px"
   viewBox="0 0 512 512"
   enable-background="new 0 0 512 512"
   id="bicycleshop-marker">
  <path
     id="bicycleshop-marker-shell"
     d="M256,50c-93.061,0-168.5,75.44-168.5,168.5C87.5,313,169.43,375.333,256,462 c86.57-86.667,168.5-149,168.5-243.5C424.5,125.44,349.061,50,256,50z M256,336.958c-68.275,0-123.624-55.349-123.624-123.624 c0-68.276,55.349-123.625,123.624-123.625c68.276,0,123.625,55.348,123.625,123.625C379.625,281.609,324.276,336.958,256,336.958z" />
  <g
     transform="matrix(2.1281356,0,0,2.1281356,145.25424,143.53011)"
     id="bicycleshop-marker-content">
    <path
       id="path4"
       d="m 81.729,20.231 c -3.268,0 -6.331,0.861 -8.984,2.365 l -6.078,-9.272 1.912,-3.769 3.035,0 c 0.824,0 2.104,-0.652 2.104,-2.138 -0.269,-2.368 -2.349,-2.47 -5.647,-1.186 -5.413,0 -8.169,0.574 -8.169,3.324 l 6.216,0 -1.055,2.076 -30.01,0 c 0.901,-2.181 1.759,-4.389 2.549,-6.634 -1.556,0 -3.31,-0.096 -3.31,-1.357 0,-1.232 1.088,-1.403 1.898,-1.446 l 10.794,0 0,-2.193 -10.793,0 c -2.305,-0.031 -4.167,0.931 -4.167,3.119 0,1.625 0.576,3.098 2.894,3.719 C 32.005,14.13 29.53,18.921 27.742,22.884 24.978,21.202 21.736,20.232 18.264,20.232 8.175,20.231 0,28.413 0,38.502 0,48.59 8.175,56.765 18.264,56.765 c 10.088,0 18.27,-8.175 18.27,-18.263 0,-5.851 -2.752,-11.055 -7.031,-14.399 1.371,-2.97 2.739,-5.946 4.05,-8.95 l 13.699,19.244 c -1.333,1.204 -2.172,2.949 -2.172,4.887 0,3.38 2.551,6.166 5.832,6.537 l 0,2.652 -1.762,0 0,1.775 5.017,0 0,-1.775 -1.762,0 0,-2.653 c 3.281,-0.371 5.832,-3.157 5.832,-6.537 0,-0.037 10e-4,-0.073 0,-0.11 l 5.243,0 C 63.833,48.95 71.866,56.765 81.729,56.765 91.818,56.765 100,48.59 100,38.502 100,28.413 91.818,20.231 81.729,20.231 Z M 33.546,38.502 c 0,8.437 -6.846,15.275 -15.282,15.275 -8.437,0 -15.276,-6.839 -15.276,-15.275 0,-8.438 6.839,-15.276 15.276,-15.276 3.027,0 5.849,0.886 8.224,2.405 -1.058,2.291 -2.046,4.386 -3.091,6.648 -0.004,0.009 -0.01,0.018 -0.014,0.027 -1.039,1.766 -2.397,3.047 -3.776,4.174 -0.385,-0.257 -0.846,-0.412 -1.343,-0.412 -1.341,0 -2.426,1.092 -2.426,2.434 0,1.34 1.085,2.426 2.426,2.426 1.341,0 2.433,-1.086 2.433,-2.426 0,-0.023 -0.006,-0.047 -0.007,-0.068 1.587,-1.266 3.32,-2.828 4.64,-5.113 l 0.027,-0.048 0.021,-0.041 c 0.918,-2.121 1.869,-4.222 2.83,-6.318 3.263,2.8 5.338,6.95 5.338,11.588 z M 72.89,26.049 79.962,36.842 c -0.154,0.165 -0.287,0.353 -0.391,0.556 l -13.069,0 c 0.335,-4.685 2.775,-8.78 6.388,-11.349 z m -38.405,-12.644 29.68,0 -10.032,19.779 c -0.543,-0.221 -1.124,-0.37 -1.728,-0.438 l 0,-2.652 1.762,0 0,-1.775 -5.017,0 0,1.775 1.761,0 0,2.652 c -0.78,0.088 -1.519,0.32 -2.193,0.658 L 34.485,13.405 Z m 17.173,31.202 c -2.941,0 -5.325,-2.383 -5.325,-5.324 0,-2.942 2.384,-5.325 5.325,-5.325 2.941,0 5.325,2.383 5.325,5.325 0,2.942 -2.383,5.324 -5.325,5.324 z m 6.305,-7.209 c -0.356,-1.195 -1.047,-2.253 -1.96,-3.057 l 9.738,-19.196 5.503,8.395 c -4.421,3.107 -7.402,8.128 -7.743,13.857 l -5.538,0 z m 23.766,16.379 c -8.212,0 -14.904,-6.479 -15.255,-14.604 l 12.925,0 c 0.293,1.013 1.224,1.755 2.33,1.755 1.341,0 2.433,-1.086 2.433,-2.426 0,-1.342 -1.092,-2.434 -2.433,-2.434 -0.051,0 -0.101,0.004 -0.15,0.008 L 74.39,25.104 c 2.178,-1.195 4.681,-1.877 7.34,-1.877 8.438,0 15.282,6.838 15.282,15.276 0,8.435 -6.845,15.274 -15.283,15.274 z" />
    <path
       id="path6"
       d="m 51.658,34.424 c -2.682,0 -4.858,2.177 -4.858,4.859 0,2.682 2.177,4.858 4.858,4.858 2.681,0 4.853,-2.177 4.853,-4.858 0,-2.682 -2.171,-4.859 -4.853,-4.859 z m 0,5.688 c -0.459,0 -0.836,-0.37 -0.836,-0.829 0,-0.46 0.377,-0.829 0.836,-0.829 0.46,0 0.829,0.369 0.829,0.829 0,0.459 -0.369,0.829 -0.829,0.829 z" />
  </g>
</svg>
