<svg
	version="1.1"
	xmlns="http://www.w3.org/2000/svg"
	xmlns:xlink="http://www.w3.org/1999/xlink"
   x="0px"
   y="0px"
   width="512px"
   height="512px"
   viewBox="0 0 512 512"
   enable-background="new 0 0 512 512"
   id="busstation-marker">
<path
   id="busstation-marker-shell"
   d="M256,50c-93.061,0-168.5,75.44-168.5,168.5C87.5,313,169.43,375.333,256,462  c86.57-86.667,168.5-149,168.5-243.5C424.5,125.44,349.061,50,256,50z M256,336.958c-68.275,0-123.624-55.349-123.624-123.624  c0-68.276,55.349-123.625,123.624-123.625c68.276,0,123.625,55.348,123.625,123.625C379.625,281.609,324.276,336.958,256,336.958z" />
<path
   id="busstation-marker-content"
   d="m 302.91538,306.50769 c -4.43953,0 -8.03786,-3.59884 -8.03786,-8.03786 l 0,-16.07624 -80.38068,0 0,16.07624 c 0,4.43902 -3.59884,8.03786 -8.03787,8.03786 l -8.03786,0 c -4.43953,0 -8.03837,-3.59884 -8.03837,-8.03786 l 0,-16.07624 -16.07574,0 8.03787,-132.62757 c 0,-19.97663 32.38854,-36.17115 72.34231,-36.17115 39.95377,0 72.34231,16.19452 72.34231,36.17115 l 8.03786,132.62757 -16.07573,0 0,16.07624 c 0,4.43902 -3.59884,8.03786 -8.03837,8.03786 l -8.03787,0 z M 202.43979,234.16538 c -6.65905,0 -12.05705,5.39801 -12.05705,12.05705 0,6.65905 5.398,12.05706 12.05705,12.05706 6.65904,0 12.05705,-5.39801 12.05705,-12.05706 0,-6.65904 -5.39801,-12.05705 -12.05705,-12.05705 z m 104.49427,0 c -6.65854,0 -12.05705,5.39801 -12.05705,12.05705 0,6.65905 5.39851,12.05706 12.05705,12.05706 6.65905,0 12.05705,-5.39801 12.05705,-12.05706 0,-6.65904 -5.398,-12.05705 -12.05705,-12.05705 z M 222.5347,129.67111 c -2.21951,0 -4.01867,1.79916 -4.01867,4.01918 0,2.21952 1.79916,4.01868 4.01918,4.01868 l 64.30394,0 c 2.21951,0 4.01918,-1.79916 4.01918,-4.01868 0,-2.22002 -1.79967,-4.01918 -4.01918,-4.01918 l -64.30445,0 z m -30.14212,78.37083 124.5892,0 -6.02853,-52.24739 c 0,-4.43903 -3.59884,-8.03787 -8.03787,-8.03787 l -96.45641,0 c -4.43953,0 -8.03837,3.59884 -8.03837,8.03787 l -6.02802,52.24739 z"/>
 </svg>
