<svg
	version="1.1"
	xmlns="http://www.w3.org/2000/svg"
	xmlns:xlink="http://www.w3.org/1999/xlink"
   x="0px"
   y="0px"
   width="512px"
   height="512px"
   viewBox="0 0 512 512"
   enable-background="new 0 0 512 512"
   id="cafe-marker">
<path
   id="cafe-marker-shell"
   d="M256,50c-93.061,0-168.5,75.44-168.5,168.5C87.5,313,169.43,375.333,256,462  c86.57-86.667,168.5-149,168.5-243.5C424.5,125.44,349.061,50,256,50z M256,336.958c-68.275,0-123.624-55.349-123.624-123.624  c0-68.276,55.349-123.625,123.624-123.625c68.276,0,123.625,55.348,123.625,123.625C379.625,281.609,324.276,336.958,256,336.958z" />
<path
   id="cafe-marker-content"
   d="m 333.78118,252.88034 c 0,11.10206 -8.99964,20.1017 -20.10171,20.1017 l -120.61022,0 c -11.10207,0 -20.10171,-8.99964 -20.10171,-20.1017 l 160.81364,0 z m -140.71193,-33.50299 0,-67.00555 107.20895,0 c 18.5033,0 33.50298,14.99969 33.50298,33.50299 0,18.50287 -14.99968,33.50256 -33.50298,33.50256 0,11.10207 -8.99964,26.80255 -20.10171,26.80255 l -67.00555,0 c -11.10206,0 -20.10169,-15.70048 -20.10169,-26.80255 z M 300.2782,205.97649 c 11.10206,0 20.10171,-9.00006 20.10171,-20.1017 0,-11.10208 -8.99965,-20.10171 -20.10171,-20.10171 l 0,40.20341 z"/>
 </svg>
