<svg
	version="1.1"
	xmlns="http://www.w3.org/2000/svg"
	xmlns:xlink="http://www.w3.org/1999/xlink"
   x="0px"
   y="0px"
   width="512px"
   height="512px"
   viewBox="0 0 512 512"
   enable-background="new 0 0 512 512"
   id="campgrounds-marker">
     <path
       id="campgrounds-marker-shell"
       d="M 256,50 C 162.939,50 87.5,125.44 87.5,218.5 87.5,313 169.43,375.333 256,462 342.57,375.333 424.5,313 424.5,218.5 424.5,125.44 349.061,50 256,50 z m 0,286.958 c -68.275,0 -123.624,-55.349 -123.624,-123.624 0,-68.276 55.349,-123.625 123.624,-123.625 68.276,0 123.625,55.348 123.625,123.625 0,68.275 -55.349,123.624 -123.625,123.624 z"/>
     <path
       id="campgrounds-marker-content"
       d="m 264.6475,137.378 7.358,-9.466 -7.318,-5.704 -5.938,7.618 -0.04,-0.04 0,0.04 -5.936,-7.618 -7.304,5.704 7.37,9.492 -98.152,139.388 68.828,0 c 24.596,-21.406 35.678,-48.672 35.678,-48.672 l 0.39,0 c 0,0 10.754,26.264 34.66,48.672 l 60.444,-0.168 -90.04,-139.246 z"/>
</svg>
