<svg
	version="1.1"
	xmlns="http://www.w3.org/2000/svg"
	xmlns:xlink="http://www.w3.org/1999/xlink"
   x="0px"
   y="0px"
   width="512px"
   height="512px"
   viewBox="0 0 512 512"
   enable-background="new 0 0 512 512"
   id="car-marker">
<path
   id="car-marker-shell"
   d="M256,50c-93.061,0-168.5,75.44-168.5,168.5C87.5,313,169.43,375.333,256,462  c86.57-86.667,168.5-149,168.5-243.5C424.5,125.44,349.061,50,256,50z M256,336.958c-68.275,0-123.624-55.349-123.624-123.624  c0-68.276,55.349-123.625,123.624-123.625c68.276,0,123.625,55.348,123.625,123.625C379.625,281.609,324.276,336.958,256,336.958z" />
<path
   id="car-marker-content"
   d="m 232.38481,224.2808 c -0.89176,0 -1.61465,-0.72289 -1.61465,-1.61465 l 0,-9.6874 c 0,-2.54496 1.47199,-4.74606 3.61109,-5.79843 l 6.07641,-15.19122 1.61465,0 3.2291,0 16.1459,0 3.2291,0 1.61465,0 6.07641,15.19122 c 2.139,1.05237 3.61099,3.25347 3.61099,5.79843 l 1e-4,9.6874 c 0,0.89176 -0.72289,1.61465 -1.61465,1.61465 l -1.61455,0 0,3.2291 c 0,1.78341 -1.44579,3.2292 -3.2292,3.2292 -1.78342,0 -3.2291,-1.44579 -3.2291,-3.2292 l 0,-3.2291 -25.8334,0 0,3.2291 c 0,1.78341 -1.44568,3.2292 -3.2291,3.2292 -1.78341,0 -3.2292,-1.44579 -3.2292,-3.2292 l 0,-3.2291 -1.61455,0 z m 7.1041,-17.76045 27.7708,0 -3.875,-9.6875 -20.0208,0 -3.875,9.6875 z m -0.24219,2.82559 c -1.78341,0 -3.63281,1.84929 -3.63281,3.63271 0,1.78342 1.8494,3.63281 3.63281,3.63281 1.78342,0 3.63282,-1.84929 3.63282,-3.63271 0,-1.78342 -1.8494,-3.63281 -3.63282,-3.63281 z m 28.25528,-1e-4 c -1.78342,0 -3.63282,1.84939 -3.63282,3.63281 0,1.78342 1.8494,3.63281 3.63282,3.63281 1.78341,0 3.63281,-1.84939 3.63281,-3.63281 0,-1.78342 -1.8494,-3.63281 -3.63281,-3.63281 z"/>
 </svg>
