<svg
	version="1.1"
	xmlns="http://www.w3.org/2000/svg"
	xmlns:xlink="http://www.w3.org/1999/xlink"
   x="0px"
   y="0px"
   width="512px"
   height="512px"
   viewBox="0 0 512 512"
   enable-background="new 0 0 512 512"
   id="carwash-marker">
<path
   id="carwash-marker-shell"
   d="M 256,50 C 162.939,50 87.5,125.44 87.5,218.5 87.5,313 169.43,375.333 256,462 342.57,375.333 424.5,313 424.5,218.5 424.5,125.44 349.061,50 256,50 z m 0,286.958 c -68.275,0 -123.624,-55.349 -123.624,-123.624 0,-68.276 55.349,-123.625 123.624,-123.625 68.276,0 123.625,55.348 123.625,123.625 0,68.275 -55.349,123.624 -123.625,123.624 z"/>
<path
   id="carwash-marker-content"
   style="fill:#000000;fill-rule:evenodd;stroke:#000000;stroke-width:0.51015598px;stroke-linecap:butt;stroke-linejoin:miter;stroke-opacity:1"
   d="M 162.9375 194.75 C 158.96045 194.75 155.78125 197.96045 155.78125 201.9375 L 155.78125 236.8125 C 155.78125 240.78955 158.96045 243.96875 162.9375 243.96875 L 346.4375 243.96875 C 350.41455 243.96875 353.59375 240.78955 353.59375 236.8125 L 353.59375 201.9375 C 353.59375 197.96045 350.41455 194.75 346.4375 194.75 L 162.9375 194.75 z M 182.1875 210.4375 C 187.71432 210.4375 192.21875 214.91068 192.21875 220.4375 C 192.21875 225.96432 187.71432 230.4375 182.1875 230.4375 C 176.66068 230.4375 172.1875 225.96432 172.1875 220.4375 C 172.1875 214.91068 176.66068 210.4375 182.1875 210.4375 z M 323.21875 210.4375 C 328.74557 210.4375 333.25 214.91068 333.25 220.4375 C 333.25 225.96432 328.74557 230.4375 323.21875 230.4375 C 317.69193 230.4375 313.21875 225.96432 313.21875 220.4375 C 313.21875 214.91068 317.69193 210.4375 323.21875 210.4375 z " />
   <path
   style="fill:#000000;fill-rule:evenodd;stroke:#000000;stroke-width:0.19962817px;stroke-linecap:butt;stroke-linejoin:miter;stroke-opacity:1"
   d="M 187.0625 170.5 L 170.65625 198.90625 C 170.15352 199.777 170.473 200.90352 171.34375 201.40625 C 172.2145 201.90898 173.30977 201.62075 173.8125 200.75 L 190.71875 171.5 C 189.47016 171.2511 188.23897 170.92218 187.0625 170.5 z "
   id="rect12299" />
   <rect
   style="fill:#000000;fill-rule:evenodd;stroke:#000000;stroke-width:0.19962817px;stroke-linecap:butt;stroke-linejoin:miter;stroke-opacity:1"
   id="rect12299-1"
   width="62.916328"
   height="3.6297884"
   x="279.16876"
   y="187.8943"
   ry="1.8148942"
   transform="matrix(0.5,0.8660254,0.8660254,-0.5,0,0)" />
   <path
   style="fill:#000000;fill-opacity:1;stroke:none"
   d="m 211.13281,154.1875 c -7.7665,0 -14.0625,6.296 -14.0625,14.0625 0,7.7665 6.296,14.0625 14.0625,14.0625 7.7665,0 14.0625,-6.296 14.0625,-14.0625 0,-7.7665 -6.296,-14.0625 -14.0625,-14.0625 z m 0.42614,3.83523 c 5.88371,0 10.65341,4.76969 10.65341,10.65341 0,5.88371 -4.7697,10.65341 -10.65341,10.65341 -5.88372,0 -10.65341,-4.7697 -10.65341,-10.65341 0,-5.88372 4.76969,-10.65341 10.65341,-10.65341 z"
   id="path12431-2" />
   <path
   style="fill:#000000;fill-rule:evenodd;stroke:#000000;stroke-width:0.25656009px;stroke-linecap:butt;stroke-linejoin:miter;stroke-opacity:1"
   d="M 221.5625 145.9375 C 221.56353 146.03255 221.5625 146.12346 221.5625 146.21875 C 221.5625 147.33053 221.51153 148.42531 221.375 149.5 L 304.78125 149.5 C 305.51971 149.5 306.09375 148.70843 306.09375 147.71875 C 306.09375 146.72907 305.51971 145.9375 304.78125 145.9375 L 221.5625 145.9375 z "
   id="rect12299-13" />
   <rect
   style="fill:#000000;fill-rule:evenodd;stroke:#000000;stroke-width:0.48698065px;stroke-linecap:butt;stroke-linejoin:miter;stroke-opacity:1"
   id="rect12340"
   width="18.344625"
   height="29.383684"
   x="177.10147"
   y="242.3158"
   rx="1.431443"
   ry="2.0865006" />
   <rect
   style="fill:#000000;fill-rule:evenodd;stroke:#000000;stroke-width:0.48698065px;stroke-linecap:butt;stroke-linejoin:miter;stroke-opacity:1"
   id="rect12340-8"
   width="18.344625"
   height="29.383684"
   x="318.12164"
   y="242.3158"
   rx="1.431443"
   ry="2.0865006" />
   <rect
   style="fill:#000000;fill-rule:evenodd;stroke:#000000;stroke-width:0.43482673px;stroke-linecap:butt;stroke-linejoin:miter;stroke-opacity:1"
   id="rect12380"
   width="31.680233"
   height="3.1059053"
   x="271.05103"
   y="169.23032"
   rx="1.4315898"
   ry="1.9186159" />
   <rect
   style="fill:#0000ff;fill-rule:evenodd;stroke:#000000;stroke-width:0.43482673px;stroke-linecap:butt;stroke-linejoin:miter;stroke-opacity:1"
   id="rect12382"
   width="8.6965351"
   height="1.2423621"
   x="294.65591"
   y="177.92685"
   rx="1.4315898"
   ry="1.2423621" />
   <path
   style="fill:#000000;fill-opacity:1;stroke:none"
   d="M 199.21875 123.71875 C 184.98016 123.71875 173.4375 135.26141 173.4375 149.5 C 173.4375 163.47363 184.56534 174.83142 198.4375 175.25 C 197.30314 173.54237 196.54777 171.55912 196.25 169.4375 C 187.25786 167.68824 180.46875 159.78501 180.46875 150.28125 C 180.46875 139.49444 189.21319 130.75 200 130.75 C 210.78681 130.75 219.53125 139.49444 219.53125 150.28125 C 219.53125 152.36352 219.19724 154.36815 218.59375 156.25 C 220.17311 157.43888 221.50594 158.94787 222.46875 160.6875 C 224.09802 157.30622 225 153.5046 225 149.5 C 225 135.26141 213.45734 123.71875 199.21875 123.71875 z "
   id="path12431-2-7" />
 </svg>
