<svg
	version="1.1"
	xmlns="http://www.w3.org/2000/svg"
	xmlns:xlink="http://www.w3.org/1999/xlink"
   x="0px"
   y="0px"
   width="512px"
   height="512px"
   viewBox="0 0 512 512"
   enable-background="new 0 0 512 512"
   id="casino-marker">
<path
   id="casino-marker-shell"
   d="M256,50c-93.061,0-168.5,75.44-168.5,168.5C87.5,313,169.43,375.333,256,462  c86.57-86.667,168.5-149,168.5-243.5C424.5,125.44,349.061,50,256,50z M256,336.958c-68.275,0-123.624-55.349-123.624-123.624  c0-68.276,55.349-123.625,123.624-123.625c68.276,0,123.625,55.348,123.625,123.625C379.625,281.609,324.276,336.958,256,336.958z" />
<path
   id="casino-marker-content"
   d="m 254.68718,134.71951 c 41.46087,0 75.07138,9.1663 75.07138,20.47396 0,5.24393 -7.22839,10.02708 -19.11537,13.64947 -13.74644,4.18832 -33.72257,6.8245 -55.95601,6.8245 -22.23344,0 -42.20958,-2.63618 -55.95601,-6.8245 -11.88698,-3.62239 -19.11537,-8.40554 -19.11537,-13.64947 0,-11.30766 33.61051,-20.47396 75.07138,-20.47396 z m 75.07138,143.3178 c 0,11.30766 -33.61094,20.47396 -75.07138,20.47396 -41.46087,0 -75.07138,-9.1663 -75.07138,-20.47396 l 0,-27.29849 c 0,11.30724 33.61051,20.47397 75.07138,20.47397 41.46044,0 75.07138,-9.16673 75.07094,-20.47397 l 4.4e-4,27.29849 z m 0,-40.94795 c 0,11.30767 -33.61051,20.47398 -75.07138,20.47398 -41.46087,0 -75.07138,-9.16631 -75.07138,-20.47398 l 0,-27.29849 c 0,11.30724 33.61051,20.47398 75.07138,20.47398 41.46087,0 75.07138,-9.16674 75.07094,-20.47398 l 4.4e-4,27.29849 z m 0,-40.94794 c 0,11.30724 -33.61051,20.47397 -75.07138,20.47397 -41.46045,0 -75.07138,-9.16673 -75.07138,-20.47397 l 0,-27.29848 c 0,11.30723 33.61051,20.47396 75.07138,20.47396 41.46087,0 75.07138,-9.16673 75.07138,-20.47396 l 0,27.29848 z"/>
 </svg>
