<svg
	version="1.1"
	xmlns="http://www.w3.org/2000/svg"
	xmlns:xlink="http://www.w3.org/1999/xlink"
   x="0px"
   y="0px"
   width="512px"
   height="512px"
   viewBox="0 0 512 512"
   enable-background="new 0 0 512 512"
   id="cemetery-marker">
<path
   id="cemetery-marker-shell"
   d="M 256,50 C 162.939,50 87.5,125.44 87.5,218.5 87.5,313 169.43,375.333 256,462 342.57,375.333 424.5,313 424.5,218.5 424.5,125.44 349.061,50 256,50 z m 0,286.958 c -68.275,0 -123.624,-55.349 -123.624,-123.624 0,-68.276 55.349,-123.625 123.624,-123.625 68.276,0 123.625,55.348 123.625,123.625 0,68.275 -55.349,123.624 -123.625,123.624 z"/>
<g
   transform="matrix(0.54446134,0,0,0.54446134,113.35401,58.496768)"
   id="g3011">
   <path
     style="fill:#000000;fill-rule:evenodd;stroke:#000000;stroke-width:0.50358194px;stroke-linecap:butt;stroke-linejoin:miter;stroke-opacity:1"
     d="M 198 146.3125 C 196.26165 146.3125 194.875 149.75006 194.875 154.03125 L 194.875 290.4375 C 194.875 294.71869 196.26165 298.15625 198 298.15625 L 309.71875 298.15625 C 311.4571 298.15625 312.875 294.71869 312.875 290.4375 L 312.875 154.03125 C 312.875 149.75006 311.4571 146.3125 309.71875 146.3125 L 198 146.3125 z M 215.875 187.53125 L 227.5625 187.53125 C 231.01309 187.53128 233.60291 188.41616 235.34375 190.1875 C 237.08454 191.9589 237.96873 194.42054 237.96875 197.59375 C 237.96873 199.99697 237.40573 201.95947 236.28125 203.5 C 235.15673 205.04057 233.59684 206.13417 231.65625 206.75 L 238.0625 220.6875 L 232.625 220.6875 L 226.71875 207.625 L 220.8125 207.625 L 220.8125 220.6875 L 215.875 220.6875 L 215.875 187.53125 z M 252.34375 187.53125 L 257.28125 187.53125 L 257.28125 220.6875 L 252.34375 220.6875 L 252.34375 187.53125 z M 272.90625 187.53125 L 284.59375 187.53125 C 286.10373 187.53128 287.50253 187.70946 288.78125 188.125 C 290.05993 188.54061 291.16949 189.16794 292.09375 190 C 293.01796 190.83212 293.74179 191.89309 294.25 193.15625 C 294.75816 194.41946 294.99998 195.8995 295 197.59375 C 294.99998 200.82907 294.05077 203.30596 292.15625 205.03125 C 290.26169 206.75657 287.73689 207.62501 284.59375 207.625 L 277.84375 207.625 L 277.84375 220.6875 L 272.90625 220.6875 L 272.90625 187.53125 z M 220.8125 192.46875 L 220.8125 202.71875 L 227.96875 202.71875 C 231.35822 202.71877 233.06248 201.04621 233.0625 197.71875 C 233.06248 194.20706 231.35822 192.46878 227.96875 192.46875 L 220.8125 192.46875 z M 277.84375 192.46875 L 277.84375 202.71875 L 285.03125 202.71875 C 288.42072 202.71877 290.09373 201.04621 290.09375 197.71875 C 290.09373 194.20706 288.42072 192.46878 285.03125 192.46875 L 277.84375 192.46875 z M 244.34375 214 C 245.05267 214.00001 245.67953 214.32189 246.21875 214.96875 C 246.75796 215.61563 247.03124 216.41974 247.03125 217.375 C 247.03124 218.26821 246.75796 219.05637 246.21875 219.71875 C 245.67953 220.38113 245.05267 220.6875 244.34375 220.6875 C 243.54268 220.6875 242.89961 220.38113 242.4375 219.71875 C 241.97538 219.05637 241.75 218.26821 241.75 217.375 C 241.75 216.41974 241.97538 215.61563 242.4375 214.96875 C 242.89961 214.32189 243.54268 214.00001 244.34375 214 z M 265.09375 214 C 265.80267 214.00001 266.42953 214.32189 266.96875 214.96875 C 267.50796 215.61563 267.78124 216.41974 267.78125 217.375 C 267.78124 218.26821 267.50796 219.05637 266.96875 219.71875 C 266.42953 220.38113 265.80267 220.6875 265.09375 220.6875 C 264.29268 220.6875 263.68086 220.38113 263.21875 219.71875 C 262.75663 219.05637 262.53125 218.26821 262.53125 217.375 C 262.53125 216.41974 262.75663 215.61563 263.21875 214.96875 C 263.68086 214.32189 264.29268 214.00001 265.09375 214 z "
     transform="matrix(1.8366777,0,0,1.8366777,-208.19478,-107.43971)"
     id="cemetery-marker-content" />
     <rect
     style="fill:#000000;fill-rule:evenodd;stroke:#000000;stroke-width:0.60891539px;stroke-linecap:butt;stroke-linejoin:miter;stroke-opacity:1"
     id="rect2986-1"
     width="217.02892"
     height="120.71207"
     x="149.71309"
     y="114.9072"
     rx="80.0158"
     ry="60.356037" />
   </g>
</svg>
