<svg
	version="1.1"
	xmlns="http://www.w3.org/2000/svg"
	xmlns:xlink="http://www.w3.org/1999/xlink"
   x="0px"
   y="0px"
   width="512px"
   height="512px"
   viewBox="0 0 512 512"
   enable-background="new 0 0 512 512"
   id="cityhall-marker">
   <path
     id="cityhall-marker-shell"
     d="M 256,50 C 162.939,50 87.5,125.44 87.5,218.5 87.5,313 169.43,375.333 256,462 342.57,375.333 424.5,313 424.5,218.5 424.5,125.44 349.061,50 256,50 z m 0,286.958 c -68.275,0 -123.624,-55.349 -123.624,-123.624 0,-68.276 55.349,-123.625 123.624,-123.625 68.276,0 123.625,55.348 123.625,123.625 0,68.275 -55.349,123.624 -123.625,123.624 z"/>
     <g
     id="cityhall-marker-content"
     transform="matrix(1.8333333,0,0,1.8333333,170.53884,120.125)">
     <path
       id="path6"
       d="m 83,27 -76,0 0,50 -6,0 0,13 88,0 0,-13 -6,0 0,-50 z M 30,77 20,77 20,41 c 0,-2.761 2.239,-5 5,-5 2.761,0 5,2.239 5,5 l 0,36 z m 20,0 -10,0 0,-36 c 0,-2.761 2.239,-5 5,-5 2.761,0 5,2.239 5,5 l 0,36 z m 20,0 -10,0 0,-36 c 0,-2.761 2.239,-5 5,-5 2.761,0 5,2.239 5,5 l 0,36 z"/>
       <polygon
       points="89.891,25 44.428,0 0.203,25 "
       id="polygon8" />
     </g>
</svg>
