<svg
	version="1.1"
	xmlns="http://www.w3.org/2000/svg"
	xmlns:xlink="http://www.w3.org/1999/xlink"
   x="0px"
   y="0px"
   width="512px"
   height="512px"
   viewBox="0 0 512 512"
   enable-background="new 0 0 512 512"
   id="clothingstore-marker">
<path
   id="clothingstore-marker-shell"
   d="M256,50c-93.061,0-168.5,75.44-168.5,168.5C87.5,313,169.43,375.333,256,462  c86.57-86.667,168.5-149,168.5-243.5C424.5,125.44,349.061,50,256,50z M256,336.958c-68.275,0-123.624-55.349-123.624-123.624  c0-68.276,55.349-123.625,123.624-123.625c68.276,0,123.625,55.348,123.625,123.625C379.625,281.609,324.276,336.958,256,336.958z" />
<path
   id="clothingstore-marker-content"
   d="m 312.25841,193.27146 0,94.93583 -112.51684,0 0,-94.93583 -21.09685,14.06428 -21.09684,-21.09686 42.19369,-42.1937 28.12943,-7.03213 c 0,11.65168 12.59371,21.09685 28.12899,21.09685 15.53528,0 28.12899,-9.44517 28.12899,-21.09685 l 28.12943,7.03213 42.1937,42.1937 -21.09685,21.09686 -21.09685,-14.06428 z"/>
 </svg>
