<svg
	version="1.1"
	xmlns="http://www.w3.org/2000/svg"
	xmlns:xlink="http://www.w3.org/1999/xlink"
   x="0px"
   y="0px"
   width="512px"
   height="512px"
   viewBox="0 0 512 512"
   enable-background="new 0 0 512 512"
   id="departmentstore-marker">
<path
   id="departmentstore-marker-shell"
   d="M 256,50 C 162.939,50 87.5,125.44 87.5,218.5 87.5,313 169.43,375.333 256,462 342.57,375.333 424.5,313 424.5,218.5 424.5,125.44 349.061,50 256,50 z m 0,286.958 c -68.275,0 -123.624,-55.349 -123.624,-123.624 0,-68.276 55.349,-123.625 123.624,-123.625 68.276,0 123.625,55.348 123.625,123.625 0,68.275 -55.349,123.624 -123.625,123.624 z"/>
<path
   id="departmentstore-marker-content"
   d="M 178.90925,193.16361 V 293.18344 H 329.0454 V 193.16361 H 178.90925 z m 14.89658,70.01389 v -55.11731 h 120.343 v 55.11731 h -120.343 z m 7.45722,-36.75878 11.65125,-11.65125 c 2.99505,-2.99293 7.4968,1.5318 4.5145,4.51452 l -11.65124,11.65125 c -2.99378,2.99208 -7.49681,-1.53095 -4.51451,-4.51452 z m 0.82484,15.34858 26.17541,-26.17541 c 2.99506,-2.99293 7.4968,1.5318 4.51451,4.51451 l -26.17541,26.1754 c -2.99421,2.99251 -7.49722,-1.53094 -4.51451,-4.5145 z m 36.76006,-115.63824 -7.57512,36.31868 h -0.0344 v 7.38019 c 0,7.79473 -6.31912,14.11386 -14.11385,14.11386 -7.79474,0 -14.11344,-6.31913 -14.11344,-14.11386 v -7.38019 l 21.63876,-36.31868 h 14.19813 z m -22.29718,0 -22.09375,36.31868 v 7.38019 c 0,7.79473 -6.31912,14.11386 -14.11386,14.11386 -7.79473,0 -14.11386,-6.31913 -14.11386,-14.11386 v -7.38019 l 35.60961,-36.31868 h 14.71186 z m 125.03243,36.31868 v 7.38019 c 0,7.79473 -6.31913,14.11386 -14.11386,14.11386 -7.79474,0 -14.11386,-6.31913 -14.11386,-14.11386 v -7.38019 l -22.09375,-36.31868 h 14.71186 l 35.60961,36.31868 z m -73.59756,0 h 0.0344 v 7.38019 c 0,7.79473 -6.31913,14.11386 -14.11386,14.11386 -7.79474,0 -14.11387,-6.31913 -14.11387,-14.11386 v -7.38019 h 0.0344 l 7.12014,-36.31868 h 13.91892 l 7.11971,36.31868 z m 15.17705,-36.31868 21.63876,36.31868 v 7.38019 c 0,7.79473 -6.31871,14.11386 -14.11344,14.11386 -7.79474,0 -14.11386,-6.31913 -14.11386,-14.11386 v -7.38019 h -0.0344 l -7.57512,-36.31868 h 14.19813 z"/>
</svg>
