<svg
	version="1.1"
	xmlns="http://www.w3.org/2000/svg"
	xmlns:xlink="http://www.w3.org/1999/xlink"
   x="0px"
   y="0px"
   width="512px"
   height="512px"
   viewBox="0 0 512 512"
   enable-background="new 0 0 512 512"
   id="doctor-marker">
   <path
     id="doctor-marker-shell"
     d="M 256,50 C 162.939,50 87.5,125.44 87.5,218.5 87.5,313 169.43,375.333 256,462 342.57,375.333 424.5,313 424.5,218.5 424.5,125.44 349.061,50 256,50 z m 0,286.958 c -68.275,0 -123.624,-55.349 -123.624,-123.624 0,-68.276 55.349,-123.625 123.624,-123.625 68.276,0 123.625,55.348 123.625,123.625 0,68.275 -55.349,123.624 -123.625,123.624 z"/>
     <path
     id="doctor-marker-content"
     d="m 335.00206,185.84827 c 0,-14.12607 -11.49119,-25.61726 -25.61726,-25.61726 -14.12609,0 -25.61727,11.49119 -25.61727,25.61726 0,12.24914 8.64828,22.50657 20.15621,25.01951 -0.0933,0.41126 -0.15064,0.83446 -0.15064,1.27202 l 0,50.06772 c 0,20.32835 -16.53621,36.86457 -36.85979,36.86457 -20.32596,0 -36.86217,-16.53622 -36.86217,-36.86457 l 0,-7.33322 c 20.71808,-2.83335 42.68906,-20.11795 42.68906,-34.95416 l 0,-61.95103 c 0,-11.95265 -7.2591,-22.23159 -17.59782,-26.68365 -1.49199,-4.96135 -6.04208,-8.60046 -11.4888,-8.60046 -6.65417,0 -12.05068,5.39412 -12.05068,12.05068 0,6.65418 5.39411,12.05068 12.05068,12.05068 3.46218,0 6.56093,-1.48003 8.75827,-3.81844 5.18131,3.02224 8.71044,8.57895 8.71044,15.00119 l 0,61.95343 c 0,8.27049 -19.48672,23.78335 -36.78567,23.78335 -17.29895,0 -36.78566,-15.51525 -36.78566,-23.78335 l 0,-61.95343 c 0,-6.4079 3.51478,-11.95504 8.67935,-14.98206 2.19734,2.32885 5.29131,3.79931 8.74393,3.79931 6.65417,0 12.05068,-5.39411 12.05068,-12.05068 0,-6.65417 -5.39412,-12.05068 -12.05068,-12.05068 -5.45868,0 -10.01355,3.65107 -11.49597,8.62676 -10.30764,4.46401 -17.54283,14.72622 -17.54283,26.65735 l 0,61.95343 c 0,14.79078 21.83469,32.01081 42.49539,34.92546 l 0,7.36191 c 0,26.73387 21.74862,48.48009 48.4777,48.48009 26.72909,0 48.48009,-21.74862 48.48009,-48.48248 l 0,-50.06772 c 0,-0.47342 -0.0718,-0.92771 -0.17933,-1.36766 11.32621,-2.64684 19.79277,-12.80624 19.79277,-24.92387 z m -25.61726,14.00175 c -7.72057,0 -14.00175,-6.28118 -14.00175,-14.00175 0,-7.72056 6.28118,-13.99935 14.00175,-13.99935 7.72056,0 14.00174,6.28118 14.00174,13.99935 0,7.72057 -6.28118,14.00175 -14.00174,14.00175 z"/>
</svg>
