<svg
	version="1.1"
	xmlns="http://www.w3.org/2000/svg"
	xmlns:xlink="http://www.w3.org/1999/xlink"
   x="0px"
   y="0px"
   width="512px"
   height="512px"
   viewBox="0 0 512 512"
   enable-background="new 0 0 512 512"
   id="electrician-marker">
<path
   id="electrician-marker-shell"
   d="M256,50c-93.061,0-168.5,75.44-168.5,168.5C87.5,313,169.43,375.333,256,462  c86.57-86.667,168.5-149,168.5-243.5C424.5,125.44,349.061,50,256,50z M256,336.958c-68.275,0-123.624-55.349-123.624-123.624  c0-68.276,55.349-123.625,123.624-123.625c68.276,0,123.625,55.348,123.625,123.625C379.625,281.609,324.276,336.958,256,336.958z" />
<path
   id="electrician-marker-content"
   d="m 240.8233,304.94423 0,-12.13105 27.72774,5.1989 0,6.93215 -27.72774,0 z m -13.86386,-22.5284 0,-12.13105 55.45503,6.93215 0,12.13061 -55.45503,-6.93171 z m 55.45503,-13.86387 -55.45459,-6.93171 0,-12.13106 55.45459,6.93215 0,12.13062 z m -27.7273,-150.76799 c 30.62686,0 55.45504,26.37975 55.45504,58.92068 0,21.80909 -27.72774,43.15587 -27.72774,51.03849 l 0,21.74605 -55.45459,-6.93172 0,-14.81433 c 0,-5.98125 -27.72775,-29.2294 -27.72775,-51.03849 0,-32.54093 24.82818,-58.92068 55.45504,-58.92068 z m -22.5284,45.05725 -5.19889,27.7273 8.66453,0 5.19889,-27.7273 -8.66453,0 z m 20.79514,0 -5.19845,27.7273 8.66453,0 5.19889,-27.7273 -8.66497,0 z m 20.79602,0 -5.19889,27.7273 8.66453,0 5.1989,-27.7273 -8.66454,0 z"/>
</svg>
