<svg
	version="1.1"
	xmlns="http://www.w3.org/2000/svg"
	xmlns:xlink="http://www.w3.org/1999/xlink"
   x="0px"
   y="0px"
   width="512px"
   height="512px"
   viewBox="0 0 512 512"
   enable-background="new 0 0 512 512"
   id="establishment-marker">
<path
   id="establishment-marker-shell"
   d="M 256,50 C 162.939,50 87.5,125.44 87.5,218.5 87.5,313 169.43,375.333 256,462 342.57,375.333 424.5,313 424.5,218.5 424.5,125.44 349.061,50 256,50 z m 0,286.958 c -68.275,0 -123.624,-55.349 -123.624,-123.624 0,-68.276 55.349,-123.625 123.624,-123.625 68.276,0 123.625,55.348 123.625,123.625 0,68.275 -55.349,123.624 -123.625,123.624 z"/>
<path
   id="establishment-marker-content"
   style="fill:#000000;fill-rule:evenodd;stroke:#000000;stroke-width:0.18978564px;stroke-linecap:butt;stroke-linejoin:miter;stroke-opacity:1"
   d="m 246.05357,121.72156 -2.68666,17.4662 -32.23984,0 0,10.74662 -10.74661,0 0,21.49322 10.74661,0 0,118.22458 -10.74661,0 0,10.74662 107.47206,0 0,-10.74662 -10.74662,0 0,-118.22458 10.74662,0 0,-21.49322 -10.74662,0 0,-10.74662 -32.23983,0 -2.68666,-17.4662 -16.12584,0 z m 4.03294,8.05995 8.05995,0 1.34631,9.40625 -10.75256,0 1.3463,-9.40625 z m -32.24577,14.77955 72.54556,0 0,5.37332 -72.54556,0 0,-5.37332 z m -10.74661,10.74661 94.04472,0 0,10.74662 -94.04472,0 0,-10.74662 z m 14.77956,22.83953 5.3733,0 0,9.40031 -5.3733,0 0,-9.40031 z m 10.7466,0 5.37331,0 0,9.40031 -5.37331,0 0,-9.40031 z m 10.74662,0 5.3733,0 0,9.40031 -5.3733,0 0,-9.40031 z m 16.11991,0 5.37925,0 0,9.40031 -5.3733,0 -0.005,-9.40031 z m 10.75256,0 5.3733,0 0,9.40031 -5.3733,0 0,-9.40031 z m 10.74661,0 5.3733,0 0,9.40031 -5.3733,0 0,-9.40031 z m -59.1123,16.11991 5.3733,0 0,9.40626 -5.3733,0 0,-9.40626 z m 10.7466,0 5.37331,0 0,9.40626 -5.37331,0 0,-9.40626 z m 10.74662,0 5.3733,0 0,9.40626 -5.3733,0 0,-9.40626 z m 16.12586,0 5.3733,0 0,9.40626 -5.37925,0 0.005,-9.40626 z m 10.74661,0 5.3733,0 0,9.40626 -5.3733,0 0,-9.40626 z m 10.74661,0 5.3733,0 0,9.40626 -5.3733,0 0,-9.40626 z m -59.1123,16.11993 26.86652,0 0,20.15285 -26.86652,0 0,-20.15285 z m 37.61313,0 26.87247,0 0,20.15285 -26.87247,0 0,-20.15285 z m -32.23983,4.03294 0,12.08697 16.11992,0 0,-12.08697 -16.11992,0 z m -5.3733,22.8395 26.86652,0 0,20.14694 -26.86652,0 0,-20.14694 z m 37.61313,0 26.87247,0 0,20.14694 -26.87247,0 0,-20.14694 z m -37.61313,26.86654 26.86652,0 0,20.15288 -26.86652,0 0,-20.15288 z m 37.61313,0 26.87247,0 0,20.15288 -26.87247,0 0,-20.15288 z"/>
</svg>
