<svg
	version="1.1"
	xmlns="http://www.w3.org/2000/svg"
	xmlns:xlink="http://www.w3.org/1999/xlink"
   x="0px"
   y="0px"
   width="512px"
   height="512px"
   viewBox="0 0 512 512"
   enable-background="new 0 0 512 512"
   id="fiance-marker">
<path
   id="fiance-marker-shell"
   d="M 256,50 C 162.939,50 87.5,125.44 87.5,218.5 87.5,313 169.43,375.333 256,462 342.57,375.333 424.5,313 424.5,218.5 424.5,125.44 349.061,50 256,50 z m 0,286.958 c -68.275,0 -123.624,-55.349 -123.624,-123.624 0,-68.276 55.349,-123.625 123.624,-123.625 68.276,0 123.625,55.348 123.625,123.625 0,68.275 -55.349,123.624 -123.625,123.624 z"/>
  <g
   id="fiance-marker-content"
   transform="matrix(4.2296867,0,0,4.2296867,94.964512,51.27127)">
   <path
     id="path12186"
     d="m 15.8332,47.5002 0,-7.3101 9.5,-8.5232 4.75,4.75 4.7499,-15.8333 9.5,11.0833 6.3333,-6.3333 -4.75,-4.75 12.6666,0 0,12.6666 -4.7499,-4.7499 -9.5,9.4999 -7.9166,-9.4999 -4.75,15.8332 -6.3333,-6.3333 -9.5,9.5 z"
     style="fill:#000000;fill-opacity:1;stroke-width:0.2;stroke-linejoin:round" />
     <path
     id="path12188"
     d="m 58.5833,55.4167 -4.75,0 0,-20.5834 4.75,4.75 0,15.8334 z m -9.5,0 -4.75,0 0,-11.0834 4.75,-4.7499 0,15.8333 z m -9.5,0 -4.75,0 0,-9.5 2.375,-9.5 2.375,3.1666 0,15.8334 z m -9.5,0 -4.75,0 0,-11.0834 4.75,4.75 0,6.3334 z m -9.5,0 -4.75,0 0,-1.5833 4.75,-4.75 0,6.3333 z"/>
   </g>
 </svg>
