<svg
	version="1.1"
	xmlns="http://www.w3.org/2000/svg"
	xmlns:xlink="http://www.w3.org/1999/xlink"
   x="0px"
   y="0px"
   width="512px"
   height="512px"
   viewBox="0 0 512 512"
   enable-background="new 0 0 512 512"
   id="food-marker">
<path
   id="food-marker-shell"
   d="M256,50c-93.061,0-168.5,75.44-168.5,168.5C87.5,313,169.43,375.333,256,462  c86.57-86.667,168.5-149,168.5-243.5C424.5,125.44,349.061,50,256,50z M256,336.958c-68.275,0-123.624-55.349-123.624-123.624  c0-68.276,55.349-123.625,123.624-123.625c68.276,0,123.625,55.348,123.625,123.625C379.625,281.609,324.276,336.958,256,336.958z" />
<path
   id="food-marker-content"
   d="m 289.36783,298.61287 c -18.7603,9.38016 -29.31297,-4.65348 -34.00304,-4.69007 -4.69008,-0.0376 -17.58778,14.07023 -36.34809,4.69007 -76.21372,-65.69762 -36.77441,-163.10157 30.49347,-142.75837 0.5736,-7.03324 2.52138,-17.15629 9.14096,-23.77587 13.36905,-13.36858 10.55266,0 10.55266,0 -9.34544,10.06443 -8.85298,19.24714 -8.88768,24.84614 65.39981,-22.5011 107.61048,75.99048 29.05172,141.6881 z M 207.29152,170.77175 c 0,0 -25.79542,19.93283 -21.10533,62.1435 0,0 8.20763,-56.28091 34.00303,-57.45343 l -12.8977,-4.69007 z"/>
</svg>
