<svg
	version="1.1"
	xmlns="http://www.w3.org/2000/svg"
	xmlns:xlink="http://www.w3.org/1999/xlink"
   x="0px"
   y="0px"
   width="512px"
   height="512px"
   viewBox="0 0 512 512"
   enable-background="new 0 0 512 512"
   id="foodstore-marker">
<path
   id="foodstore-marker-shell"
   d="M256,50c-93.061,0-168.5,75.44-168.5,168.5C87.5,313,169.43,375.333,256,462  c86.57-86.667,168.5-149,168.5-243.5C424.5,125.44,349.061,50,256,50z M256,336.958c-68.275,0-123.624-55.349-123.624-123.624  c0-68.276,55.349-123.625,123.624-123.625c68.276,0,123.625,55.348,123.625,123.625C379.625,281.609,324.276,336.958,256,336.958z" />
<path
   id="foodstore-marker-content"
   d="m 175.649,237.65033 c 0,0 -5.57289,-19.50531 39.01132,-18.11217 44.58386,-1.39314 39.01097,18.11217 39.01097,18.11217 l -78.02229,0 z m 0,27.86518 78.02229,0 c 0,0 5.57289,18.11217 -39.01132,16.71904 -44.58386,1.39313 -39.01097,-16.71904 -39.01097,-16.71904 z m 5.57325,-20.8988 66.87579,0 c 4.61692,0 8.35952,2.34947 8.35952,6.96639 0,4.61691 -3.7426,6.96638 -8.35952,6.96638 l -66.87579,0 c -4.61692,0 -8.35952,-2.34947 -8.35952,-6.96638 0,-4.61692 3.7426,-6.96639 8.35952,-6.96639 z m 89.16808,37.61784 -13.93277,-105.88712 48.48556,0 10.03107,-33.43808 11.14614,0 -10.03142,33.43808 7.2448,0 -13.93242,105.88712 -39.01096,0 z"/>
 </svg>
