<svg
	version="1.1"
	xmlns="http://www.w3.org/2000/svg"
	xmlns:xlink="http://www.w3.org/1999/xlink"
   x="0px"
   y="0px"
   width="512px"
   height="512px"
   viewBox="0 0 512 512"
   enable-background="new 0 0 512 512"
   id="generalcontractor-marker">
<path
   id="generalcontractor-marker-shell"
   d="M 256,50 C 162.939,50 87.5,125.44 87.5,218.5 87.5,313 169.43,375.333 256,462 342.57,375.333 424.5,313 424.5,218.5 424.5,125.44 349.061,50 256,50 z m 0,286.958 c -68.275,0 -123.624,-55.349 -123.624,-123.624 0,-68.276 55.349,-123.625 123.624,-123.625 68.276,0 123.625,55.348 123.625,123.625 0,68.275 -55.349,123.624 -123.625,123.624 z"/>
<path
   id="generalcontractor-marker-content"
   d="m 173.77728,278.91343 c -0.79366,-1.23553 -1.72549,-3.03792 -2.07071,-4.00533 -0.3452,-0.9674 -1.0558,-2.15363 -1.57908,-2.63607 -0.77931,-0.71847 -0.78149,-1.13372 -0.0122,-2.29537 2.34072,-3.53421 14.47593,-17.65832 24.69824,-28.74617 16.32466,-17.70691 28.52492,-29.14869 43.81367,-41.08986 5.89907,-4.60742 8.45436,-6.85587 8.97127,-7.89399 0.75527,-1.51687 2.30686,-2.85656 4.64254,-4.00853 0.98821,-0.48739 2.27563,-1.89751 4.52925,-4.961 1.73174,-2.35403 6.5162,-8.4483 10.63215,-13.54283 7.45966,-9.23317 7.48535,-9.27234 8.04369,-12.26324 0.30809,-1.65026 0.92616,-4.80659 1.37349,-7.01404 0.75329,-3.71717 0.71898,-4.07314 -0.46462,-4.8207 -1.82213,-1.15081 -7.42228,-2.6517 -12.18607,-3.26592 -2.24564,-0.28956 -9.04631,-0.37437 -15.11261,-0.18851 -6.06629,0.18588 -10.87376,0.1689 -10.68327,-0.0377 0.71378,-0.77421 15.31468,-11.21335 17.72197,-12.6706 3.48093,-2.10717 8.39288,-3.87038 12.74965,-4.57665 6.49124,-1.0523 16.15567,0.27016 22.15609,3.0318 1.02147,0.47014 2.67441,0.67286 3.7104,0.45505 1.02755,-0.21603 3.18693,-0.40841 4.79862,-0.42754 l 2.93036,-0.0347 11.80027,10.86155 11.80026,10.86154 0.11971,3.62448 0.11973,3.62449 2.53091,2.33334 c 4.2876,3.9529 8.0545,5.00628 12.31015,3.44243 l 2.04403,-0.75112 5.31102,4.89643 5.31102,4.89644 -14.01015,15.19642 -14.01016,15.19642 -5.31874,-4.90355 c -2.92531,-2.69695 -5.18816,-5.0452 -5.02854,-5.21832 0.15962,-0.17314 0.49464,-1.58345 0.74454,-3.13403 0.58321,-3.61903 -0.529,-6.49097 -3.95148,-10.20352 l -2.61488,-2.83648 -6.90336,1.8815 -6.90335,1.8815 -5.27285,5.06241 c -2.90005,2.78431 -7.42096,7.03533 -10.04646,9.4467 -2.6255,2.41136 -5.42554,5.04835 -6.2223,5.85998 -3.75123,3.82116 -10.3977,12.38606 -13.78811,17.76787 -13.78081,21.87516 -37.22671,49.58709 -61.73117,72.96323 l -4.18074,3.98826 -1.54306,-1.07465 c -0.84868,-0.59107 -2.9177,-1.64193 -4.59781,-2.33525 -3.82525,-1.57853 -12.32376,-8.74383 -14.63136,-12.33606 l 0,0 z"/>
 </svg>
