<svg
	version="1.1"
	xmlns="http://www.w3.org/2000/svg"
	xmlns:xlink="http://www.w3.org/1999/xlink"
   x="0px"
   y="0px"
   width="512px"
   height="512px"
   viewBox="0 0 512 512"
   enable-background="new 0 0 512 512"
   id="haircare-marker">
<path
   id="haircare-marker-shell"
   d="M256,50c-93.061,0-168.5,75.44-168.5,168.5C87.5,313,169.43,375.333,256,462  c86.57-86.667,168.5-149,168.5-243.5C424.5,125.44,349.061,50,256,50z M256,336.958c-68.275,0-123.624-55.349-123.624-123.624  c0-68.276,55.349-123.625,123.624-123.625c68.276,0,123.625,55.348,123.625,123.625C379.625,281.609,324.276,336.958,256,336.958z" />
<path
   id="haircare-marker-content"
   d="m 249.93442,228.55406 c -25.29675,12.13901 -51.00109,24.42605 -58.13471,27.84568 -13.46055,6.45037 -25.79297,-10.48412 -25.79297,-10.48412 l 60.15265,-28.83091 23.77503,11.46935 z m 88.15019,32.20176 c -7.03565,14.5849 -25.7934,20.16456 -41.81392,12.43888 -14.14594,-6.82274 -21.49966,-21.77195 -18.18733,-35.21979 1.89029,-7.67054 -2.16044,-8.71216 -8.33682,-11.69496 L 166.44528,176.4562 c 0,0 12.37482,-16.90311 25.81799,-10.42093 8.25625,3.98286 41.41779,19.93171 69.99128,33.75064 l 7.17602,-3.43957 c 6.1853,-2.96838 10.23856,-4.00026 8.36651,-11.67461 -3.27882,-13.45675 4.11138,-28.38728 18.2747,-35.17441 16.03833,-7.68751 34.78251,-2.06119 41.78253,12.54193 7.00003,14.60271 -0.49112,32.46431 -16.39543,40.42622 -11.83535,5.92489 -20.13443,1.31009 -31.88878,7.00383 -1.17862,0.57086 -2.40686,1.16633 -3.67242,1.77747 1.38899,0.67646 2.73386,1.33045 4.02019,1.95771 11.74205,5.72471 20.05131,1.12985 31.87182,7.08357 15.88437,8.0022 23.33014,25.88119 16.29492,40.46777 z m -45.38412,-77.07398 c 3.5579,7.42075 13.6582,10.00445 22.51499,5.75906 8.85764,-4.2454 13.16962,-13.73624 9.61384,-21.15824 -3.55832,-7.42202 -13.65778,-10.00488 -22.51584,-5.75948 -8.8585,4.24369 -13.17089,13.73496 -9.61299,21.15866 z m -26.62255,26.30361 c 0,-2.96244 -2.40176,-5.36421 -5.36421,-5.36421 -2.96286,0 -5.36463,2.40219 -5.36463,5.36421 0,2.96287 2.40177,5.36463 5.36463,5.36463 2.96245,0 5.36421,-2.40176 5.36421,-5.36463 z m 49.43697,23.31234 c -8.84704,-4.26745 -18.95285,-1.70793 -22.52983,5.70348 -3.57614,7.41439 0.71293,16.91668 9.56166,21.18371 8.84662,4.26658 18.952,1.70875 22.52941,-5.70521 3.57275,-7.41268 -0.7159,-16.91412 -9.56124,-21.18198 z"/>
 </svg>
