<svg
	version="1.1"
	xmlns="http://www.w3.org/2000/svg"
	xmlns:xlink="http://www.w3.org/1999/xlink"
   x="0px"
   y="0px"
   width="512px"
   height="512px"
   viewBox="0 0 512 512"
   enable-background="new 0 0 512 512"
   id="hardwarestore-marker">
<path
   id="hardwarestore-marker-shell"
   d="M256,50c-93.061,0-168.5,75.44-168.5,168.5C87.5,313,169.43,375.333,256,462  c86.57-86.667,168.5-149,168.5-243.5C424.5,125.44,349.061,50,256,50z M256,336.958c-68.275,0-123.624-55.349-123.624-123.624  c0-68.276,55.349-123.625,123.624-123.625c68.276,0,123.625,55.348,123.625,123.625C379.625,281.609,324.276,336.958,256,336.958z" />
<path
   id="hardwarestore-marker-content"
   d="m 210.58367,233.9339 c 4.43816,0 8.64834,0.97552 12.42804,2.72406 l 23.55562,-23.556 -8.84711,-8.84674 -8.38219,8.38219 -8.38181,-8.38219 3.48171,-3.4821 c -7.08172,-2.76786 -12.39434,-8.3938 -20.8162,-16.81566 -17.35996,-17.35995 -27.28517,-35.5805 -20.34156,-42.52411 6.94398,-6.94398 22.20089,0.0187 39.56084,17.37792 8.42187,8.42187 17.01143,16.69774 19.7793,23.77985 l 3.4821,-3.4821 8.38181,8.38182 -8.38181,8.38218 8.84673,8.84713 23.556,-23.55563 c -1.74853,-3.77969 -2.72406,-7.98988 -2.72406,-12.42804 0,-16.36683 13.26806,-29.63488 29.63527,-29.63488 3.82199,0 7.47516,0.7236 10.8296,2.04089 l -22.68378,22.68379 16.764,16.76438 22.68415,-22.68379 c 1.3173,3.35445 2.04089,7.00761 2.04089,10.82961 0,16.3672 -13.26804,29.63526 -29.63486,29.63526 -3.19349,0 -6.26867,-0.50498 -9.15071,-1.43971 l -24.55211,24.55212 34.49641,34.49642 2.09517,-2.09555 20.38535,20.38497 -12.57329,12.57328 -20.38496,-20.38534 2.09555,-2.09517 -34.49642,-34.49642 -24.55212,24.55211 c 0.93472,2.88204 1.43971,5.95722 1.43971,9.1507 0,16.36684 -13.26806,29.63489 -29.63526,29.63489 -3.82199,0 -7.47516,-0.7236 -10.82962,-2.04089 l 22.6838,-22.68418 -16.764,-16.764 -22.68417,22.6838 c -1.3173,-3.35445 -2.04089,-7.00762 -2.04089,-10.82962 0,-16.3672 13.26805,-29.63525 29.63488,-29.63525 z"/>
</svg>
