<svg
	version="1.1"
	xmlns="http://www.w3.org/2000/svg"
	xmlns:xlink="http://www.w3.org/1999/xlink"
   x="0px"
   y="0px"
   width="512px"
   height="512px"
   viewBox="0 0 512 512"
   enable-background="new 0 0 512 512"
   id="health-marker">
<path
   id="health-marker-shell"
   d="M256,50c-93.061,0-168.5,75.44-168.5,168.5C87.5,313,169.43,375.333,256,462  c86.57-86.667,168.5-149,168.5-243.5C424.5,125.44,349.061,50,256,50z M256,336.958c-68.275,0-123.624-55.349-123.624-123.624  c0-68.276,55.349-123.625,123.624-123.625c68.276,0,123.625,55.348,123.625,123.625C379.625,281.609,324.276,336.958,256,336.958z" />
<path
   id="health-marker-content"
   d="m 327.34066,165.14366 c -17.18165,-18.76384 -52.557,-10.7478 -72.99317,18.30753 -25.88322,-31.20819 -56.79783,-37.07137 -74.02892,-18.30753 -47.95772,52.2315 54.69389,127.30389 73.31147,135.74432 l 0.43211,0.24464 0,-0.24464 c 18.6011,-8.44043 121.23675,-83.51282 73.27851,-135.74432 z"/>
</svg>
