<svg
	 version="1.1"
	 xmlns="http://www.w3.org/2000/svg"
	 xmlns:xlink="http://www.w3.org/1999/xlink"
   x="0px"
   y="0px"
   width="512px"
   height="512px"
   viewBox="0 0 512 512"
   enable-background="new 0 0 512 512"
   id="hindutemple-marker">
   <path
     id="hindutemple-marker-shell"
     d="M 256,50 C 162.939,50 87.5,125.44 87.5,218.5 87.5,313 169.43,375.333 256,462 342.57,375.333 424.5,313 424.5,218.5 424.5,125.44 349.061,50 256,50 z m 0,286.958 c -68.275,0 -123.624,-55.349 -123.624,-123.624 0,-68.276 55.349,-123.625 123.624,-123.625 68.276,0 123.625,55.348 123.625,123.625 0,68.275 -55.349,123.624 -123.625,123.624 z"/>
       <g
       id="hindutemple-marker-content"
			 transform="matrix(1.8085376,0,0,1.8085376,158.91198,124.03893)">
       <path
         d="m 11.206,29.089 6.165,12.274 c 0,0 12.549,-9.412 20.035,-7.32 0,0 4.403,0.895 5.546,3.949 0,0 3.298,6.325 -5.803,9.114 0,0 -6.788,2.367 -13.925,-0.422 l 5.248,16.165 c 0,0 7.045,-3.816 13.375,0.22 0,0 8.672,5.451 1.621,15.956 0,0 -4.245,5.54 -13.994,5.54 0,0 -22.318,2.38 -26.647,-32.737 0,0 -3.791,14.288 4.878,29.892 0,0 8.185,16.051 25.651,16.087 0,0 18.513,0.862 21.045,-17.962 0,0 1.816,-9.026 -4.128,-18.935 0,0 9.191,2.973 15.081,-2.587 0,0 3.119,-2.349 7.266,-10.312 0,0 3.155,-5.651 7.522,-6.568 0,0 5.247,-1.504 8.329,3.339 0,0 3.357,6.55 2.422,13.21 0,0 -0.22,13.155 -13.154,16.953 0,0 -15.504,4.55 -16.513,-11.229 0,0 -1.816,1.835 -1.119,10.385 0,0 1.174,13.467 13.246,15.778 0,0 8.844,1.981 16.659,-6.422 0,0 6.936,-6.642 6.936,-19.705 0,0 0.881,-10.604 -4.513,-20.512 0,0 -4.697,-8.843 -13.467,-10.421 0,0 -7.486,-1.798 -13.871,3.89 0,0 -3.89,2.385 -9.504,13.98 0,0 -2.752,6.275 -8.183,6.165 0,0 -2.202,-0.073 -3.156,-1.064 0,0 -3.155,-1.725 -5.026,-1.761 0,0 6.678,-2.844 9.87,-11.192 0,0 3.156,-7.926 -1.174,-14.935 0,0 -3.413,-8.109 -18.054,-6.752 -0.001,0 -10.284,0.502 -18.664,7.939 z"
         id="path8" />
         <path
         d="m 43.299,6.362 c 0,0 2.129,12.917 18.054,14.678 0,0 9.981,0.771 19.155,-9.687 l 8.109,9.944 c 0,0 -8.146,9.137 -22.384,9.834 0,0 -10.385,1.798 -19.265,-9.651 10e-4,0 -5.43,-6.788 -3.669,-15.118 z"
         id="path10" />
         <polygon
         points="61.39,19.022 52.105,10.619 60.986,1.188 70.307,9.995 "
         id="polygon12" />
       </g>
</svg>
