<svg
	version="1.1"
	xmlns="http://www.w3.org/2000/svg"
	xmlns:xlink="http://www.w3.org/1999/xlink"
   x="0px"
   y="0px"
   width="512px"
   height="512px"
   viewBox="0 0 512 512"
   enable-background="new 0 0 512 512"
   id="hospital-marker">
<path
   id="hospital-marker-shell"
   d="M 256,50 C 162.939,50 87.5,125.44 87.5,218.5 87.5,313 169.43,375.333 256,462 342.57,375.333 424.5,313 424.5,218.5 424.5,125.44 349.061,50 256,50 z m 0,286.958 c -68.275,0 -123.624,-55.349 -123.624,-123.624 0,-68.276 55.349,-123.625 123.624,-123.625 68.276,0 123.625,55.348 123.625,123.625 0,68.275 -55.349,123.624 -123.625,123.624 z"/>
<g
   id="hospital-marker-content"
   transform="matrix(0.23826316,0,0,0.23826316,160.27309,89.736315)">
   <path
     id="path2890-1"
     d="m 406.01664,71.65311 c -23.50257,0 -42.57289,19.421182 -42.57289,43.35898 0,17.13791 9.78229,31.93962 23.95501,38.97343 l 0,17.00432 c 0,16.05738 -0.40044,21.21513 -1.65493,21.2244 -0.9102,0.007 -9.39996,0.89033 -18.86612,1.98591 -34.42478,3.98416 -67.37989,10.75482 -80.9671,16.63197 -3.53404,1.52866 -13.85998,4.20748 -22.96205,5.95772 -20.04746,3.85495 -30.35593,8.67495 -41.00072,19.15573 -16.99138,16.72963 -25.99608,36.17639 -28.29918,61.23215 l -0.57922,6.33008 6.12321,-0.82746 c 3.37294,-0.45603 12.87014,-2.57228 21.10027,-4.71653 28.74984,-7.49043 51.92743,-20.31585 61.35627,-33.96729 2.57679,-3.73078 12.34703,-7.24776 30.36783,-10.92249 15.50215,-3.16113 46.125,-7.29268 64.12826,-8.64698 l 11.91544,-0.9102 -0.33098,42.07641 -0.28961,42.03504 -9.63993,5.50262 c -42.4693,24.2302 -59.24623,45.43069 -59.24623,74.84388 0,26.92937 14.36598,48.3103 46.71019,69.38265 8.5997,5.60272 17.08945,10.85769 18.86612,11.6672 2.07164,0.9439 3.25497,2.60605 3.26848,4.59241 0.0119,1.70353 0.0282,20.48795 0.0413,41.7868 l 0.0413,38.7252 -5.00614,0.91021 c -19.14318,3.34814 -36.6076,17.05996 -45.13802,35.45672 -4.10407,8.85087 -5.54623,29.02557 -2.93749,40.87659 2.32993,10.58441 9.51018,25.02052 18.65925,37.35989 7.85665,10.59624 30.76281,34.33965 33.09846,34.33965 0.75122,0 1.24119,19.06349 1.24119,48.19962 l 0,48.19963 -5.25438,8.6056 c -6.5161,10.72573 -10.09099,21.25819 -8.48148,24.86522 1.13148,2.53575 1.37858,2.48327 7.44716,-1.36532 3.45598,-2.19171 6.29711,-3.55031 6.33008,-3.02023 0.033,0.53009 0.023,10.33499 -0.0413,21.80361 l -0.12405,20.85203 c -0.16736,28.13047 7.19328,56.2678 13.28075,83.94596 3.30577,9.67926 13.1497,9.82383 16.01138,0 5.77383,-27.98794 10.47722,-55.86313 10.50876,-83.94596 l 0.0413,-36.78066 0,-36.82204 12.53604,-12.86702 c 41.37941,-42.46959 41.28344,-65.85786 -0.41373,-98.21967 l -11.95682,-9.26757 -0.0828,-36.07732 c -0.05,-19.84252 -0.49878,-36.83928 0,-37.07027 1.90127,-0.88047 3.39381,-1.47736 6.28871,-2.44101 17.62117,-5.86572 40.11734,-15.86563 49.60631,-26.18916 7.87778,-8.57064 14.99703,-24.64633 16.67335,-37.60812 3.81294,-29.48274 -6.74671,-54.32379 -32.27099,-75.75409 -5.09717,-4.27961 -13.41968,-11.71903 -18.45239,-16.54923 -5.03273,-4.83019 -12.05262,-10.42865 -15.59765,-12.45329 l -6.41283,-3.68221 -0.28961,-39.71815 -0.28961,-39.71814 19.1971,-7.65402 c 54.87305,-21.87512 75.27104,-37.50887 84.77343,-64.9971 9.84361,-28.47529 -0.72511,-63.29778 -25.48582,-83.98733 -9.47894,-7.92042 -28.3629,-17.27697 -41.41444,-20.52105 -5.09716,-1.26694 -15.46885,-2.51042 -23.00343,-2.77199 l -13.69448,-0.49648 0.20686,-19.85908 0.12405,-17.12844 c 12.78076,-7.47808 21.38988,-21.47717 21.38988,-37.56675 l -0.33098,-5.54399 C 445.48619,87.846411 427.41999,71.65311 406.01651,71.65311 l 1.3e-4,0 z M 244.57891,236.64892 c 1.12076,0.0189 1.4212,0.68047 1.86179,2.06865 0.46827,1.47436 0.46666,4.71138 0,7.19891 -0.65672,3.50062 -1.94887,5.11407 -5.79223,7.0748 -6.70252,3.41937 -14.77018,4.9139 -14.77018,2.73062 0,-3.67447 3.16224,-11.97444 5.33712,-13.94272 1.27574,-1.15452 5.04646,-2.93402 8.35736,-3.93044 2.13762,-0.64333 3.5267,-1.04912 4.46829,-1.15845 0.19617,-0.0228 0.37775,-0.0441 0.53785,-0.0413 l 0,-6e-5 z m 182.53799,6.37145 10.26053,1.0757 c 20.07657,2.09838 35.06184,8.6483 39.51128,17.25257 1.19231,2.30565 2.26837,7.30415 2.35826,11.12936 0.15075,6.41461 -0.28106,7.3588 -5.13026,12.32917 -2.89169,2.96396 -10.01225,8.11385 -15.84588,11.41897 -5.83362,3.30511 -15.23745,8.01635 -20.8934,10.46739 l -10.26053,4.46829 0,-34.09141 0,-34.05004 z M 387.0264,390.3085 c 0.25676,1.1e-4 0.40544,0.13474 0.41373,0.41373 0.0228,0.76523 0.06,9.49787 0.0827,19.40397 0.0228,9.90609 -0.2216,18.2189 -0.49647,18.49377 -0.8899,0.88991 -9.88597,-9.24912 -12.08094,-13.61174 -2.81992,-5.60478 -2.68736,-9.09658 0.53785,-14.31509 2.5552,-4.13439 9.7457,-10.38538 11.54309,-10.38464 z m 40.91797,121.59546 5.70948,5.91635 c 8.06035,8.27346 11.80646,17.07496 12.20506,28.83703 0.29012,8.56086 -0.0344,9.92515 -2.93749,13.03252 -1.78365,1.90912 -4.71653,4.19944 -6.53695,5.13026 -1.82041,0.93081 -4.64034,2.11106 -6.24733,2.6065 l -2.93749,0.91021 -0.37236,-24.36874 c -0.21342,-13.39835 -0.0391,-26.10213 0.37236,-28.21643 l 0.74472,-3.8477 z m -41.08346,117.91325 -0.33099,32.39512 c -5.43314,-4.94445 -8.0927,-10.89186 -10.88112,-19.3626 -0.34529,-3.83022 -2.71263,-10.70883 11.21211,-13.03252 z m 44.80703,116.67206 c 5.42089,2.71449 5.49397,5.34971 5.8336,9.06071 -1.43976,4.95989 -2.86279,7.0344 -5.66811,9.92953 l -0.16549,-18.99024 z"
     style="fill:#666666;filter:url(#filter3737)"/>
     <path
     id="path2890"
     d="m 396.4531,60.691114 c -23.50257,0 -42.57289,19.421182 -42.57289,43.358976 0,17.13791 9.78229,31.93962 23.95501,38.97343 l 0,17.00433 c 0,16.05737 -0.40044,21.21512 -1.65493,21.22439 -0.9102,0.007 -9.39996,0.89033 -18.86612,1.98591 -34.42478,3.98416 -67.37989,10.75482 -80.9671,16.63197 -3.53404,1.52866 -13.85998,4.20748 -22.96205,5.95772 -20.04746,3.85495 -30.35593,8.67495 -41.00072,19.15573 -16.99138,16.72963 -25.99608,36.17639 -28.29918,61.23215 l -0.57922,6.33008 6.12321,-0.82746 c 3.37294,-0.45603 12.87014,-2.57228 21.10027,-4.71653 28.74984,-7.49043 51.92743,-20.31585 61.35627,-33.96729 2.57679,-3.73078 12.34703,-7.24776 30.36783,-10.92249 15.50215,-3.16113 46.125,-7.29268 64.12826,-8.64698 l 11.91544,-0.9102 -0.33098,42.07641 -0.28961,42.03504 -9.63993,5.50262 c -42.4693,24.2302 -59.24623,45.43069 -59.24623,74.84388 0,26.92937 14.36598,48.3103 46.71019,69.38265 8.5997,5.60272 17.08945,10.85769 18.86612,11.6672 2.07164,0.9439 3.25497,2.60605 3.26848,4.59241 0.0119,1.70353 0.0282,20.48795 0.0413,41.7868 l 0.0413,38.7252 -5.00614,0.91021 c -19.14318,3.34814 -36.6076,17.05996 -45.13802,35.45672 -4.10407,8.85087 -5.54623,29.02557 -2.93749,40.87659 2.32993,10.58441 9.51018,25.02052 18.65925,37.35989 7.85665,10.59624 30.76281,34.33965 33.09846,34.33965 0.75122,0 1.24119,19.06349 1.24119,48.19962 l 0,48.19963 -5.25438,8.6056 c -6.5161,10.72573 -10.09099,21.25819 -8.48148,24.86522 1.13148,2.53575 1.37858,2.48327 7.44716,-1.36532 3.45598,-2.19171 6.29711,-3.55031 6.33008,-3.02023 0.033,0.53009 0.023,10.33499 -0.0413,21.80361 l -0.12405,20.85203 c -0.16736,28.13047 7.19328,56.2678 13.28075,83.94596 3.30577,9.67926 13.1497,9.82383 16.01138,0 5.77383,-27.98794 10.47722,-55.86313 10.50876,-83.94596 l 0.0413,-36.78066 0,-36.82204 12.53604,-12.86702 c 41.37941,-42.46959 41.28344,-65.85786 -0.41373,-98.21967 l -11.95682,-9.26757 -0.0828,-36.07732 c -0.05,-19.84252 -0.49878,-36.83928 0,-37.07027 1.90127,-0.88047 3.39381,-1.47736 6.28871,-2.44101 17.62117,-5.86572 40.11734,-15.86563 49.60631,-26.18916 7.87778,-8.57064 14.99703,-24.64633 16.67335,-37.60812 3.81294,-29.48274 -6.74671,-54.32379 -32.27099,-75.75409 -5.09717,-4.27961 -13.41968,-11.71903 -18.45239,-16.54923 -5.03273,-4.83019 -12.05262,-10.42865 -15.59765,-12.45329 l -6.41283,-3.68221 -0.28961,-39.71815 -0.28961,-39.71814 19.1971,-7.65402 c 54.87305,-21.87512 75.27104,-37.50887 84.77343,-64.9971 9.84361,-28.47529 -0.72511,-63.29778 -25.48582,-83.98733 -9.47894,-7.92042 -28.3629,-17.27697 -41.41444,-20.52105 -5.09716,-1.26694 -15.46885,-2.51042 -23.00343,-2.77199 l -13.69448,-0.49648 0.20686,-19.85907 0.12405,-17.12845 c 12.78076,-7.47808 21.38988,-21.47717 21.38988,-37.56675 l -0.33098,-5.543989 C 435.92265,76.884415 417.85645,60.691114 396.45297,60.691114 l 1.3e-4,0 z M 235.01537,225.68692 c 1.12076,0.0189 1.4212,0.68047 1.86179,2.06865 0.46827,1.47436 0.46666,4.71138 0,7.19891 -0.65672,3.50062 -1.94887,5.11407 -5.79223,7.0748 -6.70252,3.41937 -14.77018,4.9139 -14.77018,2.73062 0,-3.67447 3.16224,-11.97444 5.33712,-13.94272 1.27574,-1.15452 5.04646,-2.93402 8.35736,-3.93044 2.13762,-0.64333 3.5267,-1.04912 4.46829,-1.15845 0.19617,-0.0228 0.37775,-0.0441 0.53785,-0.0413 l 0,-6e-5 z m 182.53799,6.37145 10.26053,1.0757 c 20.07657,2.09838 35.06184,8.6483 39.51128,17.25257 1.19231,2.30565 2.26837,7.30415 2.35826,11.12936 0.15075,6.41461 -0.28106,7.3588 -5.13026,12.32917 -2.89169,2.96396 -10.01225,8.11385 -15.84588,11.41897 -5.83362,3.30511 -15.23745,8.01635 -20.8934,10.46739 l -10.26053,4.46829 0,-34.09141 0,-34.05004 z m -40.0905,147.28813 c 0.25676,1.1e-4 0.40544,0.13474 0.41373,0.41373 0.0228,0.76523 0.06,9.49787 0.0827,19.40397 0.0228,9.90609 -0.2216,18.2189 -0.49647,18.49377 -0.8899,0.88991 -9.88597,-9.24912 -12.08094,-13.61174 -2.81992,-5.60478 -2.68736,-9.09658 0.53785,-14.31509 2.5552,-4.13439 9.7457,-10.38538 11.54309,-10.38464 z m 40.91797,121.59546 5.70948,5.91635 c 8.06035,8.27346 11.80646,17.07496 12.20506,28.83703 0.29012,8.56086 -0.0344,9.92515 -2.93749,13.03252 -1.78365,1.90912 -4.71653,4.19944 -6.53695,5.13026 -1.82041,0.93081 -4.64034,2.11106 -6.24733,2.6065 l -2.93749,0.91021 -0.37236,-24.36874 c -0.21342,-13.39835 -0.0391,-26.10213 0.37236,-28.21643 l 0.74472,-3.8477 z m -41.08346,117.91325 -0.33099,32.39512 c -5.43314,-4.94445 -8.0927,-10.89186 -10.88112,-19.3626 -0.34529,-3.83022 -2.71263,-10.70883 11.21211,-13.03252 z m 44.80703,116.67206 c 5.42089,2.71449 5.49397,5.34971 5.8336,9.06071 -1.43976,4.95989 -2.86279,7.0344 -5.66811,9.92953 l -0.16549,-18.99024 z"/>
   </g>
</svg>
