<svg
	version="1.1"
	xmlns="http://www.w3.org/2000/svg"
	xmlns:xlink="http://www.w3.org/1999/xlink"
   x="0px"
   y="0px"
   width="512px"
   height="512px"
   viewBox="0 0 512 512"
   enable-background="new 0 0 512 512"
   id="jewlery-marker">
<path
   id="jewlery-marker-shell"
   d="M256,50c-93.061,0-168.5,75.44-168.5,168.5C87.5,313,169.43,375.333,256,462  c86.57-86.667,168.5-149,168.5-243.5C424.5,125.44,349.061,50,256,50z M256,336.958c-68.275,0-123.624-55.349-123.624-123.624  c0-68.276,55.349-123.625,123.624-123.625c68.276,0,123.625,55.348,123.625,123.625C379.625,281.609,324.276,336.958,256,336.958z" />
<path
   id="jewlery-marker-content"
   d="m 326.01707,239.92769 c 0,39.3945 -31.93539,71.32989 -71.32989,71.32989 -39.3945,0 -71.32988,-31.93539 -71.32988,-71.32989 0,-35.22979 25.54069,-64.49451 59.1159,-70.28799 l -26.69315,-25.35844 0,-6.4848 19.45356,-21.07456 38.90713,0 19.45357,21.07456 0,6.4848 -26.69315,25.35844 c 33.57522,5.79348 59.11591,35.0582 59.11591,70.28799 z m -71.32989,-51.8759 c -28.65039,0 -51.87631,23.22551 -51.87631,51.8759 0,28.6504 23.22592,51.87632 51.87631,51.87632 28.6504,0 51.87631,-23.22592 51.87631,-51.87632 0,-28.65039 -23.22591,-51.8759 -51.87631,-51.8759 z m 3.24199,-29.18036 19.45356,-16.21117 -12.96877,0 -6.48479,16.21117 z m 9.72719,-22.69596 1.62099,-12.96877 -11.34818,8.10538 9.72719,4.86339 z m -16.21158,22.69596 -6.48438,-16.21117 -12.96918,0 19.45356,16.21117 z m -9.72678,-22.69596 9.72678,-4.86339 -11.34777,-8.10579 1.62099,12.96918 z"/>
</svg>
