<svg
	 version="1.1"
	 xmlns="http://www.w3.org/2000/svg"
	 xmlns:xlink="http://www.w3.org/1999/xlink"
   x="0px"
   y="0px"
   width="512px"
   height="512px"
   viewBox="0 0 512 512"
   enable-background="new 0 0 512 512"
   id="laundry-marker">
<path
   id="laundry-marker-shell"
   d="M 256,50 C 162.939,50 87.5,125.44 87.5,218.5 87.5,313 169.43,375.333 256,462 342.57,375.333 424.5,313 424.5,218.5 424.5,125.44 349.061,50 256,50 z m 0,286.958 c -68.275,0 -123.624,-55.349 -123.624,-123.624 0,-68.276 55.349,-123.625 123.624,-123.625 68.276,0 123.625,55.348 123.625,123.625 0,68.275 -55.349,123.624 -123.625,123.624 z"/>
<path
      id="laundry-marker-content"
      d="m 184.016,139.29033 c -3.71639,0 -6.71395,3.30483 -6.71395,7.4091 l 0,133.9798 c 0,4.10429 2.99756,7.40912 6.71395,7.40912 l 140.20979,0 c 3.71639,0 6.70515,-3.30483 6.70515,-7.40912 l 0,-133.9798 c 0,-4.10427 -2.98876,-7.4091 -6.70515,-7.4091 l -140.20979,0 z m 4.16212,4.01253 131.88555,0 c 3.49583,0 6.30918,3.10844 6.30918,6.96913 l 0,126.02515 c 0,3.86071 -2.81335,6.96912 -6.30918,6.96912 l -131.88555,0 c -3.49583,0 -6.30918,-3.10841 -6.30918,-6.96912 l 0,-126.02515 c 0,-3.86069 2.81335,-6.96913 6.30918,-6.96913 z"/>
   <path
   id="timerdial"
   d="m 204.28572,360.93362 a 21.428572,21.428572 0 1 1 -42.85714,0 21.428572,21.428572 0 1 1 42.85714,0 z"
   transform="matrix(0.28158111,0,0,0.28158111,143.90075,55.336417)" />
   <path
   id="startdial"
   d="m 204.28572,360.93362 a 21.428572,21.428572 0 1 1 -42.85714,0 21.428572,21.428572 0 1 1 42.85714,0 z"
   transform="matrix(0.28158111,0,0,0.28158111,161.19787,55.336417)" />
   <rect
   id="vertical"
   width="2.0076504"
   height="148.02757"
   x="296.76093"
   y="139.47205"
   rx="1.0038252"
   ry="7.1632471" />
   <rect
   id="horizontal"
   width="149.61536"
   height="1.1377596"
   x="180.55307"
   y="172.08258"
   rx="1.0038252"
   ry="1.1377596" />
   <path
   id="water"
   d="m 197.23119,204.75977 c -3.32804,6.39544 -5.20925,13.65688 -5.20925,21.36497 0,25.60598 20.75812,46.36408 46.36409,46.36408 25.60596,0 46.36409,-20.7581 46.36409,-46.36408 0,-0.30597 -0.0118,-0.61058 -0.0174,-0.91514 -1.65542,2.55847 -4.31582,4.40497 -7.4267,4.97165 0.0846,-0.0452 0.17089,-0.0863 0.25517,-0.13198 -0.81538,0.19818 -1.66072,0.29811 -2.53423,0.30797 -4.3377,-0.0935 -8.07397,-2.63341 -9.87294,-6.30038 -0.54061,1.03828 -1.24476,1.98072 -2.06785,2.79824 -2.00241,1.82603 -4.66169,2.94779 -7.58509,2.94779 -2.73647,0 -5.24593,-0.9821 -7.19792,-2.60463 -0.0256,-0.0506 -0.0543,-0.0989 -0.0792,-0.1496 -0.011,0.0212 -0.0241,0.0408 -0.0352,0.0616 -1.16762,-0.99598 -2.12425,-2.22483 -2.80701,-3.61657 -0.99542,1.91174 -2.52745,3.5025 -4.39091,4.57569 -1.56997,0.82988 -3.36286,1.30231 -5.26204,1.30231 -4.44283,0 -8.28623,-2.57235 -10.11932,-6.30916 -1.0562,2.02871 -2.71411,3.69823 -4.73408,4.76928 -0.22445,0.11886 -0.45324,0.23067 -0.68636,0.33438 -0.21877,0.0977 -0.44289,0.18908 -0.66875,0.27279 -0.0148,0.006 -0.0292,0.0122 -0.044,0.0176 -0.0148,0.005 -0.0291,0.0123 -0.044,0.0176 -0.14185,0.0512 -0.28675,0.0862 -0.43117,0.13197 -0.13726,0.0422 -0.27413,0.086 -0.41358,0.12319 -0.006,0.002 -0.0113,0.006 -0.0176,0.009 -0.19193,0.0522 -0.38491,0.0987 -0.58076,0.14079 l -0.0176,0 c -0.11036,0.0236 -0.22286,0.0416 -0.33438,0.0616 -0.63765,0.11223 -1.29257,0.17598 -1.96227,0.17598 -4.44283,0 -8.28623,-2.57261 -10.11932,-6.30916 -1.87769,3.60618 -5.6491,6.07156 -9.99613,6.07156 -1.15793,0 -2.27568,-0.18396 -3.32618,-0.51033 -0.044,-0.8281 -0.0704,-1.65998 -0.0704,-2.49904 0,-7.60179 1.82573,-14.77884 5.06846,-21.10979 z"/>
   <path
      id="door"
      d="m 238.51927,181.49036 c -25.60596,0 -46.36409,20.75813 -46.36409,46.36409 0,25.60597 20.75813,46.36405 46.36409,46.36405 25.60596,0 46.36409,-20.75808 46.36409,-46.36405 0,-25.60596 -20.75813,-46.36409 -46.36409,-46.36409 z m -0.40477,6.11559 c 22.27353,0 40.33651,18.05415 40.33651,40.32769 0,22.27356 -18.06298,40.33646 -40.33651,40.33646 -22.27355,0 -40.32769,-18.0629 -40.32769,-40.33646 0,-22.27354 18.05414,-40.32769 40.32769,-40.32769 z"/>
</svg>
