<svg
	version="1.1"
	xmlns="http://www.w3.org/2000/svg"
	xmlns:xlink="http://www.w3.org/1999/xlink"
   x="0px"
   y="0px"
   width="512px"
   height="512px"
   viewBox="0 0 512 512"
   enable-background="new 0 0 512 512"
   id="library-marker">
<path
   id="library-marker-shell"
   d="M 256,50 C 162.939,50 87.5,125.44 87.5,218.5 87.5,313 169.43,375.333 256,462 342.57,375.333 424.5,313 424.5,218.5 424.5,125.44 349.061,50 256,50 z m 0,286.958 c -68.275,0 -123.624,-55.349 -123.624,-123.624 0,-68.276 55.349,-123.625 123.624,-123.625 68.276,0 123.625,55.348 123.625,123.625 0,68.275 -55.349,123.624 -123.625,123.624 z"/>
<path
      id="library-marker-content"
      d="m 320.39605,182.51137 -9.57249,-5.79316 -0.37375,-6.47673 c -0.35899,-6.26282 -0.53111,-6.54558 -5.17597,-8.49796 -5.19565,-2.18104 -5.57678,-3.10312 -3.42525,-8.3504 2.48595,-6.06611 2.62119,-6.90951 3.13264,-18.9286 0.60734,-14.30093 1.17535,-13.79932 -16.75985,-14.86894 -7.05457,-0.42048 -23.78737,-1.59829 -37.18835,-2.61872 -13.40099,-1.02045 -25.27254,-1.56633 -26.3815,-1.21471 -1.74091,0.55571 -21.53994,39.75299 -28.68303,56.79069 -1.73599,4.13832 -5.01616,7.76274 -13.27313,14.65994 -6.03413,5.03828 -11.16585,9.77165 -11.40437,10.51917 -0.5852,1.8245 7.16523,4.98172 32.63694,13.30017 11.75845,3.84078 24.12669,7.98403 27.48801,9.21102 3.36131,1.227 7.29063,2.56218 8.73154,2.96789 2.00155,0.56062 2.73429,1.88597 3.08592,5.57924 0.25326,2.66544 0.007,4.84648 -0.54341,4.84648 -2.36546,0 -67.54344,-22.47924 -68.23439,-23.53164 -0.4549,-0.69095 -1.12864,-0.57047 -1.66467,0.29507 -1.37453,2.22285 0.27539,3.22607 12.19858,7.41357 6.04643,2.12204 13.74524,5.0973 17.10409,6.61197 3.35885,1.50977 8.85694,3.63671 12.2158,4.72109 22.16203,7.148 21.85713,6.8849 22.42267,19.33184 0.37376,8.22747 0.16229,9.6856 -1.26633,8.81023 -0.94422,-0.57783 -9.38806,-6.85787 -18.7663,-13.95178 -9.37823,-7.09392 -19.69331,-14.70174 -22.92429,-16.90492 l -5.87677,-4.01045 0.37622,6.45705 0.38113,6.45215 10.33966,4.14324 c 8.68974,3.48181 15.07303,7.27588 21.34076,12.68299 1.21223,1.04504 -1.58845,0.28032 -13.35673,-3.63917 -12.0535,-4.02029 -14.93042,-5.54235 -14.26159,-7.55127 0.5262,-1.57123 0.32212,-1.59336 -1.42125,-0.1549 -3.14247,2.59904 -2.45398,5.13171 2.87199,10.55604 l 4.90058,4.99402 -3.41294,3.26787 c -2.45153,2.35071 -5.05057,4.09898 -6.43248,4.5588 l -0.44998,2.22038 7.41849,3.76949 c 4.08177,2.07284 8.00372,3.76949 8.71433,3.76949 2.22285,0 17.72865,6.58246 22.50875,9.55526 2.50807,1.55896 5.09975,2.50317 5.76119,2.09253 0.66144,-0.41064 3.29492,0.32458 5.85218,1.62779 2.55971,1.30567 7.22669,2.75888 10.37162,3.23346 3.14493,0.46718 6.5087,1.48516 7.47505,2.24988 1.73352,1.3819 3.62195,14.22226 2.09252,14.22226 -0.44014,0 -11.48797,-3.89244 -24.56192,-8.6504 -13.07149,-4.75796 -27.20032,-9.81837 -31.40011,-11.24208 -4.8514,-1.64745 -7.63488,-3.26541 -7.63488,-4.4383 0,-1.54665 -0.33686,-1.50731 -2.09497,0.24834 -1.83926,1.83926 -1.87614,2.31136 -0.30737,3.8826 1.68926,1.68927 65.13372,26.32003 67.75244,26.30282 0.67374,-0.006 6.17183,-5.35548 12.22318,-11.88631 6.04643,-6.53329 17.33522,-18.48845 25.09304,-26.56592 7.75537,-8.07501 16.4574,-17.43112 19.34168,-20.78751 2.88675,-3.36132 6.98573,-6.94638 9.11267,-7.96682 3.77441,-1.81221 3.86784,-2.06056 3.86784,-10.05444 0,-7.12095 -0.36145,-8.45369 -2.75396,-10.12082 -3.69819,-2.59659 -3.48426,-3.43015 1.52943,-5.81775 l 4.27357,-2.03841 v -13.31002 c 0.0126,-15.1345 0.9811,-13.49934 -13.01248,-21.9727 z m -95.20357,92.7373 c -3.29492,-2.98265 -11.097,-10.26836 -17.33768,-16.18938 -6.24068,-5.91856 -11.08962,-10.76752 -10.77734,-10.76752 0.31227,0 4.70386,1.91057 9.7569,4.24898 5.60382,2.58922 11.86664,6.75705 16.04923,10.68883 5.8497,5.49317 6.96851,7.2562 7.58076,11.9404 l 0.72047,5.49563 -5.99234,-5.41694 z m 52.87366,-70.43265 c -1.47041,-0.19671 -8.98973,-0.91962 -16.7205,-1.60811 v -0.003 c -7.72831,-0.68849 -24.78322,-2.19333 -37.90143,-3.34165 l -23.85376,-2.08514 0.0344,-8.42418 0.0295,-8.42418 4.88829,0.68603 c 4.98418,0.69834 48.28044,4.78747 65.96483,6.23085 l 9.77658,0.79668 0.22622,8.26189 c 0.21637,7.84635 0.0909,8.24223 -2.44416,7.91028 z"/>
</svg>
