<svg
	version="1.1"
	xmlns="http://www.w3.org/2000/svg"
	xmlns:xlink="http://www.w3.org/1999/xlink"
   x="0px"
   y="0px"
   width="512px"
   height="512px"
   viewBox="0 0 512 512"
   enable-background="new 0 0 512 512"
   id="liquorstore-marker">
   <path
     id="liquorstore-marker-shell"
     d="M 256,50 C 162.939,50 87.5,125.44 87.5,218.5 87.5,313 169.43,375.333 256,462 342.57,375.333 424.5,313 424.5,218.5 424.5,125.44 349.061,50 256,50 z m 0,286.958 c -68.275,0 -123.624,-55.349 -123.624,-123.624 0,-68.276 55.349,-123.625 123.624,-123.625 68.276,0 123.625,55.348 123.625,123.625 0,68.275 -55.349,123.624 -123.625,123.624 z"/>
     <g
     transform="matrix(2.2867647,0,0,2.2867647,135.66176,98.194853)"
     id="liquorstore-marker-content">
     <path
              id="path6"
              d="M 83.8,23 C 81.4,15.1 51.3,15 50,15 48.7,15 18.5,15.1 16.2,23 l -0.2,0 0,40 0,0 0,20 0.8,0.6 C 17.2,83.9 26,90 50,90 74,90 82.8,83.9 83.2,83.6 L 84,83 84,63 83.2,63 84,63 84,23 83.8,23 Z M 67.5,84.7 80,72.1 80,74.9 70.9,84 c -1.1,0.2 -2.2,0.4 -3.4,0.7 z M 52.6,86 63.3,75.3 c 0.9,-0.1 1.8,-0.2 2.6,-0.4 L 55,85.9 c -0.8,0 -1.6,0.1 -2.4,0.1 z m -13,-0.5 9.6,-9.6 c 0.3,0 0.6,0 0.9,0 0.7,0 1.3,0 1.9,0 l -9.8,9.8 c -0.9,0 -1.8,-0.1 -2.6,-0.2 z m -11.7,-1.8 8.5,-8.5 c 0.8,0.1 1.6,0.2 2.5,0.3 l -8.7,8.7 C 29.4,84 28.6,83.8 27.9,83.7 Z M 22.2,81.9 30,74.1 c 0.8,0.2 1.7,0.4 2.7,0.6 l -8.1,8.1 C 23.7,82.4 22.9,82.1 22.2,81.9 Z M 69,56.9 C 63.7,59.8 57.5,62.1 51.5,61 l 0,-14.5 c 0,-0.5 0.5,-1 1,-1 l 15.5,0 c 0.5,0 1,0.5 1,1 l 0,10.4 z M 47.5,59.8 C 46.3,59.2 45,58.4 43.9,57.4 l 3.6,-3.6 0,6 z M 44.9,50.7 41,54.6 C 34,47.7 28.5,46.1 24.7,46.2 l 7.8,-7.8 c 0.3,-0.3 0.6,-0.3 0.7,-0.3 0.2,0 0.5,0 0.7,0.3 l 11,11 c 0.4,0.2 0.4,0.9 0,1.3 z M 20,69.7 c 0.6,0.4 1.2,0.9 1.9,1.3 l -1.9,1.9 0,-3.2 z m 0,7.4 c 0,0 0,0 0,0 l 4.8,-4.8 c 0.6,0.3 1.3,0.5 2,0.8 l -6.8,6.8 0,-2.8 z m 22.8,-1.3 c 0.7,0 1.4,0.1 2.2,0.1 l -9,9 C 35.9,85 35.9,85 35.9,85.1 35.2,85 34.5,84.9 33.9,84.8 l 8.9,-9 z m 13.5,0 c 0.8,0 1.6,-0.1 2.4,-0.1 L 48.4,85.9 c 0,0 0,0 0,0 -0.8,0 -1.5,0 -2.2,0 L 56.3,75.8 Z m 15.2,-2.2 c 1.6,-0.5 3,-1 4.3,-1.5 L 62.9,84.9 c -0.1,0.1 -0.2,0.3 -0.3,0.4 -1,0.1 -2.1,0.2 -3.2,0.3 l 12.1,-12 z M 80,49 c -1.3,1.2 -3.8,3.3 -7,5.5 l 0,-8 c 0,-2.8 -2.2,-5 -5,-5 l -15.5,0 c -2.6,0 -4.8,2.1 -5,4.7 L 36.8,35.5 C 35.9,34.6 34.6,34 33.3,34 32,34 30.7,34.5 29.8,35.5 L 20,45.2 20,28.7 C 28.8,33 48.9,33 50,33 51.1,33 71.2,32.9 80,28.7 L 80,49 Z M 50,19 c 18,0 28.6,3.1 29.9,5 -1.3,1.9 -12,5 -29.9,5 C 32.1,29 21.4,25.9 20.1,24 21.4,22.1 32,19 50,19 Z m 26.9,63.2 3.1,-3.1 0,1.7 c -0.6,0.4 -1.7,0.9 -3.1,1.4 z"/>
     </g>
</svg>
