<svg
	version="1.1"
	xmlns="http://www.w3.org/2000/svg"
	xmlns:xlink="http://www.w3.org/1999/xlink"
   x="0px"
   y="0px"
   width="512px"
   height="512px"
   viewBox="0 0 512 512"
   enable-background="new 0 0 512 512"
   id="localgovernment-marker">
<path
   id="localgovernment-marker-shell"
   d="M 256,50 C 162.939,50 87.5,125.44 87.5,218.5 87.5,313 169.43,375.333 256,462 342.57,375.333 424.5,313 424.5,218.5 424.5,125.44 349.061,50 256,50 z m 0,286.958 c -68.275,0 -123.624,-55.349 -123.624,-123.624 0,-68.276 55.349,-123.625 123.624,-123.625 68.276,0 123.625,55.348 123.625,123.625 0,68.275 -55.349,123.624 -123.625,123.624 z"/>
<g
   transform="matrix(2.2064231,0,0,2.2064231,143.79535,-2011.2037)"
   id="localgovernment-marker-content">
   <path
     id="rect7645-6"
     d="m 49.999995,964.86205 -31.249997,20.83332 62.499997,0 z m -27.08333,24.99998 c -2.308375,0 -4.166667,1.85833 -4.166667,4.16666 l 0,29.16671 -7.291666,12.5 c -0.618084,1.0596 -1.041667,1.4862 -1.041667,2.0833 0,2.0833 2.631875,2.0833 4.166667,2.0833 l 70.833333,0 c 1.47913,0 4.16667,0 4.16667,-2.0833 0,-0.6092 -0.36084,-0.9162 -1.04167,-2.0833 l -7.29167,-12.5 0,-29.16671 c 0,-2.30833 -1.85829,-4.16666 -4.16666,-4.16666 z m 8.333333,8.33333 c 2.308334,0 3.787167,1.88954 4.166667,4.16664 l 0,25 -8.333333,0 0,-8.3333 0,-16.6667 c 0,-2.3083 1.858333,-4.16664 4.166666,-4.16664 z m 18.749997,0 c 2.30834,0 4.20275,1.85874 4.16667,4.16664 l 0,16.6667 0,8.3333 -8.33333,0 0,-8.3333 0,-16.6667 c 0,-2.3083 1.85833,-4.16664 4.16666,-4.16664 z m 18.75,0 c 2.30834,0 4.16667,1.85834 4.16667,4.16664 l 0,25 -8.33333,0 0,-8.3333 0,-16.6667 c 0,-2.3083 1.85833,-4.16664 4.16666,-4.16664 z"/>
   </g>
</svg>
