<svg
	version="1.1"
	xmlns="http://www.w3.org/2000/svg"
	xmlns:xlink="http://www.w3.org/1999/xlink"
   x="0px"
   y="0px"
   width="512px"
   height="512px"
   viewBox="0 0 512 512"
   enable-background="new 0 0 512 512"
   id="lodging-marker">
   <path
   id="lodging-marker-shell"
   d="M256,50c-93.061,0-168.5,75.44-168.5,168.5C87.5,313,169.43,375.333,256,462  c86.57-86.667,168.5-149,168.5-243.5C424.5,125.44,349.061,50,256,50z M256,336.958c-68.275,0-123.624-55.349-123.624-123.624  c0-68.276,55.349-123.625,123.624-123.625c68.276,0,123.625,55.348,123.625,123.625C379.625,281.609,324.276,336.958,256,336.958z" />
   <path
   id="lodging-marker-content"
   d="m 159.48449,163.22881 29.02943,0 0,72.57428 159.66259,0 0,21.77219 0,21.77219 -21.77219,0 0,-21.77219 -137.8904,0 0,21.77219 -29.02943,0 0,-116.11866 z m 181.43478,65.31657 -97.97487,0 0,-43.54392 c 33.86791,0 56.84972,0 74.99306,7.25724 18.14334,7.25725 20.56257,21.7722 22.98181,36.28668 z m -145.1481,-18.14334 29.02989,3.62886 0,14.51448 -29.02989,0 0,-18.14334 z m 14.51495,-32.65828 c 8.01629,0 14.51494,6.49865 14.51494,14.51494 0,8.0163 -6.49865,14.51449 -14.51494,14.51449 -8.0163,0 -14.51495,-6.49819 -14.51495,-14.51449 0,-8.01629 6.49865,-14.51494 14.51495,-14.51494 z m 19.95799,7.25724 9.07144,0 0,43.54438 -9.07144,0 0,-43.54438 z"/>
</svg>
