<svg
	 version="1.1"
	 xmlns="http://www.w3.org/2000/svg"
	 xmlns:xlink="http://www.w3.org/1999/xlink"
   x="0px"
   y="0px"
   width="512px"
   height="512px"
   viewBox="0 0 512 512"
   enable-background="new 0 0 512 512"
   id="mosque-marker">
  <path
     id="mosque-marker-shell"
     d="M 256,50 C 162.939,50 87.5,125.44 87.5,218.5 87.5,313 169.43,375.333 256,462 342.57,375.333 424.5,313 424.5,218.5 424.5,125.44 349.061,50 256,50 z m 0,286.958 c -68.275,0 -123.624,-55.349 -123.624,-123.624 0,-68.276 55.349,-123.625 123.624,-123.625 68.276,0 123.625,55.348 123.625,123.625 0,68.275 -55.349,123.624 -123.625,123.624 z"/>
  <path
     id="mosque-marker-content"
     d="m 262.12184,287.97088 c -42.78736,0 -77.47349,-34.68605 -77.47349,-77.47377 0,-36.2602 24.91084,-66.70247 58.55232,-75.14634 -13.84759,13.99592 -22.39815,33.24275 -22.39815,54.48686 0,42.78739 34.68651,77.47344 77.47388,77.47344 6.5271,0 12.86575,-0.80711 18.92119,-2.32711 -14.04226,14.19332 -33.53213,22.98692 -55.07575,22.98692 z"/>
     <path
     id="path13044"
     d="m -305.28951,564.50221 4.51007,22.63711 21.20474,9.11803 -20.13548,11.28458 -2.11914,22.98454 -16.95448,-15.66286 -22.51445,5.08719 9.65704,-20.96476 -11.79555,-19.84048 22.92286,2.70592 z"
     transform="matrix(0.56424413,0,0,0.56424413,473.39638,-167.71558)" />
</svg>
