<svg
	version="1.1"
	xmlns="http://www.w3.org/2000/svg"
	xmlns:xlink="http://www.w3.org/1999/xlink"
   x="0px"
   y="0px"
   width="512px"
   height="512px"
   viewBox="0 0 512 512"
   enable-background="new 0 0 512 512"
   id="movietheater-marker">
  <path
     id="movietheater-marker-shell"
     d="M256,50c-93.061,0-168.5,75.44-168.5,168.5C87.5,313,169.43,375.333,256,462  c86.57-86.667,168.5-149,168.5-243.5C424.5,125.44,349.061,50,256,50z M256,336.958c-68.275,0-123.624-55.349-123.624-123.624  c0-68.276,55.349-123.625,123.624-123.625c68.276,0,123.625,55.348,123.625,123.625C379.625,281.609,324.276,336.958,256,336.958z" />
  <path
     id="movietheater-marker-content"
     d="m 309.78487,124.55868 c 7.43969,-1.7175 14.8628,2.92069 16.5803,10.36039 l 7.77499,33.67662 -161.6511,37.31985 -7.77455,-33.67619 c -1.71749,-7.4397 2.92112,-14.86323 10.36038,-16.58072 l 134.70998,-31.09995 z m -135.22338,59.59571 3.10972,13.471 25.90164,-41.45161 -13.47056,3.11018 -15.5408,24.87043 z m 23.31579,8.80574 13.47056,-3.10973 25.90163,-41.4516 -13.47057,3.11016 -25.90162,41.45117 z m 33.67662,-7.77455 13.47056,-3.11016 25.90163,-41.45117 -13.47056,3.10973 -25.90163,41.4516 z m 33.67662,-7.77498 13.47056,-3.11018 25.90163,-41.45116 -13.47056,3.10973 -25.90163,41.45161 z m 33.67618,-7.77498 13.47056,-3.10974 10.36083,-16.58073 -3.10973,-13.47057 -20.72166,33.16104 z m 25.66021,126.14259 -138.25279,0 c -7.63573,0 -13.82506,-6.18977 -13.82506,-13.82506 l 0,-76.03674 165.90073,0 0.002,76.03674 c 0,7.63529 -6.18935,13.82506 -13.82462,13.82506 z m -103.68905,-82.94949 -27.64969,27.64968 13.82506,0 27.64968,-27.64968 -13.82505,0 z m 34.56243,0 -27.64968,27.64968 13.82462,0 27.64969,-27.64968 -13.82463,0 z m 34.56243,0 -27.65011,27.64968 13.82506,0 27.64968,-27.64968 -13.82463,0 z m 34.56201,0 -27.64969,27.64968 13.82462,0 20.69983,-20.69938 0.038,-6.9503 -6.91275,0 z m -138.24886,0 -6.91275,6.91232 0,13.82505 20.73736,-20.73737 -13.82461,0 z"/>
</svg>
