<svg
	version="1.1"
	xmlns="http://www.w3.org/2000/svg"
	xmlns:xlink="http://www.w3.org/1999/xlink"
   x="0px"
   y="0px"
   width="512px"
   height="512px"
   viewBox="0 0 512 512"
   enable-background="new 0 0 512 512"
   id="movingcompany-marker">
  <path
     id="movingcompany-marker-shell"
     d="M256,50c-93.061,0-168.5,75.44-168.5,168.5C87.5,313,169.43,375.333,256,462  c86.57-86.667,168.5-149,168.5-243.5C424.5,125.44,349.061,50,256,50z M256,336.958c-68.275,0-123.624-55.349-123.624-123.624  c0-68.276,55.349-123.625,123.624-123.625c68.276,0,123.625,55.348,123.625,123.625C379.625,281.609,324.276,336.958,256,336.958z" />
  <path
     id="movingcompany-marker-content"
     d="m 304.05504,203.14475 -10.95901,0 -16.43834,0 0,-5.47933 21.00439,0 9.13245,-27.39736 8.21918,0 -10.95867,32.87669 z m 27.39702,-60.27369 0,97.30254 c -3.91822,-2.62252 -8.62962,-4.15216 -13.69852,-4.15216 -13.61821,0 -24.65751,11.03965 -24.65751,24.65753 0,2.88207 0.49419,5.64856 1.40298,8.21916 l -13.76496,0 c 0.90879,-2.57095 1.40297,-5.33709 1.40297,-8.21916 0,-13.61788 -11.03929,-24.65753 -24.65752,-24.65753 -13.61787,0 -24.65751,11.03965 -24.65751,24.65753 0,2.88207 0.49452,5.64821 1.40331,8.21916 l -6.88265,0 0,-5.47933 -5.47933,0 0,5.47933 -10.95901,0 -43.8357,0 0,-10.95901 43.8357,0 0,-115.06806 10.95901,0 0,87.67105 5.47933,0 0,-5.47968 38.35603,-82.19137 65.75338,0 z m -54.79472,76.71204 c 0,-6.05209 4.90659,-10.95866 10.95901,-10.95866 l 32.8767,0 0,-54.79472 -49.31505,0 -32.87669,71.23271 38.35603,0 0,-5.47933 z m -19.17784,21.91768 c 10.59183,0 19.17819,8.58636 19.17819,19.17819 0,10.59183 -8.58636,19.17817 -19.17819,19.17817 -10.59183,0 -19.17784,-8.58634 -19.17784,-19.17817 0,-10.59183 8.58601,-19.17819 19.17784,-19.17819 z m 60.27404,0 c 10.59149,0 19.17784,8.58636 19.17784,19.17819 0,10.59183 -8.58635,19.17817 -19.17784,19.17817 -10.59183,0 -19.17817,-8.58634 -19.17817,-19.17817 0,-10.59183 8.58634,-19.17819 19.17817,-19.17819 z m -112.32857,-32.87669 -16.43834,0 0,-10.95901 16.43834,0 0,10.95901 z m -21.91768,0 -16.43834,0 0,-10.95901 16.43834,0 0,10.95901 z m 21.91768,-16.43835 -27.39735,0 0,-10.95902 27.39735,0 0,10.95902 z m -38.35602,60.27405 0,-38.35638 38.35602,0 0,38.35638 -38.35602,0 z"/>
   </svg>
