<svg
	version="1.1"
	xmlns="http://www.w3.org/2000/svg"
	xmlns:xlink="http://www.w3.org/1999/xlink"
   x="0px"
   y="0px"
   width="512px"
   height="512px"
   viewBox="0 0 512 512"
   enable-background="new 0 0 512 512"
   id="museum-marker">
   <path
   id="museum-marker-shell"
   d="M 256,50 C 162.939,50 87.5,125.44 87.5,218.5 87.5,313 169.43,375.333 256,462 342.57,375.333 424.5,313 424.5,218.5 424.5,125.44 349.061,50 256,50 z m 0,286.958 c -68.275,0 -123.624,-55.349 -123.624,-123.624 0,-68.276 55.349,-123.625 123.624,-123.625 68.276,0 123.625,55.348 123.625,123.625 0,68.275 -55.349,123.624 -123.625,123.624 z"/>
   <path
   id="museum-marker-content"
   d="m 98.994953,125.02831 127.735367,221.24416 -255.47075,0 z"
   transform="matrix(0.70596919,0,0,0.31765396,186.36262,70.888945)" />
   <rect
   id="rect14122"
   width="25.815489"
   height="78.737251"
   x="188.73567"
   y="181.84943" />
   <rect
   id="rect14122-8"
   width="25.815489"
   height="78.737251"
   x="225.54224"
   y="181.84943" />
   <rect
   id="rect14122-8-4"
   width="25.815489"
   height="78.737251"
   x="262.34225"
   y="181.84943" />
   <rect
   id="rect14122-8-4-0"
   width="25.815489"
   height="78.737251"
   x="299.16824"
   y="181.84943" />
   <path
   id="rect14178"
   d="m 185.56046,262.97061 143.96067,-0.47888 9.03789,25.85973 -162.03645,0 z"/>
</svg>
