<svg
	version="1.1"
	xmlns="http://www.w3.org/2000/svg"
	xmlns:xlink="http://www.w3.org/1999/xlink"
   x="0px"
   y="0px"
   width="512px"
   height="512px"
   viewBox="0 0 512 512"
   enable-background="new 0 0 512 512"
   id="nightclub-marker">
  <path
     id="nightclub-marker-shell"
     d="M256,50c-93.061,0-168.5,75.44-168.5,168.5C87.5,313,169.43,375.333,256,462  c86.57-86.667,168.5-149,168.5-243.5C424.5,125.44,349.061,50,256,50z M256,336.958c-68.275,0-123.624-55.349-123.624-123.624  c0-68.276,55.349-123.625,123.624-123.625c68.276,0,123.625,55.348,123.625,123.625C379.625,281.609,324.276,336.958,256,336.958z" />
  <path
     id="nightclub-marker-content"
     d="m 271.22087,259.97985 c 23.1795,6.95424 34.76946,13.90805 55.63131,13.90805 6.95423,0 6.95423,3.11347 6.95423,6.95381 0,3.84077 -3.11346,6.95424 -6.95423,6.95424 l -139.07872,0 c -3.84077,0 -6.95423,-3.11347 -6.95423,-6.95424 0,-3.84034 0,-6.95381 6.95423,-6.95381 20.86187,0 32.45182,-6.95381 55.63131,-13.90805 l 0,-48.67749 -55.63131,-76.49317 139.07872,0 -55.63174,76.49317 4.3e-4,48.67749 z m -3.47713,-97.35502 c -5.76093,0 -10.43092,4.67 -10.43092,10.43094 0,5.76051 4.66999,10.43092 10.43092,10.43092 5.76096,0 10.43093,-4.67041 10.43093,-10.43092 0,-5.76094 -4.66997,-10.43094 -10.43093,-10.43094 z"/>
   </svg>
