<svg
	version="1.1"
	xmlns="http://www.w3.org/2000/svg"
	xmlns:xlink="http://www.w3.org/1999/xlink"
   x="0px"
   y="0px"
   width="512px"
   height="512px"
   viewBox="0 0 512 512"
   enable-background="new 0 0 512 512"
   id="painter-marker">
<path
   id="painter-marker-shell"
   d="M256,50c-93.061,0-168.5,75.44-168.5,168.5C87.5,313,169.43,375.333,256,462  c86.57-86.667,168.5-149,168.5-243.5C424.5,125.44,349.061,50,256,50z M256,336.958c-68.275,0-123.624-55.349-123.624-123.624  c0-68.276,55.349-123.625,123.624-123.625c68.276,0,123.625,55.348,123.625,123.625C379.625,281.609,324.276,336.958,256,336.958z" />
<path
   id="painter-marker-content"
   d="m 252.55347,143.82735 63.41724,69.75925 -82.44245,82.44247 -69.75925,-69.75886 33.29412,-33.29412 c 0,0 72.93025,22.19582 80.85715,6.34161 12.68361,-19.02522 -19.02521,-23.78153 -19.02521,-17.43992 6.34201,6.34201 11.09792,14.26931 11.09792,14.26931 0,0 -80.85677,-1.5857 -93.54038,-33.29452 -6.3416,-25.36682 68.17355,-11.09791 68.17355,-11.09791 l 7.92731,-7.92731 z m -19.02521,17.43992 c 0,0 -39.63573,-3.1706 -39.63573,3.171 0,6.3416 23.78151,9.51261 23.78151,9.51261 l 15.85422,-12.68361 z m 82.44245,45.97774 -44.39203,-50.73404 c 0,0 35.20466,24.94745 41.22103,26.95251 4.75631,1.5853 15.85462,-7.92731 28.53823,-1.5857 12.6832,6.34201 -4e-4,20.61092 -4e-4,14.26931 0,-6.342 -19.02482,-1.5857 -19.02482,-1.5857 31.70842,6.34161 38.05003,19.02521 31.70842,25.36682 -6.34159,6.342 -14.2689,6.342 -14.2689,0 0,-6.34161 -23.78153,-12.6832 -23.78153,-12.6832 z"/>
</svg>
