<svg
	version="1.1"
	xmlns="http://www.w3.org/2000/svg"
	xmlns:xlink="http://www.w3.org/1999/xlink"
   x="0px"
   y="0px"
   width="512px"
   height="512px"
   viewBox="0 0 512 512"
   enable-background="new 0 0 512 512"
   id="parking-marker">
<path
   id="parking-marker-shell"
   d="M 256,50 C 162.939,50 87.5,125.44 87.5,218.5 87.5,313 169.43,375.333 256,462 342.57,375.333 424.5,313 424.5,218.5 424.5,125.44 349.061,50 256,50 z m 0,286.958 c -68.275,0 -123.624,-55.349 -123.624,-123.624 0,-68.276 55.349,-123.625 123.624,-123.625 68.276,0 123.625,55.348 123.625,123.625 0,68.275 -55.349,123.624 -123.625,123.624 z"/>
<g
   id="parking-marker-content"
   transform="matrix(0.45068524,0,0,0.45068524,181.33564,112.5102)">
   <path
     id="path4010"
     d="M 159.80315,0 C 86.279526,0 23.811023,47.338581 1.2047244,113.17322 l 40.8543296,0 C 59.314959,58.110234 105.51968,18.708661 159.80315,18.708661 c 54.31889,0 100.48818,39.437006 117.74409,94.464559 l 40.85433,0 C 295.75984,47.338581 233.32677,0 159.80315,0 z m -10.09843,62.751967 0,50.421253 19.20473,0 0,-50.421253 -19.20473,0 z"/>
     <path
     id="path4012"
     d="m 0,161.61023 c 4.2874015,55.87795 60.342518,76.7126 77.279526,119.12598 C 106.79527,354.61416 108,432.31888 159.27165,432.31888 c 58.8189,0 53.75197,-62.43306 81.88583,-155.65747 10.45275,-34.61811 74.23228,-73.52362 77.42125,-115.05118 L 0,161.61023 z m 157.74803,107.11417 6.05905,0 0,39.40157 -6.05905,0 0,-39.40157 z"/>
     <path
     id="path4014"
     d="m 0.67322833,113.13779 0,48.47244 317.72834167,0 0,-48.47244 -317.72834167,0 z m 37.91338467,17.18504 242.433067,0 0,21.22441 -242.433067,0 0,-21.22441 z"/>
     <path
     id="path4016"
     d="m 146.72834,416.2677 32.20866,0 0,52.44095 -32.20866,0 z"/>
   </g>
</svg>
