<svg
	version="1.1"
	xmlns="http://www.w3.org/2000/svg"
	xmlns:xlink="http://www.w3.org/1999/xlink"
   x="0px"
   y="0px"
   width="512px"
   height="512px"
   viewBox="0 0 512 512"
   enable-background="new 0 0 512 512"
   id="petstore-marker">
<path
   id="petstore-marker-shell"
   d="M256,50c-93.061,0-168.5,75.44-168.5,168.5C87.5,313,169.43,375.333,256,462  c86.57-86.667,168.5-149,168.5-243.5C424.5,125.44,349.061,50,256,50z M256,336.958c-68.275,0-123.624-55.349-123.624-123.624  c0-68.276,55.349-123.625,123.624-123.625c68.276,0,123.625,55.348,123.625,123.625C379.625,281.609,324.276,336.958,256,336.958z" />
<path
   id="petstore-marker-content"
   d="m 197.50397,164.44444 c 9.60201,-1.17908 18.76688,9.10881 20.46991,22.97873 1.70304,13.86992 -4.70076,26.0695 -14.30278,27.24859 -9.6024,1.17869 -18.76688,-9.1092 -20.46992,-22.97912 -1.70303,-13.86992 4.70039,-26.0695 14.30279,-27.2482 z m 41.03676,-34.24953 c 9.67442,0 17.51695,13.94232 17.51695,31.14124 0,17.19893 -7.84253,31.14125 -17.51695,31.14125 -9.67442,0 -17.51695,-13.94232 -17.51695,-31.14125 0,-17.19892 7.84253,-31.14124 17.51695,-31.14124 z m 45.96486,5.91489 c 9.65067,0.67499 16.50175,15.13037 15.30203,32.28724 -1.19971,17.15688 -9.99595,30.51842 -19.64662,29.84344 -9.65067,-0.67461 -16.50174,-15.13037 -15.30203,-32.28725 1.19971,-17.15688 9.99595,-30.51842 19.64662,-29.84343 z m 37.43061,38.44036 c 9.11193,2.10359 13.75469,15.69597 10.36925,30.35921 -3.38505,14.66325 -13.51646,24.84487 -22.62878,22.74129 -9.11192,-2.10399 -13.7547,-15.69637 -10.36925,-30.35961 3.38544,-14.66324 13.51646,-24.84448 22.62878,-22.74089 z m -71.7175,101.61932 c 0,0 -28.22175,5.83899 -36.00706,5.83899 -7.78531,0 -26.27543,-5.83899 -26.27543,-25.30226 0,-23.35593 19.46328,-19.46328 31.14125,-31.14124 11.67796,-11.67797 11.67796,-27.24859 35.03389,-27.24859 23.35593,0 27.24859,19.46328 38.92656,31.14124 11.67796,11.67797 27.24858,14.59746 27.24858,30.16808 0,15.57062 -11.67796,22.38277 -31.14124,22.38277 -19.46328,0 -11.67797,-5.83899 -38.92655,-5.83899 z"/>
</svg>
