<svg
	version="1.1"
	xmlns="http://www.w3.org/2000/svg"
	xmlns:xlink="http://www.w3.org/1999/xlink"
   x="0px"
   y="0px"
   width="512px"
   height="512px"
   viewBox="0 0 512 512"
   enable-background="new 0 0 512 512"
   id="pharmacy-marker">
<path
   id="pharmacy-marker-shell"
   d="M256,50c-93.061,0-168.5,75.44-168.5,168.5C87.5,313,169.43,375.333,256,462  c86.57-86.667,168.5-149,168.5-243.5C424.5,125.44,349.061,50,256,50z M256,336.958c-68.275,0-123.624-55.349-123.624-123.624  c0-68.276,55.349-123.625,123.624-123.625c68.276,0,123.625,55.348,123.625,123.625C379.625,281.609,324.276,336.958,256,336.958z" />
<path
   id="pharmacy-marker-content"
   d="m 267.27862,179.48026 38.28702,-24.86371 c 12.68711,-8.23919 29.65106,-4.63321 37.8899,8.05392 8.23919,12.68672 4.63321,29.65069 -8.05353,37.8899 l -38.28702,24.86369 -29.83637,-45.9438 z m -30.43455,0 -29.83599,45.9438 -38.28701,-24.86369 c -12.68673,-8.23882 -16.29274,-25.20278 -8.05352,-37.8899 8.23882,-12.68713 25.20276,-16.29274 37.88989,-8.05392 l 38.28663,24.86371 z m 39.56488,44.35878 c 3.36188,0 6.08675,2.72489 6.08675,6.08676 0,3.36151 -2.72487,6.08675 -6.08675,6.08675 -3.3615,0 -6.08676,-2.72524 -6.08676,-6.08675 0,-3.36187 2.72526,-6.08676 6.08676,-6.08676 z m -24.34741,-12.1739 c 3.36149,0 6.08675,2.72526 6.08675,6.08676 0,3.36188 -2.72526,6.08714 -6.08675,6.08714 -3.36189,0 -6.08715,-2.72526 -6.08715,-6.08714 0,-3.3615 2.72526,-6.08676 6.08715,-6.08676 z m -18.26066,18.26066 c 3.3615,0 6.08676,2.72526 6.08676,6.08675 0,3.36189 -2.72526,6.08676 -6.08676,6.08676 -3.36188,0 -6.08676,-2.72487 -6.08676,-6.08676 0,-3.36149 2.72488,-6.08675 6.08676,-6.08675 z m 6.08676,24.34741 c 3.36188,0 6.08675,2.72526 6.08675,6.08676 0,3.36188 -2.72487,6.08714 -6.08675,6.08714 -3.3615,0 -6.08676,-2.72526 -6.08676,-6.08714 0,-3.3615 2.72526,-6.08676 6.08676,-6.08676 z m -24.34741,6.08676 c 3.36149,0 6.08675,2.72525 6.08675,6.08714 0,3.3615 -2.72526,6.08675 -6.08675,6.08675 -3.36189,0 -6.08676,-2.72525 -6.08676,-6.08675 0,-3.36189 2.72487,-6.08714 6.08676,-6.08714 z m 73.04262,0 c 3.36148,0 6.08674,2.72525 6.08674,6.08714 0,3.3615 -2.72526,6.08675 -6.08674,6.08675 -3.3619,0 -6.08676,-2.72525 -6.08676,-6.08675 0,-3.36189 2.72486,-6.08714 6.08676,-6.08714 z m -24.34743,-18.26066 c 3.36151,0 6.08677,2.72526 6.08677,6.08714 0,3.3615 -2.72526,6.08676 -6.08677,6.08676 -3.36187,0 -6.08713,-2.72526 -6.08713,-6.08676 0,-3.36188 2.72526,-6.08714 6.08713,-6.08714 z"/>
</svg>
