
<svg
	version="1.1"
	xmlns="http://www.w3.org/2000/svg"
	xmlns:xlink="http://www.w3.org/1999/xlink"
   x="0px"
   y="0px"
   width="512px"
   height="512px"
   viewBox="0 0 512 512"
   enable-background="new 0 0 512 512"
   id="placeofworship-marker">
   <path
     id="placeofworship-marker-shell"
     d="M256,50c-93.061,0-168.5,75.44-168.5,168.5C87.5,313,169.43,375.333,256,462  c86.57-86.667,168.5-149,168.5-243.5C424.5,125.44,349.061,50,256,50z M256,336.958c-68.275,0-123.624-55.349-123.624-123.624  c0-68.276,55.349-123.625,123.624-123.625c68.276,0,123.625,55.348,123.625,123.625C379.625,281.609,324.276,336.958,256,336.958z" />
     <g
     id="placeofworship-marker-content"
     transform="matrix(1.0269667,0,0,1.0269667,-25.778594,2.2833397)">
     <path
       id="rect12999"
       d="m 253.69996,110.24413 41.35919,0 c 0,0 -6.95472,58.16412 -6.95472,87.2462 0,35.70561 6.95472,107.11682 6.95472,107.11682 l -41.35919,0 7.94825,-109.1039 z"/>
       <path
        id="rect12999-6"
        d="m 335.08973,171.32821 -0.22502,40.1271 -60.74687,-6.61986 -60.44858,5.30576 0.22502,-40.12709 58.26109,5.59937 z"/>
     </g>
</svg>
