<svg
	version="1.1"
	xmlns="http://www.w3.org/2000/svg"
	xmlns:xlink="http://www.w3.org/1999/xlink"
   x="0px"
   y="0px"
   width="512px"
   height="512px"
   viewBox="0 0 512 512"
   enable-background="new 0 0 512 512"
   id="plumber-marker">
  <path
     id="plumber-marker-shell"
     d="M256,50c-93.061,0-168.5,75.44-168.5,168.5C87.5,313,169.43,375.333,256,462  c86.57-86.667,168.5-149,168.5-243.5C424.5,125.44,349.061,50,256,50z M256,336.958c-68.275,0-123.624-55.349-123.624-123.624  c0-68.276,55.349-123.625,123.624-123.625c68.276,0,123.625,55.348,123.625,123.625C379.625,281.609,324.276,336.958,256,336.958z" />
  <path
     id="plumber-marker-content"
     d="m 190.71082,177.51756 -20.70061,-20.69978 c -5.40305,15.62457 -1.86951,33.6528 10.60559,46.12914 9.58319,9.58361 22.44485,13.88901 34.97535,12.92078 6.62389,-0.51141 13.13948,1.90176 17.83764,6.5995 l 68.46402,68.46403 c 8.21724,8.21723 21.54068,8.21723 29.75792,-8.3e-4 8.21724,-8.21683 8.21806,-21.53987 4.2e-4,-29.75751 l -68.46444,-68.46444 c -4.6932,-4.6932 -7.1105,-11.21995 -6.5995,-17.83765 0.96824,-12.53049 -3.33758,-25.3909 -12.92118,-34.97452 -2.63601,-2.63682 -5.52212,-4.8689 -8.57982,-6.70658 l -44.37539,44.32786 z m 133.70704,97.24999 c 0,4.79077 -3.8833,8.67324 -8.67283,8.67324 -4.7887,0 -8.67201,-3.88247 -8.67201,-8.67241 4.2e-4,-4.78954 3.88331,-8.67243 8.67243,-8.67285 4.78952,0 8.67283,3.88331 8.67241,8.67202 z m -87.04706,-94.04181 -21.7259,21.72631 -18.21344,-18.21385 21.7259,-21.7259 18.21344,18.21344 z m -6.62349,0.68215 -5.40553,5.40553 -12.10219,-12.10177 5.40594,-5.40596 12.10178,12.1022 z m -21.22482,-2.97956 -5.40596,5.40595 12.1022,12.10136 5.40554,-5.40553 -12.10178,-12.10178 z m 17.62761,-48.99005 -20.53358,20.53318 -17.11869,-17.11829 c 11.01901,-6.43082 24.65336,-8.08204 37.56379,-3.44548 0.0298,0.0108 0.0591,0.0202 0.0885,0.0306 z"/>
</svg>
