<svg
	version="1.1"
	xmlns="http://www.w3.org/2000/svg"
	xmlns:xlink="http://www.w3.org/1999/xlink"
   x="0px"
   y="0px"
   width="512px"
   height="512px"
   viewBox="0 0 512 512"
   enable-background="new 0 0 512 512"
   id="resturant-marker">
   <path
   id="resturant-marker-shell"
   d="M256,50c-93.061,0-168.5,75.44-168.5,168.5C87.5,313,169.43,375.333,256,462  c86.57-86.667,168.5-149,168.5-243.5C424.5,125.44,349.061,50,256,50z M256,336.958c-68.275,0-123.624-55.349-123.624-123.624  c0-68.276,55.349-123.625,123.624-123.625c68.276,0,123.625,55.348,123.625,123.625C379.625,281.609,324.276,336.958,256,336.958z" />
   <path
   id="resturant-marker-content"
   d="m 202.53664,298.5324 -3.90729,-2.7363 c -4.31603,-3.02191 -5.3648,-8.97024 -2.34288,-13.28626 l 31.80855,-45.42689 C 180.12459,162.65739 191.4719,139.78799 191.4719,139.78799 l 5.86071,-4.10356 50.8815,72.66533 2.79061,-3.9857 c -2.60485,-1.82376 -5.20972,-3.64794 -5.95796,-9.50954 -0.74782,-5.86159 1.33747,-15.07673 5.53959,-25.23594 9.21777,-17.3228 32.47094,-35.97869 32.47094,-35.97869 l -21.10743,40.53917 1.95386,1.36813 32.82929,-32.33162 -19.15399,41.90731 1.95386,1.36813 32.82929,-32.33161 -19.15355,41.9073 1.95343,1.36771 30.87542,-33.69933 c 0,0 -9.57744,28.23158 -22.70294,42.81809 -8.10941,7.42337 -16.0554,12.53495 -21.81974,13.83651 -5.76391,1.30199 -8.36876,-0.5222 -10.97361,-2.34596 l -7.7699,11.09629 33.05446,47.2064 c 3.02191,4.31602 1.97314,10.26435 -2.34289,13.28626 l -3.90728,2.7363 c -4.31602,3.02191 -10.26435,1.97269 -13.28627,-2.34289 l -27.35935,-39.07289 -2.80988,1.96744 -30.29716,43.26888 c -3.02192,4.31602 -8.97025,5.3648 -13.28627,2.34289 z"/>
</svg>
