<svg
	version="1.1"
	xmlns="http://www.w3.org/2000/svg"
	xmlns:xlink="http://www.w3.org/1999/xlink"
   x="0px"
   y="0px"
   width="512px"
   height="512px"
   viewBox="0 0 512 512"
   enable-background="new 0 0 512 512"
   id="roofingcompany-marker">
<path
   id="roofingcompany-marker-shell"
   d="M256,50c-93.061,0-168.5,75.44-168.5,168.5C87.5,313,169.43,375.333,256,462  c86.57-86.667,168.5-149,168.5-243.5C424.5,125.44,349.061,50,256,50z M256,336.958c-68.275,0-123.624-55.349-123.624-123.624  c0-68.276,55.349-123.625,123.624-123.625c68.276,0,123.625,55.348,123.625,123.625C379.625,281.609,324.276,336.958,256,336.958z" />
<path
   id="roofingcompany-marker-content"
   d="m 318.32308,128.03589 0,150.90258 -150.90258,0 30.11301,-30.11301 11.24979,11.25018 4.44607,-4.44607 -11.24979,-11.24979 13.6539,-13.65429 16.40748,16.40748 4.44607,-4.44606 -16.40748,-16.40708 14.44257,-14.44257 10.51274,10.51274 4.44607,-4.44607 -10.51275,-10.51274 13.65391,-13.6539 15.67004,15.67004 4.44606,-4.44607 -15.67004,-15.67004 14.04943,-14.04943 13.11701,13.1174 4.44606,-4.44606 -13.11701,-13.1174 12.24257,-12.24257 10.57549,10.57549 4.44607,-4.44606 -10.57549,-10.5755 26.0708,-26.0712 z m -18.86243,69.16382 -62.87593,62.87593 62.87593,0 0,-62.87593 z"/>
</svg>
