<svg
	version="1.1"
	xmlns="http://www.w3.org/2000/svg"
	xmlns:xlink="http://www.w3.org/1999/xlink"
   x="0px"
   y="0px"
   width="512px"
   height="512px"
   viewBox="0 0 512 512"
   enable-background="new 0 0 512 512"
   id="school-marker">
   <path
     id="school-marker-shell"
     d="M 256,50 C 162.939,50 87.5,125.44 87.5,218.5 87.5,313 169.43,375.333 256,462 342.57,375.333 424.5,313 424.5,218.5 424.5,125.44 349.061,50 256,50 z m 0,286.958 c -68.275,0 -123.624,-55.349 -123.624,-123.624 0,-68.276 55.349,-123.625 123.624,-123.625 68.276,0 123.625,55.348 123.625,123.625 0,68.275 -55.349,123.624 -123.625,123.624 z"/>
     <g
     id="school-marker-content"
     transform="matrix(2.0666406,0,0,2.0666406,148.23136,102.62134)">
     <path
       id="path6"
       d="M 73.694,55.353 56.535,47.365 c 0.054,-1.823 -0.88,-3.608 -2.596,-4.529 -0.745,-0.402 -1.551,-0.593 -2.342,-0.593 -1.771,0 -3.486,0.951 -4.381,2.62 -1.297,2.415 -0.388,5.426 2.027,6.723 0.739,0.395 1.533,0.583 2.316,0.583 1.033,0 2.047,-0.325 2.894,-0.926 l 15.999,7.366 0,4.76 0,23.758 c 0,1.215 0.985,2.201 2.201,2.201 1.216,0 2.2,-0.986 2.2,-2.201 l 0,-26.107 0,-3.729 c 0,-0.176 -0.026,-0.346 -0.069,-0.51 -0.143,-0.602 -0.528,-1.129 -1.09,-1.428 z"/>
       <path
       id="path6"
       d="M 95.892,42.075 51.801,21.46 C 51.23,21.193 50.615,21.06 50,21.06 c -0.615,0 -1.23,0.134 -1.801,0.401 L 4.11,42.075 c -1.458,0.681 -2.406,2.129 -2.45,3.738 -0.042,1.609 0.827,3.104 2.247,3.863 l 15.208,8.123 0,11.262 L 50,85.27 l 17.265,-9.025 0,-11.173 0,-1.492 0,-2.928 L 66.864,60.466 50,69.475 5.911,45.925 50,25.311 94.09,45.925 77.433,54.822 c 0.389,0.75 0.61,1.59 0.61,2.469 l 0,2.023 0.069,-0.037 0,11.145 6.03,-3.152 0,-11.211 11.951,-6.383 c 1.42,-0.759 2.29,-2.253 2.246,-3.863 -0.042,-1.609 -0.989,-3.058 -2.447,-3.738 z"/>
     </g>
</svg>
