<svg
	version="1.1"
	xmlns="http://www.w3.org/2000/svg"
	xmlns:xlink="http://www.w3.org/1999/xlink"
   x="0px"
   y="0px"
   width="512px"
   height="512px"
   viewBox="0 0 512 512"
   enable-background="new 0 0 512 512"
   id="shoestore-marker">
   <path
   id="shoestore-marker-shell"
   d="M256,50c-93.061,0-168.5,75.44-168.5,168.5C87.5,313,169.43,375.333,256,462  c86.57-86.667,168.5-149,168.5-243.5C424.5,125.44,349.061,50,256,50z M256,336.958c-68.275,0-123.624-55.349-123.624-123.624  c0-68.276,55.349-123.625,123.624-123.625c68.276,0,123.625,55.348,123.625,123.625C379.625,281.609,324.276,336.958,256,336.958z" />
   <path
   id="shoestore-marker-content"
   d="m 283.256,125.7733 c 6.12255,0 11.08595,7.94154 11.08595,17.73753 0,9.796 -4.9634,17.73753 -11.08595,17.73753 -6.12256,0 -11.08596,-7.94153 -11.08596,-17.73753 0,-9.79599 4.9634,-17.73753 11.08596,-17.73753 z m -23.28051,5.54298 c 3.67344,0 6.65157,4.96341 6.65157,11.08596 0,6.12255 -2.97813,11.08595 -6.65157,11.08595 -3.67345,0 -6.65158,-4.9634 -6.65158,-11.08595 0,-6.12255 2.97813,-11.08596 6.65158,-11.08596 z m -18.84613,5.54298 c 3.67344,0 6.65158,3.97055 6.65158,8.86876 0,4.89822 -2.97814,8.86877 -6.65158,8.86877 -3.67344,0 -6.65157,-3.97055 -6.65157,-8.86877 0,-4.89821 2.97813,-8.86876 6.65157,-8.86876 z m -15.52034,9.97736 c 3.67344,0 6.65158,3.97055 6.65158,8.86877 0,4.89821 -2.97814,8.86876 -6.65158,8.86876 -3.67344,0 -6.65157,-3.97055 -6.65157,-8.86876 0,-4.89822 2.97813,-8.86877 6.65157,-8.86877 z m -12.19455,15.52034 c 2.44911,0 4.43438,2.97813 4.43438,6.65157 0,3.67345 -1.98527,6.65158 -4.43438,6.65158 -2.44911,0 -4.43438,-2.97813 -4.43438,-6.65158 0,-3.67344 1.98527,-6.65157 4.43438,-6.65157 z m 23.28051,3.32579 c 39.90944,-19.95473 67.59241,16.88879 35.47506,55.42978 -22.17191,26.60629 40.50099,68.92272 0,77.60169 -31.04068,6.65158 -21.31829,-33.71106 -31.04068,-50.9954 -39.90944,-70.95012 -4.43438,-82.03607 -4.43438,-82.03607 z"/>
</svg>
