<svg
	version="1.1"
	xmlns="http://www.w3.org/2000/svg"
	xmlns:xlink="http://www.w3.org/1999/xlink"
   x="0px"
   y="0px"
   width="512px"
   height="512px"
   viewBox="0 0 512 512"
   enable-background="new 0 0 512 512"
   id="shoppingmall-marker">
<path
   id="shoppingmall-marker-shell"
   d="M256,50c-93.061,0-168.5,75.44-168.5,168.5C87.5,313,169.43,375.333,256,462  c86.57-86.667,168.5-149,168.5-243.5C424.5,125.44,349.061,50,256,50z M256,336.958c-68.275,0-123.624-55.349-123.624-123.624  c0-68.276,55.349-123.625,123.624-123.625c68.276,0,123.625,55.348,123.625,123.625C379.625,281.609,324.276,336.958,256,336.958z" />
<path
   id="shoppingmall-marker-content"
   d="m 318.84849,176.12989 -94.51885,13.60058 V 297.1364 l 94.51885,-14.42116 V 176.12989 z M 270.76173,129.5899 c -16.53453,2.32345 -29.97099,18.67746 -30.00423,36.52736 l -0.0205,11.16676 10.95709,-1.53979 0.0209,-11.16676 c 0.021,-11.30175 8.55652,-21.69348 19.02457,-23.16476 10.47091,-1.4717 18.97244,6.5256 18.95152,17.82735 l -0.021,11.16675 10.95751,-1.5398 0.021,-11.16718 c 0.0332,-17.8495 -13.34866,-30.4342 -29.88688,-28.10993 z m -32.31168,11.32595 c -8.97214,2.89006 -15.84566,12.29217 -15.86453,22.43158 l -0.021,11.16676 -10.93658,1.53979 v -11.16675 c 0.0332,-17.84991 13.4697,-34.20392 30.00423,-36.52737 3.11899,-0.43818 6.12557,-0.34504 8.95079,0.21253 -4.61202,3.16003 -8.74319,7.29735 -12.13298,12.34346 z m -44.95956,138.6008 V 179.40684 l 20.71945,9.43658 V 294.4921 l -20.71945,-14.97545 z"/>
</svg>
