<svg
	version="1.1"
	xmlns="http://www.w3.org/2000/svg"
	xmlns:xlink="http://www.w3.org/1999/xlink"
   x="0px"
   y="0px"
   width="512px"
   height="512px"
   viewBox="0 0 512 512"
   enable-background="new 0 0 512 512"
   id="subwaystation-marker">
   <path
   id="subwaystation-marker-shell"
   d="M256,50c-93.061,0-168.5,75.44-168.5,168.5C87.5,313,169.43,375.333,256,462  c86.57-86.667,168.5-149,168.5-243.5C424.5,125.44,349.061,50,256,50z M256,336.958c-68.275,0-123.624-55.349-123.624-123.624  c0-68.276,55.349-123.625,123.624-123.625c68.276,0,123.625,55.348,123.625,123.625C379.625,281.609,324.276,336.958,256,336.958z" />
  <path
   id="subwaystation-marker-content"
   d="m 225.89612,152.96959 60.20776,-3.4e-4 c 6.0458,0 13.68386,7.63806 13.68386,13.68386 l 0,76.62812 c 0,6.0458 -7.63806,13.68386 -13.68386,13.68386 l -2.7365,0 0,6.56814 21.8937,26.27258 -10.94702,0 -18.24458,-21.89404 -40.13896,0 -18.24458,21.89404 -10.94702,0 21.8937,-26.27258 0,-6.56814 -2.7365,0 c -6.04615,0 -13.68386,-7.63771 -13.68386,-13.68386 l 0,-76.62812 c 0,-6.0458 7.63771,-13.68352 13.68386,-13.68352 z m 19.15686,5.47334 c -3.02308,0 -5.47334,2.45061 -5.47334,5.47369 0,3.02272 2.45026,5.47333 5.47334,5.47333 l 21.8937,0 c 3.02272,0 5.47333,-2.45061 5.47333,-5.47333 0,-3.02308 -2.45061,-5.47369 -5.47333,-5.47369 l -21.8937,0 z m -10.94702,16.42036 c -6.04581,0 -10.94668,4.90122 -10.94668,10.94702 l 0,5.47334 c 0,6.0458 4.90087,10.94702 10.94668,10.94702 l 43.78774,0 c 6.0458,0 10.94667,-4.90122 10.94667,-10.94702 l 0,-5.47334 c 0,-6.0458 -4.90087,-10.94702 -10.94667,-10.94702 l -43.78774,0 z m -2.7365,54.73442 c -4.53444,0 -8.21018,3.67574 -8.21018,8.21018 0,4.53444 3.67574,8.21018 8.21018,8.21018 4.53444,0 8.21018,-3.67574 8.21018,-8.21018 0,-4.53444 -3.67574,-8.21018 -8.21018,-8.21018 z m 49.26108,0 c -4.53444,0 -8.21018,3.67574 -8.21018,8.21018 0,4.53444 3.67574,8.21018 8.21018,8.21018 4.53409,0 8.21018,-3.67574 8.21018,-8.21018 0,-4.53444 -3.67609,-8.21018 -8.21018,-8.21018 z m -10.94702,-98.52216 c 4.53444,0 8.21018,3.67574 8.21018,8.21018 0,4.53444 -3.67574,8.21018 -8.21018,8.21018 -4.53444,0 -8.21018,-3.67574 -8.21018,-8.21018 0,-4.53444 3.67574,-8.21018 8.21018,-8.21018 z m -27.36704,0 c 4.5341,0 8.21018,3.67574 8.21018,8.21018 0,4.53444 -3.67608,8.21018 -8.21018,8.21018 -4.53444,0 -8.21018,-3.67574 -8.21018,-8.21018 0,-4.53444 3.67574,-8.21018 8.21018,-8.21018 z"/>
</svg>
