<svg
	version="1.1"
	xmlns="http://www.w3.org/2000/svg"
	xmlns:xlink="http://www.w3.org/1999/xlink"
   x="0px"
   y="0px"
   width="512px"
   height="512px"
   viewBox="0 0 512 512"
   enable-background="new 0 0 512 512"
   id="synagogue-marker">
   <path
   id="synagogue-marker-shell"
   d="M 256,50 C 162.939,50 87.5,125.44 87.5,218.5 87.5,313 169.43,375.333 256,462 342.57,375.333 424.5,313 424.5,218.5 424.5,125.44 349.061,50 256,50 z m 0,286.958 c -68.275,0 -123.624,-55.349 -123.624,-123.624 0,-68.276 55.349,-123.625 123.624,-123.625 68.276,0 123.625,55.348 123.625,123.625 0,68.275 -55.349,123.624 -123.625,123.624 z"/>
   <g
   id="synagogue-marker-content"
   transform="matrix(0.54446134,0,0,0.54446134,113.35401,58.496768)">
     <path
     id="path3042-2-5-2"
     d="M 258.31369,95.587107 93.174569,381.03334 l 330.298111,0 L 258.31369,95.587107 z m 2.10647,46.183313 122.03601,210.9647 -244.0919,0 122.05589,-210.9647 z"/>
     <path
     id="path3042-7-45-2-7-3"
     d="m 92.825659,188.57818 165.158961,285.44624 165.13912,-285.44624 -330.298081,0 z m 46.521111,24.12502 244.09194,0 L 261.40266,423.66792 139.34677,212.7032 z"/>
   </g>
</svg>
