<svg
	version="1.1"
	xmlns="http://www.w3.org/2000/svg"
	xmlns:xlink="http://www.w3.org/1999/xlink"
   x="0px"
   y="0px"
   width="512px"
   height="512px"
   viewBox="0 0 512 512"
   enable-background="new 0 0 512 512"
   id="taxi-marker">
    <path
     id="taxi-marker-shell"
     d="M 256,50 C 162.939,50 87.5,125.44 87.5,218.5 87.5,313 169.43,375.333 256,462 342.57,375.333 424.5,313 424.5,218.5 424.5,125.44 349.061,50 256,50 z m 0,286.958 c -68.275,0 -123.624,-55.349 -123.624,-123.624 0,-68.276 55.349,-123.625 123.624,-123.625 68.276,0 123.625,55.348 123.625,123.625 0,68.275 -55.349,123.624 -123.625,123.624 z"/>
     <path
     id="taxi-marker-content"
     d="m 334.43691,201.5241 c -2.79629,-3.08149 -6.45185,-4.90556 -10.96666,-5.47594 l -14.00555,-37.86665 -0.008,-0.002 c -0.8537,-2.32963 -2.07222,-4.37778 -3.66481,-6.13519 -3.22038,-3.55 -7.58333,-5.43147 -13.07963,-5.64814 l 0,-0.0222 -18.23333,0 0,-9.35926 c 0,-1.9537 -0.54074,-3.48703 -1.62778,-4.59629 -1.08333,-1.11296 -2.54815,-1.66852 -4.39444,-1.66852 l -17.41297,0 -6.99814,0 c -1.8463,0 -3.31111,0.55556 -4.39444,1.66852 -1.08704,1.11111 -1.62778,2.64445 -1.62778,4.59629 l 0,9.35926 -13.02037,0 0,0 -0.75556,0 -3.36111,0 c -6.01666,0 -10.74259,1.88889 -14.17406,5.67037 -1.5926,1.75741 -2.81297,3.80556 -3.66482,6.13518 l -0.006,0.002 -14.01481,37.86665 c -4.51481,0.57037 -8.16851,2.39259 -10.96667,5.47593 -3.42777,3.77963 -5.14444,8.89259 -5.14444,15.33333 l 0,5.04074 0,0 0,39.06296 15.62593,0 0,3.09444 0,16.68148 c 0,1.9537 0.54073,3.48704 1.62778,4.59629 1.08518,1.11481 2.54999,1.66667 4.39443,1.66667 l 4.39445,0 4.39444,0 c 1.84444,0 3.30927,-0.5537 4.39444,-1.66667 1.08519,-1.11111 1.62778,-2.64444 1.62778,-4.59629 l 0,-16.68148 0,-3.09444 93.74999,0 0,3.09444 0,16.68148 c 0,1.9537 0.54259,3.48704 1.62777,4.59629 1.08519,1.11481 2.55,1.66667 4.39444,1.66667 l 4.39445,0 4.39444,0 c 1.84445,0 3.30926,-0.5537 4.39445,-1.66667 1.08519,-1.11111 1.62778,-2.64444 1.62778,-4.59629 l 0,-16.68148 0,-3.09444 15.62407,0 0,-39.06667 0,-5.03888 c 0,-6.43889 -1.71852,-11.55185 -5.1463,-15.33148 z m -121.32034,-33.64815 0.006,-0.002 c 0.61297,-1.67407 1.48889,-3.14444 2.63148,-4.40555 2.46482,-2.71482 5.85927,-4.07222 10.18149,-4.07222 l 1.66851,0 0,0 1.28704,0 56.00184,0 2.43703,0 0,0.0167 c 3.95,0.15555 7.08149,1.50741 9.3963,4.05555 1.14259,1.26297 2.01852,2.73334 2.62963,4.40556 l 0.008,0.002 9.97592,27.97778 -106.19813,0 9.97593,-27.97778 z m -5.16853,62.43703 c -2.19073,1.33518 -5.2574,1.99814 -9.20554,1.99814 -3.94816,0 -6.87222,-0.66296 -8.77408,-1.99814 -0.9537,-2.18704 -1.42778,-5.89815 -1.42778,-8.41852 0,-2.51852 0.47408,-6.22963 1.42778,-8.42037 2.47222,-1.33148 5.53889,-1.99629 9.2037,-1.99629 3.66297,0 6.58704,0.66481 8.77592,1.99629 0.95,2.19074 1.42778,5.90185 1.42778,8.42037 0,2.52222 -0.47778,6.23148 -1.42778,8.41852 z m 114.58332,0 c -2.19074,1.33518 -5.25926,1.99814 -9.2074,1.99814 -3.95,0 -6.87222,-0.66296 -8.77408,-1.99814 -0.95185,-2.18704 -1.42778,-5.89815 -1.42778,-8.41852 0,-2.51852 0.47778,-6.22963 1.42778,-8.42037 2.47408,-1.33148 5.54074,-1.99629 9.20556,-1.99629 3.66111,0 6.58703,0.66481 8.77592,1.99629 0.95,2.19074 1.42778,5.90185 1.42778,8.42037 0,2.52222 -0.47778,6.23148 -1.42778,8.41852 z"/>
</svg>
