<svg
	version="1.1"
	xmlns="http://www.w3.org/2000/svg"
	xmlns:xlink="http://www.w3.org/1999/xlink"
   x="0px"
   y="0px"
   width="512px"
   height="512px"
   viewBox="0 0 512 512"
   enable-background="new 0 0 512 512"
   id="travelagency-marker">
   <path
   id="travelagency-marker-shell"
   d="M 256,50 C 162.939,50 87.5,125.44 87.5,218.5 87.5,313 169.43,375.333 256,462 342.57,375.333 424.5,313 424.5,218.5 424.5,125.44 349.061,50 256,50 z m 0,286.958 c -68.275,0 -123.624,-55.349 -123.624,-123.624 0,-68.276 55.349,-123.625 123.624,-123.625 68.276,0 123.625,55.348 123.625,123.625 0,68.275 -55.349,123.624 -123.625,123.624 z"/>
   <path
   id="travelagency-marker-content"
   d="m 254.34375,116.73955 c 53.23208,0 96.38545,43.15337 96.38545,96.38545 0,53.23208 -43.15337,96.38545 -96.38545,96.38545 -53.23208,0 -96.38545,-43.15337 -96.38545,-96.38545 0,-53.23208 43.15337,-96.38545 96.38545,-96.38545 z m 0,13.76948 c -4.17906,0 -8.28594,0.31046 -12.29847,0.90921 -0.85877,1.87016 -1.47101,3.92294 -1.47101,5.9753 0,6.88496 -6.88451,-6.88451 -13.76904,6.88496 -6.88495,13.76904 0,0 0,13.76904 0,6.88495 -9.96391,1.90321 -6.88495,3.44248 6.88495,3.44247 6.88495,3.44247 0,10.32699 0,0 -13.76904,-6.88452 -13.76904,0 0,6.88452 -6.88495,6.88452 -13.76947,6.88452 -6.88452,0 0,13.76948 -6.88452,13.76948 -5.29351,0 -2.44718,-8.14029 -7.10714,-11.90279 -1.77147,4.12732 -3.21638,8.42769 -4.30212,12.86896 4.63996,4.15732 5.41699,20.58051 11.40926,26.57277 6.88452,-6.88495 6.88452,0 13.76904,0 6.88495,0 6.88495,0 10.32699,6.88453 6.88495,0 10.327,6.88451 17.21195,13.76904 6.88453,6.88495 20.65357,6.88495 20.65357,13.76947 0,6.88452 -6.88453,0 -6.88453,13.76947 0,6.88452 0,6.88452 -6.88451,6.88452 -4.33473,0 -8.66989,8.18812 -11.28622,14.25343 9.82609,4.12254 20.61704,6.40056 31.94021,6.40056 23.12334,0 44.0278,-9.49953 59.02346,-24.80914 l -3.94644,-7.89287 c 0,0 8.60598,-13.76947 1.72147,-20.65399 -6.88496,-6.88452 -6.88496,-13.76947 -6.88496,-13.76947 0,0 -13.76904,13.76947 -20.65399,6.88451 -6.88453,-6.88451 -6.88453,0 -13.76904,-13.76904 -6.88495,-13.76947 6.88451,-20.65399 6.88451,-20.65399 0,0 0,-13.76948 6.88453,-13.76948 6.88495,0 13.76947,-13.76904 27.53895,0 0,0 7.95679,-5.30437 19.2143,-6.60101 -3.53119,-8.26856 -8.37161,-15.84401 -14.26126,-22.46589 -1.23663,0.88921 -2.85503,1.5284 -4.95304,1.5284 -6.88496,0 6.88451,13.76946 0,13.76946 -6.88496,0 -6.88496,-6.88495 -13.76948,-6.88495 -6.88452,0 -6.88452,6.88495 -13.76947,13.76948 -6.88453,6.88451 0,0 -6.88453,-6.88453 -6.88451,-6.88495 13.76948,0 6.88453,-6.88495 -6.88453,-6.88451 6.88495,-6.88451 6.88495,-13.76904 0,-5.40004 8.47031,-6.56449 12.12411,-6.81581 -3.9734,-2.86504 -8.21116,-5.38569 -12.12411,-6.95366 6.88452,6.88452 -6.88495,13.76947 -13.76948,13.76947 -6.46708,0 -0.78485,-12.14933 -0.0713,-19.32953 -7.09497,-1.98451 -14.57563,-3.04591 -22.3037,-3.04591 z M 171.72778,213.125 c 0,24.29997 10.49092,46.14928 27.19065,61.26626 l -6.53666,-13.07375 c -6.88452,0 -10.32699,-15.49006 -10.32699,-22.37501 0,-5.52484 -2.21715,-9.94132 0.46569,-15.02872 -9.71347,-9.75565 -3.90818,-4.46648 -3.90818,-10.78878 0,-3.27724 -3.12027,-6.55492 -6.39013,-9.0895 -0.32698,2.98504 -0.49438,6.01749 -0.49438,9.0895 z"/>
</svg>
