<svg
	version="1.1"
	xmlns="http://www.w3.org/2000/svg"
	xmlns:xlink="http://www.w3.org/1999/xlink"
   x="0px"
   y="0px"
   width="512px"
   height="512px"
   viewBox="0 0 512 512"
   enable-background="new 0 0 512 512"
   id="wallet-marker">
   <path
     id="wallet-marker-shell"
     d="M 256,50 C 162.939,50 87.5,125.44 87.5,218.5 87.5,313 169.43,375.333 256,462 342.57,375.333 424.5,313 424.5,218.5 424.5,125.44 349.061,50 256,50 z m 0,286.958 c -68.275,0 -123.624,-55.349 -123.624,-123.624 0,-68.276 55.349,-123.625 123.624,-123.625 68.276,0 123.625,55.348 123.625,123.625 0,68.275 -55.349,123.624 -123.625,123.624 z"/>
     <g
     id="wallet-marker-content"
     transform="matrix(3.3172669,0,0,3.3172669,178.19809,130.82309)">
     <path
       d="m 47.5,47.6 -47,0 0,-39 47,0 0,39 z m -45,-2 43,0 0,-35 -43,0 0,35 z"/>
       <polygon
       points="1.3,8.6 40.7,0.4 42.2,9.4 40.2,9.7 39.1,2.8 1.7,10.5 "/>
       <path
       d="m 47.5,34.7 -17,0 c -3.9,0 -7,-3.1 -7,-7 0,-3.9 3.1,-7 7,-7 l 17,0 0,14 z m -17,-12 c -2.8,0 -5,2.2 -5,5 0,2.8 2.2,5 5,5 l 15,0 0,-10 -15,0 z" />
       <rect
       x="29.1"
       y="26.700001"
       width="2.5"
       height="2" />
     </g>
</svg>
