<?xml version="1.0" encoding="UTF-8" standalone="no"?><svg
   xmlns:dc="http://purl.org/dc/elements/1.1/"
   xmlns:cc="http://creativecommons.org/ns#"
   xmlns:rdf="http://www.w3.org/1999/02/22-rdf-syntax-ns#"
   xmlns:svg="http://www.w3.org/2000/svg"
   xmlns="http://www.w3.org/2000/svg"
   xmlns:sodipodi="http://sodipodi.sourceforge.net/DTD/sodipodi-0.dtd"
   xmlns:inkscape="http://www.inkscape.org/namespaces/inkscape"
   version="1.1"
   x="0px"
   y="0px"
   width="512px"
   height="512px"
   viewBox="0 0 512 512"
   enable-background="new 0 0 512 512"
   xml:space="preserve"
   id="svg2"
   inkscape:version="0.48.4 r9939"
   sodipodi:docname="pharmacy.svg"><metadata
   id="metadata9"><rdf:RDF><cc:Work
       rdf:about=""><dc:format>image/svg+xml</dc:format><dc:type
         rdf:resource="http://purl.org/dc/dcmitype/StillImage" /><dc:title></dc:title></cc:Work></rdf:RDF></metadata><defs
   id="defs7" /><sodipodi:namedview
   pagecolor="#ffffff"
   bordercolor="#666666"
   borderopacity="1"
   objecttolerance="10"
   gridtolerance="10"
   guidetolerance="10"
   inkscape:pageopacity="0"
   inkscape:pageshadow="2"
   inkscape:window-width="913"
   inkscape:window-height="1041"
   id="namedview5"
   showgrid="false"
   inkscape:zoom="0.76171875"
   inkscape:cx="249.14118"
   inkscape:cy="241.12634"
   inkscape:window-x="2911"
   inkscape:window-y="0"
   inkscape:window-maximized="0"
   inkscape:current-layer="svg2" />
<path
   id="location-5-icon"
   d="M256,50c-93.061,0-168.5,75.44-168.5,168.5C87.5,313,169.43,375.333,256,462  c86.57-86.667,168.5-149,168.5-243.5C424.5,125.44,349.061,50,256,50z M256,336.958c-68.275,0-123.624-55.349-123.624-123.624  c0-68.276,55.349-123.625,123.624-123.625c68.276,0,123.625,55.348,123.625,123.625C379.625,281.609,324.276,336.958,256,336.958z" />
<path
   id="path4724"
   d="m 166.58554,254.32058 6.76247,-4.83469 30.30328,50.87607 125.60928,-75.74372 6.76247,8.05796 -132.37135,78.96658 -37.06615,-57.3222 z m 2.5515,-27.58648 5.15063,-3.22327 30.30369,52.48751 125.60928,-74.13188 5.15063,9.6694 -130.75991,77.35514 -35.45432,-62.1569 z m -1.63422,-29.16533 133.98277,-77.35515 38.67758,66.99159 -133.98278,77.35516 -38.67757,-66.9916 z m 87.02454,-35.45472 c -16.02066,0 -29.00818,12.98753 -29.00818,29.00818 0,16.02107 12.98752,29.00818 29.00818,29.00818 16.02065,0 29.00818,-12.98711 29.00818,-29.00818 0,-16.02065 -12.98753,-29.00818 -29.00818,-29.00818 z m 13.34498,47.3267 -4.41006,2.5462 -2.42366,-4.19753 -4.63601,1.80767 -3.87468,0.57243 -1.70141,-5.97182 4.03631,-0.48327 4.37505,-1.71891 c 1.31992,-0.7711 2.27506,-1.65173 2.86499,-2.64188 0.58993,-0.99014 0.64408,-1.93917 0.16326,-2.84626 -0.49141,-0.84358 -1.34395,-1.324 -2.5572,-1.44125 l -4.80824,0.44622 c -2.83078,0.59033 -5.32406,0.64978 -7.47983,0.17954 -2.15536,-0.47065 -3.87509,-1.77754 -5.15796,-3.92068 -1.16521,-2.04014 -1.50557,-4.13932 -1.0219,-6.29753 0.48408,-2.15821 1.82395,-4.18572 4.01962,-6.08256 l -2.44686,-4.23784 4.37708,-2.52707 2.2665,3.92557 4.0587,-1.67412 3.22816,-0.5704 1.62038,5.81548 -2.98346,0.39492 -4.56477,1.85041 c -1.41072,0.85255 -2.25633,1.70264 -2.53726,2.5515 -0.28091,0.84847 -0.21984,1.59759 0.18322,2.24738 0.39003,0.71573 1.19086,1.11513 2.40289,1.19818 l 5.36926,-0.55899 c 3.18867,-0.60337 5.75034,-0.56184 7.68422,0.12459 1.93429,0.68682 3.4761,2.05601 4.62503,4.10796 1.17986,2.04502 1.52756,4.19753 1.04266,6.45712 -0.4849,2.25999 -1.93226,4.39092 -4.34166,6.39361 l 2.62763,4.55133 z"
   inkscape:connector-curvature="0"
   style="fill:#000000;fill-opacity:1;stroke-width:0.2;stroke-linejoin:round" /></svg>