<?xml version="1.0" encoding="UTF-8" standalone="no"?><svg
   xmlns:dc="http://purl.org/dc/elements/1.1/"
   xmlns:cc="http://creativecommons.org/ns#"
   xmlns:rdf="http://www.w3.org/1999/02/22-rdf-syntax-ns#"
   xmlns:svg="http://www.w3.org/2000/svg"
   xmlns="http://www.w3.org/2000/svg"
   xmlns:sodipodi="http://sodipodi.sourceforge.net/DTD/sodipodi-0.dtd"
   xmlns:inkscape="http://www.inkscape.org/namespaces/inkscape"
   version="1.1"
   x="0px"
   y="0px"
   width="512px"
   height="512px"
   viewBox="0 0 512 512"
   enable-background="new 0 0 512 512"
   xml:space="preserve"
   id="svg2"
   inkscape:version="0.48.4 r9939"
   sodipodi:docname="test.svg"><metadata
   id="metadata9"><rdf:RDF><cc:Work
       rdf:about=""><dc:format>image/svg+xml</dc:format><dc:type
         rdf:resource="http://purl.org/dc/dcmitype/StillImage" /><dc:title></dc:title></cc:Work></rdf:RDF></metadata><defs
   id="defs7" /><sodipodi:namedview
   pagecolor="#ffffff"
   bordercolor="#666666"
   borderopacity="1"
   objecttolerance="10"
   gridtolerance="10"
   guidetolerance="10"
   inkscape:pageopacity="0"
   inkscape:pageshadow="2"
   inkscape:window-width="1148"
   inkscape:window-height="1041"
   id="namedview5"
   showgrid="false"
   inkscape:zoom="0.76171875"
   inkscape:cx="249.14118"
   inkscape:cy="241.12634"
   inkscape:window-x="2676"
   inkscape:window-y="0"
   inkscape:window-maximized="0"
   inkscape:current-layer="svg2" />
<path
   id="location-5-icon"
   d="M256,50c-93.061,0-168.5,75.44-168.5,168.5C87.5,313,169.43,375.333,256,462  c86.57-86.667,168.5-149,168.5-243.5C424.5,125.44,349.061,50,256,50z M256,336.958c-68.275,0-123.624-55.349-123.624-123.624  c0-68.276,55.349-123.625,123.624-123.625c68.276,0,123.625,55.348,123.625,123.625C379.625,281.609,324.276,336.958,256,336.958z" />
<path
   id="path4493"
   d="m 335.36543,133.99905 -0.29171,0.29124 c 0,0 10.07292,2.37017 -33.3691,50.46414 l 5.53303,29.21076 1.9169,-1.91689 c 2.86282,-2.86282 7.50455,-2.86282 10.36739,0 2.86329,2.86284 2.86329,7.50504 0,10.36787 l -9.26496,9.26497 2.07479,13.47699 0.71026,-0.71071 c 2.8633,-2.86285 7.50503,-2.86285 10.36785,0 2.86284,2.86329 2.86284,7.50502 0,10.36785 l -8.68989,8.68989 c 1.69695,15.12674 2.3512,28.18797 0.914,35.37306 0,0 -9.07141,9.07141 -14.25534,3.88793 0,0 -17.56267,-59.71335 -29.55711,-86.61551 -46.2868,47.05865 -49.4969,43.84855 -49.4969,43.84855 0,0 9.07187,29.80714 -1.29598,40.175 l -18.14376,-33.69508 0.2917,-0.2917 -33.69508,-18.14376 c 10.36786,-10.36786 40.175,-1.29598 40.175,-1.29598 0,0 -3.2101,-3.21008 43.84857,-49.4969 -26.90218,-11.99442 -86.61554,-29.5571 -86.61554,-29.5571 -5.18392,-5.18348 3.88795,-14.25534 3.88795,-14.25534 7.18509,-1.43722 20.24633,-0.78251 35.37305,0.91398 l 8.68989,-8.68989 c 2.86282,-2.86283 7.50458,-2.86283 10.36786,0 2.86284,2.86283 2.86284,7.50457 0,10.36787 l -0.71072,0.71073 13.47655,2.0743 9.26541,-9.26495 c 2.86284,-2.86328 7.50457,-2.86328 10.36787,0 2.86282,2.86283 2.86282,7.50458 0,10.36787 l -1.91689,1.91642 29.21077,5.53304 c 48.09396,-43.44204 50.46414,-33.36865 50.46414,-33.36865 z"
   inkscape:connector-curvature="0"
   style="fill:#000000;fill-opacity:1;stroke-width:0.2;stroke-linejoin:round" /></svg>