<svg
   version="1.1"
   xmlns="http://www.w3.org/2000/svg"
   xmlns:xlink="http://www.w3.org/1999/xlink"
   x="0px"
   y="0px"
   width="512px"
   height="512px"
   viewBox="0 0 512 512"
   enable-background="new 0 0 512 512"
   id="airport-marker">
<path
   id="airport-marker-shell"
   d="M256,50c-93.061,0-168.5,75.44-168.5,168.5C87.5,313,169.43,375.333,256,462  c86.57-86.667,168.5-149,168.5-243.5C424.5,125.44,349.061,50,256,50z M256,336.958c-68.275,0-123.624-55.349-123.624-123.624  c0-68.276,55.349-123.625,123.624-123.625c68.276,0,123.625,55.348,123.625,123.625C379.625,281.609,324.276,336.958,256,336.958z" />
<path
   id="airport-marker-content"
   d="m 335.36543,133.99905 -0.29171,0.29124 c 0,0 10.07292,2.37017 -33.3691,50.46414 l 5.53303,29.21076 1.9169,-1.91689 c 2.86282,-2.86282 7.50455,-2.86282 10.36739,0 2.86329,2.86284 2.86329,7.50504 0,10.36787 l -9.26496,9.26497 2.07479,13.47699 0.71026,-0.71071 c 2.8633,-2.86285 7.50503,-2.86285 10.36785,0 2.86284,2.86329 2.86284,7.50502 0,10.36785 l -8.68989,8.68989 c 1.69695,15.12674 2.3512,28.18797 0.914,35.37306 0,0 -9.07141,9.07141 -14.25534,3.88793 0,0 -17.56267,-59.71335 -29.55711,-86.61551 -46.2868,47.05865 -49.4969,43.84855 -49.4969,43.84855 0,0 9.07187,29.80714 -1.29598,40.175 l -18.14376,-33.69508 0.2917,-0.2917 -33.69508,-18.14376 c 10.36786,-10.36786 40.175,-1.29598 40.175,-1.29598 0,0 -3.2101,-3.21008 43.84857,-49.4969 -26.90218,-11.99442 -86.61554,-29.5571 -86.61554,-29.5571 -5.18392,-5.18348 3.88795,-14.25534 3.88795,-14.25534 7.18509,-1.43722 20.24633,-0.78251 35.37305,0.91398 l 8.68989,-8.68989 c 2.86282,-2.86283 7.50458,-2.86283 10.36786,0 2.86284,2.86283 2.86284,7.50457 0,10.36787 l -0.71072,0.71073 13.47655,2.0743 9.26541,-9.26495 c 2.86284,-2.86328 7.50457,-2.86328 10.36787,0 2.86282,2.86283 2.86282,7.50458 0,10.36787 l -1.91689,1.91642 29.21077,5.53304 c 48.09396,-43.44204 50.46414,-33.36865 50.46414,-33.36865 z"/>
 </svg>
