<?xml version="1.0" encoding="UTF-8" standalone="no"?><svg
   xmlns:dc="http://purl.org/dc/elements/1.1/"
   xmlns:cc="http://creativecommons.org/ns#"
   xmlns:rdf="http://www.w3.org/1999/02/22-rdf-syntax-ns#"
   xmlns:svg="http://www.w3.org/2000/svg"
   xmlns="http://www.w3.org/2000/svg"
   xmlns:sodipodi="http://sodipodi.sourceforge.net/DTD/sodipodi-0.dtd"
   xmlns:inkscape="http://www.inkscape.org/namespaces/inkscape"
   version="1.1"
   x="0px"
   y="0px"
   width="512px"
   height="512px"
   viewBox="0 0 512 512"
   enable-background="new 0 0 512 512"
   xml:space="preserve"
   id="svg2"
   inkscape:version="0.48.4 r9939"
   sodipodi:docname="aquarium.svg"><metadata
   id="metadata9"><rdf:RDF><cc:Work
       rdf:about=""><dc:format>image/svg+xml</dc:format><dc:type
         rdf:resource="http://purl.org/dc/dcmitype/StillImage" /><dc:title></dc:title></cc:Work></rdf:RDF></metadata><defs
   id="defs7" /><sodipodi:namedview
   pagecolor="#ffffff"
   bordercolor="#666666"
   borderopacity="1"
   objecttolerance="10"
   gridtolerance="10"
   guidetolerance="10"
   inkscape:pageopacity="0"
   inkscape:pageshadow="2"
   inkscape:window-width="913"
   inkscape:window-height="1041"
   id="namedview5"
   showgrid="false"
   inkscape:zoom="1.28"
   inkscape:cx="259.32897"
   inkscape:cy="241.16659"
   inkscape:window-x="2911"
   inkscape:window-y="0"
   inkscape:window-maximized="0"
   inkscape:current-layer="svg2" />
<path
   id="location-5-icon"
   d="M256,50c-93.061,0-168.5,75.44-168.5,168.5C87.5,313,169.43,375.333,256,462  c86.57-86.667,168.5-149,168.5-243.5C424.5,125.44,349.061,50,256,50z M256,336.958c-68.275,0-123.624-55.349-123.624-123.624  c0-68.276,55.349-123.625,123.624-123.625c68.276,0,123.625,55.348,123.625,123.625C379.625,281.609,324.276,336.958,256,336.958z" />
<g
   transform="matrix(0.66158936,0,0,0.66158936,68.616167,-150.9472)"
   style="display:inline"
   id="layer1"
   inkscape:label="1. réteg"><path
     d="m 360.78125,446.9375 c -0.26065,0.3878 -0.30903,0.79755 -0.15625,1.3125 0.18206,0.61364 0.65259,1.30011 1.09375,1.78125 a 0.66758084,0.66758084 0 0 1 0.0625,0.0625 c 3.45131,5.10485 6.89673,10.22587 10.125,15.5 a 0.66758084,0.66758084 0 0 1 0,0.6875 l -16.21875,25.625 a 0.66758084,0.66758084 0 0 1 -1.21875,-0.34375 c -0.31529,-14.06191 -0.24829,-28.10808 -0.3125,-42.15625 A 0.66758084,0.66758084 0 0 1 354.28125,449 c 0.0626,-0.0804 0.0466,0.002 0.0312,-0.0312 -0.0154,-0.0329 -0.12204,-0.15791 -0.25,-0.21875 -0.12796,-0.0608 -0.26224,-0.0366 -0.28125,-0.0312 -9.7e-4,0.0104 9.7e-4,0.0209 0,0.0312 -1.10755,11.88095 -0.2078,23.85059 -0.46875,35.875 l 0.0937,6.90625 a 0.66758084,0.66758084 0 0 1 -1.21875,0.375 l -16.5625,-25.4375 a 0.66758084,0.66758084 0 0 1 -0.0312,-0.65625 c 1.55665,-3.18071 3.54156,-6.04998 5.40625,-8.9375 -2.01764,1.85758 -3.85197,3.90022 -4.96875,6.375 a 0.66758084,0.66758084 0 0 1 -0.125,0.21875 c -0.32082,0.30406 -0.73606,0.40023 -1.0625,0.4375 -0.32644,0.0373 -0.61855,0.0273 -0.84375,0.0312 -0.2252,0.004 -0.36736,0.0119 -0.40625,0.0312 -0.0322,0.016 -0.0387,0.0391 -0.0625,0.125 -0.005,0.0179 0.007,0.002 0,0.0312 0.28455,1.58627 -0.0665,3.0622 -0.71875,4.375 -0.69632,1.40144 -1.65316,2.66758 -2.4375,3.8125 -4.30635,6.41974 -8.56209,12.85975 -12.71875,19.375 a 0.66758084,0.66758084 0 0 1 -1.03125,0.125 c -0.0576,-0.0592 -0.0764,-0.0654 -0.125,-0.0625 -0.0486,0.003 -0.13289,0.0541 -0.21875,0.125 -0.0859,0.0709 -0.16557,0.17754 -0.1875,0.25 -0.0219,0.0725 -2.1e-4,0.0997 0.0312,0.15625 a 0.66758084,0.66758084 0 0 1 0,0.59375 c -1.39311,2.9929 -2.70503,6.0232 -4.0625,9.03125 0.78271,-1.19966 1.54252,-2.40391 2.34375,-3.59375 a 0.66758084,0.66758084 0 0 1 1.21875,0.375 l 0.15625,51.5625 a 0.66758084,0.66758084 0 0 1 -1.21875,0.375 c -4.8105,-7.05709 -9.41588,-14.22499 -14.0625,-21.375 -0.0863,0.46362 -0.0775,0.95419 0.0625,1.46875 0.24672,0.9068 0.80486,1.83497 1.40625,2.5625 a 0.66758084,0.66758084 0 0 1 0.0625,0.0625 c 4.41176,6.67363 8.86413,13.31673 13.1875,20.0625 a 0.66758084,0.66758084 0 0 1 -0.53125,1.03125 c -8.81309,0.36395 -17.60326,0.21767 -26.375,0.4375 -0.0586,0.0275 -0.0769,0.0601 -0.0937,0.125 -0.0216,0.0832 -0.0366,0.2481 0.0312,0.40625 0.0679,0.15815 0.19821,0.29626 0.28125,0.34375 0.083,0.0475 0.102,0.055 0.21875,0 a 0.66758084,0.66758084 0 0 1 0.25,-0.0625 c 8.13768,-0.20741 16.28796,-0.15102 24.40625,-0.21875 a 0.66758084,0.66758084 0 0 1 0.5625,1.03125 l -16.5,24.75 a 0.66758084,0.66758084 0 0 1 -1.09375,0.0312 c -4.23506,-5.68165 -7.85254,-11.75917 -11.78125,-17.5625 A 0.66758084,0.66758084 0 0 1 284.5,563.1875 c -0.0311,-0.0204 -0.11797,-0.0541 -0.21875,-0.0625 -0.0982,-0.008 -0.16232,0.0215 -0.1875,0.0312 a 0.66758084,0.66758084 0 0 1 0,0.1875 c -0.2383,1.20639 0.13864,2.254 0.78125,3.34375 0.63844,1.08268 1.53393,2.13277 2.21875,3.3125 0.004,0.008 -0.004,0.0235 0,0.0312 l 8.5625,13 a 0.66758084,0.66758084 0 0 1 0,0.75 l -15.9375,23.15625 A 0.66758084,0.66758084 0 0 1 278.5,606.5625 c 0.17578,-11.24312 0.01,-22.51456 0.125,-33.78125 -0.0144,0.0256 -0.0506,0.0379 -0.0625,0.0625 -0.0752,0.15572 -0.0384,0.2915 -0.0625,0.1875 a 0.66758084,0.66758084 0 0 1 -0.0312,0.40625 c -1.8846,4.41897 -1.07497,9.47486 -1.21875,14.46875 1.2e-4,0.0104 -1.2e-4,0.0208 0,0.0312 0.069,6.20952 -0.0547,12.40252 -0.125,18.59375 a 0.66758084,0.66758084 0 0 1 -1.15625,0.4375 c -4.32765,-4.95537 -7.4742,-10.68173 -11.34375,-15.78125 a 0.66758084,0.66758084 0 0 1 -0.125,-0.5 c 0.022,-0.13626 0.0108,-0.14946 -0.0625,-0.21875 -0.0733,-0.0693 -0.24206,-0.17214 -0.40625,-0.1875 -0.16419,-0.0154 -0.30098,0.0616 -0.34375,0.0937 -0.0428,0.0322 -0.0817,-9.1e-4 -0.0625,0.1875 a 0.66758084,0.66758084 0 0 1 0,0.125 c -0.0695,0.85556 0.31501,1.54845 0.875,2.34375 0.53575,0.76087 1.23873,1.57034 1.6875,2.5625 0.0203,0.0449 0.0433,0.0792 0.0625,0.125 l 9.96875,15.0625 a 0.66758084,0.66758084 0 0 1 -0.5625,1.03125 l -33.78125,0.59375 a 0.66758084,0.66758084 0 0 1 -0.5625,-1 c 2.75547,-4.34416 5.61414,-8.62176 8.5,-12.875 -1.95912,0.98289 -3.41164,3.01296 -4.40625,5.09375 a 0.66758084,0.66758084 0 0 1 -0.0625,0.0937 l -3.28125,4.5625 A 0.66758084,0.66758084 0 0 1 240.875,608 c -0.37269,-2.60424 -0.19014,-5.15127 -0.5,-7.5625 -0.41342,-0.0714 -0.9324,0.36001 -0.75,0.75 a 0.66758084,0.66758084 0 0 1 0.0625,0.34375 c -0.15475,2.0549 0.35218,4.25143 0,6.59375 a 0.66758084,0.66758084 0 0 1 -1.09375,0.40625 c -2.68929,-2.44879 -3.95261,-5.82582 -6.4375,-7.8125 -0.0584,0.0657 -0.13839,0.19567 -0.15625,0.34375 -0.0357,0.29616 0.0796,0.55189 0.25,0.625 a 0.66758084,0.66758084 0 0 1 0.28125,0.21875 c 2.23528,3.00859 4.23711,6.16216 6.28125,9.25 a 0.66758084,0.66758084 0 0 1 -0.5625,1.03125 c -11.28215,0.13453 -22.56727,0.15867 -33.84375,0.15625 a 0.66758084,0.66758084 0 0 1 -0.15625,0 c -0.44002,-0.0965 -0.81555,-0.37827 -1.03125,-0.71875 -0.2157,-0.34048 -0.26656,-0.70676 -0.25,-1.0625 0.03,-0.64332 0.31816,-1.24505 0.78125,-1.6875 l -0.0312,0 c 3.28661,-4.72503 6.6556,-9.40447 9.75,-14.21875 -0.006,-0.005 0.009,-0.0227 0,-0.0312 -0.0473,-0.0444 -0.19831,-0.0801 -0.34375,-0.0937 -0.14544,-0.0137 -0.27764,0.0224 -0.34375,0.0625 -0.0661,0.0401 -0.0856,0.0274 -0.0937,0.125 a 0.66758084,0.66758084 0 0 1 -0.0937,0.3125 c -2.99286,4.36191 -5.9829,8.72706 -8.96875,13.09375 a 0.66758084,0.66758084 0 0 1 -1.21875,-0.25 c -1.25575,-7.24071 0.19801,-14.44436 -0.65625,-21.40625 a 0.66758084,0.66758084 0 0 1 0,-0.0625 c -0.033,-0.51002 0.0174,-1.03608 -0.0312,-1.375 -0.0186,-0.12992 -0.0422,-0.1793 -0.0625,-0.21875 -0.0324,0.0369 -0.1056,0.0771 -0.125,0.125 -0.0437,0.10768 -0.0827,0.30669 -0.0625,0.5625 0.0384,0.48709 0.23889,1.12471 0.1875,1.84375 -0.003,0.0362 0.004,0.0572 0,0.0937 0.1668,6.8287 0.0118,13.668 -0.0312,20.46875 a 0.66758084,0.66758084 0 0 1 -1.09375,0.53125 c -3.4845,-2.85641 -5.03437,-7.067 -7.65625,-10.15625 a 0.66758084,0.66758084 0 0 1 -0.0625,-0.0625 l -9.5,-13.78125 a 0.66758084,0.66758084 0 0 1 -0.0937,-0.53125 c 0.95668,-4.14625 4.06108,-7.02052 5.71875,-10.375 a 0.66758084,0.66758084 0 0 1 0,-0.0312 c 0.64764,-1.16822 1.49175,-2.05598 1.8125,-2.9375 -0.0575,-0.008 -0.12625,-0.0427 -0.1875,-0.0312 -0.10141,0.019 -0.16985,0.0743 -0.1875,0.0937 -0.0177,0.0194 -0.0118,-0.0114 0,0.0625 a 0.66758084,0.66758084 0 0 1 -0.0937,0.4375 c -2.22451,3.70363 -4.58942,7.30741 -6.9375,10.90625 a 0.66758084,0.66758084 0 0 1 -1.09375,0.0312 c -5.91331,-7.40323 -10.18036,-15.82313 -15.5625,-23.40625 -0.25282,-0.19964 -0.49737,-0.41517 -0.59375,-0.6875 -0.13385,-0.3782 -0.14989,-0.78615 -0.0625,-1.15625 0.0874,-0.3701 0.28943,-0.73707 0.625,-1 0.27242,-0.21345 0.67739,-0.25351 1.0625,-0.21875 l 0,-0.0312 c 0.0836,-0.007 0.16648,0.007 0.25,0 4.14706,-0.34144 8.26442,-0.045 12.3125,-0.0625 -0.007,-0.0459 -0.0145,-0.11093 -0.0625,-0.1875 -0.0649,-0.10351 -0.17366,-0.16948 -0.21875,-0.1875 -0.0451,-0.018 0.009,-0.0283 -0.0312,0 a 0.66758084,0.66758084 0 0 1 -0.4375,0.0937 c -4.08296,-0.39079 -8.25431,-0.0988 -12.46875,-0.25 -0.31291,0.15996 -0.67085,0.2357 -0.96875,0.15625 -0.4106,-0.1095 -0.70961,-0.35394 -0.9375,-0.65625 -0.22789,-0.30231 -0.3852,-0.6672 -0.375,-1.09375 0.008,-0.32324 0.20558,-0.64795 0.46875,-0.90625 0.007,-0.0124 0.0239,-0.0188 0.0312,-0.0312 1.77426,-3.0021 3.66226,-5.87391 5.3125,-8.875 -0.007,-0.005 0.0141,-0.0191 0,-0.0312 -0.0469,-0.0404 -0.19981,-0.11742 -0.34375,-0.125 -0.14394,-0.008 -0.26414,0.0597 -0.3125,0.0937 -0.0484,0.0341 -0.0658,-0.0165 -0.0625,0.0937 a 0.66758084,0.66758084 0 0 1 -0.0625,0.34375 c -1.06248,2.08267 -2.34382,4.00182 -3.59375,5.90625 A 0.66758084,0.66758084 0 0 1 165.0625,549.75 c -1.69082,-3.63787 -0.56519,-7.50819 -0.84375,-10.875 a 0.66758084,0.66758084 0 0 1 0,-0.125 c 0.0554,-0.67865 -0.16363,-1.40703 -0.375,-2.15625 -0.0727,0.038 -0.14486,0.10694 -0.21875,0.21875 -0.16889,0.25556 -0.19306,0.62532 -0.0937,0.78125 a 0.66758084,0.66758084 0 0 1 0.0937,0.34375 c 0.0687,4.17866 0.12065,8.35222 0.15625,12.53125 a 0.66758084,0.66758084 0 0 1 -1.1875,0.40625 c -6.11247,-7.94481 -10.86456,-16.75627 -16.5,-24.875 l 0.0312,0 c -0.37789,-0.41725 -0.50431,-0.91689 -0.5,-1.34375 0.004,-0.38024 0.0536,-0.67641 0.0937,-0.9375 -0.089,-0.31546 -0.29854,-0.47237 -0.75,-0.6875 -0.43669,-0.2081 -1.02413,-0.44123 -1.5625,-0.84375 l 0,0.0312 c -0.1772,-0.0957 -0.39569,-0.18961 -0.625,-0.3125 0.2037,0.5304 0.48302,1.07405 0.65625,1.75 0.21111,0.82375 0.18309,1.8408 -0.46875,2.6875 -0.0195,0.0322 -0.043,0.0616 -0.0625,0.0937 -4.67287,7.69958 -9.58903,15.22383 -14.34375,22.84375 a 0.66758084,0.66758084 0 0 1 -1.1875,-0.0937 c -1.26896,-3.26966 -0.19369,-6.6286 -0.65625,-9.5 a 0.66758084,0.66758084 0 0 1 0,-0.0625 c -0.28136,-7.53959 -0.25955,-15.06681 -0.21875,-22.59375 -0.05,-0.0295 -0.0906,-0.0914 -0.15625,-0.0937 -0.11598,-0.004 -0.28084,0.0505 -0.4375,0.15625 -0.31331,0.2115 -0.47049,0.53271 -0.375,0.78125 a 0.66758084,0.66758084 0 0 1 0.0312,0.25 c 0.18268,20.64376 0.44455,41.29039 0.625,61.9375 0.1466,19.84213 -0.0719,39.66736 -0.25,59.5 l 0.6875,0 c 0.0444,-7.86061 0.13595,-15.75091 0.34375,-23.59375 a 0.66758084,0.66758084 0 0 1 1.125,-0.4375 l 0.0312,0.0312 a 0.66758084,0.66758084 0 0 1 0.0937,0.0937 c 5.22181,7.91674 10.36643,15.87349 15.5,23.84375 a 0.66758084,0.66758084 0 0 1 0.0312,0.0625 l 2.59375,0 c 4.93268,-8.64446 10.63677,-16.7612 15.90625,-25.125 a 0.66758084,0.66758084 0 0 1 0.1875,-0.21875 l 0.0937,-0.0625 a 0.66758084,0.66758084 0 0 1 0.375,-0.0937 l 0.0625,0 a 0.66758084,0.66758084 0 0 1 0.65625,0.59375 c 0.46463,6.37789 0.21469,12.78037 0.34375,19.09375 0.006,1.95007 -0.0203,3.87526 -0.0312,5.8125 l 0.5,0 0,-24.1875 a 0.66758084,0.66758084 0 0 1 0.1875,-0.46875 l 0.0312,-0.0312 a 0.66758084,0.66758084 0 0 1 0.46875,-0.1875 l 0.0312,0 a 0.66758084,0.66758084 0 0 1 0.53125,0.25 c 5.86599,7.89414 10.69074,16.437 15.96875,24.625 l 2.53125,0 C 188.91031,631.10505 194.35514,623.0797 199.59375,615 A 0.66758084,0.66758084 0 0 1 200,614.71875 l 0.125,-0.0312 a 0.66758084,0.66758084 0 0 1 0.5625,0.125 l 0.125,0.0937 a 0.66758084,0.66758084 0 0 1 0.25,0.375 c 0.97668,4.09489 0.22878,8.20823 0.59375,12.0625 a 0.66758084,0.66758084 0 0 1 0,0.0625 c 0.0318,4.05546 0.0444,8.10437 0.0625,12.15625 l 0.65625,0 -0.21875,-24.1875 a 0.66758084,0.66758084 0 0 1 0.28125,-0.5625 l 0.0937,-0.0625 a 0.66758084,0.66758084 0 0 1 0.375,-0.0937 l 0.0625,0 A 0.66758084,0.66758084 0 0 1 203.5,614.9375 c 5.44411,7.75474 10.40458,15.79418 15.5625,23.6875 l -0.0312,0.0312 c 0.2432,0.26128 0.34349,0.58703 0.46875,0.90625 l 2.6875,0 L 238.5,615.125 a 0.66758084,0.66758084 0 0 1 1.21875,0.375 l -0.0937,24.0625 1.03125,0 0.125,-23.375 a 0.66758084,0.66758084 0 0 1 1.1875,-0.375 l 2.78125,3.90625 a 0.66758084,0.66758084 0 0 1 0.0312,0 c 4.34773,6.53251 8.71039,13.06478 12.71875,19.84375 l 2.53125,0 15.5625,-23.59375 a 0.66758084,0.66758084 0 0 1 1.21875,0.375 l 0.125,23.21875 1.5,0 0.0312,-22.875 a 0.66758084,0.66758084 0 0 1 1.21875,-0.375 l 15.125,23.25 3.375,0 15.3125,-23.5 a 0.66758084,0.66758084 0 0 1 1.21875,0.375 l 0.15625,23.125 1.625,0 0.0625,-22.78125 a 0.66758084,0.66758084 0 0 1 1.21875,-0.375 l 15.0625,23.15625 3.53125,0 15.09375,-23.9375 a 0.66758084,0.66758084 0 0 1 1.21875,0.34375 l 0.15625,12.0625 c 0.0122,3.83761 0.0549,7.69036 0.0937,11.53125 l 1.15625,0 -0.1875,-23.53125 a 0.66758084,0.66758084 0 0 1 1.21875,-0.375 l 15.71875,23.90625 3.53125,0 15.40625,-24.1875 A 0.66758084,0.66758084 0 0 1 391,615.71875 l 0.0625,12.6875 0.0625,11.15625 0.875,0 -0.125,-24 a 0.66758084,0.66758084 0 0 1 1.21875,-0.375 l 8.5,12.9375 7.40625,11.4375 0.96875,0 -16.4375,-25.125 a 0.66758084,0.66758084 0 0 1 0.5625,-1.03125 c 4.12315,10e-4 8.24994,-0.0154 12.375,-0.0312 4.12507,-0.0159 8.24505,-0.0312 12.375,0 l 8.28125,0.0937 a 0.66758084,0.66758084 0 0 1 0.5625,1.03125 l -16.28125,25.0625 1,0 L 428,615.5 a 0.66758084,0.66758084 0 0 1 1.21875,0.375 l 0,23.6875 0.84375,0 -0.0312,-156.09375 c -0.35768,-0.36201 -0.69841,-0.70785 -0.96875,-1 l -0.0625,8.5 a 0.66758084,0.66758084 0 0 1 -1.21875,0.375 l -16.125,-24.9375 c -0.80678,-0.60833 -1.57154,-1.23909 -2.34375,-1.84375 l 0.5625,0.90625 a 0.66758084,0.66758084 0 0 1 0,0.71875 l -16.46875,25.65625 a 0.66758084,0.66758084 0 0 1 -1.21875,-0.375 c -0.0564,-12.63627 -0.0876,-25.26573 0.0312,-37.90625 -0.025,-0.12891 -0.0562,-0.13958 -0.15625,-0.1875 -0.10005,-0.0479 -0.29409,-0.0956 -0.46875,-0.0625 -0.17466,0.0331 -0.31467,0.14991 -0.375,0.21875 -0.0603,0.0688 -0.0675,0.0712 -0.0312,0.21875 a 0.66758084,0.66758084 0 0 1 0,0.15625 l -0.25,37.4375 a 0.66758084,0.66758084 0 0 1 -1.21875,0.34375 l -16.15625,-25.375 a 0.66758084,0.66758084 0 0 1 0,-0.6875 l 10.25,-16.15625 c -0.268,-0.0656 -0.57512,-0.059 -0.875,0.0625 -0.49458,0.20042 -0.87423,0.63652 -0.9375,1.09375 a 0.66758084,0.66758084 0 0 1 -0.0937,0.28125 l -8.4375,12.96875 a 0.66758084,0.66758084 0 0 1 -1.09375,0.0312 c -4.04268,-5.46883 -7.54822,-11.28701 -11.34375,-16.84375 -0.10791,-0.0628 -0.18674,-0.10087 -0.25,-0.125 z m -26.125,20.1875 a 0.66758084,0.66758084 0 0 1 0.6875,0.28125 l 17.53125,27.4375 a 0.66758084,0.66758084 0 0 1 -0.53125,1.03125 c -11.23868,0.2732 -22.47224,-0.22197 -33.65625,-0.0937 A 0.66758084,0.66758084 0 0 1 318.25,495.625 c -0.37633,-0.34659 -0.63206,-0.81027 -0.6875,-1.25 -0.0554,-0.43973 0.0464,-0.85163 0.1875,-1.21875 0.2785,-0.72473 0.76205,-1.31241 1.0625,-1.75 0.005,-0.007 -0.005,-0.0239 0,-0.0312 5.09576,-8.00571 10.2186,-16.01832 15.40625,-23.96875 a 0.66758084,0.66758084 0 0 1 0.4375,-0.28125 z m 75.90625,0.1875 a 0.66758084,0.66758084 0 0 1 0.6875,0.28125 l 17.40625,26.96875 a 0.66758084,0.66758084 0 0 1 -0.5625,1.03125 l -34.9375,0.28125 a 0.66758084,0.66758084 0 0 1 -0.5625,-1.03125 l 17.53125,-27.25 a 0.66758084,0.66758084 0 0 1 0.4375,-0.28125 z m -38.0625,0.5 c 0.20322,-0.006 0.20454,0.003 0.28125,0 a 0.66758084,0.66758084 0 0 1 0.5625,0.28125 c 5.66965,8.75712 11.42201,17.48983 16.96875,26.34375 a 0.66758084,0.66758084 0 0 1 -0.5,1 c -7.60907,0.8393 -15.20222,0.0192 -22.65625,0.5 -3.81866,0.10158 -7.63138,0.094 -11.4375,0.0937 a 0.66758084,0.66758084 0 0 1 -0.5625,-1 c 5.31847,-9.14298 11.12301,-17.96766 16.8125,-26.84375 a 0.66758084,0.66758084 0 0 1 0.15625,-0.15625 l 0.125,-0.0937 a 0.66758084,0.66758084 0 0 1 0.25,-0.125 z m -53.21875,28.65625 c 0.0208,5.2e-4 0.0417,-5.2e-4 0.0625,0 10.60083,0.26605 21.19122,0.2543 31.8125,0.40625 a 0.66758084,0.66758084 0 0 1 0.5625,1 c -5.18237,8.46828 -10.4681,16.88682 -15.8125,25.25 a 0.66758084,0.66758084 0 0 1 -1.125,0 c -5.59013,-8.33053 -10.99158,-16.77336 -16.5625,-25.09375 a 0.66758084,0.66758084 0 0 1 -0.0937,-0.25 c -0.0722,-0.33839 0.0238,-0.66956 0.25,-0.9375 0.21102,-0.25 0.56136,-0.36884 0.90625,-0.34375 l 0,-0.0312 z m 107.40625,0.1875 a 0.66758084,0.66758084 0 0 1 0.5625,1.03125 l -16.46875,25 a 0.66758084,0.66758084 0 0 1 -1.125,0 c -5.37325,-7.73306 -10.20447,-15.77139 -15.3125,-23.625 a 0.66758084,0.66758084 0 0 1 0,-0.71875 c 0.59255,-0.97077 1.61525,-1.26982 2.5,-1.3125 0.88475,-0.0427 1.74184,0.0802 2.3125,0 a 0.66758084,0.66758084 0 0 1 0.0625,0 c 9.15529,-0.24456 18.32321,-0.28615 27.46875,-0.375 z m -68.5625,0.25 c 0.53518,-0.0206 1.0798,-0.025 1.625,0 0.0105,4.8e-4 0.0208,-5e-4 0.0312,0 l 28.90625,0.0312 a 0.66758084,0.66758084 0 0 1 0.5625,1 c -4.89196,7.85725 -9.93238,15.63331 -14.9375,23.40625 -0.0583,0.3385 -0.17713,0.67446 -0.40625,0.875 -0.31976,0.27988 -0.70926,0.38416 -1.09375,0.40625 -0.38449,0.0221 -0.77451,-0.0637 -1.125,-0.3125 -0.26201,-0.18598 -0.41467,-0.49173 -0.5,-0.84375 -0.008,-0.0122 -0.0236,-0.019 -0.0312,-0.0312 C 366.21297,513.57723 361.09289,505.8402 356,498.0625 a 0.66758084,0.66758084 0 0 1 0.46875,-1.03125 c 0.55443,-0.0722 1.11084,-0.10402 1.65625,-0.125 z m -5.40625,1.71875 a 0.66758084,0.66758084 0 0 1 0.78125,0.65625 l 0.3125,23.125 -0.21875,27.15625 a 0.66758084,0.66758084 0 0 1 -1.1875,0.375 c -5.66688,-7.92028 -10.63109,-16.27451 -16.09375,-24.25 a 0.66758084,0.66758084 0 0 1 -0.0625,-0.59375 c 1.54371,-4.12134 4.30638,-7.50099 6.3125,-11.125 a 0.66758084,0.66758084 0 0 1 0.0312,-0.0625 l 9.6875,-15 a 0.66758084,0.66758084 0 0 1 0.4375,-0.28125 z m 2.125,0.0937 a 0.66758084,0.66758084 0 0 1 0.75,0.28125 l 2,3 a 0.66758084,0.66758084 0 0 1 0,0.0312 c 4.70537,7.45615 9.55482,14.82875 14.25,22.3125 a 0.66758084,0.66758084 0 0 1 0,0.6875 c -5.23527,8.20501 -10.43333,16.46265 -15.75,24.625 a 0.66758084,0.66758084 0 0 1 -1.21875,-0.25 c -0.7479,-4.16017 -0.26693,-8.30689 -0.40625,-12.3125 a 0.66758084,0.66758084 0 0 1 0,-0.0312 c 0.1706,-12.5493 0.0103,-25.12456 -0.0937,-37.6875 a 0.66758084,0.66758084 0 0 1 0.46875,-0.65625 z m 73.1875,0.0312 a 0.66758084,0.66758084 0 0 1 0.84375,0.65625 l -0.125,49.90625 a 0.66758084,0.66758084 0 0 1 -1.21875,0.375 C 421.96826,541.51738 416.47577,533.31668 411.125,525 a 0.66758084,0.66758084 0 0 1 0,-0.71875 c 5.21964,-8.62534 10.93032,-16.91143 16.53125,-25.25 a 0.66758084,0.66758084 0 0 1 0.375,-0.28125 z m -110.59375,0.0937 a 0.66758084,0.66758084 0 0 1 0.375,0.28125 c 5.79621,8.20604 11.1954,16.6506 16.59375,25.09375 a 0.66758084,0.66758084 0 0 1 0.0625,0.5625 c -0.82603,2.65867 -2.70939,4.62439 -3.78125,6.78125 a 0.66758084,0.66758084 0 0 1 -0.0312,0.0625 l -12.5625,18.78125 a 0.66758084,0.66758084 0 0 1 -1.21875,-0.375 c -0.1727,-16.80237 -0.32891,-33.60358 -0.46875,-50.40625 a 0.66758084,0.66758084 0 0 1 0.15625,-0.4375 c 0.0222,-0.0258 0.0604,-0.0944 0.1875,-0.1875 0.1271,-0.0931 0.40016,-0.23225 0.6875,-0.15625 z m 72.6875,0.0937 a 0.66758084,0.66758084 0 0 1 0.84375,0.65625 L 391,505.75 c -0.23234,13.58017 -0.0798,27.17588 -0.3125,40.78125 0.16148,0.6293 0.0105,1.24392 -0.34375,1.75 -0.20084,0.2869 -0.48838,0.56508 -0.90625,0.65625 -0.41787,0.0912 -0.87792,-0.0664 -1.21875,-0.375 a 0.66758084,0.66758084 0 0 1 -0.125,-0.125 c -1.38765,-1.98731 -2.34934,-4.12811 -3.625,-6 a 0.66758084,0.66758084 0 0 1 0,-0.0312 c -3.3433,-5.49168 -7.0894,-10.77694 -10.5625,-16.25 a 0.66758084,0.66758084 0 0 1 -0.0937,-0.28125 c -0.12144,-1.46791 0.43975,-2.72096 1.09375,-3.8125 0.654,-1.09154 1.38288,-2.08564 1.8125,-3.0625 a 0.66758084,0.66758084 0 0 1 0.0625,-0.0625 c 4.18693,-6.66939 8.58693,-13.19745 12.96875,-19.71875 a 0.66758084,0.66758084 0 0 1 0.375,-0.28125 z m 2.375,0.28125 a 0.66758084,0.66758084 0 0 1 0.625,0.1875 l 0.125,0.125 a 0.66758084,0.66758084 0 0 1 0.0937,0.0937 c 5.30988,7.93119 10.34428,16.01654 15.53125,24 a 0.66758084,0.66758084 0 0 1 0.0937,0.4375 c -0.0881,1.10473 -0.59738,1.98619 -1.125,2.75 -0.52762,0.76381 -1.06463,1.42891 -1.34375,2.125 a 0.66758084,0.66758084 0 0 1 -0.0625,0.125 c -4.29711,6.711 -8.68655,13.34935 -13.0625,20 a 0.66758084,0.66758084 0 0 1 -1.09375,0.0312 c -0.69841,-0.9482 -0.79564,-2.02945 -0.78125,-3 0.0144,-0.97055 0.11127,-1.88975 -0.0312,-2.625 a 0.66758084,0.66758084 0 0 1 0,-0.15625 C 391.81716,528.83199 391.85368,514.37134 392,499.875 a 0.66758084,0.66758084 0 0 1 0.5,-0.65625 z m 17.375,26.75 a 0.66758084,0.66758084 0 0 1 0.75,0.28125 l 4.375,6.5 13.34375,20.0625 a 0.66758084,0.66758084 0 0 1 -0.5625,1.03125 c -11.58771,0.10849 -23.16311,-0.16899 -34.71875,0 a 0.66758084,0.66758084 0 0 1 -0.65625,-0.78125 c 0.70857,-3.6903 3.49795,-6.21153 4.96875,-9.0625 a 0.66758084,0.66758084 0 0 1 0.0312,-0.0625 L 409.5,526.25 a 0.66758084,0.66758084 0 0 1 0.375,-0.28125 z m -265.5,0.34375 c 0.37793,-0.0428 0.27615,-0.10512 0.59375,0.0625 0.56776,0.30605 0.86169,0.79025 1.09375,1.1875 0.23206,0.39725 0.4297,0.73928 0.625,0.90625 a 0.66758084,0.66758084 0 0 1 0.125,0.125 c 4.17908,6.04089 8.01406,12.28056 12.125,18.3125 l 4.1875,6.53125 a 0.66758084,0.66758084 0 0 1 -0.53125,1.03125 c -10.94921,0.74955 -21.86758,0.15067 -32.75,0.125 l 0,-0.0625 c -0.36726,0.0912 -0.75503,0.17891 -1.0625,0.0312 -0.38881,-0.18672 -0.67512,-0.5225 -0.84375,-0.875 -0.30353,-0.6345 -0.20458,-1.46998 0.34375,-2.0625 l -0.0312,-0.0312 c 4.95986,-8.39293 10.19644,-16.61249 15.4375,-24.8125 a 0.66758084,0.66758084 0 0 1 0.15625,-0.15625 c -0.002,0.002 0.13548,-0.21893 0.53125,-0.3125 z m 190.71875,0.15625 a 0.66758084,0.66758084 0 0 1 0.65625,0.25 l 1.125,1.5 a 0.66758084,0.66758084 0 0 1 0,0.0312 c 5.49181,7.74309 10.44252,15.81524 15.65625,23.6875 a 0.66758084,0.66758084 0 0 1 0.0937,0.4375 c -0.0494,0.48933 -0.26293,0.94478 -0.59375,1.21875 -0.33082,0.27397 -0.73168,0.38212 -1.09375,0.4375 -0.70001,0.10707 -1.37548,-0.008 -1.8125,-0.0312 -0.0151,-8e-4 -0.0481,6.1e-4 -0.0625,0 -9.98387,0.26705 -19.98863,0.43564 -29.96875,0.625 a 0.66758084,0.66758084 0 0 1 -0.34375,-0.0937 c -0.398,-0.23819 -0.68341,-0.60068 -0.78125,-1 -0.0978,-0.39932 -0.0471,-0.76676 0.0625,-1.09375 0.2193,-0.65398 0.63247,-1.2083 0.875,-1.5625 l 15.75,-24.125 a 0.66758084,0.66758084 0 0 1 0.4375,-0.28125 z m 37.125,0.0625 c 0.31039,-0.0186 0.25529,3.3e-4 0.40625,0.0312 a 0.66758084,0.66758084 0 0 1 0.375,0.21875 c 2.90538,3.38418 4.82606,7.35528 7.3125,10.8125 a 0.66758084,0.66758084 0 0 1 0.0312,0 l 9.0625,13.90625 a 0.66758084,0.66758084 0 0 1 0.0625,0.5625 c -0.13966,0.46554 -0.42219,0.85127 -0.78125,1.0625 -0.35906,0.21123 -0.74583,0.28425 -1.09375,0.3125 -0.69583,0.0565 -1.35601,-0.009 -1.65625,0.0625 a 0.66758084,0.66758084 0 0 1 -0.125,0 c -9.73889,0.5891 -19.44822,0.31572 -29.125,0.6875 a 0.66758084,0.66758084 0 0 1 -0.3125,-0.0625 c -0.84279,-0.40539 -1.15832,-1.33149 -1.0625,-2.09375 0.0848,-0.67443 0.41683,-1.27971 0.9375,-1.71875 l 15.53125,-23.5 a 0.66758084,0.66758084 0 0 1 0.4375,-0.28125 z m 22.46875,27.875 c 0.0208,4.6e-4 0.0417,-4.6e-4 0.0625,0 10.51456,0.2324 21.04083,0.34714 31.5625,0.46875 a 0.66758084,0.66758084 0 0 1 0.5625,1 c -4.65018,7.82666 -9.66419,15.41255 -14.59375,23.03125 l -0.0625,-0.0312 c -0.0716,0.32119 -0.10109,0.66696 -0.3125,0.875 -0.31044,0.30549 -0.69223,0.49306 -1.09375,0.5625 -0.40152,0.0694 -0.85496,0.0446 -1.25,-0.15625 -0.3191,-0.16221 -0.54198,-0.49911 -0.6875,-0.875 l -0.0312,0 c -4.96058,-7.42502 -9.88221,-14.87837 -14.90625,-22.25 -0.43138,-0.33763 -0.64658,-0.84739 -0.625,-1.34375 0.0135,-0.31046 0.1184,-0.63317 0.375,-0.90625 0.2408,-0.25628 0.62166,-0.3636 1,-0.34375 l 0,-0.0312 z m -6.5625,0.0625 a 0.66758084,0.66758084 0 0 1 0.625,1 l -1.21875,2.125 a 0.66758084,0.66758084 0 0 1 -0.0312,0 c -4.57404,7.63256 -9.6446,14.91941 -14.1875,22.5 a 0.66758084,0.66758084 0 0 1 -0.9375,0.21875 c -2.79299,-1.92912 -3.52171,-5.27214 -5.28125,-7.375 a 0.66758084,0.66758084 0 0 1 -0.0625,-0.0625 c -3.68825,-5.56095 -7.33246,-11.12495 -10.96875,-16.71875 a 0.66758084,0.66758084 0 0 1 0.46875,-1.03125 c 5.27534,-0.76871 10.52205,-0.0973 15.625,-0.375 a 0.66758084,0.66758084 0 0 1 0.0312,0 c 5.32685,-0.0654 10.62914,-0.0953 15.9375,-0.28125 z m -37.96875,0.40625 c 0.0625,-0.009 0.25012,-0.005 0.1875,0 A 0.66758084,0.66758084 0 0 1 351,555.53125 c 0.0324,1.53675 -0.65594,2.76818 -1.40625,3.84375 -0.75031,1.07557 -1.54969,2.02213 -1.96875,3.03125 a 0.66758084,0.66758084 0 0 1 -0.0625,0.125 c -4.02374,6.00553 -8.02009,12.03951 -11.96875,18.09375 a 0.66758084,0.66758084 0 0 1 -1.09375,0.0312 c -5.20524,-6.70502 -9.42897,-14.04037 -14.1875,-20.9375 a 0.66758084,0.66758084 0 0 1 -0.0937,-0.1875 c -0.0663,-0.23235 -0.3376,-0.5279 -0.6875,-0.9375 -0.3499,-0.4096 -0.75921,-1.0471 -0.65625,-1.84375 a 0.66758084,0.66758084 0 0 1 0.4375,-0.53125 c 4.36571,-1.57058 8.87561,-0.39397 12.96875,-0.78125 a 0.66758084,0.66758084 0 0 1 0.0625,0 c 5.89329,-0.12432 11.75237,-0.22682 17.625,-0.5 a 0.66758084,0.66758084 0 0 1 0.1875,-0.0625 z m -220.84375,0.21875 c 0.0306,-0.003 0.15498,-0.002 0.25,0 l 0.15625,0 31.28125,0.375 a 0.66758084,0.66758084 0 0 1 0.59375,0.96875 c -4.57338,8.661 -10.33972,16.56573 -15.1875,24.9375 a 0.66758084,0.66758084 0 0 1 -0.84375,0.25 c -1.36515,-0.65818 -2.19406,-1.78852 -2.875,-2.90625 -0.68094,-1.11773 -1.26799,-2.22601 -2.03125,-3.03125 a 0.66758084,0.66758084 0 0 1 -0.0625,-0.0937 C 136.47467,569.41747 132.46584,563.17867 128.375,557 a 0.66758084,0.66758084 0 0 1 -0.0625,-0.15625 c -0.12372,-0.35616 -0.11965,-0.72938 0.0312,-1.0625 0.1509,-0.33312 0.51772,-0.64071 0.96875,-0.6875 z M 391.96875,556.5 a 0.66758084,0.66758084 0 0 1 0.5,0.0625 l 0.0625,0.0312 a 0.66758084,0.66758084 0 0 1 0.25,0.21875 c 5.5649,8.20959 11.02428,16.47994 16.53125,24.71875 a 0.66758084,0.66758084 0 0 1 0.0937,0.375 c -0.002,1.47093 -0.6647,2.653 -1.375,3.6875 -0.7103,1.0345 -1.45883,1.96699 -1.84375,2.9375 a 0.66758084,0.66758084 0 0 1 -0.0625,0.125 l -12.96875,19.9375 a 0.66758084,0.66758084 0 0 1 -1.21875,-0.375 c -0.10169,-17.00936 -0.26792,-34.02319 -0.5,-51.03125 a 0.66758084,0.66758084 0 0 1 0.34375,-0.59375 l 0.0625,-0.0312 a 0.66758084,0.66758084 0 0 1 0.125,-0.0625 z m -37.3125,0.21875 a 0.66758084,0.66758084 0 0 1 0.75,0.28125 l 1.1875,1.75 14.78125,23.125 a 0.66758084,0.66758084 0 0 1 0,0.75 c -5.41039,8.28801 -10.7549,16.61674 -16.28125,24.84375 a 0.66758084,0.66758084 0 0 1 -1.21875,-0.375 l 0.3125,-49.71875 a 0.66758084,0.66758084 0 0 1 0.46875,-0.65625 z m -2.25,0.125 a 0.66758084,0.66758084 0 0 1 0.78125,0.5625 l 0.0625,0.4375 a 0.66758084,0.66758084 0 0 1 0,0.0937 c -0.32287,16.08464 -0.74772,32.1763 -0.71875,48.25 a 0.66758084,0.66758084 0 0 1 -1.125,0.46875 c -3.84108,-3.85029 -6.00719,-8.79798 -9.03125,-12.9375 a 0.66758084,0.66758084 0 0 1 -0.0312,-0.0625 l -6.78125,-10.625 a 0.66758084,0.66758084 0 0 1 0,-0.71875 l 16.40625,-25.1875 a 0.66758084,0.66758084 0 0 1 0.4375,-0.28125 z m 75.5,0 A 0.66758084,0.66758084 0 0 1 428.6875,557.5 L 429,582.65625 429.1875,608.25 a 0.66758084,0.66758084 0 0 1 -1.21875,0.375 l -16.875,-25.75 a 0.66758084,0.66758084 0 0 1 0,-0.75 l 16.375,-25 a 0.66758084,0.66758084 0 0 1 0.4375,-0.28125 z m -265.28125,0.1875 a 0.66758084,0.66758084 0 0 1 0.46875,0.0625 l 0.0625,0.0312 a 0.66758084,0.66758084 0 0 1 0.34375,0.5625 c 0.43276,12.19128 0.41863,24.38992 0.59375,36.5625 0.0682,3.56322 0.11187,7.12493 0.15625,10.6875 0.0139,-0.0831 0.006,-0.16746 0.0312,-0.25 0.19346,-9.52521 -0.0631,-19.06477 -0.0312,-28.625 -0.0187,-5.71032 0.0461,-11.42501 0.0625,-17.125 a 0.66758084,0.66758084 0 0 1 0.1875,-0.46875 l 0.0625,-0.0625 a 0.66758084,0.66758084 0 0 1 0.46875,-0.1875 l 0.0937,0 a 0.66758084,0.66758084 0 0 1 0.53125,0.25 c 5.67505,7.647 10.54527,15.81479 15.8125,23.65625 a 0.66758084,0.66758084 0 0 1 0.0625,0.1875 c 0.31266,1.02151 -0.0399,1.93549 -0.46875,2.65625 -0.42887,0.72076 -0.91706,1.34811 -1.125,1.875 a 0.66758084,0.66758084 0 0 1 -0.0625,0.0937 c -4.11698,6.84742 -8.85264,13.23697 -13,19.96875 a 0.66758084,0.66758084 0 0 1 -0.25,0.25 c -0.40847,0.21753 -0.89663,0.246 -1.28125,0.0937 -0.38462,-0.15225 -0.65403,-0.43987 -0.84375,-0.75 -0.1328,-0.21709 -0.18708,-0.47194 -0.25,-0.71875 0.006,0.49995 0.025,1.00026 0.0312,1.5 a 0.66758084,0.66758084 0 0 1 -0.25,0.53125 c -0.36464,0.26336 -0.82089,0.38494 -1.21875,0.34375 -0.39786,-0.0412 -0.74589,-0.21926 -1.03125,-0.4375 -0.11869,-0.0908 -0.2105,-0.20726 -0.3125,-0.3125 0.52348,0.75809 1.033,1.52762 1.5625,2.28125 a 0.66758084,0.66758084 0 0 1 0.125,0.375 c -0.01,0.50346 -0.17295,0.98637 -0.46875,1.3125 -0.2958,0.32613 -0.68643,0.50659 -1.0625,0.625 -0.71956,0.22655 -1.46415,0.19803 -2.0625,0.125 -0.0271,-0.003 -0.0673,0.004 -0.0937,0 -5.86619,0.0433 -11.73195,0.21291 -17.625,0.15625 l -13.375,0.0937 a 0.66758084,0.66758084 0 0 1 -0.65625,-0.6875 c 0.0715,-1.73449 0.83115,-3.16268 1.6875,-4.4375 0.85635,-1.27482 1.80968,-2.41044 2.40625,-3.625 a 0.66758084,0.66758084 0 0 1 0.0312,-0.0937 L 144.375,585.375 a 0.66758084,0.66758084 0 0 1 0.3125,-0.25 l 0.15625,-0.0625 a 0.66758084,0.66758084 0 0 1 0.25,-0.0312 l 0.15625,0 a 0.66758084,0.66758084 0 0 1 0.5,0.21875 c 3.70059,4.36133 7.09528,8.99225 10.125,13.84375 0.005,0.007 -0.005,0.0239 0,0.0312 1.64484,2.4918 3.34283,4.94648 5.03125,7.40625 -0.0457,-0.10392 -0.0922,-0.20484 -0.125,-0.3125 -0.008,-0.0122 -0.0236,-0.019 -0.0312,-0.0312 -4.56242,-7.25762 -9.44478,-14.32113 -14.34375,-21.375 a 0.66758084,0.66758084 0 0 1 -0.0937,-0.34375 c -0.091,-3.17042 2.12031,-5.53084 3.40625,-7.75 2.67941,-4.4615 5.61318,-8.73074 8.375,-13.09375 a 0.66758084,0.66758084 0 0 1 0,-0.0312 c 1.37267,-2.04924 2.66961,-4.28346 4.15625,-6.3125 a 0.66758084,0.66758084 0 0 1 0.375,-0.25 z m 227.03125,0.0937 c 0.1492,9.4e-4 0.34463,0.0679 0.46875,0.15625 a 0.66758084,0.66758084 0 0 1 0.28125,0.34375 c 0.36116,1.29054 -0.0398,2.48035 0.0937,3.34375 a 0.66758084,0.66758084 0 0 1 0,0.0937 c 0.24512,15.09523 0.27119,30.19826 0.5,45.28125 A 0.66758084,0.66758084 0 0 1 390.53125,607 c -0.47902,0.12938 -0.99592,0.0738 -1.375,-0.125 -0.37908,-0.1988 -0.63413,-0.51175 -0.84375,-0.8125 -0.41924,-0.6015 -0.69002,-1.27687 -0.90625,-1.59375 -4.71879,-7.08086 -9.41959,-14.16992 -14.09375,-21.28125 a 0.66758084,0.66758084 0 0 1 -0.0312,-0.6875 c 4.50593,-8.78287 10.37901,-16.67012 15.53125,-24.9375 a 0.66758084,0.66758084 0 0 1 0.21875,-0.21875 c 0.0311,-0.0195 0.17012,-0.22158 0.625,-0.21875 z m -74.75,0.1875 a 0.66758084,0.66758084 0 0 1 0.78125,0.625 l 0.0937,2.09375 a 0.66758084,0.66758084 0 0 1 0,0.0625 l -1.09375,46.46875 a 0.66758084,0.66758084 0 0 1 -1.21875,0.34375 L 297.9375,583.75 a 0.66758084,0.66758084 0 0 1 0,-0.75 l 16.53125,-25.40625 a 0.66758084,0.66758084 0 0 1 0.4375,-0.28125 z m 2.21875,0.21875 a 0.66758084,0.66758084 0 0 1 0.75,0.28125 l 1.875,2.8125 c 4.6791,6.72517 8.76039,13.77606 13.1875,20.59375 l -0.0312,0.0312 c 0.31812,0.31343 0.55005,0.67182 0.625,1.0625 0.086,0.44843 0.0369,0.88638 -0.0937,1.28125 -0.24846,0.75115 -0.7479,1.36835 -1.1875,1.84375 l 0.0312,0 -14.625,21.3125 a 0.66758084,0.66758084 0 0 1 -1.21875,-0.375 l 0.21875,-48.1875 a 0.66758084,0.66758084 0 0 1 0.46875,-0.65625 z m -189.84375,0.1875 a 0.66758084,0.66758084 0 0 1 0.75,0.28125 l 2.15625,3.09375 c 4.87574,7.07209 9.55204,14.25384 14.28125,21.40625 a 0.66758084,0.66758084 0 0 1 0.0625,0.59375 c -2.01629,5.73832 -6.38472,9.98354 -9.1875,14.90625 a 0.66758084,0.66758084 0 0 1 -0.0312,0.0312 l -6.25,9.21875 a 0.66758084,0.66758084 0 0 1 -1.15625,-0.0625 c -1.83724,-3.35727 -0.63764,-7.06441 -0.9375,-10.15625 a 0.66758084,0.66758084 0 0 1 0,-0.0625 c 0.0902,-12.8616 -0.008,-25.72821 -0.15625,-38.59375 a 0.66758084,0.66758084 0 0 1 0.46875,-0.65625 z M 372.03125,584 c 0.18368,-0.066 0.67096,0.083 0.4375,0.0312 a 0.66758084,0.66758084 0 0 1 0.40625,0.28125 l 17.75,26.96875 a 0.66758084,0.66758084 0 0 1 -0.5625,1.03125 c -11.60362,-0.0924 -23.23203,-0.15201 -34.84375,-0.5 a 0.66758084,0.66758084 0 0 1 -0.53125,-1 c 5.51188,-8.90025 11.22322,-17.65507 16.84375,-26.46875 a 0.66758084,0.66758084 0 0 1 0.34375,-0.28125 l 0.0937,-0.0312 A 0.66758084,0.66758084 0 0 1 372.03125,584 z m 38.1875,0.25 c 0.26458,-0.0103 0.16247,0.004 0.34375,0 a 0.66758084,0.66758084 0 0 1 0.5625,0.28125 c 5.99199,8.725 11.6216,17.65922 17.4375,26.46875 a 0.66758084,0.66758084 0 0 1 -0.0312,0.78125 c -0.30561,0.40452 -0.71284,0.66776 -1.125,0.78125 -0.41216,0.11349 -0.82305,0.0965 -1.1875,0.0625 -0.72891,-0.068 -1.37288,-0.2021 -1.75,-0.125 a 0.66758084,0.66758084 0 0 1 -0.125,0 c -10.47461,0.0603 -20.93701,0.0177 -31.40625,0 a 0.66758084,0.66758084 0 0 1 -0.5625,-1 c 5.67514,-9.0188 11.33431,-18.06509 17.3125,-26.90625 a 0.66758084,0.66758084 0 0 1 0.3125,-0.25 l 0.15625,-0.0625 a 0.66758084,0.66758084 0 0 1 0.0625,-0.0312 z m -75.75,0.0625 a 0.66758084,0.66758084 0 0 1 0.6875,0.28125 l 4.09375,6.3125 12.625,19.6875 a 0.66758084,0.66758084 0 0 1 -0.5625,1.03125 l -33.625,-0.0937 A 0.66758084,0.66758084 0 0 1 317.125,610.5 l 16.90625,-25.90625 a 0.66758084,0.66758084 0 0 1 0.4375,-0.28125 z m -152.09375,0.625 a 0.66758084,0.66758084 0 0 1 0.46875,0.15625 c 1.9187,1.63851 2.94674,3.86735 4.3125,5.59375 a 0.66758084,0.66758084 0 0 1 0,0.0312 c 4.56747,6.49585 9.10636,13.02064 13.5625,19.59375 A 0.66758084,0.66758084 0 0 1 200.5,611.25 c -1.56378,0.90937 -3.26412,1.04315 -4.875,1 -1.61088,-0.0431 -3.17856,-0.24467 -4.59375,-0.0937 a 0.66758084,0.66758084 0 0 1 -0.0625,0 c -8.48157,0.0267 -16.9559,0.0371 -25.4375,0.0312 A 0.66758084,0.66758084 0 0 1 164.9375,611.25 c 4.35759,-8.93728 10.4944,-16.73399 15.84375,-24.90625 a 0.66758084,0.66758084 0 0 1 0.125,-0.125 c 0.0222,-0.0204 0.15712,-0.24029 0.34375,-0.53125 0.18663,-0.29096 0.54292,-0.72121 1.125,-0.75 z m 114.21875,0.375 a 0.66758084,0.66758084 0 0 1 0.75,0.28125 l 16.4375,25 a 0.66758084,0.66758084 0 0 1 -0.5625,1.03125 l -33.59375,0 a 0.66758084,0.66758084 0 0 1 -0.5625,-1.03125 l 17.15625,-25 a 0.66758084,0.66758084 0 0 1 0.375,-0.28125 z m -128.28125,27 c 0.0104,1.6e-4 0.0208,-1.6e-4 0.0312,0 9.84273,0.1546 19.70237,0.0745 29.5625,0.125 a 0.66758084,0.66758084 0 0 1 0.40625,0.125 c 0.40425,0.30279 0.66318,0.72507 0.75,1.15625 0.0868,0.43118 0.0253,0.84655 -0.0937,1.21875 -0.23813,0.7444 -0.71455,1.3673 -1.03125,1.8125 l 0.0312,0 -13.9375,21.65625 a 0.66758084,0.66758084 0 0 1 -0.5625,0.28125 c -1.25692,-0.0191 -2.11014,-0.83222 -2.625,-1.65625 -0.51486,-0.82403 -0.87085,-1.68715 -1.28125,-2.1875 a 0.66758084,0.66758084 0 0 1 0,-0.0625 C 174.81072,628.09379 170.52809,621.12236 166,614.34375 a 0.66758084,0.66758084 0 0 1 -0.0937,-0.4375 c 0.0706,-0.66677 0.54798,-1.16212 1.03125,-1.375 0.47278,-0.20826 0.95502,-0.2387 1.375,-0.21875 z m -7.8125,0.15625 a 0.66758084,0.66758084 0 0 1 0.3125,0.0625 c 0.38258,0.21928 0.64518,0.60843 0.71875,1 0.0736,0.39157 -0.005,0.73647 -0.125,1.03125 -0.24086,0.58956 -0.6487,1.07877 -0.8125,1.34375 -2.07781,3.38312 -4.03416,6.86424 -6.3125,10.1875 -0.005,0.007 0.005,0.0238 0,0.0312 -2.56196,4.05539 -5.26816,8.01489 -7.71875,12.09375 a 0.66758084,0.66758084 0 0 1 -0.1875,0.1875 c -0.71771,0.51625 -1.61469,0.37049 -2.1875,-0.0312 -0.52663,-0.36935 -0.86339,-0.88685 -1.09375,-1.40625 l -0.0312,0 c -0.0261,-0.0386 -0.0364,-0.0864 -0.0625,-0.125 -2.93731,-4.35646 -5.42789,-8.93055 -8.4375,-13.125 a 0.66758084,0.66758084 0 0 1 -0.0312,0 l -6.25,-9.46875 a 0.66758084,0.66758084 0 0 1 0.53125,-1.03125 c 9.56539,-0.55291 19.10079,-0.41426 28.625,-0.65625 a 0.66758084,0.66758084 0 0 1 0.0312,0 c 0.94234,-0.0115 1.95426,-0.15177 3.03125,-0.0937 z m 44.46875,0.1875 0.0937,0 31.84375,0.625 a 0.66758084,0.66758084 0 0 1 0.59375,1 c -4.73746,8.32865 -10.1731,16.19072 -15.5,24.09375 a 0.66758084,0.66758084 0 0 1 -0.28125,0.21875 c -0.40816,0.19485 -0.87963,0.22398 -1.25,0.0625 -0.37037,-0.16148 -0.59794,-0.42316 -0.78125,-0.6875 -0.36663,-0.52868 -0.61113,-1.1339 -0.75,-1.34375 l -15.15625,-22.3125 a 0.66758084,0.66758084 0 0 1 -0.0937,-0.28125 c -0.0594,-0.4325 0.13695,-0.76214 0.375,-1 0.21604,-0.21586 0.52944,-0.35782 0.90625,-0.34375 l 0,-0.0312 z M 350.1875,613 a 0.66758084,0.66758084 0 0 1 0.5625,1 l -1.75,2.96875 -13.6875,21.46875 a 0.66758084,0.66758084 0 0 1 -1.125,0.0312 c -5.21809,-7.85323 -10.3601,-15.74251 -15.4375,-23.6875 a 0.66758084,0.66758084 0 0 1 0.4375,-1.03125 c 5.97943,-1.243 11.91722,-0.04 17.65625,-0.46875 a 0.66758084,0.66758084 0 0 1 0.0625,0 L 350.1875,613 z m 10.84375,0.15625 c 1.57907,-0.005 3.14496,0.012 4.71875,0.0312 7.66904,0.0747 15.33806,0.19056 23,0.21875 a 0.66758084,0.66758084 0 0 1 0.5625,1.03125 c -5.43248,8.22359 -10.83045,16.47705 -16.1875,24.75 a 0.66758084,0.66758084 0 0 1 -1.125,0 L 355.75,614.25 a 0.66758084,0.66758084 0 0 1 0.5625,-1.03125 c 1.5736,-0.0297 3.13958,-0.0573 4.71875,-0.0625 z m -87,0.0625 a 0.66758084,0.66758084 0 0 1 0.6875,0.65625 l 0,0.15625 a 0.66758084,0.66758084 0 0 1 -0.0937,0.34375 c -4.56326,7.43597 -9.49369,14.60618 -14.09375,21.96875 L 260.5,636.3125 c -0.0491,0.33181 -0.0775,0.68466 -0.28125,0.90625 -0.29508,0.32085 -0.6655,0.51064 -1.0625,0.59375 -0.397,0.0831 -0.8191,0.0699 -1.21875,-0.125 -0.32283,-0.15747 -0.5728,-0.49738 -0.71875,-0.875 l -0.0312,0 c -4.67415,-7.25534 -9.48798,-14.43715 -14.28125,-21.625 a 0.66758084,0.66758084 0 0 1 -0.0937,-0.53125 c 0.12233,-0.46515 0.42906,-0.86965 0.78125,-1.09375 0.35219,-0.2241 0.71328,-0.29217 1.0625,-0.3125 0.69845,-0.0407 1.35873,0.10337 1.71875,0.0937 a 0.66758084,0.66758084 0 0 1 0.0625,0 c 9.2003,0.23729 18.3825,0.11104 27.59375,-0.125 z m 6.53125,0.0312 a 0.66758084,0.66758084 0 0 1 0.15625,0 L 312,613.28125 a 0.66758084,0.66758084 0 0 1 0.5625,1.03125 l -15.53125,23.96875 a 0.66758084,0.66758084 0 0 1 -1.125,0 l -15.75,-24 A 0.66758084,0.66758084 0 0 1 280.5625,613.25 z"
     id="path4444"
     style="fill:#000000;fill-opacity:1;stroke:none;display:inline"
     inkscape:original="M 360.71875 446.21875 C 360.62525 446.21075 360.53364 446.2208 360.4375 446.25 C 359.20893 447.52909 360.23231 449.39291 361.21875 450.46875 C 364.67017 455.57376 368.12609 460.6807 371.34375 465.9375 L 355.125 491.5625 C 354.80998 477.51268 354.87673 463.45857 354.8125 449.40625 C 355.58613 448.41254 353.3691 447.33749 353.125 448.625 C 352.00143 460.60126 352.91671 472.62318 352.65625 484.625 L 352.75 491.53125 L 336.1875 466.09375 C 338.14367 462.0967 340.92635 458.58726 343.15625 454.75 C 344.1026 453.65776 343.92468 453.22734 342.78125 454.34375 C 339.75521 456.65268 337.02022 459.46145 335.4375 462.96875 C 334.71634 463.65223 333.18189 462.72407 332.875 463.96875 C 333.59784 467.00791 331.41112 469.60395 329.8125 471.9375 C 325.50389 478.36061 321.25372 484.8233 317.09375 491.34375 C 316.35626 490.58568 315.04091 491.71293 315.53125 492.59375 C 312.90274 498.24073 310.3236 503.91102 307.84375 509.625 C 310.21258 505.97516 312.53822 502.29688 314.96875 498.6875 L 315.125 550.25 C 310.08818 542.8609 305.25061 535.33942 300.375 527.84375 C 299.00746 529.7176 300.17492 532.15354 301.46875 533.71875 C 305.88206 540.39473 310.3378 547.04316 314.65625 553.78125 C 305.81703 554.14628 296.96744 553.99269 288.125 554.21875 C 286.85711 554.66709 287.82603 556.91196 289.03125 556.34375 C 297.15453 556.13671 305.28118 556.19279 313.40625 556.125 L 296.90625 580.875 C 292.69903 575.2307 289.09977 569.16896 285.15625 563.34375 C 285.43376 562.2676 283.28837 562.07203 283.4375 563.21875 C 282.87923 566.04495 285.24478 568.14678 286.53125 570.375 L 295.09375 583.40625 L 279.15625 606.5625 C 279.33615 595.05562 279.15025 583.53573 279.28125 572.03125 C 279.07306 570.87313 277.68894 572.51829 277.84375 573.1875 C 275.85756 577.84467 276.73918 582.99565 276.59375 587.90625 C 276.66335 594.11232 276.53925 600.32578 276.46875 606.53125 C 272.20409 601.64801 269.06549 595.93308 265.15625 590.78125 C 265.37639 589.41773 262.81631 589.12976 262.96875 590.625 C 262.79374 592.78051 264.85717 594.13965 265.625 595.96875 L 275.65625 611.15625 L 241.875 611.75 C 244.97179 606.86773 248.17943 602.0571 251.4375 597.28125 C 248.20348 597.70122 246.1191 600.61025 244.8125 603.34375 L 241.53125 607.90625 C 241.15031 605.24436 241.42345 602.5336 241 599.875 C 240.04154 599.09129 238.51975 600.37508 239.03125 601.46875 C 238.86651 603.65633 239.35902 605.8513 239.03125 608.03125 C 236.42589 605.65888 235.21328 602.0831 232.34375 599.96875 C 231.15711 600.00325 230.99191 601.88 232 602.3125 C 234.21529 605.29418 236.20066 608.43556 238.25 611.53125 C 226.97221 611.66573 215.68168 611.68992 204.40625 611.6875 C 203.23811 611.43141 203.551 609.83283 204.28125 609.25 C 207.60074 604.4777 211.01865 599.77071 214.15625 594.875 C 214.33241 593.64266 212.13191 593.4541 212.03125 594.65625 C 209.03819 599.01845 206.04856 603.38301 203.0625 607.75 C 201.83481 600.67107 203.27799 593.47934 202.40625 586.375 C 202.35585 585.59684 202.68465 584.10163 201.53125 584.0625 C 200.19726 584.66911 201.11773 586.29192 201 587.375 C 201.17002 594.21363 201.01205 601.0669 200.96875 607.90625 C 197.66236 605.19585 196.09871 601.05299 193.375 597.84375 L 183.875 584.0625 C 184.77393 580.16654 187.80041 577.31505 189.53125 573.8125 C 190.16951 572.6612 191.30693 571.66612 191.5625 570.375 C 191.23026 569.5124 189.55562 569.76377 189.71875 570.78125 C 187.50424 574.46823 185.1309 578.05501 182.78125 581.65625 C 176.9241 574.32332 172.63859 565.91748 167.21875 558.28125 C 166.23073 557.85086 166.61713 555.89488 167.78125 556.21875 C 172.03334 555.84119 176.30248 556.19145 180.5625 556.15625 C 181.58209 555.68828 180.4653 553.95644 179.59375 554.5625 C 175.38501 554.15967 171.15511 554.4751 166.9375 554.3125 C 166.12321 555.11539 164.80259 553.3711 165.8125 552.8125 C 167.61096 549.76623 169.58555 546.82557 171.28125 543.71875 C 171.43894 542.51351 169.18194 542.37974 169.21875 543.625 C 168.18011 545.66095 166.90839 547.56096 165.65625 549.46875 C 164.09489 546.10941 165.16781 542.35155 164.875 538.8125 C 164.9544 537.83897 164.68274 536.89246 164.40625 535.96875 C 163.30961 535.47357 162.40387 537.05056 162.96875 537.9375 C 163.03745 542.11438 163.08941 546.29146 163.125 550.46875 C 157.05643 542.581 152.32043 533.78513 146.65625 525.625 C 146.05421 525.04353 146.33242 524.27924 146.40625 523.59375 C 146.12061 522.38173 144.56134 522.32674 143.71875 521.625 C 143.12044 521.30181 141.35639 520.15862 142 521.625 C 142.42703 523.01859 143.55547 524.632 142.40625 526 C 137.72387 533.72018 132.77963 541.27766 128 548.9375 C 126.83861 545.945 127.8724 542.68144 127.375 539.59375 C 127.09003 531.95743 127.11424 524.32798 127.15625 516.6875 C 126.28335 515.5987 124.44392 516.92169 124.90625 518.125 C 125.08895 538.77047 125.35082 559.41714 125.53125 580.0625 C 125.67941 600.11543 125.46055 620.16646 125.28125 640.21875 L 127.28125 640.21875 C 127.32445 632.14274 127.41161 624.05392 127.625 616 L 127.65625 616.03125 C 132.87582 623.9446 138.0231 631.9054 143.15625 639.875 C 143.15525 639.9944 143.1324 640.10155 143.125 640.21875 L 146.75 640.21875 C 151.7031 631.49264 157.46696 623.26577 162.8125 614.78125 L 162.90625 614.71875 L 162.96875 614.71875 C 163.42977 621.04708 163.1829 627.41018 163.3125 633.75 C 163.3195 635.91266 163.28965 638.05608 163.28125 640.21875 L 165.09375 640.21875 L 165.09375 615.375 L 165.125 615.34375 L 165.15625 615.34375 C 171.05636 623.28381 175.91663 631.92173 181.28125 640.21875 L 184.5625 640.21875 C 189.31043 631.66533 194.83825 623.57714 200.15625 615.375 L 200.28125 615.34375 L 200.40625 615.4375 C 201.34082 619.35584 200.62349 623.43016 201 627.40625 C 201.0335 631.67807 201.0423 635.94684 201.0625 640.21875 L 203.03125 640.21875 L 202.8125 615.375 L 202.90625 615.3125 L 202.96875 615.3125 C 208.39704 623.0447 213.33511 631.09601 218.5 639 C 218.83546 639.3229 219.05241 639.77306 219.125 640.21875 L 222.5625 640.21875 L 239.0625 615.5 L 238.96875 640.21875 L 241.3125 640.21875 L 241.4375 616.1875 L 244.21875 620.09375 C 248.59276 626.66575 252.98504 633.2309 257 640.03125 C 257.006 640.09565 256.99914 640.15642 257 640.21875 L 260.40625 640.21875 L 276.15625 616.34375 L 276.28125 640.21875 L 279.09375 640.21875 L 279.125 616.6875 L 294.4375 640.21875 L 298.5625 640.21875 L 314.0625 616.4375 L 314.21875 640.21875 L 317.15625 640.21875 L 317.21875 616.78125 L 332.46875 640.21875 L 336.75 640.21875 L 352.03125 615.96875 L 352.1875 628.03125 C 352.2004 632.09017 352.23995 636.16009 352.28125 640.21875 L 354.75 640.21875 L 354.5625 616.03125 L 370.46875 640.21875 L 374.75 640.21875 L 390.34375 615.71875 L 390.40625 628.40625 L 390.46875 640.21875 L 392.65625 640.21875 L 392.53125 615.5625 L 401.03125 628.5 L 408.625 640.21875 L 412.78125 640.21875 L 428.5625 615.875 L 428.5625 640.21875 L 430.71875 640.21875 L 430.6875 483.21875 C 429.93572 482.534 429.4396 481.50258 428.40625 481.1875 L 428.34375 490.96875 L 412.1875 465.96875 C 410.45702 464.67621 408.8526 463.19869 406.96875 462.125 L 409.3125 465.8125 L 392.84375 491.46875 C 392.78715 478.79166 392.7548 466.11436 392.875 453.4375 C 392.61972 452.12078 390.19863 452.55426 390.53125 453.90625 L 390.28125 491.34375 L 374.125 465.96875 L 384.75 449.21875 C 383.61741 448.14345 381.5488 449.04955 381.34375 450.53125 L 372.90625 463.5 C 368.85758 458.02306 365.34433 452.17984 361.5 446.5625 C 361.26809 446.40978 360.99918 446.24247 360.71875 446.21875 z M 334.78125 467.78125 L 352.3125 495.21875 C 341.10425 495.49121 329.89625 494.9965 318.6875 495.125 C 317.58278 494.10759 318.7421 492.67663 319.375 491.75 C 324.47495 483.73764 329.59107 475.73556 334.78125 467.78125 z M 410.6875 467.96875 L 428.09375 494.9375 L 393.15625 495.21875 L 410.6875 467.96875 z M 372.65625 468.46875 L 372.78125 468.46875 C 378.45321 477.22943 384.20903 485.93655 389.75 494.78125 C 382.23694 495.60996 374.65557 494.79555 367.125 495.28125 C 363.31898 495.38249 359.5257 495.3752 355.71875 495.375 C 361.02459 486.25373 366.83856 477.44358 372.53125 468.5625 L 372.65625 468.46875 z M 319.25 497.125 C 329.88339 497.39297 340.52105 497.3791 351.15625 497.53125 C 345.97693 505.99454 340.68664 514.38918 335.34375 522.75 C 329.75904 514.42755 324.35733 505.98435 318.78125 497.65625 C 318.71685 497.35434 318.92978 497.07799 319.25 497.125 z M 426.6875 497.3125 L 410.21875 522.3125 C 404.86224 514.60353 400.02286 506.5543 394.90625 498.6875 C 395.8173 497.19493 397.81512 497.88902 399.25 497.6875 C 408.39545 497.4432 417.53967 497.40137 426.6875 497.3125 z M 358.15625 497.5625 C 358.68886 497.542 359.21961 497.537 359.75 497.5625 L 388.6875 497.59375 C 383.78783 505.46338 378.73721 513.23725 373.71875 521.03125 C 373.86317 522.1891 371.72551 522.33123 371.75 521.125 C 366.79427 513.24372 361.6623 505.47575 356.5625 497.6875 C 357.08916 497.6189 357.62364 497.58299 358.15625 497.5625 z M 352.84375 499.28125 L 353.15625 522.40625 L 352.9375 549.5625 C 347.29328 541.67389 342.35452 533.31261 336.875 525.3125 C 338.3676 521.32761 341.11049 517.97687 343.15625 514.28125 L 352.84375 499.28125 z M 355.03125 499.375 L 357.03125 502.375 C 361.7411 509.83825 366.59115 517.21185 371.28125 524.6875 C 366.04493 532.89416 360.84457 541.12404 355.53125 549.28125 C 354.80604 545.2473 355.26661 541.13397 355.125 537.0625 C 355.29576 524.50146 355.13525 511.93594 355.03125 499.375 z M 428.21875 499.40625 L 428.09375 549.3125 C 422.53268 541.1452 417.03383 532.93479 411.6875 524.625 C 416.89312 516.02282 422.61445 507.74984 428.21875 499.40625 z M 317.28125 499.5 C 323.06498 507.68837 328.44479 516.14965 333.84375 524.59375 C 333.07922 527.05449 331.22826 528.96708 330.09375 531.25 L 317.53125 550.03125 C 317.35855 533.22932 317.20234 516.42724 317.0625 499.625 C 317.113 499.5663 317.18888 499.47557 317.28125 499.5 z M 390.3125 499.59375 L 390.34375 505.75 C 390.11119 519.34277 390.26375 532.93848 390.03125 546.53125 C 390.35598 547.3246 389.5659 548.88624 388.65625 548.0625 C 387.31608 546.14318 386.35076 543.99873 385.03125 542.0625 C 381.67177 536.54424 377.9296 531.26626 374.46875 525.8125 C 374.25865 523.27299 376.39225 521.44472 377.34375 519.28125 C 381.52249 512.62491 385.92979 506.11638 390.3125 499.59375 z M 392.65625 499.875 L 392.78125 500 C 398.08296 507.91898 403.12087 516.00936 408.3125 524 C 408.1656 525.84176 406.53317 527.04612 405.875 528.6875 C 401.58141 535.393 397.189 542.03601 392.8125 548.6875 C 391.66855 547.13441 392.46541 545.09987 392.125 543.34375 C 392.47364 528.85366 392.50996 514.36797 392.65625 499.875 z M 410.0625 526.625 L 414.4375 533.125 L 427.78125 553.1875 C 416.20838 553.29585 404.63532 553.01826 393.0625 553.1875 C 393.71821 549.77248 396.42094 547.31274 397.96875 544.3125 L 410.0625 526.625 z M 144.53125 526.96875 C 144.56815 526.95975 144.61515 526.95725 144.65625 526.96875 C 145.42077 527.38086 145.59655 528.41009 146.25 528.96875 C 150.41539 534.98985 154.25225 541.23199 158.375 547.28125 L 162.5625 553.8125 C 151.66774 554.55832 140.7494 553.96322 129.84375 553.9375 C 128.68821 554.46508 127.8962 552.65367 128.8125 551.9375 C 133.7644 543.55804 139.00889 535.35634 144.25 527.15625 C 144.3355 527.09195 144.4206 526.99491 144.53125 526.96875 z M 335.21875 527.125 L 336.34375 528.625 C 341.81769 536.3429 346.7458 544.42633 351.96875 552.3125 C 351.82788 553.70837 350.07242 553.38537 349.09375 553.34375 C 339.09351 553.61166 329.09567 553.77898 319.09375 553.96875 C 317.98624 553.30594 318.96625 551.98387 319.46875 551.25 L 335.21875 527.125 z M 372.34375 527.1875 L 372.5 527.21875 C 375.33163 530.51703 377.25054 534.44997 379.78125 537.96875 L 388.84375 551.875 C 388.44951 553.18918 386.78336 552.60432 385.78125 552.84375 C 376.0816 553.43048 366.36256 553.15834 356.65625 553.53125 C 355.50436 552.97718 355.91788 551.28845 356.8125 550.6875 L 372.34375 527.1875 z M 394.6875 555.0625 C 405.22792 555.29595 415.77035 555.4094 426.3125 555.53125 C 421.67362 563.33889 416.6511 570.90823 411.71875 578.53125 C 411.82185 579.76012 409.63557 580.16316 409.40625 578.90625 C 404.447 571.48323 399.52771 564.03326 394.5 556.65625 C 393.80219 556.38926 393.7462 554.95859 394.6875 555.0625 z M 388.15625 555.125 L 386.9375 557.25 C 382.37903 564.85658 377.30847 572.14343 372.75 579.75 C 370.22476 578.00582 369.49905 574.77706 367.59375 572.5 C 363.90692 566.94119 360.26046 561.37377 356.625 555.78125 C 361.78164 555.02984 367.00397 555.68835 372.1875 555.40625 C 377.51134 555.34085 382.83478 555.31145 388.15625 555.125 z M 350.28125 555.53125 L 350.34375 555.53125 C 350.39985 558.1888 347.94966 559.86941 347 562.15625 C 342.97494 568.16375 338.98162 574.19313 335.03125 580.25 C 329.86375 573.59359 325.65436 566.27107 320.875 559.34375 C 320.61114 558.41863 319.3923 557.91882 319.53125 556.84375 C 323.65115 555.3616 328.09013 556.49621 332.34375 556.09375 C 338.29733 555.96816 344.23855 555.87438 350.1875 555.59375 L 350.28125 555.53125 z M 129.375 555.75 C 129.4306 555.744 129.49871 555.7359 129.5625 555.75 L 161 556.125 C 156.45637 564.72966 150.71482 572.61927 145.84375 581.03125 C 143.46484 579.88431 142.87116 577.02799 141.15625 575.21875 C 137.04138 569.04878 133.0317 562.80875 128.9375 556.625 C 128.81218 556.26423 128.9857 555.79039 129.375 555.75 z M 392.15625 557.15625 L 392.21875 557.1875 C 397.78059 565.39258 403.24161 573.66531 408.75 581.90625 C 408.746 584.444 406.43893 586.07146 405.5625 588.28125 L 392.59375 608.21875 C 392.49205 591.2077 392.32585 574.19728 392.09375 557.1875 L 392.15625 557.15625 z M 354.84375 557.375 L 356.03125 559.125 L 370.8125 582.25 C 365.40021 590.54092 360.0524 598.87449 354.53125 607.09375 L 354.84375 557.375 z M 352.53125 557.5 L 352.59375 557.9375 C 352.27094 574.01932 351.84601 590.10124 351.875 606.1875 C 348.14987 602.45344 345.98849 597.53166 342.90625 593.3125 L 336.125 582.6875 L 352.53125 557.5 z M 428.03125 557.5 L 428.34375 582.65625 L 428.53125 608.25 L 411.65625 582.5 L 428.03125 557.5 z M 162.78125 557.6875 L 162.84375 557.71875 C 163.27593 569.89376 163.26228 582.07052 163.4375 594.25 C 163.5206 598.59118 163.57037 602.93963 163.625 607.28125 C 162.64202 607.99122 161.5436 606.81275 161.34375 605.875 C 156.76455 598.58836 151.87673 591.50435 146.96875 584.4375 C 146.88725 581.59843 148.94006 579.377 150.28125 577.0625 C 152.94665 572.62433 155.88548 568.3459 158.65625 563.96875 C 160.04601 561.894 161.32446 559.6758 162.78125 557.6875 z M 389.65625 557.78125 C 389.68945 557.78146 389.7188 557.7903 389.75 557.8125 C 390.03743 558.83958 389.67705 559.98486 389.84375 561.0625 C 390.08877 576.15127 390.11485 591.25477 390.34375 606.34375 C 388.97524 606.71338 388.55643 604.95497 387.96875 604.09375 C 383.25053 597.01374 378.54817 589.92232 373.875 582.8125 C 378.34758 574.09464 384.20358 566.2044 389.375 557.90625 C 389.4496 557.85955 389.55654 557.78063 389.65625 557.78125 z M 315.03125 557.96875 L 315.125 560.0625 L 314.03125 606.53125 L 298.5 583.375 L 315.03125 557.96875 z M 317.3125 558.1875 L 319.1875 561 C 323.84553 567.69489 327.93553 574.75702 332.375 581.59375 C 333.56577 582.57725 332.53799 584.19971 331.71875 585.0625 L 317.09375 606.375 L 317.3125 558.1875 z M 127.46875 558.375 L 129.625 561.46875 C 134.49407 568.53117 139.17532 575.71999 143.90625 582.875 C 141.9578 588.42025 137.61714 592.62049 134.75 597.65625 L 128.5 606.875 C 126.82771 603.81915 127.94378 600.25572 127.625 596.96875 C 127.7153 584.10063 127.617 571.24226 127.46875 558.375 z M 165.03125 558.875 L 165.125 558.875 C 170.77313 566.48573 175.62545 574.63834 180.90625 582.5 C 181.38703 584.07079 179.84203 585.252 179.3125 586.59375 C 175.21761 593.40442 170.47984 599.7983 166.3125 606.5625 C 165.25769 607.12423 164.50863 605.52704 164.9375 604.6875 C 165.13139 595.1413 164.87445 585.60927 164.90625 576.0625 C 164.88755 570.3587 164.95235 564.64126 164.96875 558.9375 L 165.03125 558.875 z M 372.1875 584.65625 L 372.3125 584.6875 L 390.0625 611.65625 C 378.45763 611.56385 366.85069 611.50391 355.25 611.15625 C 360.75637 602.2649 366.47075 593.50506 372.09375 584.6875 L 372.1875 584.65625 z M 410.40625 584.90625 L 410.5625 584.90625 C 416.54455 593.61677 422.17891 602.5576 428 611.375 C 427.10878 612.55467 425.54325 611.59853 424.34375 611.84375 C 413.87351 611.90405 403.4078 611.86145 392.9375 611.84375 C 398.61288 602.82456 404.28027 593.7974 410.25 584.96875 L 410.40625 584.90625 z M 334.59375 584.96875 L 338.6875 591.28125 L 351.3125 610.96875 L 317.6875 610.875 L 334.59375 584.96875 z M 182.40625 585.59375 C 184.18046 587.10887 185.19283 589.28341 186.625 591.09375 C 191.19035 597.58659 195.70231 604.11763 200.15625 610.6875 C 197.3439 612.32294 194.01497 611.17514 190.96875 611.5 C 182.48804 611.5267 174.012 611.53705 165.53125 611.53125 C 169.84711 602.67956 175.97259 594.92434 181.34375 586.71875 C 181.70187 586.39066 181.85464 585.62103 182.40625 585.59375 z M 145.09375 585.6875 L 145.25 585.6875 C 148.93509 590.03056 152.29632 594.63658 155.3125 599.46875 C 157.6632 603.03016 160.04667 606.57072 162.5 610.0625 C 162.4719 611.5209 160.64886 611.61351 159.5625 611.46875 C 153.65553 611.51095 147.751 611.6818 141.84375 611.625 L 128.46875 611.71875 C 128.59687 608.61088 131.21096 606.53062 132.5 603.90625 L 144.9375 585.75 L 145.09375 585.6875 z M 296.78125 585.96875 L 313.21875 610.96875 L 279.625 610.96875 L 296.78125 585.96875 z M 168.3125 612.96875 C 178.17627 613.12418 188.04163 613.04325 197.90625 613.09375 C 199.06985 613.96533 198.02977 615.49847 197.40625 616.375 L 183.46875 638.03125 C 181.4754 638.00095 181.12485 635.66332 180.09375 634.40625 C 175.36001 627.74417 171.10076 620.76259 166.5625 613.96875 C 166.6515 613.12859 167.6196 612.93129 168.3125 612.96875 z M 160.46875 613.125 C 161.48526 613.70761 160.43795 614.90456 160.03125 615.5625 C 157.93981 618.96782 155.98111 622.45283 153.71875 625.75 C 151.16039 629.80077 148.46778 633.76754 146 637.875 C 145.0054 638.59041 143.97971 637.48661 143.625 636.59375 C 140.67757 632.23783 138.16202 627.61995 135.09375 623.34375 L 128.84375 613.875 C 138.37713 613.32394 147.92684 613.46119 157.46875 613.21875 C 158.46582 613.20655 159.47634 613.07154 160.46875 613.125 z M 204.96875 613.3125 L 236.90625 613.9375 C 232.18782 622.23269 226.76705 630.09303 221.4375 638 C 220.33365 638.52697 219.94767 636.9265 219.5 636.25 L 204.34375 613.9375 C 204.30025 613.62097 204.65309 613.26894 204.96875 613.3125 z M 350.1875 613.65625 L 348.4375 616.625 L 334.75 638.09375 C 329.53409 630.2438 324.38775 622.34788 319.3125 614.40625 C 325.11871 613.19926 331.04533 614.37535 336.90625 613.9375 L 350.1875 613.65625 z M 361.03125 613.8125 C 362.60408 613.8075 364.17682 613.82455 365.75 613.84375 C 373.41665 613.91845 381.08297 614.03429 388.75 614.0625 C 383.31639 622.28779 377.92065 630.53785 372.5625 638.8125 L 356.3125 613.875 C 357.88551 613.8453 359.45842 613.8177 361.03125 613.8125 z M 274.0625 613.875 L 274.0625 614.03125 C 269.51132 621.44753 264.57916 628.62086 259.96875 636 C 260.15584 637.2216 257.9781 637.70447 257.75 636.4375 C 253.07146 629.17535 248.26143 621.99947 243.46875 614.8125 C 243.8197 613.47807 245.41983 614.02637 246.40625 614 C 255.62412 614.23774 264.84596 614.11118 274.0625 613.875 z M 280.71875 613.90625 L 312 613.9375 L 296.46875 637.90625 L 280.71875 613.90625 z M 406.46875 614.03125 C 410.59376 614.01535 414.71882 614.00005 418.84375 614.03125 L 427.125 614.125 L 410.6875 639.4375 L 394.09375 614.0625 C 398.21877 614.0635 402.34374 614.04715 406.46875 614.03125 z "
     inkscape:radius="-0.66751409"
     sodipodi:type="inkscape:offset" /><path
     inkscape:connector-curvature="0"
     id="rect4416"
     d="m 354.15625,448.25 c -1.10955,1.67426 -0.49722,3.77354 -0.75981,5.64673 -0.51468,18.76553 -0.91718,37.53422 -1.2765,56.30323 -0.11473,13.05648 -0.17915,26.11362 -0.0277,39.17012 0.2241,30.56662 0.5915,61.13196 0.86503,91.69816 -0.43394,1.42741 0.70322,1.1467 1.72552,1.21301 1.2488,0.0515 0.77044,-1.60614 0.93805,-2.39282 0.18692,-5.15113 0.11933,-10.30691 0.22438,-15.46004 0.19262,-16.62746 0.18475,-33.25633 0.16756,-49.88452 0.0784,-23.57444 0.40495,-47.14876 0.18721,-70.72341 C 356.11517,485.5459 355.75666,467.27415 355.625,449 c -0.16441,-0.60266 -0.89142,-0.95924 -1.46875,-0.75 z m 38.75,2.3125 c -0.9899,-0.19818 -2.12199,0.29907 -1.875,1.49531 0.14245,4.04598 0.0236,8.10499 0.0625,12.15614 0.0258,9.13731 -0.0902,18.27418 -0.37145,27.40717 -0.20041,6.2823 -0.21299,12.56884 0.0263,18.85032 0.45891,15.65268 0.7872,31.31212 0.61407,46.97221 -0.14994,28.26932 -0.41647,56.53786 -0.6752,84.80635 1.29167,0 2.58333,0 3.875,0 0.16452,-20.99836 -0.51196,-41.99223 -0.4101,-62.9905 -0.0355,-34.5834 -0.0815,-69.16686 -0.18734,-103.7501 -0.0717,-8.32964 -0.4031,-16.65374 -0.68381,-24.97815 -0.125,0.0104 -0.25,0.0208 -0.375,0.0312 z m 36.6875,31.28125 c -1.17976,0.12068 -1.2436,1.57977 -1.1875,2.5 -0.34347,17.51812 -0.89214,35.03994 -0.53125,52.5625 0.14414,14.71714 -0.26469,29.43596 0.0954,44.15155 0.18911,19.48949 -0.10101,38.97938 -0.15593,58.46875 0.28105,0.87997 -0.63389,2.96886 0.76051,2.72345 0.85062,-0.2775 2.85972,0.61002 2.83435,-0.54841 0.1129,-14.94628 -0.39862,-29.88839 -0.41688,-44.83434 -0.0633,-9.86195 0.17535,-19.72459 0.60645,-29.57658 0.20849,-11.80411 -0.30626,-23.60629 -0.2239,-35.41098 0.028,-12.59318 -0.0679,-25.18613 -0.23762,-37.77798 -0.025,-3.62765 -0.0499,-7.25531 -0.0749,-10.88296 0.55515,-0.89615 -0.73723,-1.53006 -1.46875,-1.375 z m -115,8.8125 c -1.23771,5.69184 -0.34213,11.56492 -1.10349,17.30755 -1.00547,16.7174 -0.61632,33.47149 -0.57315,50.20748 0.17902,28.02597 0.29297,56.05228 0.36414,84.07872 1.19792,0 2.39583,0 3.59375,0 0.31797,-12.56288 0.26254,-25.13133 0.13114,-37.69644 -0.12353,-15.27302 -0.21694,-30.54756 0.0181,-45.82003 0.12744,-12.68286 0.23646,-25.36908 -0.0969,-38.04985 -0.17242,-9.2904 -0.55249,-18.57718 -0.98985,-27.8571 0.023,-0.8387 -0.19635,-2.34124 -1.34375,-2.17033 z M 124.625,516.46875 c -0.25557,24.74591 -0.45243,49.49273 -0.40625,74.24017 0.0128,17.18036 0.0435,34.36071 0.0312,51.54108 0.78017,-0.0566 1.79038,0.2877 2.375,-0.375 0.176,-1.10444 0.0113,-2.27009 0.0799,-3.3983 0.1713,-31.28805 0.0955,-62.57684 0.0955,-93.86522 -0.006,-9.38091 -0.0128,-18.76182 -0.0192,-28.14273 -0.71563,0.1089 -1.44079,-0.10788 -2.15625,0 z M 163.21875,534.25 c -1.16816,-0.0165 -1.67456,1.43349 -1.4375,2.40625 0.27415,28.37414 0.28335,56.74986 0.21875,85.125 0,6.82292 0,13.64583 0,20.46875 0.80345,-0.2628 1.88789,0.44987 2.5,-0.3125 0.2808,-2.06383 0.1489,-4.1895 0.1875,-6.27805 0.11727,-32.56336 0.0917,-65.1276 0.3125,-97.6907 -0.20843,-1.14147 0.50112,-2.63067 -0.59375,-3.46875 -0.34845,-0.23802 -0.77247,-0.33065 -1.1875,-0.25 z M 277.875,572.375 c -1.06792,7.65151 -0.50487,15.39421 -0.78222,23.08905 -0.10771,15.59535 0.10422,31.19055 0.0635,46.78595 0.88769,-0.28297 2.00701,0.48259 2.71875,-0.34375 0.14017,-20.17585 -0.049,-40.35209 0.0193,-60.52798 0.0272,-2.72758 0.0314,-5.45896 0.0464,-8.18031 0.12232,-1.05607 -1.3714,-0.79057 -2.06571,-0.82296 z m -77.09375,10.3125 c -1.46537,0.26476 -1.82634,2.05937 -1.65625,3.3125 -0.15322,18.33293 -0.19489,36.66656 -0.125,55 -0.42482,1.14517 1.15627,1.51172 2,1.375 1.00939,0.16493 2.09463,-0.57098 1.77119,-1.67333 -0.23192,-11.80292 -0.14478,-23.60938 -0.2647,-35.41373 -0.027,-6.91721 -0.11237,-13.83644 -0.20869,-20.75125 0.0355,-0.84765 -0.46454,-2.06954 -1.51655,-1.84919 z M 239.75,598.625 c -1.19248,1.48416 -0.51226,3.48372 -0.72112,5.21404 -0.13729,12.8074 -0.63995,25.60691 -0.93513,38.41096 1.67708,0 3.35417,0 5.03125,0 -0.0738,-12.57095 -0.9569,-25.13056 -0.65016,-37.70464 0.0188,-1.6922 0.0376,-3.38441 0.0564,-5.07661 -0.47054,-1.08138 -1.83651,-0.87036 -2.78125,-0.84375 z"
     style="fill:#000000;fill-opacity:1;stroke:none" /><path
     inkscape:connector-curvature="0"
     id="path2989"
     d="m 368.21875,435.90625 c -0.74879,-0.0129 -1.50124,0.003 -2.25,0.0312 -10.17506,0.81518 -20.05243,4.91735 -27.78125,11.59375 -6.9391,5.93807 -12.37978,13.40814 -17.125,21.15625 C 314.0004,480.41682 308.522,492.9987 303,505.5 c -5.6628,12.91272 -11.25469,25.87015 -17.53125,38.5 -2.84673,5.638 -5.90173,11.17553 -9.59375,16.3125 -3.93686,5.63052 -8.56265,10.77031 -13.625,15.40625 -4.09545,3.66183 -8.79086,6.70451 -13.96875,8.59375 -5.83239,2.22798 -12.17995,3.23135 -18.40625,2.59375 -6.76508,-0.77574 -13.16892,-3.8305 -18.3125,-8.25 -7.48062,-6.11667 -13.51795,-13.7196 -19.5,-21.25 -6.89159,-8.6151 -13.47097,-17.60052 -21.65625,-25.0625 -4.80643,-4.26754 -10.07699,-8.02973 -15.75,-11.0625 -4.16341,-2.23496 -8.48396,-4.16312 -12.96875,-5.65625 -4.79063,-1.50345 -9.74414,-2.46759 -14.6875,-3.28125 -1.04693,-0.16486 -1.66869,1.24415 -0.8125,1.875 1.09155,0.36038 2.26052,0.41309 3.375,0.71875 5.64154,1.18838 11.23661,2.84663 16.34375,5.5625 3.77838,2.01813 7.45917,4.25278 10.875,6.84375 4.95955,3.64221 9.48747,7.85162 13.78125,12.25 4.50705,4.6884 8.58565,9.78224 12.375,15.0625 6.76835,9.20571 12.86394,18.91776 20.40625,27.53125 4.93831,5.49081 10.84073,10.30261 17.78125,13 5.55442,2.28723 11.66614,3.05241 17.625,2.40625 7.7495,-0.76691 15.23563,-3.7165 21.53125,-8.28125 6.95305,-4.95289 12.51768,-11.62001 17.125,-18.75 5.85599,-9.13981 10.42223,-19.00702 15.03125,-28.8125 6.95236,-15.16816 13.31816,-30.60401 20.25,-45.78125 4.05224,-8.66475 8.23669,-17.3309 13.59375,-25.28125 3.58011,-5.30786 7.59664,-10.34011 12.21875,-14.78125 6.64078,-6.38487 15.20386,-11.01981 24.4375,-12.03125 7.75878,-0.93568 15.65953,0.71571 22.8125,3.71875 7.66821,3.22818 14.79992,7.57808 21.46875,12.53125 8.60791,6.3737 16.64295,13.53503 23.84375,21.46875 0.84897,0.90631 1.67809,1.8514 2.5,2.78125 l 0,-5.96875 c -0.48909,-0.59201 -0.97564,-1.19255 -1.46875,-1.78125 -4.21835,-5.01203 -8.53588,-9.94494 -13.1875,-14.5625 -6.47336,-6.48414 -13.51503,-12.44414 -21.4375,-17.09375 -6.93547,-4.10682 -14.51825,-7.29528 -22.53125,-8.46875 -2.22023,-0.33811 -4.47237,-0.55501 -6.71875,-0.59375 z"
     style="font-size:medium;font-style:normal;font-variant:normal;font-weight:normal;font-stretch:normal;text-indent:0;text-align:start;text-decoration:none;line-height:normal;letter-spacing:normal;word-spacing:normal;text-transform:none;direction:ltr;block-progression:tb;writing-mode:lr-tb;text-anchor:start;baseline-shift:baseline;color:#000000;fill:#000000;fill-opacity:1;stroke:none;stroke-width:5;marker:none;visibility:visible;display:inline;overflow:visible;enable-background:accumulate;font-family:Sans;-inkscape-font-specification:Sans" /><path
     inkscape:connector-curvature="0"
     id="path4018"
     d="m 299.73638,484.64483 c -4.12856,0.28445 -11.82196,3.82188 -12.89897,4.93196 -0.28722,0.29601 -0.34195,0.6564 -0.26557,1.02432 -0.0513,0.0712 -0.57837,0.83332 -0.60701,1.32784 -0.0699,1.20907 0.83549,2.31019 0.75876,3.52824 -0.0853,1.35369 -1.32783,3.90764 -1.32783,3.90764 l -2.92124,0.75876 -0.83464,-0.30351 c 0.364,-0.42397 0.3801,-0.45185 0.64495,-1.13814 0.20095,-0.52071 -1.10021,-1.17608 -1.10021,-1.17608 0,0 0.0623,-0.56822 -0.30351,-0.4932 l -0.94845,0.18969 c -0.4756,-0.12846 -0.73753,-0.53161 -1.47959,-0.34144 0,0 -0.35489,-0.40648 -0.64495,-0.53113 -1.33274,-0.57288 -1.42393,1.12879 -2.04865,1.06226 0.34497,0.16925 0.61857,0.18273 0.7967,0.11382 -0.38386,0.40085 -0.95895,0.99809 -1.21403,1.55546 -1.03531,2.26172 0.16491,3.36922 -0.15174,5.38722 0.39701,-0.2245 0.58005,-0.55826 0.68289,-0.87258 -0.14402,1.52247 0.57661,0.75497 0.75875,1.82103 0.58098,-1.53158 -0.21827,-0.63504 1.21402,-1.89691 -0.53697,0.70386 0.0304,1.78848 -0.75875,2.20042 1.26215,-0.17248 1.82894,-1.79356 2.61772,-2.92124 0.41268,-0.58981 -0.11269,-0.0784 0.26557,-0.87257 0.3782,-0.79453 1.66928,-0.30352 1.66928,-0.30352 0,0 0.26435,1.24715 0.72082,1.63135 0.48292,0.40644 1.82104,0.45526 1.82104,0.45526 l 0.94845,0.41731 c -1.39622,0.11288 -2.69992,0.36167 -3.14886,0.64495 -0.62827,0.39642 -1.03982,0.71149 -1.36578,1.02433 -0.1771,-0.0167 -0.55681,-0.0252 -0.64495,-0.0379 -0.72148,-0.10434 -2.19197,2.81753 -1.13814,3.14886 l 6.52536,2.04866 c -0.30161,0.25628 -0.62799,0.77564 -0.68289,0.87258 -0.0731,0.12924 -1.78309,4.89402 -1.78309,4.89402 l -0.37938,-0.41732 -0.72083,0.30351 -3.4903,-0.30351 0.34144,-0.53114 -0.72083,-0.49319 c 0,0 0.65285,-4.09128 0.56907,-4.62845 -0.17352,-1.11357 -2.20041,-3.33856 -2.20041,-3.33856 0.26101,-0.53186 -0.0842,-1.08537 -0.30351,-1.40371 -0.18049,-0.26247 -0.30174,-0.43222 -0.34144,-0.26557 -0.10051,0.42389 0.2168,0.89492 -0.0379,0.94845 0,0 -0.0895,0.26543 -0.53113,-0.11381 -0.21428,-0.18399 -0.11381,-1.10021 -0.11381,-1.10021 -0.0704,-0.10671 -0.10475,-0.33555 -0.30351,-0.0379 l -0.0759,0.9864 c 0,0 -0.18612,-0.17748 -0.22764,-0.45526 -0.0594,-0.39163 0.0531,-0.93885 -0.18968,-0.75876 -0.30827,0.22867 0.0924,1.11598 0.11381,1.2899 0.0209,0.17397 -0.6424,-0.36158 -0.72082,-0.64495 -0.0784,-0.28337 -0.22484,-0.0974 -0.15175,0.26556 0.0732,0.36291 1.79981,1.5512 2.46598,1.74516 0.45923,0.1337 1.47184,1.71433 1.70721,2.80742 0.21653,1.00496 -0.34144,3.14887 -0.34144,3.14887 -0.22203,-1.98622 -0.2912,-4.038 -2.42804,-4.81815 0.0339,-0.27092 -0.54803,-0.66309 -0.87258,-0.68288 -0.69225,-0.0423 -1.21402,-0.72083 -1.21402,-0.72083 -0.0848,-0.61563 -0.54828,-0.95783 -0.41732,-0.18969 0.15934,0.2809 0.3035,0.64495 0.3035,0.64495 0,0 -0.68173,-0.80557 -0.7967,-1.02433 -0.11485,-0.21799 -0.37604,-0.14526 -0.34144,0.0759 0.034,0.22123 0.72083,1.21402 0.72083,1.21402 0,0 -0.67141,-0.3944 -0.87259,-0.53113 -0.20118,-0.13657 -0.3455,-0.27092 -0.37937,0 -0.0339,0.27094 0.975,0.7726 1.25196,0.9864 0.27694,0.21378 2.23851,0.60059 3.26267,1.25195 1.02419,0.65136 1.00193,4.35307 0.91052,4.51464 -0.0914,0.16158 -0.41732,-0.11381 -0.41732,-0.11381 l -0.41732,0.64494 -0.37938,0 -0.26557,0.91052 -0.72082,0.22763 -1.36577,-0.60701 c 0,0 0.8912,-1.40151 1.02432,-1.70722 0.13314,-0.30571 -1.1002,-0.87257 -1.1002,-0.87257 0,0 -0.0512,-0.46212 -0.1897,-0.56907 -0.13848,-0.10691 -0.85369,0.11441 -1.21402,0.18968 -0.36045,0.0745 -0.0229,-0.37934 -1.28989,-0.53113 -0.37029,-0.0449 -0.91051,0.15175 -0.91051,0.15175 0,0 -0.68934,0.0252 -1.02434,0.15176 -0.49993,0.18876 -1.36577,0.87257 -1.36577,0.87257 l 0.18969,0.11381 -0.41732,0.56908 0.26557,0.11381 c -0.22013,0.54326 -0.68957,1.07898 -0.60701,1.66928 l 0.56907,-0.11381 c -0.36736,1.01692 -0.0819,0.93896 -0.0759,1.17608 0.14971,-0.20982 0.1253,-0.67985 0.49319,-0.53113 -0.15254,0.63883 -0.0675,1.20217 0.15175,1.74515 0.31902,-0.58772 0.59894,-0.78717 0.87258,-0.83464 l -0.0759,0.4932 0.45525,-0.37938 c -0.0988,0.47936 -0.0262,0.64344 0.0379,0.83463 0.15558,-0.36657 0.28814,-0.8421 0.87257,-0.94845 l -0.15174,0.53113 c 0.24047,0.19475 1.72423,-1.0829 1.97277,-0.98638 0.32542,0.12645 1.51754,1.32783 1.51754,1.32783 0,0 0.51729,0.70941 0.87257,0.94845 0.83799,0.56384 2.23822,1.10266 3.49031,1.51753 -1.21516,0.12412 -2.33096,0.31631 -2.73155,0.56907 -0.57629,0.36362 -0.97127,0.69169 -1.2899,0.98639 -0.66095,-0.0217 -1.13814,-0.0759 -1.13814,-0.0759 l -1.13814,4.09732 c -0.36756,1.32975 10.23628,3.60422 14.79588,4.28701 0.78163,0.11703 1.82135,-0.59921 2.12454,-1.25196 0.004,-0.01 0.21682,-0.50793 0.22762,-0.53113 0.24428,0.25561 0.55062,0.46981 0.91052,0.60701 1.36468,0.52022 2.97152,-0.15565 3.60412,-1.51753 0.6326,-1.36188 0.0748,-2.89421 -1.28989,-3.41443 -0.35311,-0.13461 -0.73452,-0.20705 -1.10021,-0.18969 0.19483,-0.4179 0.58937,-1.25678 0.83463,-1.78309 0.17706,0.12999 0.38859,0.25817 0.60701,0.34143 1.36469,0.52022 2.97153,-0.15564 3.60414,-1.51752 0.6326,-1.36187 0.0369,-2.89422 -1.32784,-3.41444 -0.21908,-0.0835 -0.45583,-0.12805 -0.68289,-0.15175 2.91824,-6.27176 5.32606,-11.4491 8.30845,-17.94474 0.22339,0.2047 0.49058,0.3765 0.79671,0.4932 1.36467,0.52022 3.00946,-0.1936 3.64206,-1.55547 0.6326,-1.36187 0.0369,-2.85627 -1.32784,-3.37649 -0.31691,-0.12081 -0.65756,-0.19204 -0.98639,-0.1897 0.14546,-0.32029 0.28382,-0.61525 0.41732,-0.91051 0.27031,0.44849 0.67383,0.81841 1.21402,1.02433 1.36469,0.52022 2.97153,-0.15565 3.60412,-1.51753 0.63261,-1.36187 0.0369,-2.89421 -1.32783,-3.41443 -0.58578,-0.2233 -1.2017,-0.21641 -1.7831,-0.0379 0.0207,-0.053 0.10157,-0.2681 0.11382,-0.3035 0.75897,-2.18639 -3.67161,-5.0042 -5.31134,-5.08371 -0.24052,-0.0117 -0.52145,-0.019 -0.7967,0 z m -13.1266,6.0701 c 0.0892,0.32056 0.25517,0.66288 0.49319,0.98639 l -0.49319,-0.15175 0,-0.83464 z m 0.72082,1.25196 c 0.54306,0.65557 1.25178,1.21996 1.63134,1.55546 0.55485,0.49045 2.85524,1.45227 4.89402,2.23835 -0.58644,0.20016 -1.22221,0.35187 -1.44164,0.45526 -0.72883,-0.31845 -0.30714,-0.37818 -0.83465,-0.0379 -0.58512,0.37737 -0.94844,5.34928 -0.94844,5.34928 l -3.22475,-1.02433 0.34144,-0.60701 -0.91051,-0.45525 0.94845,-3.64207 -0.7967,-2.42804 0.34144,-1.40371 z m 8.27052,4.85608 c 0.28306,-0.0207 0.46491,0.0746 0.60701,0.18969 l 0.45526,-0.15175 c 0.59414,0.28402 0.75787,0.86079 0.53113,1.63134 -0.61112,-0.2783 -1.27284,-0.46129 -1.78309,-0.34144 -0.0238,0.005 -0.0524,-0.006 -0.0759,0 l -1.02432,-0.87258 c 0.61272,-0.31186 1.00683,-0.4345 1.28989,-0.45526 z m -8.9534,15.13732 c 0,0 1.35467,0.10878 2.46598,0.18969 0.70048,0.29351 0.42531,1.17272 -0.37938,2.27629 -0.31815,-0.0757 -0.60982,-0.0996 -0.87258,-0.0379 -0.93031,0.21854 -1.57605,1.05629 -2.04867,2.04866 0.33446,-1.95809 0.83465,-4.4767 0.83465,-4.4767 z"
     style="fill:#000000;fill-opacity:1;stroke:none" /><path
     inkscape:connector-curvature="0"
     id="path4032"
     d="m 324.8126,440.41479 c -4.30202,0.12054 -11.40456,2.41246 -12.5292,3.31749 -0.241,0.19394 -0.34215,0.44212 -0.3746,0.70723 -0.12234,0.2989 -0.30353,0.62683 -0.30353,0.62683 0,0 0.20085,-1.04729 0.3018,-1.27289 0.10087,-0.22558 -0.12641,-0.37464 -0.27905,-0.2109 -0.15292,0.16345 -0.4888,1.32242 -0.4888,1.32242 0,0 -0.15913,-0.77279 -0.17649,-1.01541 -0.0169,-0.24255 0.0259,-0.43213 -0.20797,-0.29128 -0.23391,0.14078 0.0548,1.20497 0.0577,1.55485 0.002,0.14148 0.14698,0.56504 0.33029,1.04396 0.004,0.014 -10e-4,0.0616 0.005,0.0758 0.0281,0.17786 -0.004,0.29146 -0.13284,0.31225 0,0 -0.0411,0.23649 -0.46604,-0.16137 -0.20614,-0.19302 -0.0699,-1.136 -0.0699,-1.136 -0.0658,-0.10957 -0.0917,-0.27018 -0.30293,0.0186 l -0.1311,0.95831 c 0,0 -0.18966,-0.20138 -0.21961,-0.48062 -0.0427,-0.3938 0.12568,-0.96012 -0.12468,-0.79054 -0.31774,0.21521 0.0328,1.19076 0.046,1.36552 0.0137,0.1747 -0.62185,-0.39338 -0.688,-0.67985 -0.0662,-0.28649 -0.23521,-0.16475 -0.17768,0.20098 0.0577,0.36572 1.73826,1.64477 2.39546,1.86715 0.26435,0.0894 0.27207,1.00651 0.15897,1.96672 -0.0473,0.007 -0.0767,0.0452 -0.11127,0.0448 -0.67632,-0.0112 -0.6111,0.56973 -0.6111,0.56973 -0.93265,1.36056 -1.80373,2.76285 -3.59855,3.90835 l -0.86687,0.73752 c -0.16667,-0.19596 -0.21596,-0.0719 -1.0556,0.14098 l -0.21496,-0.40488 c 0,0 0.73459,-0.26905 1.23214,-1.5962 0.0614,-0.1639 -0.64114,-1.06628 -1.11849,-0.88143 -0.0842,-0.31143 -0.16716,-0.32043 -0.32624,-0.36004 -0.25281,-0.063 -0.36934,0.17477 -0.36934,0.17477 0,0 -0.14349,-0.16627 0.0478,-0.45906 0.0956,-0.14637 -0.93111,-0.0934 -1.29446,-0.0344 -0.36332,0.0589 -0.14353,-0.35379 -1.4028,-0.55986 -0.36789,-0.0601 -0.90414,0.13167 -0.90414,0.13167 -10e-6,0 -0.71548,0.0289 -1.0556,0.14098 -1.67454,0.88574 -2.08004,2.21867 -1.77104,3.3398 0.51402,1.86881 3.01414,3.20102 4.78166,1.11218 0.31966,0.14031 1.4919,1.39061 1.4919,1.39061 0,0 0.43768,0.72404 0.78237,0.97813 0.10117,0.0745 0.23728,0.13184 0.35479,0.20623 -0.5608,0.27628 -0.95988,0.52385 -1.2834,0.76314 -0.1953,-0.0425 -0.60023,-0.12201 -0.69325,-0.1474 -0.46762,-0.12762 -1.41177,1.0383 -1.70344,1.96729 l 0.0979,-0.88026 c 0,0 -0.70877,0.79154 -0.79406,1.30319 -0.199,1.19459 0.61747,2.38284 0.41066,3.58566 -0.22987,1.33677 -1.78329,3.75867 -1.78329,3.75867 l -2.97748,0.41124 -1.18085,-0.0414 c 0.40733,-0.3825 0.83121,-0.74824 1.16806,-1.4022 0.25559,-0.49616 -0.95247,-1.27175 -0.95247,-1.27175 0,0 0.10958,-0.58906 -0.26214,-0.55402 l -0.98221,0.0984 c -0.4591,-0.17867 -0.67784,-0.59144 -1.436,-0.4818 0,0 -0.3359,-0.39901 -0.56974,-0.61112 -0.23386,-0.21209 -2.41008,0.9845 -2.41008,0.9845 l 1.46282,-0.31806 c 0,0 -1.37864,1.07002 -1.82636,1.82281 -1.27135,2.13771 -1.01166,5.07831 -1.54273,7.05072 0.55716,-0.60894 0.89542,-0.8913 0.89542,-0.8913 -1.09185,1.82784 -0.93486,3.00514 -1.28462,4.45017 0,0 0.93512,-2.19007 1.10282,-2.46247 0.48216,-0.78312 1.79083,-1.78261 1.79083,-1.78261 0.11482,0.38927 -0.36518,1.32134 -0.7428,2.13624 0,0 1.10355,-1.26468 1.4809,-1.87757 0.37732,-0.61288 1.38807,-2.55743 1.84911,-3.3066 0.28593,-0.46467 1.04936,-0.26882 1.29211,-0.003 -0.29994,0.15335 -0.49752,0.56274 -0.49752,0.56274 l 0.73112,0.14507 c 1.1241,0.88232 2.17575,1.0398 3.24776,1.51064 l 0.5913,0.34372 c -1.11183,-0.009 -2.09676,0.0422 -2.49454,0.22951 -0.63048,0.29681 -1.07517,0.59037 -1.43019,0.8482 -0.65549,-0.10284 -1.11677,-0.23538 -1.11677,-0.23538 l -1.62017,3.93867 c -0.52779,1.27467 9.72806,4.80947 14.16956,6.04605 0.76141,0.212 1.83981,-0.36219 2.22073,-0.97284 0.009,-0.0144 0.45844,-0.70821 0.48588,-0.75209 0.14984,0.13492 0.32668,0.24835 0.51556,0.34839 1.29062,0.68359 2.97848,0.20569 3.77327,-1.06837 0.79478,-1.27405 0.39003,-2.83393 -0.90058,-3.51752 -0.19635,-0.104 -0.4119,-0.1763 -0.62217,-0.22779 0.18887,-0.30187 0.54246,-0.83443 0.76316,-1.18725 0.16274,0.15576 0.34596,0.30942 0.55808,0.42178 1.29063,0.68361 2.9785,0.20571 3.77328,-1.06835 0.79478,-1.27406 0.38769,-2.8718 -0.90292,-3.55539 -0.21118,-0.11186 -0.43312,-0.17425 -0.66004,-0.22547 3.67035,-5.87518 6.72517,-10.71452 10.48347,-16.79917 0.19633,0.22979 0.43241,0.44884 0.72119,0.6018 1.29063,0.68358 2.97848,0.20568 3.77327,-1.06836 0.79479,-1.27406 0.3877,-2.87179 -0.90292,-3.5554 -0.31131,-0.16488 -0.63028,-0.28563 -0.96996,-0.32042 0.18899,-0.30882 0.38153,-0.58642 0.55461,-0.87034 0.18523,0.2008 0.41666,0.35299 0.67635,0.49052 1.29062,0.68361 2.97849,0.20571 3.77328,-1.06835 0.79477,-1.27406 0.39002,-2.83393 -0.90059,-3.51752 -0.33413,-0.17697 -0.71832,-0.28589 -1.08356,-0.31344 0.28874,-2.07727 -3.31009,-4.99438 -4.80839,-5.25362 -0.47456,-0.0821 -1.02533,-0.10637 -1.63991,-0.0891 z m -12.82166,4.74186 c 0.32503,1.04008 1.38818,2.21563 1.88104,2.77301 0.43282,0.48951 2.24675,1.55586 4.03246,2.52664 -0.0716,0.004 -0.51096,0.0324 -0.53014,0.0326 -0.32404,-0.004 -0.96594,0.81251 -1.04455,0.93849 -0.0786,0.126 -1.97087,4.41637 -1.97087,4.41637 l -0.37866,0.0233 -0.4212,-0.0501 -3.33864,-0.51679 2.03143,-3.43184 0.63501,-0.79928 c 0,0 0.19512,-1.18367 -0.3303,-1.04394 -0.0618,0.0163 -0.0985,-0.0925 -0.16544,-0.21789 0.13982,-0.82791 0.0594,-1.6678 -0.18693,-2.42113 0.23402,-0.14078 0.19088,-0.87323 0.006,-1.14066 -0.27841,-0.40263 -0.25943,-0.81226 -0.21902,-1.0888 z m 6.32825,7.09861 c 0,0 1.51459,-0.0693 2.92271,-0.0658 0.48121,0.36197 0.52616,0.95404 0.21611,1.65914 -0.57173,-0.35038 -1.22564,-0.6331 -1.74593,-0.57677 -0.84087,0.091 -1.48522,0.71661 -2.03667,1.49366 0.33416,-1.33822 0.64378,-2.51025 0.64378,-2.51025 z m -16.2012,9.73902 5.47605,2.51384 c -0.56492,0.26447 -1.63566,0.81297 -2.05763,1.15286 -0.54224,0.43677 -0.86693,5.67879 -0.86693,5.67879 l -3.08465,-1.33061 1.08826,-2.08148 -0.7212,-0.60179 0.48705,-1.96848 -0.53475,-2.51376 0.2138,-0.84937 z m 6.17862,2.8127 1.56591,0.73988 -1.20008,0.26388 -0.36583,-1.00376 z m 3.81517,2.08389 c 0.034,0.43893 -0.38465,1.04509 -1.0335,1.73602 -0.29263,-0.10476 -0.58798,-0.16588 -0.84471,-0.13809 -0.2313,0.0251 -0.42836,0.0971 -0.63442,0.19108 l 0.10196,-0.19633 -0.65186,-1.32825 3.06253,-0.26446 z"
     style="fill:#000000;fill-opacity:1;stroke:none" /></g></svg>