<svg
	version="1.1"
	xmlns="http://www.w3.org/2000/svg"
	xmlns:xlink="http://www.w3.org/1999/xlink"
   x="0px"
   y="0px"
   width="512px"
   height="512px"
   viewBox="0 0 512 512"
   enable-background="new 0 0 512 512"
   id="artgallery-marker">
<path
   id="artgallery-marker-shell"
   d="M256,50c-93.061,0-168.5,75.44-168.5,168.5C87.5,313,169.43,375.333,256,462  c86.57-86.667,168.5-149,168.5-243.5C424.5,125.44,349.061,50,256,50z M256,336.958c-68.275,0-123.624-55.349-123.624-123.624  c0-68.276,55.349-123.625,123.624-123.625c68.276,0,123.625,55.348,123.625,123.625C379.625,281.609,324.276,336.958,256,336.958z" />
<path
   id="artgallery-marker-content"
   d="m 156.57006,269.64768 c 0,0 49.46181,49.46182 77.7257,-3.53298 l -24.7309,-24.73091 c 0,0 -24.73091,21.19792 -52.9948,28.26389 z m 61.24715,-41.18331 c -2.75962,2.75926 -2.75962,10.76642 0,13.52568 l 16.75554,16.75554 c 2.75962,2.75962 10.76642,2.75962 13.52569,0 l 40.70283,-40.70283 c 2.75962,-2.75926 2.75962,-7.23308 0,-9.9927 l -20.28853,-20.28853 c -2.75926,-2.75926 -7.23344,-2.75926 -9.9927,0 l -40.70283,40.70284 z m 52.94746,-52.9948 c -2.75962,2.75926 -2.75962,7.23343 0,9.9927 l 20.28853,20.28853 c 2.75926,2.75961 7.23343,2.75961 9.9927,0 l 43.88147,-43.88146 c -7.11261,-12.28985 -16.28,-23.24211 -27.03265,-32.38689 -1.05883,0.32892 -2.05584,0.91292 -2.89422,1.7513 l -44.23583,44.23582 z" />
 </svg>
