<?xml version="1.0" encoding="UTF-8" standalone="no"?><svg
   xmlns:dc="http://purl.org/dc/elements/1.1/"
   xmlns:cc="http://creativecommons.org/ns#"
   xmlns:rdf="http://www.w3.org/1999/02/22-rdf-syntax-ns#"
   xmlns:svg="http://www.w3.org/2000/svg"
   xmlns="http://www.w3.org/2000/svg"
   xmlns:sodipodi="http://sodipodi.sourceforge.net/DTD/sodipodi-0.dtd"
   xmlns:inkscape="http://www.inkscape.org/namespaces/inkscape"
   version="1.1"
   x="0px"
   y="0px"
   width="512px"
   height="512px"
   viewBox="0 0 512 512"
   enable-background="new 0 0 512 512"
   xml:space="preserve"
   id="svg2"
   inkscape:version="0.48.4 r9939"
   sodipodi:docname="grocery.svg"><metadata
   id="metadata9"><rdf:RDF><cc:Work
       rdf:about=""><dc:format>image/svg+xml</dc:format><dc:type
         rdf:resource="http://purl.org/dc/dcmitype/StillImage" /><dc:title></dc:title></cc:Work></rdf:RDF></metadata><defs
   id="defs7" /><sodipodi:namedview
   pagecolor="#ffffff"
   bordercolor="#666666"
   borderopacity="1"
   objecttolerance="10"
   gridtolerance="10"
   guidetolerance="10"
   inkscape:pageopacity="0"
   inkscape:pageshadow="2"
   inkscape:window-width="913"
   inkscape:window-height="1041"
   id="namedview5"
   showgrid="false"
   inkscape:zoom="0.76171875"
   inkscape:cx="249.14118"
   inkscape:cy="346.15198"
   inkscape:window-x="2911"
   inkscape:window-y="0"
   inkscape:window-maximized="0"
   inkscape:current-layer="svg2" />
<path
   id="location-5-icon"
   d="M256,50c-93.061,0-168.5,75.44-168.5,168.5C87.5,313,169.43,375.333,256,462  c86.57-86.667,168.5-149,168.5-243.5C424.5,125.44,349.061,50,256,50z M256,336.958c-68.275,0-123.624-55.349-123.624-123.624  c0-68.276,55.349-123.625,123.624-123.625c68.276,0,123.625,55.348,123.625,123.625C379.625,281.609,324.276,336.958,256,336.958z" />
<path
   id="path4961"
   d="m 156.57006,269.64768 c 0,0 49.46181,49.46182 77.7257,-3.53298 l -24.7309,-24.73091 c 0,0 -24.73091,21.19792 -52.9948,28.26389 z m 61.24715,-41.18331 c -2.75962,2.75926 -2.75962,10.76642 0,13.52568 l 16.75554,16.75554 c 2.75962,2.75962 10.76642,2.75962 13.52569,0 l 40.70283,-40.70283 c 2.75962,-2.75926 2.75962,-7.23308 0,-9.9927 l -20.28853,-20.28853 c -2.75926,-2.75926 -7.23344,-2.75926 -9.9927,0 l -40.70283,40.70284 z m 52.94746,-52.9948 c -2.75962,2.75926 -2.75962,7.23343 0,9.9927 l 20.28853,20.28853 c 2.75926,2.75961 7.23343,2.75961 9.9927,0 l 43.88147,-43.88146 c -7.11261,-12.28985 -16.28,-23.24211 -27.03265,-32.38689 -1.05883,0.32892 -2.05584,0.91292 -2.89422,1.7513 l -44.23583,44.23582 z"
   inkscape:connector-curvature="0"
   style="fill:#000000;fill-opacity:1;stroke-linejoin:round" /></svg>