<?xml version="1.0" encoding="UTF-8" standalone="no"?><svg
   xmlns:dc="http://purl.org/dc/elements/1.1/"
   xmlns:cc="http://creativecommons.org/ns#"
   xmlns:rdf="http://www.w3.org/1999/02/22-rdf-syntax-ns#"
   xmlns:svg="http://www.w3.org/2000/svg"
   xmlns="http://www.w3.org/2000/svg"
   xmlns:xlink="http://www.w3.org/1999/xlink"
   xmlns:sodipodi="http://sodipodi.sourceforge.net/DTD/sodipodi-0.dtd"
   xmlns:inkscape="http://www.inkscape.org/namespaces/inkscape"
   version="1.1"
   x="0px"
   y="0px"
   width="512px"
   height="512px"
   viewBox="0 0 512 512"
   enable-background="new 0 0 512 512"
   xml:space="preserve"
   id="svg2"
   inkscape:version="0.91 r13725"
   sodipodi:docname="bank.svg"><metadata
     id="metadata9"><rdf:RDF><cc:Work
         rdf:about=""><dc:format>image/svg+xml</dc:format><dc:type
           rdf:resource="http://purl.org/dc/dcmitype/StillImage" /><dc:title></dc:title></cc:Work></rdf:RDF></metadata><defs
     id="defs7"><inkscape:perspective
       sodipodi:type="inkscape:persp3d"
       inkscape:vp_x="0 : 0.5 : 1"
       inkscape:vp_y="0 : 1000 : 0"
       inkscape:vp_z="1 : 0.5 : 1"
       inkscape:persp3d-origin="0.5 : 0.33333333 : 1"
       id="perspective2831" /><inkscape:perspective
       sodipodi:type="inkscape:persp3d"
       inkscape:vp_x="0 : 0.5 : 1"
       inkscape:vp_y="0 : 1000 : 0"
       inkscape:vp_z="1 : 0.5 : 1"
       inkscape:persp3d-origin="0.5 : 0.33333333 : 1"
       id="perspective3716" /><inkscape:perspective
       sodipodi:type="inkscape:persp3d"
       inkscape:vp_x="0 : 0.5 : 1"
       inkscape:vp_y="0 : 1000 : 0"
       inkscape:vp_z="1 : 0.5 : 1"
       inkscape:persp3d-origin="0.5 : 0.33333333 : 1"
       id="perspective3283" /><inkscape:perspective
       id="perspective3273"
       inkscape:persp3d-origin="372.04724 : 350.78739 : 1"
       inkscape:vp_z="744.09448 : 526.18109 : 1"
       inkscape:vp_y="0 : 1000 : 0"
       inkscape:vp_x="0 : 526.18109 : 1"
       sodipodi:type="inkscape:persp3d" /><inkscape:perspective
       sodipodi:type="inkscape:persp3d"
       inkscape:vp_x="0 : 0.5 : 1"
       inkscape:vp_y="0 : 1000 : 0"
       inkscape:vp_z="1 : 0.5 : 1"
       inkscape:persp3d-origin="0.5 : 0.33333333 : 1"
       id="perspective3707" /><inkscape:perspective
       sodipodi:type="inkscape:persp3d"
       inkscape:vp_x="0 : 0.5 : 1"
       inkscape:vp_y="0 : 1000 : 0"
       inkscape:vp_z="1 : 0.5 : 1"
       inkscape:persp3d-origin="0.5 : 0.33333333 : 1"
       id="perspective3676" /><inkscape:perspective
       sodipodi:type="inkscape:persp3d"
       inkscape:vp_x="0 : 0.5 : 1"
       inkscape:vp_y="0 : 1000 : 0"
       inkscape:vp_z="1 : 0.5 : 1"
       inkscape:persp3d-origin="0.5 : 0.33333333 : 1"
       id="perspective2884" /><inkscape:perspective
       id="perspective10"
       inkscape:persp3d-origin="372.04724 : 350.78739 : 1"
       inkscape:vp_z="744.09448 : 526.18109 : 1"
       inkscape:vp_y="0 : 1000 : 0"
       inkscape:vp_x="0 : 526.18109 : 1"
       sodipodi:type="inkscape:persp3d" /><style
       type="text/css"
       id="style6">
   
    .fil0 {fill:#EF7900}
   
  </style><linearGradient
       y2="430.10822"
       x2="-774.98901"
       y1="619.61285"
       x1="-776.40326"
       gradientTransform="matrix(0.467111,0,0,0.487697,583.26,486.2726)"
       gradientUnits="userSpaceOnUse"
       id="linearGradient7651"
       xlink:href="#linearGradient5196"
       inkscape:collect="always" /><linearGradient
       y2="295.75793"
       x2="-490.02499"
       y1="350.91223"
       x1="-1027.219"
       gradientTransform="matrix(0.467111,0,0,0.487697,583.26,486.2726)"
       gradientUnits="userSpaceOnUse"
       id="linearGradient7649"
       xlink:href="#linearGradient9619"
       inkscape:collect="always" /><linearGradient
       gradientTransform="matrix(0.467111,0,0,0.487697,583.26,486.2726)"
       y2="295.75793"
       x2="-490.02499"
       y1="350.91223"
       x1="-1027.219"
       gradientUnits="userSpaceOnUse"
       id="linearGradient6736"
       xlink:href="#linearGradient9619"
       inkscape:collect="always" /><linearGradient
       gradientTransform="matrix(0.467111,0,0,0.487697,583.26,486.2726)"
       y2="430.10822"
       x2="-774.98901"
       y1="619.61285"
       x1="-776.40326"
       gradientUnits="userSpaceOnUse"
       id="linearGradient6733"
       xlink:href="#linearGradient5196"
       inkscape:collect="always" /><linearGradient
       y2="430.10822"
       x2="-774.98901"
       y1="619.61285"
       x1="-776.40326"
       gradientUnits="userSpaceOnUse"
       id="linearGradient4075"
       xlink:href="#linearGradient5196"
       inkscape:collect="always" /><linearGradient
       y2="295.75793"
       x2="-490.02499"
       y1="350.91223"
       x1="-1027.219"
       gradientUnits="userSpaceOnUse"
       id="linearGradient4073"
       xlink:href="#linearGradient9619"
       inkscape:collect="always" /><linearGradient
       gradientUnits="userSpaceOnUse"
       y2="295.75793"
       x2="-490.02499"
       y1="350.91223"
       x1="-1027.219"
       id="linearGradient9625"
       xlink:href="#linearGradient9619"
       inkscape:collect="always" /><linearGradient
       gradientUnits="userSpaceOnUse"
       y2="430.10822"
       x2="-774.98901"
       y1="619.61285"
       x1="-776.40326"
       id="linearGradient5202"
       xlink:href="#linearGradient5196"
       inkscape:collect="always" /><linearGradient
       id="linearGradient5196"
       inkscape:collect="always"><stop
         id="stop5198"
         offset="0"
         style="stop-color:#c9c9c9;stop-opacity:1;" /><stop
         id="stop5200"
         offset="1"
         style="stop-color:#c9c9c9;stop-opacity:0;" /></linearGradient><linearGradient
       id="linearGradient9619"><stop
         id="stop9621"
         offset="0"
         style="stop-color:#bbbbbb;stop-opacity:1;" /><stop
         id="stop9623"
         offset="1"
         style="stop-color:#ffffff;stop-opacity:1;" /></linearGradient></defs><sodipodi:namedview
     pagecolor="#ffffff"
     bordercolor="#666666"
     borderopacity="1"
     objecttolerance="10"
     gridtolerance="10"
     guidetolerance="10"
     inkscape:pageopacity="0"
     inkscape:pageshadow="2"
     inkscape:window-width="1920"
     inkscape:window-height="1125"
     id="namedview5"
     showgrid="false"
     inkscape:zoom="0.64"
     inkscape:cx="1057.1364"
     inkscape:cy="529.4722"
     inkscape:window-x="-9"
     inkscape:window-y="-9"
     inkscape:window-maximized="1"
     inkscape:current-layer="svg2" /><path
     id="location-5-icon"
     d="M 256,50 C 162.939,50 87.5,125.44 87.5,218.5 87.5,313 169.43,375.333 256,462 342.57,375.333 424.5,313 424.5,218.5 424.5,125.44 349.061,50 256,50 z m 0,286.958 c -68.275,0 -123.624,-55.349 -123.624,-123.624 0,-68.276 55.349,-123.625 123.624,-123.625 68.276,0 123.625,55.348 123.625,123.625 0,68.275 -55.349,123.624 -123.625,123.624 z"
     inkscape:connector-curvature="0" /><g
     transform="translate(174.37039,127.99014)"
     id="g4"><path
       style="fill:#000000"
       inkscape:connector-curvature="0"
       d="m 102.627,46.473 -47.431,0 C 31.947,69.529 3.033,105.765 17.892,132.2 c 11.742,20.892 38.288,26.294 64.043,25.935 25.755,-0.359 50.718,-6.484 59.29,-25.935 10.961,-24.868 -16.998,-62.101 -38.598,-85.727 z m -19.378,80.802 0,7.447 -7.154,0 0,-6.938 c -4.891,-0.217 -9.635,-1.533 -12.41,-3.139 l 2.189,-8.539 c 3.067,1.678 7.374,3.21 12.119,3.21 4.16,0 7.008,-1.604 7.008,-4.526 0,-2.771 -2.336,-4.525 -7.738,-6.351 -7.812,-2.628 -13.139,-6.279 -13.139,-13.359 0,-6.425 4.525,-11.462 12.337,-12.995 l 0,-6.934 7.153,0 0,6.423 c 4.891,0.22 8.178,1.243 10.586,2.411 l -2.117,8.248 c -1.898,-0.804 -5.257,-2.482 -10.512,-2.482 -4.745,0 -6.279,2.043 -6.279,4.089 0,2.409 2.555,3.942 8.76,6.277 8.687,3.067 12.19,7.082 12.19,13.652 10e-4,6.498 -4.597,12.047 -12.993,13.506 z"
       id="path6" /><path
       style="fill:#000000"
       inkscape:connector-curvature="0"
       d="M 116.649,10.713 C 110.141,6.768 102.132,20.994 96.415,20.774 90.696,20.554 86.185,6.517 79.656,6.746 73.127,6.975 70.544,19.75 65.305,20.947 60.066,22.144 47.007,5.872 41.768,11.587 37.524,16.218 50.51,34.724 55.593,41.585 l 4.644,0 37.835,0 4.35,0 c 5.327,-7.268 19.558,-27.641 14.227,-30.872 z"
       id="path8" /></g></svg>