<svg
	version="1.1"
	xmlns="http://www.w3.org/2000/svg"
	xmlns:xlink="http://www.w3.org/1999/xlink"
   x="0px"
   y="0px"
   width="512px"
   height="512px"
   viewBox="0 0 512 512"
   enable-background="new 0 0 512 512"
   id="bar-marker">
<path
   id="bar-marker-shell"
   d="M256,50c-93.061,0-168.5,75.44-168.5,168.5C87.5,313,169.43,375.333,256,462  c86.57-86.667,168.5-149,168.5-243.5C424.5,125.44,349.061,50,256,50z M256,336.958c-68.275,0-123.624-55.349-123.624-123.624  c0-68.276,55.349-123.625,123.624-123.625c68.276,0,123.625,55.348,123.625,123.625C379.625,281.609,324.276,336.958,256,336.958z" />
<path
   id="bar-marker-content"
   d="m 198.37828,142.79479 105.24024,0 0.35067,29.1166 c 18.40568,0 33.32622,14.92054 33.32622,33.32622 l 0,33.3258 c 0,18.40567 -14.92054,33.32622 -33.32622,33.32622 l -0.35067,35.07994 -105.24024,0 0,-164.17478 z m 105.24024,109.44986 c 7.36219,0 16.83845,-9.47627 16.83845,-16.83844 l 0,-25.25767 c 0,-7.36218 -9.47626,-21.04805 -16.83845,-21.04805 l 0,63.14416 z m -92.6114,-96.82103 0,8.41921 79.98258,0 0,-8.41921 -79.98258,0 z m 79.98258,138.91712 0,-8.41922 -79.98258,0 0,8.41922 79.98258,0 z M 225.74075,176.47167 c -3.68089,0 -6.31442,4.7379 -6.31442,8.41921 l 0,79.98259 c 0,3.68131 2.63311,8.41922 6.31442,8.41922 3.68088,0 6.31442,-4.73791 6.31442,-8.41922 l 0,-79.98259 c 0,-3.68131 -2.63312,-8.41921 -6.31442,-8.41921 z m 25.25766,0 c -3.68088,0 -6.31442,4.7379 -6.31442,8.41921 l 0,79.98259 c 0,3.68131 2.63311,8.41922 6.31442,8.41922 3.68088,0 6.31441,-4.38726 6.31441,-8.06856 l 0,-80.33325 c 0,-3.68131 -2.63311,-8.41921 -6.31441,-8.41921 z m 25.25765,0 c -3.6813,0 -6.31441,4.7379 -6.31441,8.41921 l 0,79.98259 c 0,3.68131 2.63311,8.41922 6.31441,8.41922 3.6813,0 6.31442,-4.73791 6.31442,-8.41922 l 0,-79.98259 c 0,-3.68131 -2.63354,-8.41921 -6.31442,-8.41921 z m -78.93019,-45.34088 c 5.26202,-0.96483 33.32623,-14.99672 39.9913,-8.33166 6.66508,6.66508 13.33057,6.66508 19.99565,6.66508 6.66508,0 13.33057,-6.66508 26.66072,-6.66508 6.6655,0 19.99565,3.33276 19.99565,9.99783 -0.35067,14.20744 -4.99891,4.99891 -4.99891,4.99891 0,0 -3.33275,-6.66508 -16.6629,-6.66508 -13.33057,0 -18.32948,6.66508 -24.99456,6.66508 -6.66508,0 -18.32949,-6.66508 -31.65963,-6.66508 -13.33058,0 -15.17228,6.75306 -23.3284,4.99892 -8.15612,-1.75414 -16.57534,6.66508 -13.33058,14.99674 5.17446,8.50678 1.66618,13.90224 1.6666,23.3284 0,1.66615 -1.75416,1.49061 -3.33275,-6.66551 -1.57861,-8.15611 -9.99783,-11.66398 -9.99783,-18.32947 0,-6.66508 0.70174,-7.36683 6.66508,-13.33016 5.96375,-5.96375 8.06855,-4.03408 13.33056,-4.99892 z" />
 </svg>
