<svg
	version="1.1"
	xmlns="http://www.w3.org/2000/svg"
	xmlns:xlink="http://www.w3.org/1999/xlink"
   x="0px"
   y="0px"
   width="512px"
   height="512px"
   viewBox="0 0 512 512"
   enable-background="new 0 0 512 512"
   id="beautysalon-marker">
<path
   id="beautysalon-marker-shell"
   d="M256,50c-93.061,0-168.5,75.44-168.5,168.5C87.5,313,169.43,375.333,256,462  c86.57-86.667,168.5-149,168.5-243.5C424.5,125.44,349.061,50,256,50z M256,336.958c-68.275,0-123.624-55.349-123.624-123.624  c0-68.276,55.349-123.625,123.624-123.625c68.276,0,123.625,55.348,123.625,123.625C379.625,281.609,324.276,336.958,256,336.958z" />
<path
   id="beautysalon-marker-content"
   d="m 265.55151,211.75509 c 0,-2.06153 -1.67174,-3.73283 -3.73282,-3.73283 -2.06198,0 -3.73283,1.67174 -3.73283,3.73283 0,2.06198 1.67129,3.73372 3.73283,3.73372 2.06153,0 3.73282,-1.67174 3.73282,-3.73372 z m 29.66841,66.43196 c -15.72973,-7.58721 -24.34591,-24.46299 -20.48794,-40.12723 0.85853,-3.48164 0.53691,-3.49555 -4.21412,-5.72394 -0.53646,-0.25164 -109.21953,-52.66373 -109.21953,-52.66373 13.84671,-18.91354 25.61845,-20.34217 34.41764,-16.09934 2.08979,1.00834 46.97612,22.62348 67.64259,32.61537 0,0 6.31872,-3.02142 6.85563,-3.27127 5.04887,-2.35309 5.04887,-2.35309 4.22982,-5.71272 -3.8203,-15.6759 4.83806,-32.53015 20.58663,-40.07654 17.98413,-8.62068 39.38442,-2.40019 47.52111,14.57471 8.22101,17.15119 -0.78496,37.3534 -18.33625,46.13959 -6.77175,3.38968 -12.62488,3.73731 -17.78947,4.04411 -2.53879,0.15072 -4.89592,0.29066 -7.28444,0.74145 2.50874,0.51135 4.97172,0.66386 7.63475,0.82848 5.16326,0.31981 11.01504,0.68179 17.77736,4.08718 17.57103,8.85123 26.46845,29.09156 18.22323,46.18623 -8.2421,17.08705 -29.71731,23.05903 -47.55701,14.45765 z M 175.88963,176.74985 c 0,0 97.9309,47.22642 98.43776,47.46414 5.21393,2.4455 11.7031,5.4889 9.11497,15.99169 -2.85008,11.56988 3.7418,24.14541 15.67411,29.90075 13.66371,6.58829 29.65091,2.01757 35.58073,-10.27492 5.9038,-12.24092 -0.3243,-27.29692 -14.17864,-34.27635 -10.59968,-5.33774 -18.99069,-0.8518 -31.63306,-7.01621 l -12.30864,-5.99441 11.97358,-5.78809 c 6.57888,-3.18694 12.29833,-3.52649 17.34451,-3.82612 4.92597,-0.29246 9.18045,-0.54499 14.30558,-3.11114 13.87274,-6.94444 20.13763,-21.98475 14.26252,-34.23957 -3.94544,-8.23088 -12.61365,-13.34345 -22.62302,-13.34345 -4.39131,0 -8.86334,1.03077 -12.93169,2.98106 -11.94666,5.72484 -18.56949,18.28333 -15.74812,29.86218 2.56302,10.50772 -3.93467,13.53587 -9.15623,15.9688 -0.50731,0.23639 -10.66247,5.09687 -10.66247,5.09687 0,0 -69.43186,-33.48286 -71.52255,-34.49165 -5.7365,-2.76665 -12.02337,0.14982 -15.92934,5.09642 z m 125.56916,88.50283 c -11.29223,-5.44494 -16.13656,-17.63652 -11.59724,-27.04843 4.60391,-9.54065 17.26198,-13.12814 28.38735,-7.76169 11.02041,5.31709 16.22224,17.44991 11.59679,27.04618 -4.60256,9.53884 -17.25659,13.13262 -28.3869,7.76394 z m -3.51796,-23.15008 c -2.68547,5.56874 1.53313,12.23417 7.41451,15.06991 6.71614,3.23942 14.02659,1.35821 16.40928,-3.58033 2.4778,-5.14037 -0.84775,-11.9009 -7.41407,-15.06901 -6.70491,-3.23583 -14.02345,-1.36404 -16.40972,3.57943 z m -8.3668,-55.00696 c -4.53393,-9.45991 0.39921,-21.62322 11.66363,-27.01927 11.12492,-5.33236 23.78029,-1.73589 28.36672,7.83167 4.6039,9.60927 -0.62888,21.72952 -11.66364,27.01838 -11.13434,5.33773 -23.78478,1.72646 -28.36671,-7.83078 z m 15.54044,-18.92923 c -5.8585,2.80611 -10.13363,9.45272 -7.4504,15.05152 2.37148,4.94749 9.68373,6.83813 16.39986,3.61889 6.57483,-3.15151 9.91742,-9.90396 7.45085,-15.05197 -2.37506,-4.95333 -9.69001,-6.8341 -16.40031,-3.61844 z m -52.64444,66.00448 c 0,0 -55.0276,26.27109 -57.22235,27.32339 -13.52062,6.4793 -25.55296,-4.06162 -34.37997,-16.18366 l 57.59913,-27.5221 10.13049,4.88067 -53.12081,25.58616 c 3.92705,4.49266 10.13139,7.91016 15.89345,5.14889 2.1952,-1.05229 36.57696,-17.62529 50.52505,-24.32842 l 10.57501,5.09507 z"/>
 </svg>
