<svg
	version="1.1"
	xmlns="http://www.w3.org/2000/svg"
	xmlns:xlink="http://www.w3.org/1999/xlink"
   x="0px"
   y="0px"
   width="512px"
   height="512px"
   viewBox="0 0 512 512"
   enable-background="new 0 0 512 512"
   id="bicycleshop-marker">
<path
   id="bicycleshop-marker-shell"
   d="M256,50c-93.061,0-168.5,75.44-168.5,168.5C87.5,313,169.43,375.333,256,462  c86.57-86.667,168.5-149,168.5-243.5C424.5,125.44,349.061,50,256,50z M256,336.958c-68.275,0-123.624-55.349-123.624-123.624  c0-68.276,55.349-123.625,123.624-123.625c68.276,0,123.625,55.348,123.625,123.625C379.625,281.609,324.276,336.958,256,336.958z" />
<g
   id="bicycleshop-marker-content"
   transform="matrix(0.78681607,0,0,0.78681607,409.34956,-175.23843)"><circle
     id="circle521"
     r="9.3260002"
     cy="243.755"
     cx="310.298"
     stroke-miterlimit="10"
     sodipodi:cx="310.298"
     sodipodi:cy="243.755"
     sodipodi:rx="9.3260002"
     sodipodi:ry="9.3260002"
     style="fill:none;stroke:#231f20;stroke-miterlimit:10"
     transform="matrix(5.2940331,0,0,5.2940331,-1763.4988,-785.04443)"
     d="m 319.624,243.755 c 0,5.15061 -4.17539,9.32601 -9.326,9.32601 -5.1506,0 -9.326,-4.1754 -9.326,-9.32601 0,-5.1506 4.1754,-9.326 9.326,-9.326 5.15061,0 9.326,4.1754 9.326,9.326 z" /><circle
     id="circle523"
     r="9.3260002"
     cy="243.478"
     cx="281.03299"
     stroke-miterlimit="10"
     sodipodi:cx="281.03299"
     sodipodi:cy="243.478"
     sodipodi:rx="9.3260002"
     sodipodi:ry="9.3260002"
     style="fill:none;stroke:#231f20;stroke-miterlimit:10"
     transform="matrix(5.2940331,0,0,5.2940331,-1763.4988,-785.04443)"
     d="m 290.35899,243.478 c 0,5.1506 -4.17539,9.326 -9.326,9.326 -5.15061,0 -9.326,-4.1754 -9.326,-9.326 0,-5.15061 4.17539,-9.326 9.326,-9.326 5.15061,0 9.326,4.17539 9.326,9.326 z" /><circle
     id="circle525"
     r="1.554"
     cy="243.52299"
     cx="311.047"
     stroke-miterlimit="10"
     sodipodi:cx="311.047"
     sodipodi:cy="243.52299"
     sodipodi:rx="1.554"
     sodipodi:ry="1.554"
     style="fill:none;stroke:#231f20;stroke-miterlimit:10"
     transform="matrix(5.2940331,0,0,5.2940331,-1763.4988,-785.04443)"
     d="m 312.601,243.52299 c 0,0.85826 -0.69575,1.55401 -1.554,1.55401 -0.85825,0 -1.554,-0.69575 -1.554,-1.55401 0,-0.85825 0.69575,-1.554 1.554,-1.554 0.85825,0 1.554,0.69575 1.554,1.554 z" /><circle
     id="circle527"
     r="1.5549999"
     cy="243.158"
     cx="281.138"
     stroke-miterlimit="10"
     sodipodi:cx="281.138"
     sodipodi:cy="243.158"
     sodipodi:rx="1.5549999"
     sodipodi:ry="1.5549999"
     style="fill:none;stroke:#231f20;stroke-miterlimit:10"
     transform="matrix(5.2940331,0,0,5.2940331,-1763.4988,-785.04443)"
     d="m 282.693,243.158 c 0,0.85881 -0.6962,1.555 -1.555,1.555 -0.8588,0 -1.555,-0.69619 -1.555,-1.555 0,-0.8588 0.6962,-1.555 1.555,-1.555 0.8588,0 1.555,0.6962 1.555,1.555 z" /><line
     id="line529"
     y2="424.58932"
     x2="-149.05707"
     y1="497.22864"
     x1="-120.54865"
     stroke-miterlimit="10"
     style="fill:none;stroke:#231f20;stroke-width:5.29403305;stroke-miterlimit:10" /><line
     id="line531"
     y2="503.37506"
     x2="-266.91812"
     y1="503.37506"
     x1="-203.54321"
     stroke-miterlimit="10"
     style="fill:none;stroke:#231f20;stroke-width:5.29403305;stroke-miterlimit:10" /><line
     id="line533"
     y2="440.87906"
     x2="-239.45792"
     y1="495.48169"
     x1="-198.57732"
     stroke-miterlimit="10"
     style="fill:none;stroke:#231f20;stroke-width:5.29403305;stroke-miterlimit:10" /><line
     id="line535"
     y2="441.23367"
     x2="-140.98888"
     y1="441.23367"
     x1="-240.73909"
     stroke-miterlimit="10"
     style="fill:none;stroke:#231f20;stroke-width:5.29403305;stroke-miterlimit:10" /><line
     id="line537"
     y2="497.13333"
     x2="-191.29802"
     y1="440.24377"
     x1="-149.86697"
     stroke-miterlimit="10"
     style="fill:none;stroke:#231f20;stroke-width:5.29403305;stroke-miterlimit:10" /><line
     id="line539"
     y2="493.50174"
     x2="-272.01617"
     y1="439.67719"
     x1="-237.68964"
     stroke-miterlimit="10"
     style="fill:none;stroke:#231f20;stroke-width:5.29403305;stroke-miterlimit:10" /><line
     id="line541"
     y2="433.00681"
     x2="-238.32506"
     y1="443.22427"
     x1="-238.32506"
     stroke-miterlimit="10"
     style="fill:none;stroke:#231f20;stroke-width:5.29403305;stroke-miterlimit:10" /><path
     id="path543"
     d="m -254.07469,429.78269 c 0,2.1282 1.72585,3.84876 3.85406,3.84876 h 22.30376 c 2.11761,0 3.85405,-1.71527 3.85405,-3.84876 l 0,0 c 0,-2.1282 -1.73115,-3.85406 -3.85405,-3.85406 h -22.30376 c -2.12821,0 -3.85406,1.72056 -3.85406,3.85406 l 0,0 z"
     inkscape:connector-curvature="0"
     style="fill:#231f20" /><path
     id="path545"
     d="m -149.49636,427.38449 c 0,0 26.41722,-9.65102 26.41722,7.94105"
     stroke-miterlimit="10"
     inkscape:connector-curvature="0"
     style="fill:none;stroke:#231f20;stroke-width:5.29403305;stroke-miterlimit:10" /><path
     id="path547"
     d="m -311.08613,451.12294 4.2564,4.5211 c 17.52854,-12.90685 41.15052,-13.31979 58.97023,-1.54056 l 4.38346,-4.12406 c -20.23379,-14.06624 -47.58806,-13.85448 -67.61009,1.14352 z"
     inkscape:connector-curvature="0"
     style="fill:#231f20" /><path
     id="path549"
     d="m -109.3623,466.17387 -0.85763,4.25111 c 14.415653,4.7911 24.167262,18.11089 24.611961,33.02947 l 4.118758,0.83646 c -0.105881,-17.2109 -11.249821,-32.74359 -27.873089,-38.11704 z"
     inkscape:connector-curvature="0"
     style="fill:#231f20" /><circle
     id="circle551"
     r="1.531"
     cy="243.037"
     cx="296.194"
     stroke-miterlimit="10"
     sodipodi:cx="296.194"
     sodipodi:cy="243.037"
     sodipodi:rx="1.531"
     sodipodi:ry="1.531"
     style="fill:none;stroke:#231f20;stroke-miterlimit:10"
     transform="matrix(5.2940331,0,0,5.2940331,-1763.4988,-785.04443)"
     d="m 297.725,243.037 c 0,0.84555 -0.68545,1.531 -1.531,1.531 -0.84555,0 -1.531,-0.68545 -1.531,-1.531 0,-0.84555 0.68545,-1.531 1.531,-1.531 0.84555,0 1.531,0.68545 1.531,1.531 z" /><line
     id="line553"
     y2="522.61359"
     x2="-188.651"
     y1="510.04028"
     x1="-193.6169"
     stroke-miterlimit="10"
     style="fill:none;stroke:#231f20;stroke-width:5.29403305;stroke-miterlimit:10" /><path
     id="path555"
     d="m -196.47561,528.18818 c 0.68822,1.5935 2.53584,2.32408 4.12935,1.63585 l 11.54099,-5.00286 c 1.5935,-0.69352 2.31878,-2.54114 1.63056,-4.13464 l 0,0 c -0.68822,-1.5935 -2.53584,-2.32408 -4.12935,-1.63586 l -11.54099,5.00287 c -1.5935,0.68822 -2.32408,2.54113 -1.63056,4.13464 l 0,0 z"
     inkscape:connector-curvature="0"
     style="fill:#231f20" /></g></svg>
