<?xml version="1.0" encoding="UTF-8" standalone="no"?><svg
   xmlns:dc="http://purl.org/dc/elements/1.1/"
   xmlns:cc="http://creativecommons.org/ns#"
   xmlns:rdf="http://www.w3.org/1999/02/22-rdf-syntax-ns#"
   xmlns:svg="http://www.w3.org/2000/svg"
   xmlns="http://www.w3.org/2000/svg"
   xmlns:sodipodi="http://sodipodi.sourceforge.net/DTD/sodipodi-0.dtd"
   xmlns:inkscape="http://www.inkscape.org/namespaces/inkscape"
   version="1.1"
   x="0px"
   y="0px"
   width="512px"
   height="512px"
   viewBox="0 0 512 512"
   enable-background="new 0 0 512 512"
   xml:space="preserve"
   id="svg2"
   inkscape:version="0.48.4 r9939"
   sodipodi:docname="book_store.svg"><metadata
   id="metadata9"><rdf:RDF><cc:Work
       rdf:about=""><dc:format>image/svg+xml</dc:format><dc:type
         rdf:resource="http://purl.org/dc/dcmitype/StillImage" /><dc:title></dc:title></cc:Work></rdf:RDF></metadata><defs
   id="defs7" /><sodipodi:namedview
   pagecolor="#ffffff"
   bordercolor="#666666"
   borderopacity="1"
   objecttolerance="10"
   gridtolerance="10"
   guidetolerance="10"
   inkscape:pageopacity="0"
   inkscape:pageshadow="2"
   inkscape:window-width="913"
   inkscape:window-height="1041"
   id="namedview5"
   showgrid="false"
   inkscape:zoom="0.76171875"
   inkscape:cx="249.14118"
   inkscape:cy="346.15198"
   inkscape:window-x="2911"
   inkscape:window-y="0"
   inkscape:window-maximized="0"
   inkscape:current-layer="svg2" />
<path
   id="location-5-icon"
   d="M256,50c-93.061,0-168.5,75.44-168.5,168.5C87.5,313,169.43,375.333,256,462  c86.57-86.667,168.5-149,168.5-243.5C424.5,125.44,349.061,50,256,50z M256,336.958c-68.275,0-123.624-55.349-123.624-123.624  c0-68.276,55.349-123.625,123.624-123.625c68.276,0,123.625,55.348,123.625,123.625C379.625,281.609,324.276,336.958,256,336.958z" />
<path
   id="path4928"
   d="m 179.3602,248.79002 c 20.4626,6.02753 57.74261,8.35297 70.35185,24.12723 l 0,-88.88963 C 237.10327,168.25336 199.8228,165.92792 179.3602,159.9004 l 0,88.88962 z m 0,-104.96966 0,-1.29432 c 20.4626,6.02753 57.74261,8.35295 70.35185,24.12723 l 3.66231,1.05424 3.66231,-1.18377 c 12.60878,-15.77426 49.88925,-18.0997 70.35185,-24.12723 l 0,1.29433 c 5.68337,1.71158 9.25177,3.20018 9.25177,3.20018 l 0,13.87765 13.87766,-5.30034 0,111.69571 c 0,0 -82.4948,5.78235 -97.14359,31.41762 l -4.6e-4,0.12953 c -14.64833,-25.63527 -97.14313,-31.41762 -97.14313,-31.41762 l 0,-111.69571 13.87766,5.30034 0,-13.87766 c 0,0 3.5684,-1.48861 9.25177,-3.20018 z m 6.93882,93.43456 0,-14.44016 c 17.43496,3.97178 41.44979,6.6349 55.51063,15.56702 l 0,14.44017 c -14.06084,-8.93259 -38.07567,-11.59525 -55.51063,-15.56703 z m 0,-24.90947 0,-14.44017 c 17.43496,3.97179 41.44979,6.63445 55.51063,15.56704 l 0,14.44015 c -14.06084,-8.93258 -38.07567,-11.59524 -55.51063,-15.56702 z m 0,-25.3813 0,-14.44017 c 17.43496,3.97179 41.44979,6.63444 55.51063,15.56703 l 0,14.44016 c -14.06084,-8.93258 -38.07567,-11.59524 -55.51063,-15.56702 z m 141.0895,61.69634 0,-88.88961 c -20.4626,6.02753 -57.74307,8.35295 -70.35185,24.12723 l 0,88.88962 c 12.60924,-15.77427 49.88925,-18.09971 70.35185,-24.12724 z m -6.93882,-11.5351 c -17.43496,3.97179 -41.45025,6.63444 -55.51063,15.56703 l 0,-14.44017 c 14.06038,-8.93258 38.07567,-11.59524 55.51063,-15.56702 l 0,14.44016 z m 0,-24.90947 c -17.43496,3.97178 -41.45025,6.63445 -55.51063,15.56704 l 0,-14.44017 c 14.06084,-8.93258 38.07567,-11.59524 55.51063,-15.56704 l 0,14.44017 z m 0,-25.3813 c -17.43496,3.97178 -41.45025,6.63444 -55.51063,15.56702 l 0,-14.44016 c 14.06038,-8.93259 38.07567,-11.59524 55.51063,-15.56703 l 0,14.44017 z"
   inkscape:connector-curvature="0"
   style="fill:#000000;fill-opacity:1;stroke-width:0.2;stroke-linejoin:round" /></svg>