<svg
	version="1.1"
	xmlns="http://www.w3.org/2000/svg"
	xmlns:xlink="http://www.w3.org/1999/xlink"
   x="0px"
   y="0px"
   width="512px"
   height="512px"
   viewBox="0 0 512 512"
   enable-background="new 0 0 512 512"
   id="bowlingalley-marker">
   <path
     id="bowlingalley-marker-shell"
     d="M 256,50 C 162.939,50 87.5,125.44 87.5,218.5 87.5,313 169.43,375.333 256,462 342.57,375.333 424.5,313 424.5,218.5 424.5,125.44 349.061,50 256,50 z m 0,286.958 c -68.275,0 -123.624,-55.349 -123.624,-123.624 0,-68.276 55.349,-123.625 123.624,-123.625 68.276,0 123.625,55.348 123.625,123.625 0,68.275 -55.349,123.624 -123.625,123.624 z"/>
     <g
     transform="matrix(5.7043738,0,0,5.7043738,169.11904,126.43439)"
     id="bowlingalley-marker-content">
     <path
       d="M 10.491,12.801 C 9.972,10.725 9.22,9.441 9.22,9.441 l -2.148,0 -0.05,0 -2.145,0 c 0,0 -1.757,2.981 -1.757,7.232 0,4.249 1.69,6.554 1.69,6.554 0.494,0 1.965,0 2.212,0 0.024,0 0.05,0 0.05,0 0.195,0 1.132,0 1.771,0 C 8.791,22.638 8.759,22.02 8.759,21.365 8.758,17.56 9.764,14.511 10.491,12.801 Z"
       id="path46" />
       <path
       d="m 7.048,7.006 c 0,0 1.282,0 1.826,0 0,0 0.991,-2.364 0.991,-4.104 0,-1.74 -2.031,-2.449 -2.817,-2.449 -0.788,0 -2.817,0.709 -2.817,2.449 0,1.74 0.99,4.104 0.99,4.104 0.544,0 1.827,0 1.827,0 z"
       id="path48" />
       <rect
       x="5.1760001"
       y="7.7849998"
       width="3.744"
       height="0.81099999"
       id="rect50" />
       <path
       d="m 25.123,9.44 -2.147,0 -0.05,0 -2.145,0 c 0,0 -0.752,1.284 -1.271,3.36 0.727,1.71 1.733,4.759 1.733,8.564 0,0.655 -0.033,1.273 -0.085,1.862 0.638,0 1.576,0 1.769,0 0.024,0 0.05,0 0.05,0 0.249,0 1.718,0 2.213,0 0,0 1.691,-2.305 1.691,-6.554 C 26.88,12.422 25.123,9.44 25.123,9.44 Z"
       id="path52" />
       <path
       d="m 22.952,7.006 c 0,0 1.282,0 1.825,0 0,0 0.991,-2.364 0.991,-4.104 0,-1.74 -2.03,-2.449 -2.816,-2.449 -0.788,0 -2.817,0.709 -2.817,2.449 0,1.74 0.99,4.104 0.99,4.104 0.543,0 1.827,0 1.827,0 z"
       id="path54" />
       <rect
       x="21.079"
       y="7.7849998"
       width="3.744"
       height="0.81099999"
       id="rect56" />
       <path
       d="m 17.86,11.838 -2.827,0 -0.067,0 -2.826,0 c 0,0 -0.659,1.127 -1.273,3.022 -0.538,1.655 -1.041,3.895 -1.041,6.504 0,0.29 0.01,0.57 0.021,0.846 0.208,5.056 2.204,7.79 2.204,7.79 0.653,0 2.59,0 2.915,0 0.03,0 0.067,0 0.067,0 0.326,0 2.263,0 2.915,0 0,0 1.997,-2.734 2.204,-7.789 0.012,-0.276 0.021,-0.557 0.021,-0.846 0,-2.609 -0.503,-4.849 -1.04,-6.504 -0.614,-1.896 -1.273,-3.023 -1.273,-3.023 z"
       id="path58" />
       <polygon
       points="17.465,9.704 17.465,9.659 12.535,9.659 12.535,9.704 12.535,10.727 17.465,10.727 "
       id="polygon60" />
       <path
       d="m 12.594,8.636 c 0.717,0 2.405,0 2.405,0 0,0 1.69,0 2.406,0 0,0 0.007,-0.018 0.019,-0.046 C 17.578,8.211 18.71,5.362 18.71,3.228 18.71,0.934 16.037,0 15,0 c -1.037,0 -3.71,0.934 -3.71,3.228 0,2.135 1.132,4.983 1.286,5.362 0.01,0.028 0.018,0.046 0.018,0.046 z"
       id="path62" />
     </g>
   </svg>
