<?xml version="1.0" encoding="UTF-8" standalone="no"?><svg
   xmlns:dc="http://purl.org/dc/elements/1.1/"
   xmlns:cc="http://creativecommons.org/ns#"
   xmlns:rdf="http://www.w3.org/1999/02/22-rdf-syntax-ns#"
   xmlns:svg="http://www.w3.org/2000/svg"
   xmlns="http://www.w3.org/2000/svg"
   xmlns:sodipodi="http://sodipodi.sourceforge.net/DTD/sodipodi-0.dtd"
   xmlns:inkscape="http://www.inkscape.org/namespaces/inkscape"
   version="1.1"
   x="0px"
   y="0px"
   width="512px"
   height="512px"
   viewBox="0 0 512 512"
   enable-background="new 0 0 512 512"
   xml:space="preserve"
   id="svg2"
   inkscape:version="0.48.4 r9939"
   sodipodi:docname="bakery.svg"><metadata
   id="metadata9"><rdf:RDF><cc:Work
       rdf:about=""><dc:format>image/svg+xml</dc:format><dc:type
         rdf:resource="http://purl.org/dc/dcmitype/StillImage" /><dc:title></dc:title></cc:Work></rdf:RDF></metadata><defs
   id="defs7" /><sodipodi:namedview
   pagecolor="#ffffff"
   bordercolor="#666666"
   borderopacity="1"
   objecttolerance="10"
   gridtolerance="10"
   guidetolerance="10"
   inkscape:pageopacity="0"
   inkscape:pageshadow="2"
   inkscape:window-width="913"
   inkscape:window-height="1041"
   id="namedview5"
   showgrid="false"
   inkscape:zoom="0.76171875"
   inkscape:cx="249.14118"
   inkscape:cy="241.12634"
   inkscape:window-x="2911"
   inkscape:window-y="0"
   inkscape:window-maximized="0"
   inkscape:current-layer="svg2" />
<path
   id="location-5-icon"
   d="M256,50c-93.061,0-168.5,75.44-168.5,168.5C87.5,313,169.43,375.333,256,462  c86.57-86.667,168.5-149,168.5-243.5C424.5,125.44,349.061,50,256,50z M256,336.958c-68.275,0-123.624-55.349-123.624-123.624  c0-68.276,55.349-123.625,123.624-123.625c68.276,0,123.625,55.348,123.625,123.625C379.625,281.609,324.276,336.958,256,336.958z" />
<path
   id="path4537"
   d="m 333.78118,252.88034 c 0,11.10206 -8.99964,20.1017 -20.10171,20.1017 l -120.61022,0 c -11.10207,0 -20.10171,-8.99964 -20.10171,-20.1017 l 160.81364,0 z m -140.71193,-33.50299 0,-67.00555 107.20895,0 c 18.5033,0 33.50298,14.99969 33.50298,33.50299 0,18.50287 -14.99968,33.50256 -33.50298,33.50256 0,11.10207 -8.99964,26.80255 -20.10171,26.80255 l -67.00555,0 c -11.10206,0 -20.10169,-15.70048 -20.10169,-26.80255 z M 300.2782,205.97649 c 11.10206,0 20.10171,-9.00006 20.10171,-20.1017 0,-11.10208 -8.99965,-20.10171 -20.10171,-20.10171 l 0,40.20341 z"
   inkscape:connector-curvature="0"
   style="fill:#000000;fill-opacity:1;stroke:#ffffff;stroke-width:0.84638757;stroke-linejoin:round;stroke-opacity:1" /></svg>