<svg
	version="1.1"
	xmlns="http://www.w3.org/2000/svg"
	xmlns:xlink="http://www.w3.org/1999/xlink"
   x="0px"
   y="0px"
   width="512px"
   height="512px"
   viewBox="0 0 512 512"
   enable-background="new 0 0 512 512"
   id="cardealer-marker">
<path
   id="cardealer-marker-shell"
   d="M256,50c-93.061,0-168.5,75.44-168.5,168.5C87.5,313,169.43,375.333,256,462  c86.57-86.667,168.5-149,168.5-243.5C424.5,125.44,349.061,50,256,50z M256,336.958c-68.275,0-123.624-55.349-123.624-123.624  c0-68.276,55.349-123.625,123.624-123.625c68.276,0,123.625,55.348,123.625,123.625C379.625,281.609,324.276,336.958,256,336.958z" />
<path
   id="cardealer-marker-content"
   d="m 174.8041,281.03854 c -2.61493,-0.0914 -4.66057,-2.28495 -4.56913,-4.89988 l 0.99189,-28.40624 c 0.26071,-7.46228 4.80221,-13.76613 11.18233,-16.63282 l 19.37344,-40.84194 75.75047,2.64528 16.26198,42.08637 c 6.16455,3.30485 10.25543,9.90988 9.99472,17.37216 l -0.99189,28.40663 c -0.0911,2.61454 -2.28495,4.66018 -4.89949,4.56873 l -4.7345,-0.16538 -0.33076,9.46901 c -0.1825,5.22947 -4.5699,9.32075 -9.79937,9.13825 -5.22947,-0.18289 -9.32075,-4.5703 -9.13825,-9.79977 l 0.33076,-9.46861 -75.75047,-2.64528 -0.33037,9.469 c -0.18289,5.22908 -4.5699,9.32075 -9.79937,9.13786 -5.22947,-0.1825 -9.32075,-4.5699 -9.13825,-9.79937 l 0.33076,-9.46862 -4.7345,-0.16538 z m 22.64989,-51.35069 81.43132,2.84374 -10.37061,-25.72282 -58.70634,-2.04992 -12.35437,24.929 z m -0.99967,8.26038 c -5.22947,-0.18289 -10.84145,5.05086 -11.02434,10.28033 -0.1825,5.22947 5.05086,10.84145 10.28033,11.02434 5.22947,0.1825 10.84184,-5.05086 11.02473,-10.28033 0.1825,-5.22947 -5.05125,-10.84184 -10.28072,-11.02434 z m 82.85203,2.89315 c -5.22947,-0.18289 -10.84185,5.05086 -11.02435,10.28034 -0.1825,5.22947 5.05087,10.84145 10.28034,11.02434 5.22947,0.1825 10.84184,-5.05086 11.02434,-10.28033 0.18289,-5.22948 -5.05086,-10.84185 -10.28033,-11.02435 z m -26.58317,-79.38025 71.86893,-6.56612 19.85985,39.53992 c 6.1556,2.51142 10.6788,8.34871 11.17416,15.42848 l 1.88454,26.9509 c 0.17355,2.48068 -1.69698,4.63255 -4.17766,4.80571 l -4.49169,0.31442 0.62805,8.98337 c 0.3471,4.96137 -3.39396,9.26472 -8.35532,9.61182 -4.96176,0.3471 -9.26511,-3.39396 -9.61182,-8.35533 l -0.62844,-8.98376 -20.91555,1.46273 c -0.15098,-7.01323 -4.13836,-13.14236 -10.00172,-16.28573 l -11.47261,-31.86362 41.62992,-2.91106 -12.6649,-26.19716 -55.69802,3.89476 -5.07886,12.56062 -13.02679,-0.45489 9.07793,-21.93506 z m 78.61405,39.945 c -4.96136,0.3471 -9.74645,5.85169 -9.39974,10.81305 0.3471,4.96175 5.85169,9.74684 10.81344,9.40013 4.96136,-0.3471 9.74645,-5.85207 9.39974,-10.81344 -0.3471,-4.96136 -5.85169,-9.74684 -10.81344,-9.39974 z M 196.3333,171.94303 c -0.48991,-5.5972 2.32425,-10.7216 6.82645,-13.44782 l 10.44143,-34.5809 3.55117,-0.31052 7.10195,-0.62144 35.51128,-3.10678 7.10234,-0.62144 3.55117,-0.31052 16.28766,32.24224 1.68726,0.78487 -40.10181,2.80405 -11.5948,30.17092 -39.34614,0.16655 -1.01796,-13.16921 z m 17.93329,-15.88181 61.07923,-6.88404 -10.38696,-19.02089 -44.03393,3.85235 -6.65834,22.05258 z m 0.0117,6.26105 c -3.9224,0.34282 -7.63388,4.76641 -7.29106,8.6888 0.34321,3.9224 4.7668,7.63427 8.68919,7.29107 3.9224,-0.34321 7.63428,-4.7668 7.29107,-8.6892 -0.34321,-3.9224 -4.7668,-7.63388 -8.6892,-7.29067 z"/>
 </svg>
