<svg
	version="1.1"
	xmlns="http://www.w3.org/2000/svg"
	xmlns:xlink="http://www.w3.org/1999/xlink"
   x="0px"
   y="0px"
   width="512px"
   height="512px"
   viewBox="0 0 512 512"
   enable-background="new 0 0 512 512"
   id="carrental-marker">
<path
   id="carrental-marker-shell"
   d="M 256,50 C 162.939,50 87.5,125.44 87.5,218.5 87.5,313 169.43,375.333 256,462 342.57,375.333 424.5,313 424.5,218.5 424.5,125.44 349.061,50 256,50 z m 0,286.958 c -68.275,0 -123.624,-55.349 -123.624,-123.624 0,-68.276 55.349,-123.625 123.624,-123.625 68.276,0 123.625,55.348 123.625,123.625 0,68.275 -55.349,123.624 -123.625,123.624 z"/>
<path
   id="carrental-marker-content"
   style="fill:#000000;fill-rule:evenodd;stroke:#000000;stroke-width:0.51015598px;stroke-linecap:butt;stroke-linejoin:miter;stroke-opacity:1"
   d="M 162.9375 194.75 C 158.96045 194.75 155.78125 197.96045 155.78125 201.9375 L 155.78125 236.8125 C 155.78125 240.78955 158.96045 243.96875 162.9375 243.96875 L 346.4375 243.96875 C 350.41455 243.96875 353.59375 240.78955 353.59375 236.8125 L 353.59375 201.9375 C 353.59375 197.96045 350.41455 194.75 346.4375 194.75 L 162.9375 194.75 z M 182.1875 210.4375 C 187.71432 210.4375 192.21875 214.91068 192.21875 220.4375 C 192.21875 225.96432 187.71432 230.4375 182.1875 230.4375 C 176.66068 230.4375 172.1875 225.96432 172.1875 220.4375 C 172.1875 214.91068 176.66068 210.4375 182.1875 210.4375 z M 323.21875 210.4375 C 328.74557 210.4375 333.25 214.91068 333.25 220.4375 C 333.25 225.96432 328.74557 230.4375 323.21875 230.4375 C 317.69193 230.4375 313.21875 225.96432 313.21875 220.4375 C 313.21875 214.91068 317.69193 210.4375 323.21875 210.4375 z "/>
   <rect
   style="fill:#000000;fill-rule:evenodd;stroke:#000000;stroke-width:0.19962817px;stroke-linecap:butt;stroke-linejoin:miter;stroke-opacity:1"
   id="rect12299"
   width="62.916328"
   height="3.6297884"
   x="-88.75103"
   y="247.26349"
   ry="1.8148942"
   transform="matrix(0.5,-0.8660254,0.8660254,0.5,0,0)" />
   <rect
   style="fill:#000000;fill-rule:evenodd;stroke:#000000;stroke-width:0.19962817px;stroke-linecap:butt;stroke-linejoin:miter;stroke-opacity:1"
   id="rect12299-1"
   width="62.916328"
   height="3.6297884"
   x="279.16876"
   y="187.8943"
   ry="1.8148942"
   transform="matrix(0.5,0.8660254,0.8660254,-0.5,0,0)" />
   <rect
   style="fill:#000000;fill-rule:evenodd;stroke:#000000;stroke-width:0.25656009px;stroke-linecap:butt;stroke-linejoin:miter;stroke-opacity:1"
   id="rect12299-13"
   width="105.57561"
   height="3.5728559"
   x="200.52487"
   y="145.9353"
   ry="1.786428"
   rx="1.3329568" />
   <rect
   style="fill:#000000;fill-rule:evenodd;stroke:#000000;stroke-width:0.48698065px;stroke-linecap:butt;stroke-linejoin:miter;stroke-opacity:1"
   id="rect12340"
   width="18.344625"
   height="29.383684"
   x="177.10147"
   y="242.3158"
   rx="1.431443"
   ry="2.0865006" />
   <rect
   style="fill:#000000;fill-rule:evenodd;stroke:#000000;stroke-width:0.48698065px;stroke-linecap:butt;stroke-linejoin:miter;stroke-opacity:1"
   id="rect12340-8"
   width="18.344625"
   height="29.383684"
   x="318.12164"
   y="242.3158"
   rx="1.431443"
   ry="2.0865006" />
   <rect
   style="fill:#000000;fill-rule:evenodd;stroke:#000000;stroke-width:0.43482673px;stroke-linecap:butt;stroke-linejoin:miter;stroke-opacity:1"
   id="rect12380"
   width="31.680233"
   height="3.1059053"
   x="271.05103"
   y="169.23032"
   rx="1.4315898"
   ry="1.9186159" />
   <rect
   style="fill:#0000ff;fill-rule:evenodd;stroke:#000000;stroke-width:0.43482673px;stroke-linecap:butt;stroke-linejoin:miter;stroke-opacity:1"
   id="rect12382"
   width="8.6965351"
   height="1.2423621"
   x="294.65591"
   y="177.92685"
   rx="1.4315898"
   ry="1.2423621" />
 </svg>
