<?xml version="1.0" encoding="UTF-8" standalone="no"?><svg
   xmlns:dc="http://purl.org/dc/elements/1.1/"
   xmlns:cc="http://creativecommons.org/ns#"
   xmlns:rdf="http://www.w3.org/1999/02/22-rdf-syntax-ns#"
   xmlns:svg="http://www.w3.org/2000/svg"
   xmlns="http://www.w3.org/2000/svg"
   xmlns:xlink="http://www.w3.org/1999/xlink"
   xmlns:sodipodi="http://sodipodi.sourceforge.net/DTD/sodipodi-0.dtd"
   xmlns:inkscape="http://www.inkscape.org/namespaces/inkscape"
   version="1.1"
   x="0px"
   y="0px"
   width="512px"
   height="512px"
   viewBox="0 0 512 512"
   enable-background="new 0 0 512 512"
   xml:space="preserve"
   id="svg2"
   inkscape:version="0.48.4 r9939"
   sodipodi:docname="courthouse.svg"><metadata
   id="metadata9"><rdf:RDF><cc:Work
       rdf:about=""><dc:format>image/svg+xml</dc:format><dc:type
         rdf:resource="http://purl.org/dc/dcmitype/StillImage" /><dc:title></dc:title></cc:Work></rdf:RDF></metadata><defs
   id="defs7"><inkscape:perspective
     sodipodi:type="inkscape:persp3d"
     inkscape:vp_x="0 : 0.5 : 1"
     inkscape:vp_y="0 : 1000 : 0"
     inkscape:vp_z="1 : 0.5 : 1"
     inkscape:persp3d-origin="0.5 : 0.33333333 : 1"
     id="perspective2831" /><inkscape:perspective
     sodipodi:type="inkscape:persp3d"
     inkscape:vp_x="0 : 0.5 : 1"
     inkscape:vp_y="0 : 1000 : 0"
     inkscape:vp_z="1 : 0.5 : 1"
     inkscape:persp3d-origin="0.5 : 0.33333333 : 1"
     id="perspective3716" /><inkscape:perspective
     sodipodi:type="inkscape:persp3d"
     inkscape:vp_x="0 : 0.5 : 1"
     inkscape:vp_y="0 : 1000 : 0"
     inkscape:vp_z="1 : 0.5 : 1"
     inkscape:persp3d-origin="0.5 : 0.33333333 : 1"
     id="perspective3283" /><inkscape:perspective
     id="perspective3273"
     inkscape:persp3d-origin="372.04724 : 350.78739 : 1"
     inkscape:vp_z="744.09448 : 526.18109 : 1"
     inkscape:vp_y="0 : 1000 : 0"
     inkscape:vp_x="0 : 526.18109 : 1"
     sodipodi:type="inkscape:persp3d" /><inkscape:perspective
     sodipodi:type="inkscape:persp3d"
     inkscape:vp_x="0 : 0.5 : 1"
     inkscape:vp_y="0 : 1000 : 0"
     inkscape:vp_z="1 : 0.5 : 1"
     inkscape:persp3d-origin="0.5 : 0.33333333 : 1"
     id="perspective3707" /><inkscape:perspective
     sodipodi:type="inkscape:persp3d"
     inkscape:vp_x="0 : 0.5 : 1"
     inkscape:vp_y="0 : 1000 : 0"
     inkscape:vp_z="1 : 0.5 : 1"
     inkscape:persp3d-origin="0.5 : 0.33333333 : 1"
     id="perspective3676" /><inkscape:perspective
     sodipodi:type="inkscape:persp3d"
     inkscape:vp_x="0 : 0.5 : 1"
     inkscape:vp_y="0 : 1000 : 0"
     inkscape:vp_z="1 : 0.5 : 1"
     inkscape:persp3d-origin="0.5 : 0.33333333 : 1"
     id="perspective2884" /><inkscape:perspective
     id="perspective10"
     inkscape:persp3d-origin="372.04724 : 350.78739 : 1"
     inkscape:vp_z="744.09448 : 526.18109 : 1"
     inkscape:vp_y="0 : 1000 : 0"
     inkscape:vp_x="0 : 526.18109 : 1"
     sodipodi:type="inkscape:persp3d" /><style
     type="text/css"
     id="style6">
   
    .fil0 {fill:#EF7900}
   
  </style><linearGradient
     y2="430.10822"
     x2="-774.98901"
     y1="619.61285"
     x1="-776.40326"
     gradientTransform="matrix(0.467111,0,0,0.487697,583.26,486.2726)"
     gradientUnits="userSpaceOnUse"
     id="linearGradient7651"
     xlink:href="#linearGradient5196"
     inkscape:collect="always" /><linearGradient
     y2="295.75793"
     x2="-490.02499"
     y1="350.91223"
     x1="-1027.219"
     gradientTransform="matrix(0.467111,0,0,0.487697,583.26,486.2726)"
     gradientUnits="userSpaceOnUse"
     id="linearGradient7649"
     xlink:href="#linearGradient9619"
     inkscape:collect="always" /><linearGradient
     gradientTransform="matrix(0.467111,0,0,0.487697,583.26,486.2726)"
     y2="295.75793"
     x2="-490.02499"
     y1="350.91223"
     x1="-1027.219"
     gradientUnits="userSpaceOnUse"
     id="linearGradient6736"
     xlink:href="#linearGradient9619"
     inkscape:collect="always" /><linearGradient
     gradientTransform="matrix(0.467111,0,0,0.487697,583.26,486.2726)"
     y2="430.10822"
     x2="-774.98901"
     y1="619.61285"
     x1="-776.40326"
     gradientUnits="userSpaceOnUse"
     id="linearGradient6733"
     xlink:href="#linearGradient5196"
     inkscape:collect="always" /><linearGradient
     y2="430.10822"
     x2="-774.98901"
     y1="619.61285"
     x1="-776.40326"
     gradientUnits="userSpaceOnUse"
     id="linearGradient4075"
     xlink:href="#linearGradient5196"
     inkscape:collect="always" /><linearGradient
     y2="295.75793"
     x2="-490.02499"
     y1="350.91223"
     x1="-1027.219"
     gradientUnits="userSpaceOnUse"
     id="linearGradient4073"
     xlink:href="#linearGradient9619"
     inkscape:collect="always" /><linearGradient
     gradientUnits="userSpaceOnUse"
     y2="295.75793"
     x2="-490.02499"
     y1="350.91223"
     x1="-1027.219"
     id="linearGradient9625"
     xlink:href="#linearGradient9619"
     inkscape:collect="always" /><linearGradient
     gradientUnits="userSpaceOnUse"
     y2="430.10822"
     x2="-774.98901"
     y1="619.61285"
     x1="-776.40326"
     id="linearGradient5202"
     xlink:href="#linearGradient5196"
     inkscape:collect="always" /><linearGradient
     id="linearGradient5196"
     inkscape:collect="always"><stop
       id="stop5198"
       offset="0"
       style="stop-color:#c9c9c9;stop-opacity:1;" /><stop
       id="stop5200"
       offset="1"
       style="stop-color:#c9c9c9;stop-opacity:0;" /></linearGradient><linearGradient
     id="linearGradient9619"><stop
       id="stop9621"
       offset="0"
       style="stop-color:#bbbbbb;stop-opacity:1;" /><stop
       id="stop9623"
       offset="1"
       style="stop-color:#ffffff;stop-opacity:1;" /></linearGradient></defs><sodipodi:namedview
   pagecolor="#ffffff"
   bordercolor="#666666"
   borderopacity="1"
   objecttolerance="10"
   gridtolerance="10"
   guidetolerance="10"
   inkscape:pageopacity="0"
   inkscape:pageshadow="2"
   inkscape:window-width="1858"
   inkscape:window-height="1057"
   id="namedview5"
   showgrid="false"
   inkscape:zoom="1.28"
   inkscape:cx="198.64653"
   inkscape:cy="246.61847"
   inkscape:window-x="1974"
   inkscape:window-y="-8"
   inkscape:window-maximized="1"
   inkscape:current-layer="svg2" />
<path
   id="location-5-icon"
   d="M 256,50 C 162.939,50 87.5,125.44 87.5,218.5 87.5,313 169.43,375.333 256,462 342.57,375.333 424.5,313 424.5,218.5 424.5,125.44 349.061,50 256,50 z m 0,286.958 c -68.275,0 -123.624,-55.349 -123.624,-123.624 0,-68.276 55.349,-123.625 123.624,-123.625 68.276,0 123.625,55.348 123.625,123.625 0,68.275 -55.349,123.624 -123.625,123.624 z"
   inkscape:connector-curvature="0" />
<path
   inkscape:connector-curvature="0"
   style="fill:#000000;fill-rule:evenodd;stroke:#000000;stroke-width:0.51015598px;stroke-linecap:butt;stroke-linejoin:miter;stroke-opacity:1"
   d="m 163.71875,199.12673 c -3.97705,0 -7.15625,3.21045 -7.15625,7.1875 l 0,34.87501 c 0,3.97705 3.1792,7.15625 7.15625,7.15625 l 183.5,0 c 3.97705,0 7.15625,-3.1792 7.15625,-7.15625 l 0,-34.87501 c 0,-3.97705 -3.1792,-7.1875 -7.15625,-7.1875 l -183.5,0 z m 19.25,15.6875 c 5.52682,0 10.03125,4.47318 10.03125,10 0,5.52682 -4.50443,10.00001 -10.03125,10.00001 -5.52682,0 -10,-4.47319 -10,-10.00001 0,-5.52682 4.47318,-10 10,-10 z m 141.03125,0 c 5.52682,0 10.03125,4.47318 10.03125,10 0,5.52682 -4.50443,10.00001 -10.03125,10.00001 -5.52682,0 -10,-4.47319 -10,-10.00001 0,-5.52682 4.47318,-10 10,-10 z"
   id="rect12297-6" /><path
   inkscape:connector-curvature="0"
   style="fill:#000000;fill-rule:evenodd;stroke:#000000;stroke-width:0.19962817px;stroke-linecap:butt;stroke-linejoin:miter;stroke-opacity:1"
   d="m 187.84375,174.87673 -16.40625,28.40625 c -0.50273,0.87075 -0.18325,1.99727 0.6875,2.5 0.87075,0.50273 1.96602,0.2145 2.46875,-0.65625 l 16.90625,-29.25 c -1.24859,-0.2489 -2.47978,-0.57782 -3.65625,-1 z"
   id="rect12299-5" /><rect
   style="fill:#000000;fill-rule:evenodd;stroke:#000000;stroke-width:0.19962817px;stroke-linecap:butt;stroke-linejoin:miter;stroke-opacity:1"
   id="rect12299-1-0"
   width="62.916328"
   height="3.6297884"
   x="283.34973"
   y="186.38252"
   ry="1.8148942"
   transform="matrix(0.5,0.8660254,0.8660254,-0.5,0,0)" /><path
   inkscape:connector-curvature="0"
   style="fill:#000000;fill-rule:evenodd;stroke:#000000;stroke-width:0.25656009px;stroke-linecap:butt;stroke-linejoin:miter;stroke-opacity:1"
   d="m 222.34375,150.31423 c 0.001,0.095 0,0.18596 0,0.28125 0,1.11178 -0.051,2.20656 -0.1875,3.28125 l 83.40625,0 c 0.73846,0 1.3125,-0.79157 1.3125,-1.78125 0,-0.98968 -0.57404,-1.78125 -1.3125,-1.78125 l -83.21875,0 z"
   id="rect12299-13-2" /><rect
   style="fill:#000000;fill-rule:evenodd;stroke:#000000;stroke-width:0.48698065px;stroke-linecap:butt;stroke-linejoin:miter;stroke-opacity:1"
   id="rect12340-86"
   width="18.344625"
   height="29.383684"
   x="177.88272"
   y="246.69254"
   rx="1.431443"
   ry="2.0865006" /><rect
   style="fill:#000000;fill-rule:evenodd;stroke:#000000;stroke-width:0.48698065px;stroke-linecap:butt;stroke-linejoin:miter;stroke-opacity:1"
   id="rect12340-8-0"
   width="18.344625"
   height="29.383684"
   x="318.90289"
   y="246.69254"
   rx="1.431443"
   ry="2.0865006" /><rect
   style="fill:#000000;fill-rule:evenodd;stroke:#000000;stroke-width:0.43482673px;stroke-linecap:butt;stroke-linejoin:miter;stroke-opacity:1"
   id="rect12380-2"
   width="31.680233"
   height="3.1059053"
   x="271.83228"
   y="173.60706"
   rx="1.4315898"
   ry="1.9186159" /><rect
   style="fill:#0000ff;fill-rule:evenodd;stroke:#000000;stroke-width:0.43482673px;stroke-linecap:butt;stroke-linejoin:miter;stroke-opacity:1"
   id="rect12382-4"
   width="8.6965351"
   height="1.2423621"
   x="295.43716"
   y="182.30359"
   rx="1.4315898"
   ry="1.2423621" /><path
   d="m 230.96379,172.64935 -21.48685,-21.48672 c -1.4723,-1.4723 -2.23056,-3.51987 -2.07001,-5.59571 0.30411,-3.93265 -1.04706,-7.96917 -4.05494,-10.97692 -3.91527,-3.91514 -9.5731,-5.02393 -14.47642,-3.32845 l 8.90224,8.90237 c 0.20438,3.47305 -5.16555,8.84285 -8.63847,8.63847 l -8.90224,-8.90224 c -1.69574,4.90332 -0.58682,10.56128 3.32832,14.47642 3.00775,3.00788 7.04427,4.35892 10.97705,4.05494 2.07805,-0.16068 4.12199,0.59628 5.59584,2.07 l 21.48685,21.48672 c 2.57875,2.57889 6.75987,2.57889 9.33889,0 2.57849,-2.57888 2.57849,-6.76 -2.6e-4,-9.33888 z m -4.99152,6.98824 c -1.5029,0 -2.7214,-1.2185 -2.7214,-2.72166 0,-1.50303 1.2185,-2.72141 2.7214,-2.72141 1.50303,0 2.72167,1.21851 2.72167,2.72141 0,1.50316 -1.21864,2.72166 -2.72167,2.72166 z"
   id="wrench-icon"
   inkscape:connector-curvature="0" /></svg>