<?xml version="1.0" encoding="UTF-8" standalone="no"?><svg
   xmlns:dc="http://purl.org/dc/elements/1.1/"
   xmlns:cc="http://creativecommons.org/ns#"
   xmlns:rdf="http://www.w3.org/1999/02/22-rdf-syntax-ns#"
   xmlns:svg="http://www.w3.org/2000/svg"
   xmlns="http://www.w3.org/2000/svg"
   xmlns:sodipodi="http://sodipodi.sourceforge.net/DTD/sodipodi-0.dtd"
   xmlns:inkscape="http://www.inkscape.org/namespaces/inkscape"
   version="1.1"
   x="0px"
   y="0px"
   width="512px"
   height="512px"
   viewBox="0 0 512 512"
   enable-background="new 0 0 512 512"
   xml:space="preserve"
   id="svg2"
   inkscape:version="0.48.4 r9939"
   sodipodi:docname="atm.svg"><metadata
   id="metadata9"><rdf:RDF><cc:Work
       rdf:about=""><dc:format>image/svg+xml</dc:format><dc:type
         rdf:resource="http://purl.org/dc/dcmitype/StillImage" /><dc:title></dc:title></cc:Work></rdf:RDF></metadata><defs
   id="defs7" /><sodipodi:namedview
   pagecolor="#ffffff"
   bordercolor="#666666"
   borderopacity="1"
   objecttolerance="10"
   gridtolerance="10"
   guidetolerance="10"
   inkscape:pageopacity="0"
   inkscape:pageshadow="2"
   inkscape:window-width="913"
   inkscape:window-height="1041"
   id="namedview5"
   showgrid="false"
   inkscape:zoom="0.76171875"
   inkscape:cx="249.14118"
   inkscape:cy="241.12634"
   inkscape:window-x="2911"
   inkscape:window-y="0"
   inkscape:window-maximized="0"
   inkscape:current-layer="svg2" />
<path
   id="location-5-icon"
   d="M256,50c-93.061,0-168.5,75.44-168.5,168.5C87.5,313,169.43,375.333,256,462  c86.57-86.667,168.5-149,168.5-243.5C424.5,125.44,349.061,50,256,50z M256,336.958c-68.275,0-123.624-55.349-123.624-123.624  c0-68.276,55.349-123.625,123.624-123.625c68.276,0,123.625,55.348,123.625,123.625C379.625,281.609,324.276,336.958,256,336.958z" />
<path
   id="path4559"
   d="m 254.68718,134.71951 c 41.46087,0 75.07138,9.1663 75.07138,20.47396 0,5.24393 -7.22839,10.02708 -19.11537,13.64947 -13.74644,4.18832 -33.72257,6.8245 -55.95601,6.8245 -22.23344,0 -42.20958,-2.63618 -55.95601,-6.8245 -11.88698,-3.62239 -19.11537,-8.40554 -19.11537,-13.64947 0,-11.30766 33.61051,-20.47396 75.07138,-20.47396 z m 75.07138,143.3178 c 0,11.30766 -33.61094,20.47396 -75.07138,20.47396 -41.46087,0 -75.07138,-9.1663 -75.07138,-20.47396 l 0,-27.29849 c 0,11.30724 33.61051,20.47397 75.07138,20.47397 41.46044,0 75.07138,-9.16673 75.07094,-20.47397 l 4.4e-4,27.29849 z m 0,-40.94795 c 0,11.30767 -33.61051,20.47398 -75.07138,20.47398 -41.46087,0 -75.07138,-9.16631 -75.07138,-20.47398 l 0,-27.29849 c 0,11.30724 33.61051,20.47398 75.07138,20.47398 41.46087,0 75.07138,-9.16674 75.07094,-20.47398 l 4.4e-4,27.29849 z m 0,-40.94794 c 0,11.30724 -33.61051,20.47397 -75.07138,20.47397 -41.46045,0 -75.07138,-9.16673 -75.07138,-20.47397 l 0,-27.29848 c 0,11.30723 33.61051,20.47396 75.07138,20.47396 41.46087,0 75.07138,-9.16673 75.07138,-20.47396 l 0,27.29848 z"
   inkscape:connector-curvature="0"
   style="fill:#000000;fill-opacity:1;stroke-width:0.2;stroke-linejoin:round" /></svg>