<svg
   
   xmlns:cc="http://creativecommons.org/ns#"
   xmlns:rdf="http://www.w3.org/1999/02/22-rdf-syntax-ns#"
   xmlns:svg="http://www.w3.org/2000/svg"
   xmlns="http://www.w3.org/2000/svg"
   xmlns:xlink="http://www.w3.org/1999/xlink"
   xmlns:sodipodi="http://sodipodi.sourceforge.net/DTD/sodipodi-0.dtd"
   xmlns:inkscape="http://www.inkscape.org/namespaces/inkscape"
   version="1.1"
   x="0px"
   y="0px"
   width="512px"
   height="512px"
   viewBox="0 0 512 512"
   enable-background="new 0 0 512 512"
   
   id="svg2"
   
   sodipodi:docname="cemetery.svg"><metadata
   id="metadata9"><rdf:RDF><cc:Work
       rdf:about=""><dc:format>image/svg+xml</dc:format><dc:type
         rdf:resource="http://purl.org/dc/dcmitype/StillImage" /><dc:title></dc:title></cc:Work></rdf:RDF></metadata><defs
   id="defs7"><inkscape:perspective
     sodipodi:type="inkscape:persp3d"
     inkscape:vp_x="0 : 0.5 : 1"
     inkscape:vp_y="0 : 1000 : 0"
     inkscape:vp_z="1 : 0.5 : 1"
     inkscape:persp3d-origin="0.5 : 0.33333333 : 1"
     id="perspective2831" /><inkscape:perspective
     sodipodi:type="inkscape:persp3d"
     inkscape:vp_x="0 : 0.5 : 1"
     inkscape:vp_y="0 : 1000 : 0"
     inkscape:vp_z="1 : 0.5 : 1"
     inkscape:persp3d-origin="0.5 : 0.33333333 : 1"
     id="perspective3716" /><inkscape:perspective
     sodipodi:type="inkscape:persp3d"
     inkscape:vp_x="0 : 0.5 : 1"
     inkscape:vp_y="0 : 1000 : 0"
     inkscape:vp_z="1 : 0.5 : 1"
     inkscape:persp3d-origin="0.5 : 0.33333333 : 1"
     id="perspective3283" /><inkscape:perspective
     id="perspective3273"
     inkscape:persp3d-origin="372.04724 : 350.78739 : 1"
     inkscape:vp_z="744.09448 : 526.18109 : 1"
     inkscape:vp_y="0 : 1000 : 0"
     inkscape:vp_x="0 : 526.18109 : 1"
     sodipodi:type="inkscape:persp3d" /><inkscape:perspective
     sodipodi:type="inkscape:persp3d"
     inkscape:vp_x="0 : 0.5 : 1"
     inkscape:vp_y="0 : 1000 : 0"
     inkscape:vp_z="1 : 0.5 : 1"
     inkscape:persp3d-origin="0.5 : 0.33333333 : 1"
     id="perspective3707" /><inkscape:perspective
     sodipodi:type="inkscape:persp3d"
     inkscape:vp_x="0 : 0.5 : 1"
     inkscape:vp_y="0 : 1000 : 0"
     inkscape:vp_z="1 : 0.5 : 1"
     inkscape:persp3d-origin="0.5 : 0.33333333 : 1"
     id="perspective3676" /><inkscape:perspective
     sodipodi:type="inkscape:persp3d"
     inkscape:vp_x="0 : 0.5 : 1"
     inkscape:vp_y="0 : 1000 : 0"
     inkscape:vp_z="1 : 0.5 : 1"
     inkscape:persp3d-origin="0.5 : 0.33333333 : 1"
     id="perspective2884" /><inkscape:perspective
     id="perspective10"
     inkscape:persp3d-origin="372.04724 : 350.78739 : 1"
     inkscape:vp_z="744.09448 : 526.18109 : 1"
     inkscape:vp_y="0 : 1000 : 0"
     inkscape:vp_x="0 : 526.18109 : 1"
     sodipodi:type="inkscape:persp3d" /><style
     type="text/css"
     id="style6">
   
    .fil0 {fill:#EF7900}
   
  </style><linearGradient
     y2="430.10822"
     x2="-774.98901"
     y1="619.61285"
     x1="-776.40326"
     gradientTransform="matrix(0.467111,0,0,0.487697,583.26,486.2726)"
     gradientUnits="userSpaceOnUse"
     id="linearGradient7651"
     xlink:href="#linearGradient5196"
     inkscape:collect="always" /><linearGradient
     y2="295.75793"
     x2="-490.02499"
     y1="350.91223"
     x1="-1027.219"
     gradientTransform="matrix(0.467111,0,0,0.487697,583.26,486.2726)"
     gradientUnits="userSpaceOnUse"
     id="linearGradient7649"
     xlink:href="#linearGradient9619"
     inkscape:collect="always" /><linearGradient
     gradientTransform="matrix(0.467111,0,0,0.487697,583.26,486.2726)"
     y2="295.75793"
     x2="-490.02499"
     y1="350.91223"
     x1="-1027.219"
     gradientUnits="userSpaceOnUse"
     id="linearGradient6736"
     xlink:href="#linearGradient9619"
     inkscape:collect="always" /><linearGradient
     gradientTransform="matrix(0.467111,0,0,0.487697,583.26,486.2726)"
     y2="430.10822"
     x2="-774.98901"
     y1="619.61285"
     x1="-776.40326"
     gradientUnits="userSpaceOnUse"
     id="linearGradient6733"
     xlink:href="#linearGradient5196"
     inkscape:collect="always" /><linearGradient
     y2="430.10822"
     x2="-774.98901"
     y1="619.61285"
     x1="-776.40326"
     gradientUnits="userSpaceOnUse"
     id="linearGradient4075"
     xlink:href="#linearGradient5196"
     inkscape:collect="always" /><linearGradient
     y2="295.75793"
     x2="-490.02499"
     y1="350.91223"
     x1="-1027.219"
     gradientUnits="userSpaceOnUse"
     id="linearGradient4073"
     xlink:href="#linearGradient9619"
     inkscape:collect="always" /><linearGradient
     gradientUnits="userSpaceOnUse"
     y2="295.75793"
     x2="-490.02499"
     y1="350.91223"
     x1="-1027.219"
     id="linearGradient9625"
     xlink:href="#linearGradient9619"
     inkscape:collect="always" /><linearGradient
     gradientUnits="userSpaceOnUse"
     y2="430.10822"
     x2="-774.98901"
     y1="619.61285"
     x1="-776.40326"
     id="linearGradient5202"
     xlink:href="#linearGradient5196"
     inkscape:collect="always" /><linearGradient
     id="linearGradient5196"
     inkscape:collect="always"><stop
       id="stop5198"
       offset="0"
       style="stop-color:#c9c9c9;stop-opacity:1;" /><stop
       id="stop5200"
       offset="1"
       style="stop-color:#c9c9c9;stop-opacity:0;" /></linearGradient><linearGradient
     id="linearGradient9619"><stop
       id="stop9621"
       offset="0"
       style="stop-color:#bbbbbb;stop-opacity:1;" /><stop
       id="stop9623"
       offset="1"
       style="stop-color:#ffffff;stop-opacity:1;" /></linearGradient></defs><sodipodi:namedview
   pagecolor="#ffffff"
   bordercolor="#666666"
   borderopacity="1"
   objecttolerance="10"
   gridtolerance="10"
   guidetolerance="10"
   inkscape:pageopacity="0"
   inkscape:pageshadow="2"
   inkscape:window-width="1858"
   inkscape:window-height="1057"
   id="namedview5"
   showgrid="false"
   inkscape:zoom="1.28"
   inkscape:cx="198.64653"
   inkscape:cy="246.61847"
   inkscape:window-x="1974"
   inkscape:window-y="-8"
   inkscape:window-maximized="1"
   inkscape:current-layer="g3011" />
<path
   id="location-5-icon"
   d="M 256,50 C 162.939,50 87.5,125.44 87.5,218.5 87.5,313 169.43,375.333 256,462 342.57,375.333 424.5,313 424.5,218.5 424.5,125.44 349.061,50 256,50 z m 0,286.958 c -68.275,0 -123.624,-55.349 -123.624,-123.624 0,-68.276 55.349,-123.625 123.624,-123.625 68.276,0 123.625,55.348 123.625,123.625 0,68.275 -55.349,123.624 -123.625,123.624 z"
   inkscape:connector-curvature="0" />
<g
   transform="matrix(0.54446134,0,0,0.54446134,113.35401,58.496768)"
   id="g3011"><path
     style="fill:#000000;fill-rule:evenodd;stroke:#000000;stroke-width:0.50358194px;stroke-linecap:butt;stroke-linejoin:miter;stroke-opacity:1"
     d="M 198 146.3125 C 196.26165 146.3125 194.875 149.75006 194.875 154.03125 L 194.875 290.4375 C 194.875 294.71869 196.26165 298.15625 198 298.15625 L 309.71875 298.15625 C 311.4571 298.15625 312.875 294.71869 312.875 290.4375 L 312.875 154.03125 C 312.875 149.75006 311.4571 146.3125 309.71875 146.3125 L 198 146.3125 z M 215.875 187.53125 L 227.5625 187.53125 C 231.01309 187.53128 233.60291 188.41616 235.34375 190.1875 C 237.08454 191.9589 237.96873 194.42054 237.96875 197.59375 C 237.96873 199.99697 237.40573 201.95947 236.28125 203.5 C 235.15673 205.04057 233.59684 206.13417 231.65625 206.75 L 238.0625 220.6875 L 232.625 220.6875 L 226.71875 207.625 L 220.8125 207.625 L 220.8125 220.6875 L 215.875 220.6875 L 215.875 187.53125 z M 252.34375 187.53125 L 257.28125 187.53125 L 257.28125 220.6875 L 252.34375 220.6875 L 252.34375 187.53125 z M 272.90625 187.53125 L 284.59375 187.53125 C 286.10373 187.53128 287.50253 187.70946 288.78125 188.125 C 290.05993 188.54061 291.16949 189.16794 292.09375 190 C 293.01796 190.83212 293.74179 191.89309 294.25 193.15625 C 294.75816 194.41946 294.99998 195.8995 295 197.59375 C 294.99998 200.82907 294.05077 203.30596 292.15625 205.03125 C 290.26169 206.75657 287.73689 207.62501 284.59375 207.625 L 277.84375 207.625 L 277.84375 220.6875 L 272.90625 220.6875 L 272.90625 187.53125 z M 220.8125 192.46875 L 220.8125 202.71875 L 227.96875 202.71875 C 231.35822 202.71877 233.06248 201.04621 233.0625 197.71875 C 233.06248 194.20706 231.35822 192.46878 227.96875 192.46875 L 220.8125 192.46875 z M 277.84375 192.46875 L 277.84375 202.71875 L 285.03125 202.71875 C 288.42072 202.71877 290.09373 201.04621 290.09375 197.71875 C 290.09373 194.20706 288.42072 192.46878 285.03125 192.46875 L 277.84375 192.46875 z M 244.34375 214 C 245.05267 214.00001 245.67953 214.32189 246.21875 214.96875 C 246.75796 215.61563 247.03124 216.41974 247.03125 217.375 C 247.03124 218.26821 246.75796 219.05637 246.21875 219.71875 C 245.67953 220.38113 245.05267 220.6875 244.34375 220.6875 C 243.54268 220.6875 242.89961 220.38113 242.4375 219.71875 C 241.97538 219.05637 241.75 218.26821 241.75 217.375 C 241.75 216.41974 241.97538 215.61563 242.4375 214.96875 C 242.89961 214.32189 243.54268 214.00001 244.34375 214 z M 265.09375 214 C 265.80267 214.00001 266.42953 214.32189 266.96875 214.96875 C 267.50796 215.61563 267.78124 216.41974 267.78125 217.375 C 267.78124 218.26821 267.50796 219.05637 266.96875 219.71875 C 266.42953 220.38113 265.80267 220.6875 265.09375 220.6875 C 264.29268 220.6875 263.68086 220.38113 263.21875 219.71875 C 262.75663 219.05637 262.53125 218.26821 262.53125 217.375 C 262.53125 216.41974 262.75663 215.61563 263.21875 214.96875 C 263.68086 214.32189 264.29268 214.00001 265.09375 214 z "
     transform="matrix(1.8366777,0,0,1.8366777,-208.19478,-107.43971)"
     id="rect2986" /><rect
     style="fill:#000000;fill-rule:evenodd;stroke:#000000;stroke-width:0.60891539px;stroke-linecap:butt;stroke-linejoin:miter;stroke-opacity:1"
     id="rect2986-1"
     width="217.02892"
     height="120.71207"
     x="149.71309"
     y="114.9072"
     rx="80.0158"
     ry="60.356037" /></g></svg>