<svg
  version="1.1"
  xmlns="http://www.w3.org/2000/svg"
  xmlns:xlink="http://www.w3.org/1999/xlink"
   x="0px"
   y="0px"
   width="512px"
   height="512px"
   viewBox="0 0 512 512"
   enable-background="new 0 0 512 512"
   id="conviencestore-marker">
<path
   id="conviencestore-marker-shell"
   d="M256,50c-93.061,0-168.5,75.44-168.5,168.5C87.5,313,169.43,375.333,256,462  c86.57-86.667,168.5-149,168.5-243.5C424.5,125.44,349.061,50,256,50z M256,336.958c-68.275,0-123.624-55.349-123.624-123.624  c0-68.276,55.349-123.625,123.624-123.625c68.276,0,123.625,55.348,123.625,123.625C379.625,281.609,324.276,336.958,256,336.958z" />
<path
   id="conviencestore-marker-content"
   d="m 180.66841,197.71224 v 98.71521 H 328.84625 V 197.71224 H 180.66841 z m 14.70227,69.10065 v -54.39838 h 118.7733 v 54.39838 h -118.7733 z m 7.35995,-36.27931 11.49928,-11.49927 c 2.95599,-2.9539 7.39902,1.51181 4.45562,4.45562 l -11.49927,11.49928 c -2.95473,2.95305 -7.39902,-1.51098 -4.45563,-4.45563 z m 0.81409,15.14837 25.83398,-25.83398 c 2.95599,-2.95389 7.39902,1.51182 4.45563,4.45563 l -25.83398,25.83398 c -2.95516,2.95347 -7.39944,-1.51097 -4.45563,-4.45563 z m 36.28057,-114.1299 -7.47631,35.84496 h -0.034 v 7.28392 c 0,7.69307 -6.2367,13.92977 -13.92976,13.92977 -7.69307,0 -13.92935,-6.2367 -13.92935,-13.92977 v -7.28392 l 21.35651,-35.84496 h 14.01294 z m -22.00635,0 -21.80556,35.84496 v 7.28392 c 0,7.69307 -6.2367,13.92977 -13.92977,13.92977 -7.69306,0 -13.92976,-6.2367 -13.92976,-13.92977 v -7.28392 l 35.14513,-35.84496 h 14.51996 z m 123.40157,35.84496 v 7.28392 c 0,7.69307 -6.2367,13.92977 -13.92976,13.92977 -7.69307,0 -13.92977,-6.2367 -13.92977,-13.92977 v -7.28392 l -21.80556,-35.84496 h 14.51996 l 35.14513,35.84496 z m -72.63759,0 h 0.034 v 7.28392 c 0,7.69307 -6.2367,13.92977 -13.92976,13.92977 -7.69307,0 -13.92977,-6.2367 -13.92977,-13.92977 v -7.28392 h 0.034 l 7.02726,-35.84496 h 13.73738 l 7.02684,35.84496 z m 14.97909,-35.84496 21.35651,35.84496 v 7.28392 c 0,7.69307 -6.23628,13.92977 -13.92935,13.92977 -7.69306,0 -13.92976,-6.2367 -13.92976,-13.92977 v -7.28392 h -0.034 l -7.47631,-35.84496 h 14.01293 z" />
 </svg>
