<svg
   xmlns:svg="http://www.w3.org/2000/svg"
   xmlns="http://www.w3.org/2000/svg"
   version="1.1"
   x="0px"
   y="0px"
   width="512px"
   height="512px"
   viewBox="0 0 512 512"
   enable-background="new 0 0 512 512"
   id="courthouse-marker">
  <path
     id="courthouse-marker-shell"
     d="M256,50c-93.061,0-168.5,75.44-168.5,168.5C87.5,313,169.43,375.333,256,462 c86.57-86.667,168.5-149,168.5-243.5C424.5,125.44,349.061,50,256,50z M256,336.958c-68.275,0-123.624-55.349-123.624-123.624 c0-68.276,55.349-123.625,123.624-123.625c68.276,0,123.625,55.348,123.625,123.625C379.625,281.609,324.276,336.958,256,336.958z" />
  <g
     id="courthouse-marker-content"
		 transform="matrix(3.3502878,0,0,3.3502878,173.42378,119.18694)">
    <g
       id="g6">
      <g
         id="g8">
        <path
           d="m 28.053,21.171 c -0.716,-0.657 -0.746,-1.765 -0.068,-2.463 l 1.855,-1.91 c 0.678,-0.697 1.689,-0.798 2.249,-0.222 0.558,0.575 1.569,0.475 2.247,-0.223 l 2.146,-2.209 c 0.678,-0.698 0.677,-1.839 0,-2.536 L 25.946,0.765 c -0.677,-0.697 -1.787,-0.697 -2.465,0 L 21.335,2.974 C 20.656,3.671 20.56,4.712 21.118,5.287 21.676,5.862 21.579,6.903 20.902,7.6 l -9.479,9.754 C 10.746,18.052 9.734,18.152 9.175,17.577 8.616,17.002 7.605,17.102 6.927,17.8 l -2.145,2.21 c -0.678,0.698 -0.678,1.838 0,2.536 l 10.536,10.842 c 0.678,0.698 1.786,0.698 2.465,0 l 2.146,-2.208 c 0.677,-0.698 0.774,-1.738 0.217,-2.313 -0.56,-0.575 -0.462,-1.615 0.215,-2.313 l 1.855,-1.91 c 0.678,-0.698 1.755,-0.666 2.393,0.07 L 41.69,44.409 c 0.639,0.736 1.716,0.768 2.393,0.07 l 3.176,-3.268 c 0.677,-0.698 0.646,-1.806 -0.069,-2.463 L 28.053,21.171 Z"
           id="path10" />
        <path
           d="m 42.919,45.235 0,0 c -0.539,0 -1.056,-0.241 -1.419,-0.661 L 24.419,24.878 c -0.524,-0.604 -1.464,-0.632 -2.021,-0.06 l -1.855,1.911 c -0.585,0.602 -0.682,1.482 -0.215,1.961 0.652,0.674 0.556,1.869 -0.217,2.666 l -2.146,2.208 c -0.752,0.774 -2.076,0.774 -2.828,0 L 4.601,22.722 c -0.773,-0.796 -0.773,-2.092 0,-2.889 l 2.146,-2.209 c 0.748,-0.77 1.976,-0.875 2.611,-0.223 0.444,0.458 1.329,0.352 1.885,-0.223 L 20.722,7.424 C 21.307,6.822 21.404,5.942 20.938,5.463 20.284,4.789 20.38,3.594 21.155,2.798 l 2.146,-2.209 c 0.752,-0.772 2.075,-0.773 2.827,0 l 10.536,10.842 c 0.772,0.797 0.772,2.092 0,2.888 l -2.146,2.209 c -0.747,0.768 -1.975,0.876 -2.61,0.222 -0.442,-0.456 -1.327,-0.351 -1.886,0.223 l -1.856,1.91 c -0.28,0.289 -0.428,0.667 -0.417,1.065 0.012,0.397 0.181,0.764 0.476,1.035 l 19.135,17.58 c 0.396,0.363 0.623,0.858 0.639,1.393 0.016,0.536 -0.184,1.045 -0.559,1.432 l -3.176,3.268 c -0.363,0.372 -0.841,0.579 -1.345,0.579 z M 23.382,23.887 c 0.537,0 1.055,0.241 1.419,0.66 l 17.08,19.696 c 0.272,0.314 0.641,0.486 1.037,0.486 l 10e-4,0 c 0.367,0 0.716,-0.151 0.982,-0.427 l 3.176,-3.268 c 0.28,-0.288 0.429,-0.667 0.417,-1.063 -0.012,-0.398 -0.18,-0.766 -0.475,-1.037 L 27.882,21.357 c -0.396,-0.364 -0.623,-0.858 -0.638,-1.393 -0.017,-0.536 0.183,-1.044 0.559,-1.433 l 1.855,-1.91 c 0.75,-0.77 1.975,-0.875 2.612,-0.222 0.444,0.458 1.326,0.351 1.884,-0.223 L 36.3,13.967 c 0.586,-0.602 0.586,-1.582 0,-2.184 L 25.765,0.941 c -0.561,-0.577 -1.544,-0.576 -2.102,0 L 21.518,3.15 c -0.586,0.602 -0.684,1.481 -0.217,1.961 0.653,0.674 0.557,1.87 -0.216,2.666 l -9.479,9.754 C 10.859,18.3 9.63,18.407 8.995,17.754 8.551,17.296 7.668,17.402 7.11,17.977 l -2.146,2.209 c -0.585,0.602 -0.585,1.582 0,2.184 L 15.5,33.212 c 0.559,0.576 1.543,0.576 2.102,0 l 2.146,-2.209 c 0.585,-0.602 0.682,-1.48 0.217,-1.961 -0.654,-0.672 -0.558,-1.868 0.215,-2.665 l 1.855,-1.91 c 0.364,-0.374 0.842,-0.58 1.347,-0.58 z"
           id="path12" />
      </g>
    </g>
    <g
       id="g14">
      <g
         id="g16">
        <path
           d="m 0.253,45.944 c 0,0.986 0.783,1.793 1.742,1.793 l 27.407,0 c 0.959,0 1.742,-0.807 1.742,-1.793 l 0,-4.554 c 0,-0.986 -0.783,-1.794 -1.742,-1.794 l -27.407,0 c -0.959,0 -1.742,0.808 -1.742,1.794 l 0,4.554 z"
           id="path18" />
        <path
           d="m 29.402,47.99 -27.407,0 C 0.895,47.99 0,47.072 0,45.944 L 0,41.39 c 0,-1.128 0.895,-2.046 1.995,-2.046 l 27.407,0 c 1.1,0 1.995,0.918 1.995,2.046 l 0,4.554 c 0,1.128 -0.895,2.046 -1.995,2.046 z M 1.995,39.85 c -0.822,0 -1.49,0.691 -1.49,1.541 l 0,4.554 c 0,0.85 0.668,1.541 1.49,1.541 l 27.407,0 c 0.821,0 1.49,-0.691 1.49,-1.541 l 0,-4.554 c 0,-0.85 -0.669,-1.541 -1.49,-1.541 l -27.407,0 z"
           id="path20" />
      </g>
    </g>
  </g>
</svg>
