<svg
	version="1.1"
	xmlns="http://www.w3.org/2000/svg"
	xmlns:xlink="http://www.w3.org/1999/xlink"
   x="0px"
   y="0px"
   width="512px"
   height="512px"
   viewBox="0 0 512 512"
   enable-background="new 0 0 512 512"
   id="courthouse-marker">
<path
   id="courthouse-marker-shell"
   d="M 256,50 C 162.939,50 87.5,125.44 87.5,218.5 87.5,313 169.43,375.333 256,462 342.57,375.333 424.5,313 424.5,218.5 424.5,125.44 349.061,50 256,50 z m 0,286.958 c -68.275,0 -123.624,-55.349 -123.624,-123.624 0,-68.276 55.349,-123.625 123.624,-123.625 68.276,0 123.625,55.348 123.625,123.625 0,68.275 -55.349,123.624 -123.625,123.624 z" />
<rect
   style="fill:#000000;fill-rule:evenodd;stroke:#000000;stroke-width:0.3986063px;stroke-linecap:butt;stroke-linejoin:miter;stroke-opacity:1"
   id="rect10916-61-5"
   width="103.63763"
   height="20.499821"
   x="-152.19943"
   y="253.15758"
   ry="7.5413947"
   transform="matrix(-0.77610762,0.63060048,0.63060048,0.77610762,0,0)" />
   <rect
   style="fill:#000000;fill-rule:evenodd;stroke:#000000;stroke-width:0.3986063px;stroke-linecap:butt;stroke-linejoin:miter;stroke-opacity:1"
   id="rect10916-4-8-0"
   width="103.63763"
   height="20.499821"
   x="-157.9384"
   y="372.3598"
   ry="7.5413947"
   transform="matrix(-0.77610762,0.63060048,0.63060048,0.77610762,0,0)" />
   <rect
   style="fill:#000000;fill-rule:evenodd;stroke:#000000;stroke-width:0.28682172px;stroke-linecap:butt;stroke-linejoin:miter;stroke-opacity:1"
   id="rect10916-1-9-9"
   width="74.011757"
   height="60.561207"
   x="-130.1834"
   y="305.24713"
   ry="5.3943243"
   transform="matrix(-0.79363,0.60840071,0.65255235,0.75774364,0,0)" />
   <rect
   style="fill:#000000;fill-rule:evenodd;stroke:#000000;stroke-width:0.48730943px;stroke-linecap:butt;stroke-linejoin:miter;stroke-opacity:1"
   id="rect10916-6-2-0"
   width="126.94419"
   height="25.013592"
   x="-78.704124"
   y="308.00998"
   ry="9.2019033"
   transform="matrix(-0.78185974,0.62345436,0.63772074,0.77026765,0,0)" />
   <path
   style="fill:#000000;fill-rule:evenodd;stroke:#000000;stroke-width:0.48726827px;stroke-linecap:butt;stroke-linejoin:miter;stroke-opacity:1"
   d="m 310.7914,144.87703 c -2.07852,-0.0187 -4.17302,0.65236 -5.91681,2.04286 l -14.83563,11.83362 c 3.57103,-0.67093 7.38387,0.5677 9.85305,3.55007 l 4.6338,5.59296 c 2.42646,2.9308 2.90729,6.77037 1.59442,10.02742 l 14.71107,-11.73397 c 3.9858,-3.17825 4.57139,-8.90343 1.32038,-12.83014 l -4.21028,-5.09467 c -1.82869,-2.20879 -4.47762,-3.36423 -7.15,-3.38815 z"
   id="rect10916-6-5-0"
   inkscape:connector-curvature="0" />
   <rect
   style="fill:#000000;fill-rule:evenodd;stroke:#000000;stroke-width:0.28682172px;stroke-linecap:butt;stroke-linejoin:miter;stroke-opacity:1"
   id="rect10916-1-9-8"
   width="74.011757"
   height="60.561207"
   x="-130.09004"
   y="275.31732"
   ry="5.3943243"
   transform="matrix(-0.79363,0.60840071,0.65255235,0.75774364,0,0)" />
</svg>
