<?xml version="1.0" encoding="UTF-8" standalone="no"?><svg
   xmlns:dc="http://purl.org/dc/elements/1.1/"
   xmlns:cc="http://creativecommons.org/ns#"
   xmlns:rdf="http://www.w3.org/1999/02/22-rdf-syntax-ns#"
   xmlns:svg="http://www.w3.org/2000/svg"
   xmlns="http://www.w3.org/2000/svg"
   xmlns:xlink="http://www.w3.org/1999/xlink"
   xmlns:sodipodi="http://sodipodi.sourceforge.net/DTD/sodipodi-0.dtd"
   xmlns:inkscape="http://www.inkscape.org/namespaces/inkscape"
   version="1.1"
   x="0px"
   y="0px"
   width="512px"
   height="512px"
   viewBox="0 0 512 512"
   enable-background="new 0 0 512 512"
   xml:space="preserve"
   id="svg2"
   inkscape:version="0.91 r13725"
   sodipodi:docname="dentist.svg"><metadata
     id="metadata9"><rdf:RDF><cc:Work
         rdf:about=""><dc:format>image/svg+xml</dc:format><dc:type
           rdf:resource="http://purl.org/dc/dcmitype/StillImage" /><dc:title></dc:title></cc:Work></rdf:RDF></metadata><defs
     id="defs7"><inkscape:perspective
       sodipodi:type="inkscape:persp3d"
       inkscape:vp_x="0 : 0.5 : 1"
       inkscape:vp_y="0 : 1000 : 0"
       inkscape:vp_z="1 : 0.5 : 1"
       inkscape:persp3d-origin="0.5 : 0.33333333 : 1"
       id="perspective2831" /><inkscape:perspective
       sodipodi:type="inkscape:persp3d"
       inkscape:vp_x="0 : 0.5 : 1"
       inkscape:vp_y="0 : 1000 : 0"
       inkscape:vp_z="1 : 0.5 : 1"
       inkscape:persp3d-origin="0.5 : 0.33333333 : 1"
       id="perspective3716" /><inkscape:perspective
       sodipodi:type="inkscape:persp3d"
       inkscape:vp_x="0 : 0.5 : 1"
       inkscape:vp_y="0 : 1000 : 0"
       inkscape:vp_z="1 : 0.5 : 1"
       inkscape:persp3d-origin="0.5 : 0.33333333 : 1"
       id="perspective3283" /><inkscape:perspective
       id="perspective3273"
       inkscape:persp3d-origin="372.04724 : 350.78739 : 1"
       inkscape:vp_z="744.09448 : 526.18109 : 1"
       inkscape:vp_y="0 : 1000 : 0"
       inkscape:vp_x="0 : 526.18109 : 1"
       sodipodi:type="inkscape:persp3d" /><inkscape:perspective
       sodipodi:type="inkscape:persp3d"
       inkscape:vp_x="0 : 0.5 : 1"
       inkscape:vp_y="0 : 1000 : 0"
       inkscape:vp_z="1 : 0.5 : 1"
       inkscape:persp3d-origin="0.5 : 0.33333333 : 1"
       id="perspective3707" /><inkscape:perspective
       sodipodi:type="inkscape:persp3d"
       inkscape:vp_x="0 : 0.5 : 1"
       inkscape:vp_y="0 : 1000 : 0"
       inkscape:vp_z="1 : 0.5 : 1"
       inkscape:persp3d-origin="0.5 : 0.33333333 : 1"
       id="perspective3676" /><inkscape:perspective
       sodipodi:type="inkscape:persp3d"
       inkscape:vp_x="0 : 0.5 : 1"
       inkscape:vp_y="0 : 1000 : 0"
       inkscape:vp_z="1 : 0.5 : 1"
       inkscape:persp3d-origin="0.5 : 0.33333333 : 1"
       id="perspective2884" /><inkscape:perspective
       id="perspective10"
       inkscape:persp3d-origin="372.04724 : 350.78739 : 1"
       inkscape:vp_z="744.09448 : 526.18109 : 1"
       inkscape:vp_y="0 : 1000 : 0"
       inkscape:vp_x="0 : 526.18109 : 1"
       sodipodi:type="inkscape:persp3d" /><style
       type="text/css"
       id="style6">
   
    .fil0 {fill:#EF7900}
   
  </style><linearGradient
       y2="430.10822"
       x2="-774.98901"
       y1="619.61285"
       x1="-776.40326"
       gradientTransform="matrix(0.467111,0,0,0.487697,583.26,486.2726)"
       gradientUnits="userSpaceOnUse"
       id="linearGradient7651"
       xlink:href="#linearGradient5196"
       inkscape:collect="always" /><linearGradient
       y2="295.75793"
       x2="-490.02499"
       y1="350.91223"
       x1="-1027.219"
       gradientTransform="matrix(0.467111,0,0,0.487697,583.26,486.2726)"
       gradientUnits="userSpaceOnUse"
       id="linearGradient7649"
       xlink:href="#linearGradient9619"
       inkscape:collect="always" /><linearGradient
       gradientTransform="matrix(0.467111,0,0,0.487697,583.26,486.2726)"
       y2="295.75793"
       x2="-490.02499"
       y1="350.91223"
       x1="-1027.219"
       gradientUnits="userSpaceOnUse"
       id="linearGradient6736"
       xlink:href="#linearGradient9619"
       inkscape:collect="always" /><linearGradient
       gradientTransform="matrix(0.467111,0,0,0.487697,583.26,486.2726)"
       y2="430.10822"
       x2="-774.98901"
       y1="619.61285"
       x1="-776.40326"
       gradientUnits="userSpaceOnUse"
       id="linearGradient6733"
       xlink:href="#linearGradient5196"
       inkscape:collect="always" /><linearGradient
       y2="430.10822"
       x2="-774.98901"
       y1="619.61285"
       x1="-776.40326"
       gradientUnits="userSpaceOnUse"
       id="linearGradient4075"
       xlink:href="#linearGradient5196"
       inkscape:collect="always" /><linearGradient
       y2="295.75793"
       x2="-490.02499"
       y1="350.91223"
       x1="-1027.219"
       gradientUnits="userSpaceOnUse"
       id="linearGradient4073"
       xlink:href="#linearGradient9619"
       inkscape:collect="always" /><linearGradient
       gradientUnits="userSpaceOnUse"
       y2="295.75793"
       x2="-490.02499"
       y1="350.91223"
       x1="-1027.219"
       id="linearGradient9625"
       xlink:href="#linearGradient9619"
       inkscape:collect="always" /><linearGradient
       gradientUnits="userSpaceOnUse"
       y2="430.10822"
       x2="-774.98901"
       y1="619.61285"
       x1="-776.40326"
       id="linearGradient5202"
       xlink:href="#linearGradient5196"
       inkscape:collect="always" /><linearGradient
       id="linearGradient5196"
       inkscape:collect="always"><stop
         id="stop5198"
         offset="0"
         style="stop-color:#c9c9c9;stop-opacity:1;" /><stop
         id="stop5200"
         offset="1"
         style="stop-color:#c9c9c9;stop-opacity:0;" /></linearGradient><linearGradient
       id="linearGradient9619"><stop
         id="stop9621"
         offset="0"
         style="stop-color:#bbbbbb;stop-opacity:1;" /><stop
         id="stop9623"
         offset="1"
         style="stop-color:#ffffff;stop-opacity:1;" /></linearGradient></defs><sodipodi:namedview
     pagecolor="#ffffff"
     bordercolor="#666666"
     borderopacity="1"
     objecttolerance="10"
     gridtolerance="10"
     guidetolerance="10"
     inkscape:pageopacity="0"
     inkscape:pageshadow="2"
     inkscape:window-width="1920"
     inkscape:window-height="1005"
     id="namedview5"
     showgrid="false"
     inkscape:zoom="0.64"
     inkscape:cx="1057.1364"
     inkscape:cy="533.37845"
     inkscape:window-x="-9"
     inkscape:window-y="-9"
     inkscape:window-maximized="1"
     inkscape:current-layer="svg2" /><path
     id="location-5-icon"
     d="M 256,50 C 162.939,50 87.5,125.44 87.5,218.5 87.5,313 169.43,375.333 256,462 342.57,375.333 424.5,313 424.5,218.5 424.5,125.44 349.061,50 256,50 z m 0,286.958 c -68.275,0 -123.624,-55.349 -123.624,-123.624 0,-68.276 55.349,-123.625 123.624,-123.625 68.276,0 123.625,55.348 123.625,123.625 0,68.275 -55.349,123.624 -123.625,123.624 z"
     inkscape:connector-curvature="0" /><path
     inkscape:connector-curvature="0"
     d="m 317.2525,140.8489 c -4.48324,-3.44982 -9.72825,-1.25189 -15.15372,-1.04863 -5.3495,0.20327 -9.75105,-4.05201 -14.93337,-4.92016 -9.04626,-1.51024 -16.25174,3.26744 -23.69088,6.79135 -3.67587,1.742 -16.71526,-3.77846 -19.4242,-4.69031 -3.02049,-1.01633 -8.70053,-2.49237 -11.778,-3.31683 -6.24614,-1.67552 -13.15527,-2.14854 -19.77755,-0.6041 -6.15305,1.43235 -10.5964,6.04667 -14.02152,11.10361 -4.30087,6.35442 -4.49653,15.47478 -4.31036,22.83983 0.27355,10.67998 2.87421,20.91355 5.05694,31.30668 1.26328,6.02198 2.01366,12.17694 1.69641,18.34519 -0.47682,9.22103 -1.7971,18.2369 -2.76403,27.40285 -2.27582,21.61833 -1.84459,48.10743 14.66171,64.54154 1.91108,1.46275 6.76475,3.47261 4.7188,-4.77769 -2.9426,-11.85778 -4.1508,-24.58752 -2.28151,-36.72076 0.49201,-3.18196 2.08584,-6.10557 2.60445,-9.28753 1.93958,16.81405 4.67131,34.2132 9.72065,50.38705 0.52622,1.69261 1.7667,7.24727 3.76517,8.04893 7.99384,3.20856 8.91328,-6.62797 9.23433,-12.28331 0.53761,-9.48699 0.19756,-18.93789 1.66602,-28.35839 1.51594,-9.72255 4.02921,-19.51728 7.77348,-28.63384 4.20588,-10.24116 15.25251,-19.47929 26.36752,-11.94707 13.15337,8.90949 12.23772,34.04602 12.32321,47.38746 0.0494,7.80197 0.01,11.04852 3.21425,6.77425 3.20856,-3.19526 5.58126,-15.83192 3.70058,-20.21637 0.43692,6.04287 0.28495,12.13134 0.61359,18.17231 0.5737,10.59641 -0.80546,16.67347 0.84726,23.71748 0.27735,1.1721 2.39929,1.59953 3.72526,1.45325 1.91108,-0.21846 5.85481,-9.28752 6.59758,-11.1815 1.25569,-3.20286 1.93768,-6.65837 2.76404,-9.9866 2.9198,-11.72481 3.97032,-23.5845 4.43004,-35.63986 0.35904,-9.43569 1.52165,-20.68368 -0.38943,-29.95601 -1.93387,-9.39011 -0.27735,-26.97732 3.31494,-40.78988 3.59609,-13.80495 6.91102,-38.39058 -0.27166,-43.91294 z"
     id="path4" /></svg>