<svg
   
   xmlns:cc="http://creativecommons.org/ns#"
   xmlns:rdf="http://www.w3.org/1999/02/22-rdf-syntax-ns#"
   xmlns:svg="http://www.w3.org/2000/svg"
   xmlns="http://www.w3.org/2000/svg"
   xmlns:sodipodi="http://sodipodi.sourceforge.net/DTD/sodipodi-0.dtd"
   xmlns:inkscape="http://www.inkscape.org/namespaces/inkscape"
   version="1.1"
   x="0px"
   y="0px"
   width="512px"
   height="512px"
   viewBox="0 0 512 512"
   enable-background="new 0 0 512 512"
   
   id="svg2"
   inkscape:version="0.91 r13725"
   sodipodi:docname="doctor.svg"><metadata
     id="metadata9"><rdf:RDF><cc:Work
         rdf:about=""><dc:format>image/svg+xml</dc:format><dc:type
           rdf:resource="http://purl.org/dc/dcmitype/StillImage" /><dc:title></dc:title></cc:Work></rdf:RDF></metadata><defs
     id="defs7"><inkscape:perspective
       sodipodi:type="inkscape:persp3d"
       inkscape:vp_x="0 : 0.5 : 1"
       inkscape:vp_y="0 : 1000 : 0"
       inkscape:vp_z="1 : 0.5 : 1"
       inkscape:persp3d-origin="0.5 : 0.33333333 : 1"
       id="perspective2831" /><inkscape:perspective
       sodipodi:type="inkscape:persp3d"
       inkscape:vp_x="0 : 0.5 : 1"
       inkscape:vp_y="0 : 1000 : 0"
       inkscape:vp_z="1 : 0.5 : 1"
       inkscape:persp3d-origin="0.5 : 0.33333333 : 1"
       id="perspective3716" /><inkscape:perspective
       sodipodi:type="inkscape:persp3d"
       inkscape:vp_x="0 : 0.5 : 1"
       inkscape:vp_y="0 : 1000 : 0"
       inkscape:vp_z="1 : 0.5 : 1"
       inkscape:persp3d-origin="0.5 : 0.33333333 : 1"
       id="perspective3283" /><inkscape:perspective
       id="perspective3273"
       inkscape:persp3d-origin="372.04724 : 350.78739 : 1"
       inkscape:vp_z="744.09448 : 526.18109 : 1"
       inkscape:vp_y="0 : 1000 : 0"
       inkscape:vp_x="0 : 526.18109 : 1"
       sodipodi:type="inkscape:persp3d" /></defs><sodipodi:namedview
     pagecolor="#ffffff"
     bordercolor="#666666"
     borderopacity="1"
     objecttolerance="10"
     gridtolerance="10"
     guidetolerance="10"
     inkscape:pageopacity="0"
     inkscape:pageshadow="2"
     inkscape:window-width="1920"
     inkscape:window-height="1005"
     id="namedview5"
     showgrid="false"
     inkscape:zoom="1.28"
     inkscape:cx="259.32897"
     inkscape:cy="241.16659"
     inkscape:window-x="-9"
     inkscape:window-y="-9"
     inkscape:window-maximized="1"
     inkscape:current-layer="svg2" /><path
     id="location-5-icon"
     d="M 256,50 C 162.939,50 87.5,125.44 87.5,218.5 87.5,313 169.43,375.333 256,462 342.57,375.333 424.5,313 424.5,218.5 424.5,125.44 349.061,50 256,50 z m 0,286.958 c -68.275,0 -123.624,-55.349 -123.624,-123.624 0,-68.276 55.349,-123.625 123.624,-123.625 68.276,0 123.625,55.348 123.625,123.625 0,68.275 -55.349,123.624 -123.625,123.624 z"
     inkscape:connector-curvature="0" /><path
     inkscape:connector-curvature="0"
     d="m 335.00206,185.84827 c 0,-14.12607 -11.49119,-25.61726 -25.61726,-25.61726 -14.12609,0 -25.61727,11.49119 -25.61727,25.61726 0,12.24914 8.64828,22.50657 20.15621,25.01951 -0.0933,0.41126 -0.15064,0.83446 -0.15064,1.27202 l 0,50.06772 c 0,20.32835 -16.53621,36.86457 -36.85979,36.86457 -20.32596,0 -36.86217,-16.53622 -36.86217,-36.86457 l 0,-7.33322 c 20.71808,-2.83335 42.68906,-20.11795 42.68906,-34.95416 l 0,-61.95103 c 0,-11.95265 -7.2591,-22.23159 -17.59782,-26.68365 -1.49199,-4.96135 -6.04208,-8.60046 -11.4888,-8.60046 -6.65417,0 -12.05068,5.39412 -12.05068,12.05068 0,6.65418 5.39411,12.05068 12.05068,12.05068 3.46218,0 6.56093,-1.48003 8.75827,-3.81844 5.18131,3.02224 8.71044,8.57895 8.71044,15.00119 l 0,61.95343 c 0,8.27049 -19.48672,23.78335 -36.78567,23.78335 -17.29895,0 -36.78566,-15.51525 -36.78566,-23.78335 l 0,-61.95343 c 0,-6.4079 3.51478,-11.95504 8.67935,-14.98206 2.19734,2.32885 5.29131,3.79931 8.74393,3.79931 6.65417,0 12.05068,-5.39411 12.05068,-12.05068 0,-6.65417 -5.39412,-12.05068 -12.05068,-12.05068 -5.45868,0 -10.01355,3.65107 -11.49597,8.62676 -10.30764,4.46401 -17.54283,14.72622 -17.54283,26.65735 l 0,61.95343 c 0,14.79078 21.83469,32.01081 42.49539,34.92546 l 0,7.36191 c 0,26.73387 21.74862,48.48009 48.4777,48.48009 26.72909,0 48.48009,-21.74862 48.48009,-48.48248 l 0,-50.06772 c 0,-0.47342 -0.0718,-0.92771 -0.17933,-1.36766 11.32621,-2.64684 19.79277,-12.80624 19.79277,-24.92387 z m -25.61726,14.00175 c -7.72057,0 -14.00175,-6.28118 -14.00175,-14.00175 0,-7.72056 6.28118,-13.99935 14.00175,-13.99935 7.72056,0 14.00174,6.28118 14.00174,13.99935 0,7.72057 -6.28118,14.00175 -14.00174,14.00175 z"
     id="path4" /></svg>