<svg
	version="1.1"
	xmlns="http://www.w3.org/2000/svg"
	xmlns:xlink="http://www.w3.org/1999/xlink"
   x="0px"
   y="0px"
   width="512px"
   height="512px"
   viewBox="0 0 512 512"
   enable-background="new 0 0 512 512"
   id="electronicsstore-marker">
<path
   id="electronicsstore-marker-shell"
   d="M256,50c-93.061,0-168.5,75.44-168.5,168.5C87.5,313,169.43,375.333,256,462  c86.57-86.667,168.5-149,168.5-243.5C424.5,125.44,349.061,50,256,50z M256,336.958c-68.275,0-123.624-55.349-123.624-123.624  c0-68.276,55.349-123.625,123.624-123.625c68.276,0,123.625,55.348,123.625,123.625C379.625,281.609,324.276,336.958,256,336.958z" />
<path
   id="electronicsstore-marker-content"
   d="m 211.38313,140.50118 91.85938,0 c 22.82993,0 41.33693,46.06587 41.33693,68.8958 l 0,9.1869 c 0,22.82993 -18.507,68.89442 -41.33693,68.89442 l -91.85938,0 c -22.82992,0 -41.33693,-46.06449 -41.33693,-68.89442 l 0,-9.1869 c 0,-22.82993 18.50701,-68.8958 41.33693,-68.8958 z m 11.48202,36.74531 c -3.80483,0 -6.88949,3.08466 -6.88949,6.88949 l 0,32.15094 c 0,3.80484 3.08466,6.88949 6.88949,6.88949 3.80484,0 6.88949,-3.08465 6.88949,-6.88949 l 0,-32.15094 c 0,-3.80483 -3.08465,-6.88949 -6.88949,-6.88949 z m 68.89488,4.593 c -3.80483,0 -6.88949,3.08465 -6.88949,6.88948 l 0,27.55795 c 0,3.80484 3.08466,6.88949 6.88949,6.88949 3.80483,0 6.88949,-3.08465 6.88949,-6.88949 l 0,-27.55795 c 0,-3.80483 -3.08466,-6.88948 -6.88949,-6.88948 z m -32.15094,59.70889 -4.593,0 c -8.87825,0 -16.07547,9.49371 -16.07547,18.37197 l 0,4.59299 c 0,5.07342 4.11257,9.18598 9.18599,9.18598 l 18.37196,0 c 5.07342,0 9.18599,-4.11256 9.18599,-9.18598 l 0,-4.59299 c 0,-8.87826 -7.19722,-18.37197 -16.07547,-18.37197 z"/>
</svg>
