<svg
	version="1.1"
	xmlns="http://www.w3.org/2000/svg"
	xmlns:xlink="http://www.w3.org/1999/xlink"
   x="0px"
   y="0px"
   width="512px"
   height="512px"
   viewBox="0 0 512 512"
   enable-background="new 0 0 512 512"
   id="embassy-marker">
  <path
     id="embassy-marker-shell"
     d="M 256,50 C 162.939,50 87.5,125.44 87.5,218.5 87.5,313 169.43,375.333 256,462 342.57,375.333 424.5,313 424.5,218.5 424.5,125.44 349.061,50 256,50 z m 0,286.958 c -68.275,0 -123.624,-55.349 -123.624,-123.624 0,-68.276 55.349,-123.625 123.624,-123.625 68.276,0 123.625,55.348 123.625,123.625 0,68.275 -55.349,123.624 -123.625,123.624 z"/>
  <g
   transform="matrix(2.4514309,0,0,2.4514309,144.80321,-2239.1125)"
   id="embassy-marker-content">
   <path
     style="color:#000000;fill:#000000;fill-opacity:1;stroke:none;stroke-width:2;marker:none;visibility:visible;display:inline;overflow:visible;enable-background:accumulate"
     id="rect9498-4"
     d="m 27.083333,962.7787 c -2.308334,0 -4.166667,1.85833 -4.166667,4.16666 l 0,4.16667 0,4.16666 0,25.00001 0,37.4999 c 0,2.0834 2.083333,4.1667 4.166667,4.1667 2.083333,0 4.166667,-2.0833 4.166667,-4.1667 l 0,-42.70826 c 1.422624,-0.60375 2.808125,-1.04167 4.166667,-1.04167 8.333333,0 20.627584,10.41663 29.166667,10.41663 3.644417,0 8.85625,-1.4337 12.5,-4.1666 l 0,-29.16667 c -4.133042,3.09958 -8.319583,6.24999 -12.5,6.24999 -8.333333,0 -20.804333,-10.41666 -29.166667,-10.41666 -1.402833,0 -2.776459,0.25 -4.166667,0.52084 l 0,-0.52084 c 0,-2.30833 -1.858334,-4.16666 -4.166667,-4.16666 z"/>
  </g>
</svg>
