<svg
	version="1.1"
	xmlns="http://www.w3.org/2000/svg"
	xmlns:xlink="http://www.w3.org/1999/xlink"
   x="0px"
   y="0px"
   width="512px"
   height="512px"
   viewBox="0 0 512 512"
   enable-background="new 0 0 512 512"
   id="firestation-marker">
<path
   id="firestation-marker-shell"
   d="M256,50c-93.061,0-168.5,75.44-168.5,168.5C87.5,313,169.43,375.333,256,462  c86.57-86.667,168.5-149,168.5-243.5C424.5,125.44,349.061,50,256,50z M256,336.958c-68.275,0-123.624-55.349-123.624-123.624  c0-68.276,55.349-123.625,123.624-123.625c68.276,0,123.625,55.348,123.625,123.625C379.625,281.609,324.276,336.958,256,336.958z" />
<path
   id="firestation-marker-content"
   d="m 274.42946,275.77443 c 9.05111,-2.26669 22.9373,-22.32109 20.57844,-42.06287 -2.65771,7.23243 -14.91288,14.14179 -18.16161,13.03386 6.20147,-9.29769 13.18114,-30.12887 5.00612,-42.71709 -2.69286,9.02688 -9.02688,15.99468 -14.56843,15.98518 6.78298,-11.41093 8.02014,-45.19188 -27.62463,-51.83424 15.71912,23.24659 -23.84568,51.21043 6.86851,79.48546 -8.38455,-0.0865 -16.77859,-7.05426 -21.05448,-14.97226 -7.4429,19.32037 7.00675,37.92049 13.9717,43.08196 -33.92586,-3.64876 -53.16736,-45.69595 -45.99527,-78.72625 2.8848,17.59053 18.08797,22.65699 24.51415,22.9373 -40.95019,-49.53191 26.71481,-70.69709 11.36342,-108.99909 25.68337,2.58359 55.29628,29.53595 46.98205,58.75453 7.83913,-2.13794 15.20316,-9.97708 16.84273,-21.80514 16.53106,23.02472 15.13807,50.48116 7.38921,68.19332 7.36213,-0.066 18.52696,-10.04312 20.90245,-20.17793 8.13084,48.56698 -26.15894,79.82326 -47.01436,79.82326 z m 23.73452,11.71214 h -85.5178 v 19.00396 h 85.5178 v -19.00396 z" />
 </svg>
