<svg
	version="1.1"
	xmlns="http://www.w3.org/2000/svg"
	xmlns:xlink="http://www.w3.org/1999/xlink"
   x="0px"
   y="0px"
   width="512px"
   height="512px"
   viewBox="0 0 512 512"
   enable-background="new 0 0 512 512"
   id="flourist-marker">
<path
   id="flourist-marker-shell"
   d="M256,50c-93.061,0-168.5,75.44-168.5,168.5C87.5,313,169.43,375.333,256,462  c86.57-86.667,168.5-149,168.5-243.5C424.5,125.44,349.061,50,256,50z M256,336.958c-68.275,0-123.624-55.349-123.624-123.624  c0-68.276,55.349-123.625,123.624-123.625c68.276,0,123.625,55.348,123.625,123.625C379.625,281.609,324.276,336.958,256,336.958z" />
<g
   id="flourist-marker-content"
   transform="matrix(0.35601342,0,0,0.35601342,164.86056,125.47621)">
   <path
     id="path5149"
     d="m 496.929,280.985 -3.604,-5.764 c -5.764,-8.648 -11.521,-17.295 -20.17,-23.053 -7.201,-5.042 -15.847,-8.646 -23.774,-12.249 22.34,-10.809 38.187,-25.934 45.393,-45.392 5.046,-15.855 3.604,-28.819 -3.604,-41.789 v -1.442 C 482.53,136.884 471,127.518 452.993,122.48 c -10.81,-2.161 -23.058,-2.161 -33.861,-1.441 l -23.773,5.044 7.927,-18.007 c 7.207,-23.052 5.043,-45.392 -7.206,-66.282 l -2.163,-3.603 C 383.107,20.176 367.265,9.374 345.651,3.61 323.32,-2.155 302.431,0.007 282.253,10.816 262.085,21.617 247.673,38.191 241.194,59.81 v 1.441 l -0.722,5.044 -2.882,-5.044 -7.206,-12.971 C 218.848,30.295 204.435,19.486 186.425,14.442 170.579,10.839 157.61,12.28 143.924,19.486 c -15.131,9.369 -23.779,23.779 -27.382,43.95 -3.603,20.89 0,41.068 10.809,61.237 l 5.045,7.199 -17.297,-5.765 c -21.61,-5.044 -41.789,-2.161 -61.957,8.648 -20.892,10.808 -33.861,25.933 -42.51,46.833 -7.924,20.176 -7.197,39.625 2.885,57.632 4.322,7.928 10.81,14.406 16.567,18.728 8.646,8.648 19.455,13.694 32.419,15.85 l 5.042,1.439 -10.81,9.369 c -10.088,8.646 -15.843,19.446 -19.446,30.256 -3.603,12.97 -2.164,25.935 5.043,38.186 3.603,5.758 7.197,10.804 12.964,14.407 5.764,5.042 12.97,8.646 21.61,9.36 15.855,3.604 32.422,3.604 50.429,-2.172 l -12.973,21.612 -3.603,9.373 c -7.198,23.055 -5.043,43.231 5.767,64.114 5.042,7.925 10.809,15.143 16.576,21.612 8.645,7.925 19.446,12.971 32.417,16.573 21.612,5.758 43.23,5.046 64.119,-5.758 20.18,-10.815 33.141,-28.104 39.629,-49.723 l 0.718,-4.324 c 13.686,15.143 26.658,25.222 41.071,28.825 14.403,4.321 28.815,3.604 41.785,-5.046 12.249,-7.206 20.892,-19.455 25.213,-34.582 3.604,-15.853 3.604,-31.698 0,-49.708 7.201,5.046 14.407,8.637 23.056,10.804 23.05,7.206 43.22,6.479 63.396,-4.321 19.458,-10.804 32.423,-28.106 38.907,-50.438 5.767,-21.612 4.324,-42.495 -6.484,-62.671 z m -104.452,-120.298 8.64,-3.594 c 12.97,-5.767 25.216,-7.206 38.186,-5.767 12.252,1.442 20.897,7.2 25.213,15.849 l 2.882,9.361 -1.442,7.206 c -5.042,12.97 -15.852,23.049 -33.858,30.977 -7.2,3.603 -15.125,5.042 -23.773,6.479 l -88.611,10.81 -1.442,-5.046 -1.442,-2.154 2.885,-3.604 72.762,-60.517 z M 270.003,69.928 c 3.604,-14.403 13.683,-25.213 26.652,-32.419 12.965,-7.199 27.377,-8.647 41.063,-3.603 15.133,3.596 25.942,11.521 32.428,23.765 3.603,7.199 5.764,15.846 5.764,25.214 l -2.161,15.846 c -2.882,7.926 -6.484,15.132 -10.809,21.611 l -64.842,79.261 c -6.484,-5.045 -13.691,-8.648 -20.897,-12.252 l -7.197,-81.407 -0.721,-28.817 0.72,-7.199 z M 146.8,72.083 c 0.722,-12.972 5.767,-21.611 14.403,-26.656 4.324,-3.603 10.81,-3.603 16.567,-0.72 12.97,3.603 23.773,12.97 32.422,30.979 3.604,7.206 7.207,14.405 8.646,23.052 l 14.403,85.016 -10.81,3.603 -64.12,-69.884 -3.603,-7.197 C 148.964,97.297 145.36,85.054 146.8,72.083 z M 40.9,224.825 c -5.764,-10.81 -5.764,-21.613 -1.443,-32.422 5.046,-13.691 14.407,-24.5 28.098,-30.259 12.961,-7.215 25.925,-9.375 40.337,-5.772 l 19.458,7.927 63.399,46.113 c -5.768,7.197 -9.361,14.404 -11.522,21.61 l -103.745,12.97 -7.206,-1.439 C 55.306,241.389 46.664,235.625 40.9,224.825 z m 87.884,115.988 c -13.691,6.477 -25.213,8.646 -37.464,7.198 -10.81,-0.722 -19.458,-4.324 -23.061,-10.801 l -2.161,-7.928 1.442,-6.479 c 3.603,-10.815 12.97,-21.61 29.543,-29.544 8.643,-3.603 15.849,-7.206 21.613,-8.648 l 57.641,-10.809 5.043,14.412 2.163,5.045 c -10.809,9.361 -18.736,18.007 -27.373,25.935 l -21.619,18.016 -5.767,3.603 z m 112.395,96.547 -0.722,7.207 c -5.043,12.952 -13.691,23.762 -26.655,29.528 -12.964,7.206 -26.655,8.646 -39.628,5.042 -14.401,-3.585 -25.21,-12.233 -30.978,-23.765 -3.603,-7.203 -6.484,-15.852 -6.484,-24.5 l 3.603,-16.559 c 1.442,-7.206 5.046,-14.421 10.81,-20.179 l 60.517,-72.051 c 7.207,3.595 14.404,7.197 22.331,7.919 1.442,24.497 3.604,50.435 7.207,78.532 v 28.826 z m -23.774,-144.1 c -9.367,-8.648 -14.407,-20.899 -14.407,-33.864 0,-12.964 5.04,-23.771 14.407,-33.858 8.64,-7.928 20.17,-12.964 33.861,-12.964 12.97,0 25.213,5.045 33.14,12.964 10.089,10.088 14.413,20.895 14.413,33.858 0,12.965 -4.324,25.216 -14.413,33.864 -9.369,9.361 -20.17,14.404 -33.14,14.404 -13.691,0 -25.221,-5.043 -33.861,-14.404 z M 350.69,419.346 c -1.442,12.97 -5.767,22.331 -14.406,25.934 -5.046,3.604 -10.81,3.604 -16.567,2.873 -13.691,-3.585 -24.501,-14.403 -32.419,-31.697 l -8.649,-23.768 -10.809,-62.684 12.251,-4.324 9.358,-5.043 30.262,30.977 18.728,23.053 3.604,7.206 c 6.483,12.251 10.087,23.778 8.647,37.473 z m 123.921,-84.309 c -3.603,14.422 -12.251,25.222 -24.5,30.98 -12.97,7.206 -25.935,8.648 -40.347,3.603 -8.648,-2.154 -14.406,-5.758 -19.458,-11.516 l -75.647,-62.684 5.043,-10.804 2.169,-8.654 81.414,-7.197 28.816,-0.722 7.206,0.722 c 10.81,3.604 20.9,10.088 26.655,20.892 7.197,7.925 10.801,18.728 10.801,30.979 l -2.152,14.401 z"/>
   </g>
</svg>
