<svg
	 version="1.1"
	 xmlns="http://www.w3.org/2000/svg"
	 xmlns:xlink="http://www.w3.org/1999/xlink"
   x="0px"
   y="0px"
   width="512px"
   height="512px"
   viewBox="0 0 512 512"
   enable-background="new 0 0 512 512"
   id="funeralhome-marker">
<path
   id="funeralhome-marker-shell"
   d="M 256,50 C 162.939,50 87.5,125.44 87.5,218.5 87.5,313 169.43,375.333 256,462 342.57,375.333 424.5,313 424.5,218.5 424.5,125.44 349.061,50 256,50 z m 0,286.958 c -68.275,0 -123.624,-55.349 -123.624,-123.624 0,-68.276 55.349,-123.625 123.624,-123.625 68.276,0 123.625,55.348 123.625,123.625 0,68.275 -55.349,123.624 -123.625,123.624 z"/>
<path
   id="funeralhome-marker-content"
   d="m 191.39702,292.74967 0,-83.47976 -9.27516,9.27564 -13.91322,-23.18883 88.11733,-69.56657 32.46448,25.62982 0,-17.51393 18.5508,-3.47828 0,35.63765 37.10252,29.29131 -13.91368,23.18883 -9.27515,-9.27564 0,83.47976 -129.85792,0 z m 64.92895,-134.88174 -51.01528,42.12637 0,78.84216 27.82643,0 0,-51.01484 46.37771,0 0,51.01484 27.82642,0 0,-78.84216 -51.01528,-42.12637 z"/>
</svg>
