<svg
   
   xmlns:cc="http://creativecommons.org/ns#"
   xmlns:rdf="http://www.w3.org/1999/02/22-rdf-syntax-ns#"
   xmlns:svg="http://www.w3.org/2000/svg"
   xmlns="http://www.w3.org/2000/svg"
   xmlns:xlink="http://www.w3.org/1999/xlink"
   xmlns:sodipodi="http://sodipodi.sourceforge.net/DTD/sodipodi-0.dtd"
   xmlns:inkscape="http://www.inkscape.org/namespaces/inkscape"
   version="1.1"
   x="0px"
   y="0px"
   width="512px"
   height="512px"
   viewBox="0 0 512 512"
   enable-background="new 0 0 512 512"
   
   id="svg2"
   inkscape:version="0.91 r13725"
   sodipodi:docname="furniture_store.svg"><metadata
     id="metadata9"><rdf:RDF><cc:Work
         rdf:about=""><dc:format>image/svg+xml</dc:format><dc:type
           rdf:resource="http://purl.org/dc/dcmitype/StillImage" /><dc:title></dc:title></cc:Work></rdf:RDF></metadata><defs
     id="defs7"><inkscape:perspective
       sodipodi:type="inkscape:persp3d"
       inkscape:vp_x="0 : 0.5 : 1"
       inkscape:vp_y="0 : 1000 : 0"
       inkscape:vp_z="1 : 0.5 : 1"
       inkscape:persp3d-origin="0.5 : 0.33333333 : 1"
       id="perspective2831" /><inkscape:perspective
       sodipodi:type="inkscape:persp3d"
       inkscape:vp_x="0 : 0.5 : 1"
       inkscape:vp_y="0 : 1000 : 0"
       inkscape:vp_z="1 : 0.5 : 1"
       inkscape:persp3d-origin="0.5 : 0.33333333 : 1"
       id="perspective3716" /><inkscape:perspective
       sodipodi:type="inkscape:persp3d"
       inkscape:vp_x="0 : 0.5 : 1"
       inkscape:vp_y="0 : 1000 : 0"
       inkscape:vp_z="1 : 0.5 : 1"
       inkscape:persp3d-origin="0.5 : 0.33333333 : 1"
       id="perspective3283" /><inkscape:perspective
       id="perspective3273"
       inkscape:persp3d-origin="372.04724 : 350.78739 : 1"
       inkscape:vp_z="744.09448 : 526.18109 : 1"
       inkscape:vp_y="0 : 1000 : 0"
       inkscape:vp_x="0 : 526.18109 : 1"
       sodipodi:type="inkscape:persp3d" /><inkscape:perspective
       sodipodi:type="inkscape:persp3d"
       inkscape:vp_x="0 : 0.5 : 1"
       inkscape:vp_y="0 : 1000 : 0"
       inkscape:vp_z="1 : 0.5 : 1"
       inkscape:persp3d-origin="0.5 : 0.33333333 : 1"
       id="perspective3707" /><inkscape:perspective
       sodipodi:type="inkscape:persp3d"
       inkscape:vp_x="0 : 0.5 : 1"
       inkscape:vp_y="0 : 1000 : 0"
       inkscape:vp_z="1 : 0.5 : 1"
       inkscape:persp3d-origin="0.5 : 0.33333333 : 1"
       id="perspective3676" /><inkscape:perspective
       sodipodi:type="inkscape:persp3d"
       inkscape:vp_x="0 : 0.5 : 1"
       inkscape:vp_y="0 : 1000 : 0"
       inkscape:vp_z="1 : 0.5 : 1"
       inkscape:persp3d-origin="0.5 : 0.33333333 : 1"
       id="perspective2884" /><inkscape:perspective
       id="perspective10"
       inkscape:persp3d-origin="372.04724 : 350.78739 : 1"
       inkscape:vp_z="744.09448 : 526.18109 : 1"
       inkscape:vp_y="0 : 1000 : 0"
       inkscape:vp_x="0 : 526.18109 : 1"
       sodipodi:type="inkscape:persp3d" /><style
       type="text/css"
       id="style6">
   
    .fil0 {fill:#EF7900}
   
  </style><linearGradient
       y2="430.10822"
       x2="-774.98901"
       y1="619.61285"
       x1="-776.40326"
       gradientTransform="matrix(0.467111,0,0,0.487697,583.26,486.2726)"
       gradientUnits="userSpaceOnUse"
       id="linearGradient7651"
       xlink:href="#linearGradient5196"
       inkscape:collect="always" /><linearGradient
       y2="295.75793"
       x2="-490.02499"
       y1="350.91223"
       x1="-1027.219"
       gradientTransform="matrix(0.467111,0,0,0.487697,583.26,486.2726)"
       gradientUnits="userSpaceOnUse"
       id="linearGradient7649"
       xlink:href="#linearGradient9619"
       inkscape:collect="always" /><linearGradient
       gradientTransform="matrix(0.467111,0,0,0.487697,583.26,486.2726)"
       y2="295.75793"
       x2="-490.02499"
       y1="350.91223"
       x1="-1027.219"
       gradientUnits="userSpaceOnUse"
       id="linearGradient6736"
       xlink:href="#linearGradient9619"
       inkscape:collect="always" /><linearGradient
       gradientTransform="matrix(0.467111,0,0,0.487697,583.26,486.2726)"
       y2="430.10822"
       x2="-774.98901"
       y1="619.61285"
       x1="-776.40326"
       gradientUnits="userSpaceOnUse"
       id="linearGradient6733"
       xlink:href="#linearGradient5196"
       inkscape:collect="always" /><linearGradient
       y2="430.10822"
       x2="-774.98901"
       y1="619.61285"
       x1="-776.40326"
       gradientUnits="userSpaceOnUse"
       id="linearGradient4075"
       xlink:href="#linearGradient5196"
       inkscape:collect="always" /><linearGradient
       y2="295.75793"
       x2="-490.02499"
       y1="350.91223"
       x1="-1027.219"
       gradientUnits="userSpaceOnUse"
       id="linearGradient4073"
       xlink:href="#linearGradient9619"
       inkscape:collect="always" /><linearGradient
       gradientUnits="userSpaceOnUse"
       y2="295.75793"
       x2="-490.02499"
       y1="350.91223"
       x1="-1027.219"
       id="linearGradient9625"
       xlink:href="#linearGradient9619"
       inkscape:collect="always" /><linearGradient
       gradientUnits="userSpaceOnUse"
       y2="430.10822"
       x2="-774.98901"
       y1="619.61285"
       x1="-776.40326"
       id="linearGradient5202"
       xlink:href="#linearGradient5196"
       inkscape:collect="always" /><linearGradient
       id="linearGradient5196"
       inkscape:collect="always"><stop
         id="stop5198"
         offset="0"
         style="stop-color:#c9c9c9;stop-opacity:1;" /><stop
         id="stop5200"
         offset="1"
         style="stop-color:#c9c9c9;stop-opacity:0;" /></linearGradient><linearGradient
       id="linearGradient9619"><stop
         id="stop9621"
         offset="0"
         style="stop-color:#bbbbbb;stop-opacity:1;" /><stop
         id="stop9623"
         offset="1"
         style="stop-color:#ffffff;stop-opacity:1;" /></linearGradient></defs><sodipodi:namedview
     pagecolor="#ffffff"
     bordercolor="#666666"
     borderopacity="1"
     objecttolerance="10"
     gridtolerance="10"
     guidetolerance="10"
     inkscape:pageopacity="0"
     inkscape:pageshadow="2"
     inkscape:window-width="1920"
     inkscape:window-height="1005"
     id="namedview5"
     showgrid="false"
     inkscape:zoom="0.64"
     inkscape:cx="1057.1364"
     inkscape:cy="533.37845"
     inkscape:window-x="-9"
     inkscape:window-y="-9"
     inkscape:window-maximized="1"
     inkscape:current-layer="svg2" /><path
     id="location-5-icon"
     d="M 256,50 C 162.939,50 87.5,125.44 87.5,218.5 87.5,313 169.43,375.333 256,462 342.57,375.333 424.5,313 424.5,218.5 424.5,125.44 349.061,50 256,50 z m 0,286.958 c -68.275,0 -123.624,-55.349 -123.624,-123.624 0,-68.276 55.349,-123.625 123.624,-123.625 68.276,0 123.625,55.348 123.625,123.625 0,68.275 -55.349,123.624 -123.625,123.624 z"
     inkscape:connector-curvature="0" /><g
     transform="matrix(1.8950809,0,0,1.8950809,160.61201,115.87108)"
     id="g3350"><polygon
       id="polygon6"
       points="17.1,86.7 18.8,91.7 21.2,91.7 22.9,86.7 75.6,86.7 77.2,91.7 79.6,91.7 81.3,86.7 87.8,86.7 88.8,84.2 90.3,80.5 73.5,80.5 71.8,80.5 29.2,80.5 25.3,80.5 10.7,80.5 10.7,80.7 12.1,84.1 13.2,86.7 " /><path
       inkscape:connector-curvature="0"
       id="path8"
       d="m 12.6,35.7 3.3,-0.4 c 0.6,-0.1 1.1,-0.1 1.7,-0.1 6.9,0 12.5,5.8 12.5,13 l 0,0.9 c 5.8,-2.1 12.4,-3.2 19.4,-3.2 7.8,0 15.4,1.4 21.5,4 l 0,-1.8 c 0,-7.2 5.6,-13 12.5,-13 0.6,0 1.1,0 1.7,0.1 l 3.3,0.4 c 1.4,0.2 2.8,0.6 4.1,1.3 0,0 -7.6,-25.5 -43.2,-25.5 -35.6,0 -37.6,24.4 -37.6,24.4 l 0.1,0 c 0.2,0 0.5,-0.1 0.7,-0.1 z" /><path
       inkscape:connector-curvature="0"
       id="path10"
       d="m 30.1,50.7 0,28.3 40.8,0 0,-4.4 0,-23 c -6.1,-2.7 -13.7,-4.2 -21.5,-4.2 -6.9,0 -13.6,1.2 -19.3,3.3 z" /><path
       inkscape:connector-curvature="0"
       id="path12"
       d="m 28.5,79 0,-29.4 0,0 0,-1.5 c 0,-6.8 -5.7,-12.2 -12.4,-11.3 l -3.3,0.4 c -0.2,0 -0.4,0.1 -0.6,0.1 l -0.2,0 c -2.9,0.6 -5.4,2.3 -7,4.8 -1.7,2.7 -2.1,6 -1.3,9.2 l 7.6,27.7 17.2,0 z" /><path
       inkscape:connector-curvature="0"
       id="path14"
       d="M 92,38.5 C 90.8,37.8 89.5,37.4 88.2,37.2 L 84.9,36.8 C 78.2,35.9 72.5,41.3 72.5,48.1 l 0,14.9 0,16 17.2,0 7.5,-27.6 C 98.6,46.3 96.5,41 92,38.5 Z" /></g></svg>