<svg
	 version="1.1"
	 xmlns="http://www.w3.org/2000/svg"
	 xmlns:xlink="http://www.w3.org/1999/xlink"
   x="0px"
   y="0px"
   width="512px"
   height="512px"
   viewBox="0 0 512 512"
   enable-background="new 0 0 512 512"
   id="furniturestore-marker">
   <path
     id="furniturestore-marker-shell"
     d="M 256,50 C 162.939,50 87.5,125.44 87.5,218.5 87.5,313 169.43,375.333 256,462 342.57,375.333 424.5,313 424.5,218.5 424.5,125.44 349.061,50 256,50 z m 0,286.958 c -68.275,0 -123.624,-55.349 -123.624,-123.624 0,-68.276 55.349,-123.625 123.624,-123.625 68.276,0 123.625,55.348 123.625,123.625 0,68.275 -55.349,123.624 -123.625,123.624 z" />
     <g
     transform="matrix(1.8950809,0,0,1.8950809,160.61201,115.87108)"
     id="furniturestore-marker-content">
     <polygon
       id="polygon6"
       points="17.1,86.7 18.8,91.7 21.2,91.7 22.9,86.7 75.6,86.7 77.2,91.7 79.6,91.7 81.3,86.7 87.8,86.7 88.8,84.2 90.3,80.5 73.5,80.5 71.8,80.5 29.2,80.5 25.3,80.5 10.7,80.5 10.7,80.7 12.1,84.1 13.2,86.7 " />
       <path
       id="path8"
       d="m 12.6,35.7 3.3,-0.4 c 0.6,-0.1 1.1,-0.1 1.7,-0.1 6.9,0 12.5,5.8 12.5,13 l 0,0.9 c 5.8,-2.1 12.4,-3.2 19.4,-3.2 7.8,0 15.4,1.4 21.5,4 l 0,-1.8 c 0,-7.2 5.6,-13 12.5,-13 0.6,0 1.1,0 1.7,0.1 l 3.3,0.4 c 1.4,0.2 2.8,0.6 4.1,1.3 0,0 -7.6,-25.5 -43.2,-25.5 -35.6,0 -37.6,24.4 -37.6,24.4 l 0.1,0 c 0.2,0 0.5,-0.1 0.7,-0.1 z" />
       <path
       id="path10"
       d="m 30.1,50.7 0,28.3 40.8,0 0,-4.4 0,-23 c -6.1,-2.7 -13.7,-4.2 -21.5,-4.2 -6.9,0 -13.6,1.2 -19.3,3.3 z" />
       <path
       id="path12"
       d="m 28.5,79 0,-29.4 0,0 0,-1.5 c 0,-6.8 -5.7,-12.2 -12.4,-11.3 l -3.3,0.4 c -0.2,0 -0.4,0.1 -0.6,0.1 l -0.2,0 c -2.9,0.6 -5.4,2.3 -7,4.8 -1.7,2.7 -2.1,6 -1.3,9.2 l 7.6,27.7 17.2,0 z" />
       <path
       id="path14"
       d="M 92,38.5 C 90.8,37.8 89.5,37.4 88.2,37.2 L 84.9,36.8 C 78.2,35.9 72.5,41.3 72.5,48.1 l 0,14.9 0,16 17.2,0 7.5,-27.6 C 98.6,46.3 96.5,41 92,38.5 Z" />
     </g>
</svg>
