<svg
	version="1.1"
	xmlns="http://www.w3.org/2000/svg"
	xmlns:xlink="http://www.w3.org/1999/xlink"
   x="0px"
   y="0px"
   width="512px"
   height="512px"
   viewBox="0 0 512 512"
   enable-background="new 0 0 512 512"
   id="gasstation-marker">
<path
   id="gasstation-marker-shell"
   d="M256,50c-93.061,0-168.5,75.44-168.5,168.5C87.5,313,169.43,375.333,256,462  c86.57-86.667,168.5-149,168.5-243.5C424.5,125.44,349.061,50,256,50z M256,336.958c-68.275,0-123.624-55.349-123.624-123.624  c0-68.276,55.349-123.625,123.624-123.625c68.276,0,123.625,55.348,123.625,123.625C379.625,281.609,324.276,336.958,256,336.958z" />
<path
   id="gasstation-marker-content"
   d="m 275.35202,152.81121 0,41.85379 c 6.13991,-0.40087 20.65748,4.32145 18.55871,58.89276 2.65101,15.90737 21.20971,15.90737 25.18656,-5.30234 3.97684,-15.90737 -6.62819,-15.90737 -11.93053,-63.62948 0,-5.30234 0,-21.20971 -21.20971,-31.81473 l 0,-5.30235 c 21.20971,0 37.11708,26.51206 37.11708,31.81474 0,5.30234 -5.30235,5.30234 -5.30235,5.30234 0,0 1.32551,31.81474 6.62785,37.11708 5.30268,5.30268 3.97684,21.21005 3.97684,31.81474 0,10.60502 -15.90737,21.21005 -21.20971,21.21005 -5.30234,0 -21.20971,0 -21.20971,-15.90737 0,-14.48877 -2.19957,-46.57309 -10.60503,-52.18052 l 0,68.08789 c 2.9283,0 5.30235,2.37371 5.30235,5.30234 l 0,10.60503 -84.83919,0 0,-10.60503 c 0,-2.92863 2.37405,-5.30234 5.30235,-5.30234 l 0,-121.9566 c 0,-5.85693 4.7481,-10.60503 10.60502,-10.60503 l 53.02445,0 c 5.85693,0 10.60502,4.7481 10.60502,10.60503 z m -57.00162,47.72244 39.76842,-3.4e-4 c 2.92863,0 6.62818,-3.69955 6.62818,-6.62785 l 0,-34.46607 c 0,-2.9283 -3.69955,-6.62818 -6.62818,-6.62818 l -39.76809,0 c -2.92863,0 -6.62818,3.69988 -6.62818,6.62818 l 0,34.46607 c 0,2.9283 3.69955,6.62819 6.62785,6.62819 z"/>
</svg>
