<svg
	version="1.1"
	xmlns="http://www.w3.org/2000/svg"
	xmlns:xlink="http://www.w3.org/1999/xlink"
   x="0px"
   y="0px"
   width="512px"
   height="512px"
   viewBox="0 0 512 512"
   enable-background="new 0 0 512 512"
   id="grocery-marker">
<path
   id="grocery-marker-marker"
   d="M256,50c-93.061,0-168.5,75.44-168.5,168.5C87.5,313,169.43,375.333,256,462  c86.57-86.667,168.5-149,168.5-243.5C424.5,125.44,349.061,50,256,50z M256,336.958c-68.275,0-123.624-55.349-123.624-123.624  c0-68.276,55.349-123.625,123.624-123.625c68.276,0,123.625,55.348,123.625,123.625C379.625,281.609,324.276,336.958,256,336.958z" />
<path
   id="grocery-marker-content"
   d="m 300.25959,262.91485 c 10.76625,0 19.49368,8.72745 19.49368,19.4932 0,10.76624 -8.72743,19.49368 -19.49368,19.49368 -10.76575,0 -19.4932,-8.72744 -19.4932,-19.49368 0,-10.76575 8.72745,-19.4932 19.4932,-19.4932 z m -77.97328,0 c 10.76575,0 19.4932,8.72745 19.4932,19.4932 0,10.76624 -8.72745,19.49368 -19.4932,19.49368 -10.76575,0 -19.4932,-8.72744 -19.4932,-19.49368 0,-10.76575 8.72745,-19.4932 19.4932,-19.4932 z m -27.29087,-7.79718 0,-23.39204 -15.59436,-62.37891 -15.59485,0 0,-23.39203 38.98688,0 0,23.39203 148.14938,0 -23.39203,85.77095 -132.55502,0 z m 24.1721,-23.39204 92.0085,0 9.35681,-38.98688 -110.72212,0 9.35681,38.98688 z"/>
</svg>
