<svg
	version="1.1"
	xmlns="http://www.w3.org/2000/svg"
	xmlns:xlink="http://www.w3.org/1999/xlink"
   x="0px"
   y="0px"
   width="512px"
   height="512px"
   viewBox="0 0 512 512"
   enable-background="new 0 0 512 512"
   id="gym-marker">
   <path
     id="gym-marker-shell"
     d="M 256,50 C 162.939,50 87.5,125.44 87.5,218.5 87.5,313 169.43,375.333 256,462 342.57,375.333 424.5,313 424.5,218.5 424.5,125.44 349.061,50 256,50 z m 0,286.958 c -68.275,0 -123.624,-55.349 -123.624,-123.624 0,-68.276 55.349,-123.625 123.624,-123.625 68.276,0 123.625,55.348 123.625,123.625 0,68.275 -55.349,123.624 -123.625,123.624 z"/>
     <path
     id="gym-marker-content"
     d="m 303.41399,160.27193 c -9.05818,0 -16.56233,19.78238 -18.01136,45.71789 l -64.54126,0 c -1.45603,-25.93551 -8.95318,-45.71789 -18.01836,-45.71789 l -8.95317,0 c 8.89717,9.44318 13.52426,32.22863 13.52426,54.85307 0,22.61744 -4.62709,45.40289 -13.52426,54.85307 l 8.95317,0 c 9.05818,0 16.56233,-19.78238 18.01136,-45.71089 l 64.54826,0 c 1.45603,25.92851 8.95318,45.71089 18.01136,45.71089 10.09419,0 18.27735,-24.56348 18.27735,-54.85307 0,-30.29659 -8.18316,-54.85307 -18.27735,-54.85307 z m 36.56171,9.14217 -8.19016,0 c -2.89106,-5.76811 -6.36312,-9.14217 -10.0942,-9.14217 l -8.95317,0 c 8.89717,9.44318 13.53126,32.22863 13.53126,54.85307 0,22.61744 -4.62709,45.40289 -13.53126,54.85307 l 8.95317,0 c 3.73108,0 7.20314,-3.37406 10.0942,-9.14217 l 8.19016,0 c 8.40717,0 15.2323,-20.46841 15.2323,-45.7109 0,-25.24249 -6.82513,-45.7109 -15.2323,-45.7109 z m -173.7014,0 c -8.40717,0 -15.2323,20.46841 -15.2323,45.7109 0,25.24249 6.82513,45.7109 15.2323,45.7109 8.42116,0 15.2393,-20.46841 15.2393,-45.7109 0,-25.24249 -6.82514,-45.7109 -15.2393,-45.7109 z m 0,54.85308 c -2.52705,0 -4.57109,-4.08808 -4.57109,-9.14218 0,-5.0471 2.04404,-9.14218 4.57109,-9.14218 2.52705,0 4.57109,4.09508 4.57109,9.14218 0,5.0541 -2.04404,9.14218 -4.57109,9.14218 z m 18.28436,-63.99525 c -3.61907,0 -6.98614,3.21306 -9.8142,8.66617 7.72816,8.25316 11.34023,27.73454 11.34023,46.1869 0,18.45936 -3.60507,37.93374 -11.34023,46.1869 2.82806,5.44611 6.19513,8.66617 9.8142,8.66617 10.09419,0 18.28435,-24.56348 18.28435,-54.85307 0,-30.29659 -8.19016,-54.85307 -18.28435,-54.85307 z"/>
</svg>
