<svg
	version="1.1"
	xmlns="http://www.w3.org/2000/svg"
	xmlns:xlink="http://www.w3.org/1999/xlink"
   x="0px"
   y="0px"
   width="512px"
   height="512px"
   viewBox="0 0 512 512"
   enable-background="new 0 0 512 512"
   id="lawyer-marker">
<path
   id="lawyer-marker-shell"
   d="M256,50c-93.061,0-168.5,75.44-168.5,168.5C87.5,313,169.43,375.333,256,462  c86.57-86.667,168.5-149,168.5-243.5C424.5,125.44,349.061,50,256,50z M256,336.958c-68.275,0-123.624-55.349-123.624-123.624  c0-68.276,55.349-123.625,123.624-123.625c68.276,0,123.625,55.348,123.625,123.625C379.625,281.609,324.276,336.958,256,336.958z" />
<path
   id="lawyer-marker-content"
   d="m 256.32807,131.60746 c 6.52569,0 5.90815,5.28988 5.90815,11.81558 l 0.39366,11.81594 67.54722,0 0,11.81558 -7.67717,0 31.30908,73.84904 c 0,11.42006 -18.82448,20.67782 -38.40156,20.67782 -19.57709,0 -38.40157,-9.25776 -38.40157,-20.67782 l 31.30909,-73.84904 -45.29107,0 3.55707,106.71222 c 22.81736,1.67051 39.96461,8.80552 39.96461,17.35396 l -100.43465,0 c 0,-8.54844 17.14725,-15.68345 39.9646,-17.35396 l 3.55707,-106.71222 -51.19885,3.8e-4 31.30907,73.84866 c 0,11.42006 -18.82446,20.67782 -38.40155,20.67782 -19.57708,0 -38.40156,-9.25776 -38.40156,-20.67782 l 31.30908,-73.84866 -7.67718,-3.8e-4 0,-11.81558 73.45464,0 0.39403,-11.81594 c 0,-6.5257 -0.6179,-11.81558 5.90779,-11.81558 z m 83.68404,109.29614 -21.65058,-53.58763 0,53.58763 21.65058,0 z m -49.2097,0 21.65095,0 0,-53.58763 -21.65095,53.58763 z m -74.85649,0 -21.65056,-53.58763 0,53.58763 21.65056,0 z m -49.20967,0 21.65094,0 0,-53.58763 -21.65094,53.58763 z"/>
 </svg>
