<?xml version="1.0" encoding="UTF-8" standalone="no"?><svg
   xmlns:dc="http://purl.org/dc/elements/1.1/"
   xmlns:cc="http://creativecommons.org/ns#"
   xmlns:rdf="http://www.w3.org/1999/02/22-rdf-syntax-ns#"
   xmlns:svg="http://www.w3.org/2000/svg"
   xmlns="http://www.w3.org/2000/svg"
   xmlns:sodipodi="http://sodipodi.sourceforge.net/DTD/sodipodi-0.dtd"
   xmlns:inkscape="http://www.inkscape.org/namespaces/inkscape"
   version="1.1"
   x="0px"
   y="0px"
   width="512px"
   height="512px"
   viewBox="0 0 512 512"
   enable-background="new 0 0 512 512"
   xml:space="preserve"
   id="svg2"
   inkscape:version="0.48.4 r9939"
   sodipodi:docname="jewlery.svg"><metadata
   id="metadata9"><rdf:RDF><cc:Work
       rdf:about=""><dc:format>image/svg+xml</dc:format><dc:type
         rdf:resource="http://purl.org/dc/dcmitype/StillImage" /><dc:title></dc:title></cc:Work></rdf:RDF></metadata><defs
   id="defs7" /><sodipodi:namedview
   pagecolor="#ffffff"
   bordercolor="#666666"
   borderopacity="1"
   objecttolerance="10"
   gridtolerance="10"
   guidetolerance="10"
   inkscape:pageopacity="0"
   inkscape:pageshadow="2"
   inkscape:window-width="913"
   inkscape:window-height="1041"
   id="namedview5"
   showgrid="false"
   inkscape:zoom="0.76171875"
   inkscape:cx="249.14118"
   inkscape:cy="241.12634"
   inkscape:window-x="2911"
   inkscape:window-y="0"
   inkscape:window-maximized="0"
   inkscape:current-layer="svg2" />
<path
   id="location-5-icon"
   d="M256,50c-93.061,0-168.5,75.44-168.5,168.5C87.5,313,169.43,375.333,256,462  c86.57-86.667,168.5-149,168.5-243.5C424.5,125.44,349.061,50,256,50z M256,336.958c-68.275,0-123.624-55.349-123.624-123.624  c0-68.276,55.349-123.625,123.624-123.625c68.276,0,123.625,55.348,123.625,123.625C379.625,281.609,324.276,336.958,256,336.958z" />
<path
   id="path4779"
   d="m 256.32807,131.60746 c 6.52569,0 5.90815,5.28988 5.90815,11.81558 l 0.39366,11.81594 67.54722,0 0,11.81558 -7.67717,0 31.30908,73.84904 c 0,11.42006 -18.82448,20.67782 -38.40156,20.67782 -19.57709,0 -38.40157,-9.25776 -38.40157,-20.67782 l 31.30909,-73.84904 -45.29107,0 3.55707,106.71222 c 22.81736,1.67051 39.96461,8.80552 39.96461,17.35396 l -100.43465,0 c 0,-8.54844 17.14725,-15.68345 39.9646,-17.35396 l 3.55707,-106.71222 -51.19885,3.8e-4 31.30907,73.84866 c 0,11.42006 -18.82446,20.67782 -38.40155,20.67782 -19.57708,0 -38.40156,-9.25776 -38.40156,-20.67782 l 31.30908,-73.84866 -7.67718,-3.8e-4 0,-11.81558 73.45464,0 0.39403,-11.81594 c 0,-6.5257 -0.6179,-11.81558 5.90779,-11.81558 z m 83.68404,109.29614 -21.65058,-53.58763 0,53.58763 21.65058,0 z m -49.2097,0 21.65095,0 0,-53.58763 -21.65095,53.58763 z m -74.85649,0 -21.65056,-53.58763 0,53.58763 21.65056,0 z m -49.20967,0 21.65094,0 0,-53.58763 -21.65094,53.58763 z"
   inkscape:connector-curvature="0"
   style="fill:#000000;fill-opacity:1;stroke-width:0.2;stroke-linejoin:round" /></svg>