<?xml version="1.0" encoding="UTF-8" standalone="no"?><svg
   xmlns:dc="http://purl.org/dc/elements/1.1/"
   xmlns:cc="http://creativecommons.org/ns#"
   xmlns:rdf="http://www.w3.org/1999/02/22-rdf-syntax-ns#"
   xmlns:svg="http://www.w3.org/2000/svg"
   xmlns="http://www.w3.org/2000/svg"
   xmlns:xlink="http://www.w3.org/1999/xlink"
   xmlns:sodipodi="http://sodipodi.sourceforge.net/DTD/sodipodi-0.dtd"
   xmlns:inkscape="http://www.inkscape.org/namespaces/inkscape"
   version="1.1"
   x="0px"
   y="0px"
   width="512px"
   height="512px"
   viewBox="0 0 512 512"
   enable-background="new 0 0 512 512"
   xml:space="preserve"
   id="svg2"
   inkscape:version="0.91 r13725"
   sodipodi:docname="liquor_store.svg"><metadata
     id="metadata9"><rdf:RDF><cc:Work
         rdf:about=""><dc:format>image/svg+xml</dc:format><dc:type
           rdf:resource="http://purl.org/dc/dcmitype/StillImage" /><dc:title></dc:title></cc:Work></rdf:RDF></metadata><defs
     id="defs7"><inkscape:perspective
       sodipodi:type="inkscape:persp3d"
       inkscape:vp_x="0 : 0.5 : 1"
       inkscape:vp_y="0 : 1000 : 0"
       inkscape:vp_z="1 : 0.5 : 1"
       inkscape:persp3d-origin="0.5 : 0.33333333 : 1"
       id="perspective2831" /><inkscape:perspective
       sodipodi:type="inkscape:persp3d"
       inkscape:vp_x="0 : 0.5 : 1"
       inkscape:vp_y="0 : 1000 : 0"
       inkscape:vp_z="1 : 0.5 : 1"
       inkscape:persp3d-origin="0.5 : 0.33333333 : 1"
       id="perspective3716" /><inkscape:perspective
       sodipodi:type="inkscape:persp3d"
       inkscape:vp_x="0 : 0.5 : 1"
       inkscape:vp_y="0 : 1000 : 0"
       inkscape:vp_z="1 : 0.5 : 1"
       inkscape:persp3d-origin="0.5 : 0.33333333 : 1"
       id="perspective3283" /><inkscape:perspective
       id="perspective3273"
       inkscape:persp3d-origin="372.04724 : 350.78739 : 1"
       inkscape:vp_z="744.09448 : 526.18109 : 1"
       inkscape:vp_y="0 : 1000 : 0"
       inkscape:vp_x="0 : 526.18109 : 1"
       sodipodi:type="inkscape:persp3d" /><inkscape:perspective
       sodipodi:type="inkscape:persp3d"
       inkscape:vp_x="0 : 0.5 : 1"
       inkscape:vp_y="0 : 1000 : 0"
       inkscape:vp_z="1 : 0.5 : 1"
       inkscape:persp3d-origin="0.5 : 0.33333333 : 1"
       id="perspective3707" /><inkscape:perspective
       sodipodi:type="inkscape:persp3d"
       inkscape:vp_x="0 : 0.5 : 1"
       inkscape:vp_y="0 : 1000 : 0"
       inkscape:vp_z="1 : 0.5 : 1"
       inkscape:persp3d-origin="0.5 : 0.33333333 : 1"
       id="perspective3676" /><inkscape:perspective
       sodipodi:type="inkscape:persp3d"
       inkscape:vp_x="0 : 0.5 : 1"
       inkscape:vp_y="0 : 1000 : 0"
       inkscape:vp_z="1 : 0.5 : 1"
       inkscape:persp3d-origin="0.5 : 0.33333333 : 1"
       id="perspective2884" /><inkscape:perspective
       id="perspective10"
       inkscape:persp3d-origin="372.04724 : 350.78739 : 1"
       inkscape:vp_z="744.09448 : 526.18109 : 1"
       inkscape:vp_y="0 : 1000 : 0"
       inkscape:vp_x="0 : 526.18109 : 1"
       sodipodi:type="inkscape:persp3d" /><style
       type="text/css"
       id="style6">
   
    .fil0 {fill:#EF7900}
   
  </style><linearGradient
       y2="430.10822"
       x2="-774.98901"
       y1="619.61285"
       x1="-776.40326"
       gradientTransform="matrix(0.467111,0,0,0.487697,583.26,486.2726)"
       gradientUnits="userSpaceOnUse"
       id="linearGradient7651"
       xlink:href="#linearGradient5196"
       inkscape:collect="always" /><linearGradient
       y2="295.75793"
       x2="-490.02499"
       y1="350.91223"
       x1="-1027.219"
       gradientTransform="matrix(0.467111,0,0,0.487697,583.26,486.2726)"
       gradientUnits="userSpaceOnUse"
       id="linearGradient7649"
       xlink:href="#linearGradient9619"
       inkscape:collect="always" /><linearGradient
       gradientTransform="matrix(0.467111,0,0,0.487697,583.26,486.2726)"
       y2="295.75793"
       x2="-490.02499"
       y1="350.91223"
       x1="-1027.219"
       gradientUnits="userSpaceOnUse"
       id="linearGradient6736"
       xlink:href="#linearGradient9619"
       inkscape:collect="always" /><linearGradient
       gradientTransform="matrix(0.467111,0,0,0.487697,583.26,486.2726)"
       y2="430.10822"
       x2="-774.98901"
       y1="619.61285"
       x1="-776.40326"
       gradientUnits="userSpaceOnUse"
       id="linearGradient6733"
       xlink:href="#linearGradient5196"
       inkscape:collect="always" /><linearGradient
       y2="430.10822"
       x2="-774.98901"
       y1="619.61285"
       x1="-776.40326"
       gradientUnits="userSpaceOnUse"
       id="linearGradient4075"
       xlink:href="#linearGradient5196"
       inkscape:collect="always" /><linearGradient
       y2="295.75793"
       x2="-490.02499"
       y1="350.91223"
       x1="-1027.219"
       gradientUnits="userSpaceOnUse"
       id="linearGradient4073"
       xlink:href="#linearGradient9619"
       inkscape:collect="always" /><linearGradient
       gradientUnits="userSpaceOnUse"
       y2="295.75793"
       x2="-490.02499"
       y1="350.91223"
       x1="-1027.219"
       id="linearGradient9625"
       xlink:href="#linearGradient9619"
       inkscape:collect="always" /><linearGradient
       gradientUnits="userSpaceOnUse"
       y2="430.10822"
       x2="-774.98901"
       y1="619.61285"
       x1="-776.40326"
       id="linearGradient5202"
       xlink:href="#linearGradient5196"
       inkscape:collect="always" /><linearGradient
       id="linearGradient5196"
       inkscape:collect="always"><stop
         id="stop5198"
         offset="0"
         style="stop-color:#c9c9c9;stop-opacity:1;" /><stop
         id="stop5200"
         offset="1"
         style="stop-color:#c9c9c9;stop-opacity:0;" /></linearGradient><linearGradient
       id="linearGradient9619"><stop
         id="stop9621"
         offset="0"
         style="stop-color:#bbbbbb;stop-opacity:1;" /><stop
         id="stop9623"
         offset="1"
         style="stop-color:#ffffff;stop-opacity:1;" /></linearGradient></defs><sodipodi:namedview
     pagecolor="#ffffff"
     bordercolor="#666666"
     borderopacity="1"
     objecttolerance="10"
     gridtolerance="10"
     guidetolerance="10"
     inkscape:pageopacity="0"
     inkscape:pageshadow="2"
     inkscape:window-width="1920"
     inkscape:window-height="1005"
     id="namedview5"
     showgrid="false"
     inkscape:zoom="0.64"
     inkscape:cx="1057.1364"
     inkscape:cy="533.37845"
     inkscape:window-x="-9"
     inkscape:window-y="-9"
     inkscape:window-maximized="1"
     inkscape:current-layer="svg2" /><path
     id="location-5-icon"
     d="M 256,50 C 162.939,50 87.5,125.44 87.5,218.5 87.5,313 169.43,375.333 256,462 342.57,375.333 424.5,313 424.5,218.5 424.5,125.44 349.061,50 256,50 z m 0,286.958 c -68.275,0 -123.624,-55.349 -123.624,-123.624 0,-68.276 55.349,-123.625 123.624,-123.625 68.276,0 123.625,55.348 123.625,123.625 0,68.275 -55.349,123.624 -123.625,123.624 z"
     inkscape:connector-curvature="0" /><g
     transform="matrix(2.2867647,0,0,2.2867647,135.66176,98.194853)"
     id="g4"><path
       inkscape:connector-curvature="0"
       d="M 83.8,23 C 81.4,15.1 51.3,15 50,15 48.7,15 18.5,15.1 16.2,23 l -0.2,0 0,40 0,0 0,20 0.8,0.6 C 17.2,83.9 26,90 50,90 74,90 82.8,83.9 83.2,83.6 L 84,83 84,63 83.2,63 84,63 84,23 83.8,23 Z M 67.5,84.7 80,72.1 80,74.9 70.9,84 c -1.1,0.2 -2.2,0.4 -3.4,0.7 z M 52.6,86 63.3,75.3 c 0.9,-0.1 1.8,-0.2 2.6,-0.4 L 55,85.9 c -0.8,0 -1.6,0.1 -2.4,0.1 z m -13,-0.5 9.6,-9.6 c 0.3,0 0.6,0 0.9,0 0.7,0 1.3,0 1.9,0 l -9.8,9.8 c -0.9,0 -1.8,-0.1 -2.6,-0.2 z m -11.7,-1.8 8.5,-8.5 c 0.8,0.1 1.6,0.2 2.5,0.3 l -8.7,8.7 C 29.4,84 28.6,83.8 27.9,83.7 Z M 22.2,81.9 30,74.1 c 0.8,0.2 1.7,0.4 2.7,0.6 l -8.1,8.1 C 23.7,82.4 22.9,82.1 22.2,81.9 Z M 69,56.9 C 63.7,59.8 57.5,62.1 51.5,61 l 0,-14.5 c 0,-0.5 0.5,-1 1,-1 l 15.5,0 c 0.5,0 1,0.5 1,1 l 0,10.4 z M 47.5,59.8 C 46.3,59.2 45,58.4 43.9,57.4 l 3.6,-3.6 0,6 z M 44.9,50.7 41,54.6 C 34,47.7 28.5,46.1 24.7,46.2 l 7.8,-7.8 c 0.3,-0.3 0.6,-0.3 0.7,-0.3 0.2,0 0.5,0 0.7,0.3 l 11,11 c 0.4,0.2 0.4,0.9 0,1.3 z M 20,69.7 c 0.6,0.4 1.2,0.9 1.9,1.3 l -1.9,1.9 0,-3.2 z m 0,7.4 c 0,0 0,0 0,0 l 4.8,-4.8 c 0.6,0.3 1.3,0.5 2,0.8 l -6.8,6.8 0,-2.8 z m 22.8,-1.3 c 0.7,0 1.4,0.1 2.2,0.1 l -9,9 C 35.9,85 35.9,85 35.9,85.1 35.2,85 34.5,84.9 33.9,84.8 l 8.9,-9 z m 13.5,0 c 0.8,0 1.6,-0.1 2.4,-0.1 L 48.4,85.9 c 0,0 0,0 0,0 -0.8,0 -1.5,0 -2.2,0 L 56.3,75.8 Z m 15.2,-2.2 c 1.6,-0.5 3,-1 4.3,-1.5 L 62.9,84.9 c -0.1,0.1 -0.2,0.3 -0.3,0.4 -1,0.1 -2.1,0.2 -3.2,0.3 l 12.1,-12 z M 80,49 c -1.3,1.2 -3.8,3.3 -7,5.5 l 0,-8 c 0,-2.8 -2.2,-5 -5,-5 l -15.5,0 c -2.6,0 -4.8,2.1 -5,4.7 L 36.8,35.5 C 35.9,34.6 34.6,34 33.3,34 32,34 30.7,34.5 29.8,35.5 L 20,45.2 20,28.7 C 28.8,33 48.9,33 50,33 51.1,33 71.2,32.9 80,28.7 L 80,49 Z M 50,19 c 18,0 28.6,3.1 29.9,5 -1.3,1.9 -12,5 -29.9,5 C 32.1,29 21.4,25.9 20.1,24 21.4,22.1 32,19 50,19 Z m 26.9,63.2 3.1,-3.1 0,1.7 c -0.6,0.4 -1.7,0.9 -3.1,1.4 z"
       id="path6" /></g></svg>