<?xml version="1.0" encoding="UTF-8" standalone="no"?><svg
   xmlns:dc="http://purl.org/dc/elements/1.1/"
   xmlns:cc="http://creativecommons.org/ns#"
   xmlns:rdf="http://www.w3.org/1999/02/22-rdf-syntax-ns#"
   xmlns:svg="http://www.w3.org/2000/svg"
   xmlns="http://www.w3.org/2000/svg"
   xmlns:xlink="http://www.w3.org/1999/xlink"
   xmlns:sodipodi="http://sodipodi.sourceforge.net/DTD/sodipodi-0.dtd"
   xmlns:inkscape="http://www.inkscape.org/namespaces/inkscape"
   version="1.1"
   x="0px"
   y="0px"
   width="512px"
   height="512px"
   viewBox="0 0 512 512"
   enable-background="new 0 0 512 512"
   xml:space="preserve"
   id="svg2"
   inkscape:version="0.48.4 r9939"
   sodipodi:docname="hindu_temple.svg"><metadata
   id="metadata9"><rdf:RDF><cc:Work
       rdf:about=""><dc:format>image/svg+xml</dc:format><dc:type
         rdf:resource="http://purl.org/dc/dcmitype/StillImage" /><dc:title></dc:title></cc:Work></rdf:RDF></metadata><defs
   id="defs7"><inkscape:perspective
     sodipodi:type="inkscape:persp3d"
     inkscape:vp_x="0 : 0.5 : 1"
     inkscape:vp_y="0 : 1000 : 0"
     inkscape:vp_z="1 : 0.5 : 1"
     inkscape:persp3d-origin="0.5 : 0.33333333 : 1"
     id="perspective2831" /><inkscape:perspective
     sodipodi:type="inkscape:persp3d"
     inkscape:vp_x="0 : 0.5 : 1"
     inkscape:vp_y="0 : 1000 : 0"
     inkscape:vp_z="1 : 0.5 : 1"
     inkscape:persp3d-origin="0.5 : 0.33333333 : 1"
     id="perspective3716" /><inkscape:perspective
     sodipodi:type="inkscape:persp3d"
     inkscape:vp_x="0 : 0.5 : 1"
     inkscape:vp_y="0 : 1000 : 0"
     inkscape:vp_z="1 : 0.5 : 1"
     inkscape:persp3d-origin="0.5 : 0.33333333 : 1"
     id="perspective3283" /><inkscape:perspective
     id="perspective3273"
     inkscape:persp3d-origin="372.04724 : 350.78739 : 1"
     inkscape:vp_z="744.09448 : 526.18109 : 1"
     inkscape:vp_y="0 : 1000 : 0"
     inkscape:vp_x="0 : 526.18109 : 1"
     sodipodi:type="inkscape:persp3d" /><inkscape:perspective
     sodipodi:type="inkscape:persp3d"
     inkscape:vp_x="0 : 0.5 : 1"
     inkscape:vp_y="0 : 1000 : 0"
     inkscape:vp_z="1 : 0.5 : 1"
     inkscape:persp3d-origin="0.5 : 0.33333333 : 1"
     id="perspective3707" /><inkscape:perspective
     sodipodi:type="inkscape:persp3d"
     inkscape:vp_x="0 : 0.5 : 1"
     inkscape:vp_y="0 : 1000 : 0"
     inkscape:vp_z="1 : 0.5 : 1"
     inkscape:persp3d-origin="0.5 : 0.33333333 : 1"
     id="perspective3676" /><inkscape:perspective
     sodipodi:type="inkscape:persp3d"
     inkscape:vp_x="0 : 0.5 : 1"
     inkscape:vp_y="0 : 1000 : 0"
     inkscape:vp_z="1 : 0.5 : 1"
     inkscape:persp3d-origin="0.5 : 0.33333333 : 1"
     id="perspective2884" /><inkscape:perspective
     id="perspective10"
     inkscape:persp3d-origin="372.04724 : 350.78739 : 1"
     inkscape:vp_z="744.09448 : 526.18109 : 1"
     inkscape:vp_y="0 : 1000 : 0"
     inkscape:vp_x="0 : 526.18109 : 1"
     sodipodi:type="inkscape:persp3d" /><style
     type="text/css"
     id="style6">
   
    .fil0 {fill:#EF7900}
   
  </style><linearGradient
     y2="430.10822"
     x2="-774.98901"
     y1="619.61285"
     x1="-776.40326"
     gradientTransform="matrix(0.467111,0,0,0.487697,583.26,486.2726)"
     gradientUnits="userSpaceOnUse"
     id="linearGradient7651"
     xlink:href="#linearGradient5196"
     inkscape:collect="always" /><linearGradient
     y2="295.75793"
     x2="-490.02499"
     y1="350.91223"
     x1="-1027.219"
     gradientTransform="matrix(0.467111,0,0,0.487697,583.26,486.2726)"
     gradientUnits="userSpaceOnUse"
     id="linearGradient7649"
     xlink:href="#linearGradient9619"
     inkscape:collect="always" /><linearGradient
     gradientTransform="matrix(0.467111,0,0,0.487697,583.26,486.2726)"
     y2="295.75793"
     x2="-490.02499"
     y1="350.91223"
     x1="-1027.219"
     gradientUnits="userSpaceOnUse"
     id="linearGradient6736"
     xlink:href="#linearGradient9619"
     inkscape:collect="always" /><linearGradient
     gradientTransform="matrix(0.467111,0,0,0.487697,583.26,486.2726)"
     y2="430.10822"
     x2="-774.98901"
     y1="619.61285"
     x1="-776.40326"
     gradientUnits="userSpaceOnUse"
     id="linearGradient6733"
     xlink:href="#linearGradient5196"
     inkscape:collect="always" /><linearGradient
     y2="430.10822"
     x2="-774.98901"
     y1="619.61285"
     x1="-776.40326"
     gradientUnits="userSpaceOnUse"
     id="linearGradient4075"
     xlink:href="#linearGradient5196"
     inkscape:collect="always" /><linearGradient
     y2="295.75793"
     x2="-490.02499"
     y1="350.91223"
     x1="-1027.219"
     gradientUnits="userSpaceOnUse"
     id="linearGradient4073"
     xlink:href="#linearGradient9619"
     inkscape:collect="always" /><linearGradient
     gradientUnits="userSpaceOnUse"
     y2="295.75793"
     x2="-490.02499"
     y1="350.91223"
     x1="-1027.219"
     id="linearGradient9625"
     xlink:href="#linearGradient9619"
     inkscape:collect="always" /><linearGradient
     gradientUnits="userSpaceOnUse"
     y2="430.10822"
     x2="-774.98901"
     y1="619.61285"
     x1="-776.40326"
     id="linearGradient5202"
     xlink:href="#linearGradient5196"
     inkscape:collect="always" /><linearGradient
     id="linearGradient5196"
     inkscape:collect="always"><stop
       id="stop5198"
       offset="0"
       style="stop-color:#c9c9c9;stop-opacity:1;" /><stop
       id="stop5200"
       offset="1"
       style="stop-color:#c9c9c9;stop-opacity:0;" /></linearGradient><linearGradient
     id="linearGradient9619"><stop
       id="stop9621"
       offset="0"
       style="stop-color:#bbbbbb;stop-opacity:1;" /><stop
       id="stop9623"
       offset="1"
       style="stop-color:#ffffff;stop-opacity:1;" /></linearGradient></defs><sodipodi:namedview
   pagecolor="#ffffff"
   bordercolor="#666666"
   borderopacity="1"
   objecttolerance="10"
   gridtolerance="10"
   guidetolerance="10"
   inkscape:pageopacity="0"
   inkscape:pageshadow="2"
   inkscape:window-width="913"
   inkscape:window-height="1041"
   id="namedview5"
   showgrid="false"
   inkscape:zoom="0.90509668"
   inkscape:cx="524.89732"
   inkscape:cy="373.82751"
   inkscape:window-x="2911"
   inkscape:window-y="0"
   inkscape:window-maximized="0"
   inkscape:current-layer="svg2" />
<path
   id="location-5-icon"
   d="M 256,50 C 162.939,50 87.5,125.44 87.5,218.5 87.5,313 169.43,375.333 256,462 342.57,375.333 424.5,313 424.5,218.5 424.5,125.44 349.061,50 256,50 z m 0,286.958 c -68.275,0 -123.624,-55.349 -123.624,-123.624 0,-68.276 55.349,-123.625 123.624,-123.625 68.276,0 123.625,55.348 123.625,123.625 0,68.275 -55.349,123.624 -123.625,123.624 z"
   inkscape:connector-curvature="0" />
<g
   transform="matrix(2.2064231,0,0,2.2064231,143.79535,-2011.2037)"
   id="layer1"><path
     style="color:#000000;fill:#000000;fill-opacity:1;fill-rule:nonzero;stroke:none;stroke-width:1;marker:none;visibility:visible;display:inline;overflow:visible;enable-background:accumulate"
     id="rect7645-6"
     d="m 49.999995,964.86205 -31.249997,20.83332 62.499997,0 z m -27.08333,24.99998 c -2.308375,0 -4.166667,1.85833 -4.166667,4.16666 l 0,29.16671 -7.291666,12.5 c -0.618084,1.0596 -1.041667,1.4862 -1.041667,2.0833 0,2.0833 2.631875,2.0833 4.166667,2.0833 l 70.833333,0 c 1.47913,0 4.16667,0 4.16667,-2.0833 0,-0.6092 -0.36084,-0.9162 -1.04167,-2.0833 l -7.29167,-12.5 0,-29.16671 c 0,-2.30833 -1.85829,-4.16666 -4.16666,-4.16666 z m 8.333333,8.33333 c 2.308334,0 3.787167,1.88954 4.166667,4.16664 l 0,25 -8.333333,0 0,-8.3333 0,-16.6667 c 0,-2.3083 1.858333,-4.16664 4.166666,-4.16664 z m 18.749997,0 c 2.30834,0 4.20275,1.85874 4.16667,4.16664 l 0,16.6667 0,8.3333 -8.33333,0 0,-8.3333 0,-16.6667 c 0,-2.3083 1.85833,-4.16664 4.16666,-4.16664 z m 18.75,0 c 2.30834,0 4.16667,1.85834 4.16667,4.16664 l 0,25 -8.33333,0 0,-8.3333 0,-16.6667 c 0,-2.3083 1.85833,-4.16664 4.16666,-4.16664 z"
     inkscape:connector-curvature="0" /></g></svg>