<svg
	version="1.1"
	xmlns="http://www.w3.org/2000/svg"
	xmlns:xlink="http://www.w3.org/1999/xlink"
   x="0px"
   y="0px"
   width="512px"
   height="512px"
   viewBox="0 0 512 512"
   enable-background="new 0 0 512 512"
   id="locksmith-marker">
   <path
     id="locksmith-marker-shell"
     d="M 256,50 C 162.939,50 87.5,125.44 87.5,218.5 87.5,313 169.43,375.333 256,462 342.57,375.333 424.5,313 424.5,218.5 424.5,125.44 349.061,50 256,50 z m 0,286.958 c -68.275,0 -123.624,-55.349 -123.624,-123.624 0,-68.276 55.349,-123.625 123.624,-123.625 68.276,0 123.625,55.348 123.625,123.625 0,68.275 -55.349,123.624 -123.625,123.624 z"/>
     <path
     id="locksmith-marker-content"
     d="m 303.15206,176.81839 -96.93167,0 c -8.56492,0 -15.50744,6.2388 -15.50744,13.92598 l 0,97.48697 c 0,7.68974 6.94252,13.97716 15.50744,13.97716 l 96.93167,0 c 8.56491,0 15.50999,-6.28742 15.50999,-13.97716 l 0,-97.48441 c 0,-7.68974 -6.94508,-13.92854 -15.50999,-13.92854 z m -60.2154,84.08303 6.64567,-26.053 c -2.43359,-1.64287 -4.03296,-4.42448 -4.03296,-7.5797 0,-5.04887 4.09182,-9.13813 9.13813,-9.13813 5.04631,0 9.13813,4.09182 9.13813,9.13813 0,3.15522 -1.59937,5.93683 -4.03296,7.5797 l 6.64567,26.053 -23.50168,0 z"/>
     <path
     id="path6"
     d="m 298.19019,172.54234 c -5.65279,0 -10.23593,-4.58314 -10.23593,-10.23593 -0.0691,-4.81089 -2.01136,-29.1724 -33.26676,-29.1724 -31.2554,0 -33.19511,23.87018 -33.26676,28.75272 -0.0819,5.5965 -4.64455,9.63201 -10.23593,9.63201 -0.0256,0 -0.0512,0 -0.0768,0 -5.62208,0 -10.15916,-4.08158 -10.15916,-9.70366 0,-17.17076 11.23137,-49.39858 53.73862,-49.39858 42.50724,0 53.73862,32.59631 53.73862,49.76708 0,5.65279 -4.58314,10.35876 -10.23593,10.35876 z" />
</svg>
