<svg
   
   xmlns:cc="http://creativecommons.org/ns#"
   xmlns:rdf="http://www.w3.org/1999/02/22-rdf-syntax-ns#"
   xmlns:svg="http://www.w3.org/2000/svg"
   xmlns="http://www.w3.org/2000/svg"
   xmlns:sodipodi="http://sodipodi.sourceforge.net/DTD/sodipodi-0.dtd"
   xmlns:inkscape="http://www.inkscape.org/namespaces/inkscape"
   version="1.1"
   x="0px"
   y="0px"
   width="512px"
   height="512px"
   viewBox="0 0 512 512"
   enable-background="new 0 0 512 512"
   
   id="svg2"
   
   sodipodi:docname="store.svg"><metadata
   id="metadata9"><rdf:RDF><cc:Work
       rdf:about=""><dc:format>image/svg+xml</dc:format><dc:type
         rdf:resource="http://purl.org/dc/dcmitype/StillImage" /><dc:title></dc:title></cc:Work></rdf:RDF></metadata><defs
   id="defs7" /><sodipodi:namedview
   pagecolor="#ffffff"
   bordercolor="#666666"
   borderopacity="1"
   objecttolerance="10"
   gridtolerance="10"
   guidetolerance="10"
   inkscape:pageopacity="0"
   inkscape:pageshadow="2"
   inkscape:window-width="1253"
   inkscape:window-height="1041"
   id="namedview5"
   showgrid="false"
   inkscape:zoom="0.4609375"
   inkscape:cx="256"
   inkscape:cy="256"
   inkscape:window-x="2571"
   inkscape:window-y="0"
   inkscape:window-maximized="0"
   inkscape:current-layer="svg2" />
<path
   id="location-5-icon"
   d="M256,50c-93.061,0-168.5,75.44-168.5,168.5C87.5,313,169.43,375.333,256,462  c86.57-86.667,168.5-149,168.5-243.5C424.5,125.44,349.061,50,256,50z M256,336.958c-68.275,0-123.624-55.349-123.624-123.624  c0-68.276,55.349-123.625,123.624-123.625c68.276,0,123.625,55.348,123.625,123.625C379.625,281.609,324.276,336.958,256,336.958z" />
<path
   id="path3615"
   d="m 159.48449,163.22881 29.02943,0 0,72.57428 159.66259,0 0,21.77219 0,21.77219 -21.77219,0 0,-21.77219 -137.8904,0 0,21.77219 -29.02943,0 0,-116.11866 z m 181.43478,65.31657 -97.97487,0 0,-43.54392 c 33.86791,0 56.84972,0 74.99306,7.25724 18.14334,7.25725 20.56257,21.7722 22.98181,36.28668 z m -145.1481,-18.14334 29.02989,3.62886 0,14.51448 -29.02989,0 0,-18.14334 z m 14.51495,-32.65828 c 8.01629,0 14.51494,6.49865 14.51494,14.51494 0,8.0163 -6.49865,14.51449 -14.51494,14.51449 -8.0163,0 -14.51495,-6.49819 -14.51495,-14.51449 0,-8.01629 6.49865,-14.51494 14.51495,-14.51494 z m 19.95799,7.25724 9.07144,0 0,43.54438 -9.07144,0 0,-43.54438 z"
   inkscape:connector-curvature="0"
   style="fill:#000000;fill-opacity:1;stroke-width:0.2;stroke-linejoin:round" /></svg>