<svg
   
   xmlns:cc="http://creativecommons.org/ns#"
   xmlns:rdf="http://www.w3.org/1999/02/22-rdf-syntax-ns#"
   xmlns:svg="http://www.w3.org/2000/svg"
   xmlns="http://www.w3.org/2000/svg"
   xmlns:sodipodi="http://sodipodi.sourceforge.net/DTD/sodipodi-0.dtd"
   xmlns:inkscape="http://www.inkscape.org/namespaces/inkscape"
   version="1.1"
   x="0px"
   y="0px"
   width="512px"
   height="512px"
   viewBox="0 0 512 512"
   enable-background="new 0 0 512 512"
   
   id="svg2"
   
   sodipodi:docname="painter.svg"><metadata
   id="metadata9"><rdf:RDF><cc:Work
       rdf:about=""><dc:format>image/svg+xml</dc:format><dc:type
         rdf:resource="http://purl.org/dc/dcmitype/StillImage" /><dc:title></dc:title></cc:Work></rdf:RDF></metadata><defs
   id="defs7" /><sodipodi:namedview
   pagecolor="#ffffff"
   bordercolor="#666666"
   borderopacity="1"
   objecttolerance="10"
   gridtolerance="10"
   guidetolerance="10"
   inkscape:pageopacity="0"
   inkscape:pageshadow="2"
   inkscape:window-width="640"
   inkscape:window-height="834"
   id="namedview5"
   showgrid="false"
   inkscape:zoom="0.76171875"
   inkscape:cx="249.14118"
   inkscape:cy="241.12634"
   inkscape:window-x="2978"
   inkscape:window-y="112"
   inkscape:window-maximized="0"
   inkscape:current-layer="svg2" />
<path
   id="location-5-icon"
   d="M256,50c-93.061,0-168.5,75.44-168.5,168.5C87.5,313,169.43,375.333,256,462  c86.57-86.667,168.5-149,168.5-243.5C424.5,125.44,349.061,50,256,50z M256,336.958c-68.275,0-123.624-55.349-123.624-123.624  c0-68.276,55.349-123.625,123.624-123.625c68.276,0,123.625,55.348,123.625,123.625C379.625,281.609,324.276,336.958,256,336.958z" />
<path
   id="path4592"
   d="m 306.46763,126.72307 6.99311,0 0,167.83482 c 0,5.14973 -4.17442,9.32416 -9.32415,9.32416 l -4.66208,0 c -5.14973,0 -9.32416,-4.17443 -9.32416,-9.32416 l 0,-46.62078 -9.32415,0 c 0,-107.2278 25.64143,-121.21404 25.64143,-121.21404 z m -81.58637,177.15898 -4.66208,0 c -5.14973,0 -9.32416,-4.17443 -9.32416,-9.32416 l 0,-93.24156 c -3.10821,0 -6.21595,0 -10.10132,-4.27373 -3.88491,-4.27326 -7.38147,-12.82025 -9.71251,-23.30993 -2.33104,-19.03713 5.8276,-47.0096 5.8276,-47.0096 l 5.82713,44.29021 2.3315,0 8.15864,-44.28974 8.15864,44.28974 2.33104,0 8.15863,-44.29021 8.15864,44.29021 2.33104,0 5.8276,-44.29021 c 0,0 8.15864,27.97247 5.8276,47.00914 -2.33104,10.48967 -5.8276,19.03713 -9.71251,23.31039 -3.88538,4.27373 -6.99312,4.27373 -10.10133,4.27373 l 0,93.24156 c 0,5.14973 -4.17442,9.32416 -9.32415,9.32416 z"
   inkscape:connector-curvature="0"
   style="fill:#000000;fill-opacity:1;stroke-width:0.2;stroke-linejoin:round" /></svg>