<svg
	 version="1.1"
	 xmlns="http://www.w3.org/2000/svg"
	 xmlns:xlink="http://www.w3.org/1999/xlink"
   x="0px"
   y="0px"
   width="512px"
   height="512px"
   viewBox="0 0 512 512"
   enable-background="new 0 0 512 512"
   id="movierental-marker">
  <path
     id="movierental-marker-shell"
     d="M256,50c-93.061,0-168.5,75.44-168.5,168.5C87.5,313,169.43,375.333,256,462  c86.57-86.667,168.5-149,168.5-243.5C424.5,125.44,349.061,50,256,50z M256,336.958c-68.275,0-123.624-55.349-123.624-123.624  c0-68.276,55.349-123.625,123.624-123.625c68.276,0,123.625,55.348,123.625,123.625C379.625,281.609,324.276,336.958,256,336.958z" />
  <path
     id="movierental-marker-content"
     d="m 155.60513,196.68115 16.07623,0 0,40.19035 -16.07623,0 0,-40.19035 z m 20.09491,-4.01867 134.63691,0 0,20.09491 6.02903,0 32.15197,-32.15197 0,104.49428 -32.15197,-32.15197 -6.02903,0 0,32.15197 -134.63691,0 0,-92.43722 z m 32.15247,-60.28526 c 15.5371,0 28.13279,12.59568 28.13279,28.13278 0,15.5376 -12.59569,28.13329 -28.13279,28.13329 -15.5376,0 -28.13329,-12.59569 -28.13329,-28.13329 0,-15.5371 12.59569,-28.13278 28.13329,-28.13278 z m 64.30394,0 c 15.53761,0 28.13329,12.59568 28.13329,28.13278 0,15.5376 -12.59568,28.13329 -28.13329,28.13329 -15.5376,0 -28.13278,-12.59569 -28.13278,-28.13329 0,-15.5371 12.59518,-28.13278 28.13278,-28.13278 z"/>
</svg>
