<?xml version="1.0" encoding="UTF-8" standalone="no"?><svg
   xmlns:dc="http://purl.org/dc/elements/1.1/"
   xmlns:cc="http://creativecommons.org/ns#"
   xmlns:rdf="http://www.w3.org/1999/02/22-rdf-syntax-ns#"
   xmlns:svg="http://www.w3.org/2000/svg"
   xmlns="http://www.w3.org/2000/svg"
   xmlns:sodipodi="http://sodipodi.sourceforge.net/DTD/sodipodi-0.dtd"
   xmlns:inkscape="http://www.inkscape.org/namespaces/inkscape"
   version="1.1"
   x="0px"
   y="0px"
   width="512px"
   height="512px"
   viewBox="0 0 512 512"
   enable-background="new 0 0 512 512"
   xml:space="preserve"
   id="svg2"
   inkscape:version="0.48.4 r9939"
   sodipodi:docname="car_dealer.svg"><metadata
   id="metadata9"><rdf:RDF><cc:Work
       rdf:about=""><dc:format>image/svg+xml</dc:format><dc:type
         rdf:resource="http://purl.org/dc/dcmitype/StillImage" /><dc:title></dc:title></cc:Work></rdf:RDF></metadata><defs
   id="defs7" /><sodipodi:namedview
   pagecolor="#ffffff"
   bordercolor="#666666"
   borderopacity="1"
   objecttolerance="10"
   gridtolerance="10"
   guidetolerance="10"
   inkscape:pageopacity="0"
   inkscape:pageshadow="2"
   inkscape:window-width="913"
   inkscape:window-height="1041"
   id="namedview5"
   showgrid="false"
   inkscape:zoom="0.76171875"
   inkscape:cx="249.14118"
   inkscape:cy="346.15198"
   inkscape:window-x="2911"
   inkscape:window-y="0"
   inkscape:window-maximized="0"
   inkscape:current-layer="svg2" />
<path
   id="location-5-icon"
   d="M256,50c-93.061,0-168.5,75.44-168.5,168.5C87.5,313,169.43,375.333,256,462  c86.57-86.667,168.5-149,168.5-243.5C424.5,125.44,349.061,50,256,50z M256,336.958c-68.275,0-123.624-55.349-123.624-123.624  c0-68.276,55.349-123.625,123.624-123.625c68.276,0,123.625,55.348,123.625,123.625C379.625,281.609,324.276,336.958,256,336.958z" />
<path
   id="path4895"
   d="m 257.31282,128.03589 c 25.07002,0 35.81425,14.3258 32.19831,44.39471 3.2305,1.85253 5.4065,5.33548 5.4065,9.32644 0,4.88354 -3.2581,9.00616 -7.71957,10.31267 -1.86383,6.64287 -4.75821,12.52346 -8.39678,17.22785 l 0,22.59908 c 11.93808,2.38771 21.48846,3.58157 35.81426,10.74423 14.32533,7.16312 19.10075,13.72909 28.65113,23.27947 l 0,34.02325 -171.9077,0 0,-34.02325 c 9.55038,-9.55038 14.3258,-16.11635 28.65113,-23.27947 14.3258,-7.16266 23.87618,-8.35652 35.81425,-10.74423 l 0,-22.59908 c -3.63856,-4.70439 -6.53294,-10.58498 -8.39678,-17.22785 -4.46146,-1.30651 -7.71956,-5.42913 -7.71956,-10.31267 0,-3.99096 2.17599,-7.47391 5.4065,-9.32644 -3.61594,-30.06891 7.12829,-44.39471 32.19831,-44.39471 z m -12.53479,114.60498 7.16268,14.32579 10.74422,0 7.16268,-14.32579 -25.06958,0 z m 5.37212,21.48847 7.16267,28.65157 7.16267,-28.65157 -14.32534,0 z"
   inkscape:connector-curvature="0"
   style="fill:#000000;fill-opacity:1;stroke-width:0.2;stroke-linejoin:round" /></svg>