
<svg
   
   xmlns:cc="http://creativecommons.org/ns#"
   xmlns:rdf="http://www.w3.org/1999/02/22-rdf-syntax-ns#"
   xmlns:svg="http://www.w3.org/2000/svg"
   xmlns="http://www.w3.org/2000/svg"
   xmlns:sodipodi="http://sodipodi.sourceforge.net/DTD/sodipodi-0.dtd"
   xmlns:inkscape="http://www.inkscape.org/namespaces/inkscape"
   version="1.1"
   x="0px"
   y="0px"
   width="512px"
   height="512px"
   viewBox="0 0 512 512"
   enable-background="new 0 0 512 512"
   
   id="svg2"
   inkscape:version="0.91 r13725"
   sodipodi:docname="place_of_worship.svg"><metadata
     id="metadata9"><rdf:RDF><cc:Work
         rdf:about=""><dc:format>image/svg+xml</dc:format><dc:type
           rdf:resource="http://purl.org/dc/dcmitype/StillImage" /><dc:title></dc:title></cc:Work></rdf:RDF></metadata><defs
     id="defs7" /><sodipodi:namedview
     pagecolor="#ffffff"
     bordercolor="#666666"
     borderopacity="1"
     objecttolerance="10"
     gridtolerance="10"
     guidetolerance="10"
     inkscape:pageopacity="0"
     inkscape:pageshadow="2"
     inkscape:window-width="942"
     inkscape:window-height="1107"
     id="namedview5"
     showgrid="false"
     inkscape:zoom="0.76171875"
     inkscape:cx="249.14118"
     inkscape:cy="241.12634"
     inkscape:window-x="0"
     inkscape:window-y="0"
     inkscape:window-maximized="0"
     inkscape:current-layer="svg2" /><path
     id="location-5-icon"
     d="M256,50c-93.061,0-168.5,75.44-168.5,168.5C87.5,313,169.43,375.333,256,462  c86.57-86.667,168.5-149,168.5-243.5C424.5,125.44,349.061,50,256,50z M256,336.958c-68.275,0-123.624-55.349-123.624-123.624  c0-68.276,55.349-123.625,123.624-123.625c68.276,0,123.625,55.348,123.625,123.625C379.625,281.609,324.276,336.958,256,336.958z" /><g
     id="g3342"
     transform="matrix(1.0269667,0,0,1.0269667,-25.778594,2.2833397)"><path
       style="fill:#000000;fill-rule:evenodd;stroke:#000000;stroke-width:0.3691321px;stroke-linecap:butt;stroke-linejoin:miter;stroke-opacity:1"
       d="m 253.69996,110.24413 41.35919,0 c 0,0 -6.95472,58.16412 -6.95472,87.2462 0,35.70561 6.95472,107.11682 6.95472,107.11682 l -41.35919,0 7.94825,-109.1039 z"
       id="rect12999"
       inkscape:connector-curvature="0"
       sodipodi:nodetypes="ccscccc" /><path
       style="fill:#000000;fill-rule:evenodd;stroke:#000000;stroke-width:0.28712052px;stroke-linecap:butt;stroke-linejoin:miter;stroke-opacity:1"
       d="m 335.08973,171.32821 -0.22502,40.1271 -60.74687,-6.61986 -60.44858,5.30576 0.22502,-40.12709 58.26109,5.59937 z"
       id="rect12999-6"
       inkscape:connector-curvature="0"
       sodipodi:nodetypes="ccccccc" /></g></svg>