<svg
	version="1.1"
	xmlns="http://www.w3.org/2000/svg"
	xmlns:xlink="http://www.w3.org/1999/xlink"
   x="0px"
   y="0px"
   width="512px"
   height="512px"
   viewBox="0 0 512 512"
   enable-background="new 0 0 512 512"
   id="police-marker">
   <path
   id="police-marker-shell"
   d="M256,50c-93.061,0-168.5,75.44-168.5,168.5C87.5,313,169.43,375.333,256,462  c86.57-86.667,168.5-149,168.5-243.5C424.5,125.44,349.061,50,256,50z M256,336.958c-68.275,0-123.624-55.349-123.624-123.624  c0-68.276,55.349-123.625,123.624-123.625c68.276,0,123.625,55.348,123.625,123.625C379.625,281.609,324.276,336.958,256,336.958z" />
   <path
   id="police-marker-content"
   d="m 319.77406,197.85836 c -7.32539,-19.89944 -3.17014,-26.21253 4.54334,-34.24458 l 6.5626,-6.8326 c -36.7437,-31.09093 -29.22583,-24.64818 -37.46773,-31.95041 -4.16595,4.25774 -9.22168,10.92549 -18.68129,10.92549 -9.7256,0 -16.06721,-7.04781 -19.95246,-10.55434 -4.3014,3.76273 -10.69514,10.55434 -20.13425,10.55434 -9.58881,0 -14.82588,-6.98632 -18.54806,-10.79271 l -37.60185,31.81718 6.5626,6.83261 c 7.71348,8.03204 11.86918,14.34513 4.54334,34.24457 -6.50245,17.66498 -12.11601,30.52596 -12.11601,44.49237 0,24.97656 15.98879,43.36957 43.86636,50.46015 20.0438,5.09895 23.07403,7.27728 33.33653,15.58958 10.2625,-8.3123 13.29006,-10.49018 33.33742,-15.58869 27.87757,-7.09058 43.86547,-25.48359 43.86547,-50.46015 0,-13.96373 -5.61178,-26.82205 -12.11601,-44.49281 z m -45.44007,25.0866 4.56116,26.60106 -23.8885,-12.55846 -23.88985,12.55846 4.56295,-26.60106 -19.32646,-18.84035 26.70843,-3.88079 11.94493,-24.20263 11.94625,24.20263 26.70933,3.88079 -19.32824,18.84035 z"/>
</svg>
