<svg
   
   xmlns:cc="http://creativecommons.org/ns#"
   xmlns:rdf="http://www.w3.org/1999/02/22-rdf-syntax-ns#"
   xmlns:svg="http://www.w3.org/2000/svg"
   xmlns="http://www.w3.org/2000/svg"
   xmlns:sodipodi="http://sodipodi.sourceforge.net/DTD/sodipodi-0.dtd"
   xmlns:inkscape="http://www.inkscape.org/namespaces/inkscape"
   version="1.1"
   x="0px"
   y="0px"
   width="512px"
   height="512px"
   viewBox="0 0 512 512"
   enable-background="new 0 0 512 512"
   
   id="svg2"
   
   sodipodi:docname="spa.svg"><metadata
   id="metadata9"><rdf:RDF><cc:Work
       rdf:about=""><dc:format>image/svg+xml</dc:format><dc:type
         rdf:resource="http://purl.org/dc/dcmitype/StillImage" /><dc:title></dc:title></cc:Work></rdf:RDF></metadata><defs
   id="defs7" /><sodipodi:namedview
   pagecolor="#ffffff"
   bordercolor="#666666"
   borderopacity="1"
   objecttolerance="10"
   gridtolerance="10"
   guidetolerance="10"
   inkscape:pageopacity="0"
   inkscape:pageshadow="2"
   inkscape:window-width="913"
   inkscape:window-height="1041"
   id="namedview5"
   showgrid="false"
   inkscape:zoom="0.76171875"
   inkscape:cx="249.14118"
   inkscape:cy="346.15198"
   inkscape:window-x="2911"
   inkscape:window-y="0"
   inkscape:window-maximized="0"
   inkscape:current-layer="svg2" />
<path
   id="location-5-icon"
   d="M256,50c-93.061,0-168.5,75.44-168.5,168.5C87.5,313,169.43,375.333,256,462  c86.57-86.667,168.5-149,168.5-243.5C424.5,125.44,349.061,50,256,50z M256,336.958c-68.275,0-123.624-55.349-123.624-123.624  c0-68.276,55.349-123.625,123.624-123.625c68.276,0,123.625,55.348,123.625,123.625C379.625,281.609,324.276,336.958,256,336.958z" />
<path
   style="fill:#000000;fill-opacity:1;stroke-width:0.2;stroke-linejoin:round"
   d="M 182.84375 129.34375 C 182.84375 137.13473 176.50973 143.46875 168.71875 143.46875 L 168.71875 157.5625 C 176.50973 157.5625 182.84375 163.86527 182.84375 171.65625 C 182.84375 179.44723 176.50973 185.78125 168.71875 185.78125 L 168.71875 199.875 C 176.50973 199.875 182.84375 206.20902 182.84375 214 C 182.84375 221.79098 176.50973 228.09375 168.71875 228.09375 L 168.71875 242.21875 C 176.50973 242.21875 182.84375 248.52152 182.84375 256.3125 C 182.84375 264.10348 176.50973 270.40625 168.71875 270.40625 L 168.71875 284.53125 C 176.50973 284.53125 182.84375 290.83402 182.84375 298.625 L 196.9375 298.625 C 196.9375 290.83402 203.27151 284.53125 211.0625 284.53125 C 218.85348 284.53125 225.15625 290.83402 225.15625 298.625 L 239.28125 298.625 C 239.28125 290.83402 245.58402 284.53125 253.375 284.53125 C 261.16598 284.53125 267.46875 290.83402 267.46875 298.625 L 281.59375 298.625 C 281.59375 290.83402 287.89652 284.53125 295.6875 284.53125 C 303.47848 284.53125 309.8125 290.83402 309.8125 298.625 L 323.90625 298.625 C 323.90625 290.83402 330.20902 284.53125 338 284.53125 L 338 270.40625 C 330.20902 270.40625 323.90625 264.10348 323.90625 256.3125 C 323.90625 248.52152 330.20902 242.21875 338 242.21875 L 338 228.09375 C 330.20902 228.09375 323.90625 221.79098 323.90625 214 C 323.90625 206.20902 330.20902 199.875 338 199.875 L 338 185.78125 C 330.20902 185.78125 323.90625 179.44723 323.90625 171.65625 C 323.90625 163.86527 330.20902 157.5625 338 157.5625 L 338 143.46875 C 330.20902 143.46875 323.90625 137.13473 323.90625 129.34375 L 309.8125 129.34375 C 309.8125 137.13473 303.47848 143.46875 295.6875 143.46875 C 287.89652 143.46875 281.59375 137.13473 281.59375 129.34375 L 267.46875 129.34375 C 267.46875 137.13473 261.16598 143.46875 253.375 143.46875 C 245.58402 143.46875 239.28125 137.13473 239.28125 129.34375 L 225.15625 129.34375 C 225.15625 137.13473 218.85348 143.46875 211.0625 143.46875 C 203.27151 143.46875 196.9375 137.13473 196.9375 129.34375 L 182.84375 129.34375 z M 292.84375 155.15625 L 298.84375 155.15625 L 298.84375 160.625 C 299.83995 160.6589 300.82454 160.7907 301.84375 161 C 302.86285 161.2093 303.81315 161.45525 304.65625 161.78125 L 303.1875 168.90625 C 301.9222 168.22035 300.08615 167.87325 297.71875 167.84375 C 295.26685 167.87725 293.3185 168.6194 291.875 170.0625 C 290.4315 171.5056 289.68965 173.4247 289.65625 175.875 C 289.72665 178.5318 290.5604 180.5386 292.125 181.875 C 293.6897 183.2115 295.56785 183.874 297.78125 183.875 C 300.29155 183.8153 302.31305 183.4689 303.84375 182.8125 L 304.96875 189.21875 C 303.41775 189.89415 301.37446 190.31905 298.84375 190.53125 L 298.84375 196.65625 L 292.84375 196.65625 L 292.84375 190.65625 C 288.86815 190.06065 285.82965 188.5358 283.78125 186.0625 C 281.67595 183.4998 280.6114 180.2103 280.5625 176.1875 C 280.5713 172.5224 281.6166 169.29975 283.6875 166.53125 C 285.7585 163.76285 288.81635 161.95065 292.84375 161.09375 L 292.84375 155.15625 z "
   id="path4828" /></svg>