<svg
   
   xmlns:cc="http://creativecommons.org/ns#"
   xmlns:rdf="http://www.w3.org/1999/02/22-rdf-syntax-ns#"
   xmlns:svg="http://www.w3.org/2000/svg"
   xmlns="http://www.w3.org/2000/svg"
   xmlns:sodipodi="http://sodipodi.sourceforge.net/DTD/sodipodi-0.dtd"
   xmlns:inkscape="http://www.inkscape.org/namespaces/inkscape"
   version="1.1"
   x="0px"
   y="0px"
   width="512px"
   height="512px"
   viewBox="0 0 512 512"
   enable-background="new 0 0 512 512"
   
   id="svg2"
   
   sodipodi:docname="campgrounds.svg"><metadata
   id="metadata9"><rdf:RDF><cc:Work
       rdf:about=""><dc:format>image/svg+xml</dc:format><dc:type
         rdf:resource="http://purl.org/dc/dcmitype/StillImage" /><dc:title></dc:title></cc:Work></rdf:RDF></metadata><defs
   id="defs7"><inkscape:perspective
     sodipodi:type="inkscape:persp3d"
     inkscape:vp_x="0 : 0.5 : 1"
     inkscape:vp_y="0 : 1000 : 0"
     inkscape:vp_z="1 : 0.5 : 1"
     inkscape:persp3d-origin="0.5 : 0.33333333 : 1"
     id="perspective2831" /><inkscape:perspective
     sodipodi:type="inkscape:persp3d"
     inkscape:vp_x="0 : 0.5 : 1"
     inkscape:vp_y="0 : 1000 : 0"
     inkscape:vp_z="1 : 0.5 : 1"
     inkscape:persp3d-origin="0.5 : 0.33333333 : 1"
     id="perspective3716" /><inkscape:perspective
     sodipodi:type="inkscape:persp3d"
     inkscape:vp_x="0 : 0.5 : 1"
     inkscape:vp_y="0 : 1000 : 0"
     inkscape:vp_z="1 : 0.5 : 1"
     inkscape:persp3d-origin="0.5 : 0.33333333 : 1"
     id="perspective3283" /><inkscape:perspective
     id="perspective3273"
     inkscape:persp3d-origin="372.04724 : 350.78739 : 1"
     inkscape:vp_z="744.09448 : 526.18109 : 1"
     inkscape:vp_y="0 : 1000 : 0"
     inkscape:vp_x="0 : 526.18109 : 1"
     sodipodi:type="inkscape:persp3d" /></defs><sodipodi:namedview
   pagecolor="#ffffff"
   bordercolor="#666666"
   borderopacity="1"
   objecttolerance="10"
   gridtolerance="10"
   guidetolerance="10"
   inkscape:pageopacity="0"
   inkscape:pageshadow="2"
   inkscape:window-width="913"
   inkscape:window-height="1041"
   id="namedview5"
   showgrid="false"
   inkscape:zoom="1.28"
   inkscape:cx="259.32897"
   inkscape:cy="241.16659"
   inkscape:window-x="2911"
   inkscape:window-y="0"
   inkscape:window-maximized="0"
   inkscape:current-layer="svg2" />
<path
   id="location-5-icon"
   d="M 256,50 C 162.939,50 87.5,125.44 87.5,218.5 87.5,313 169.43,375.333 256,462 342.57,375.333 424.5,313 424.5,218.5 424.5,125.44 349.061,50 256,50 z m 0,286.958 c -68.275,0 -123.624,-55.349 -123.624,-123.624 0,-68.276 55.349,-123.625 123.624,-123.625 68.276,0 123.625,55.348 123.625,123.625 0,68.275 -55.349,123.624 -123.625,123.624 z"
   inkscape:connector-curvature="0" />
<path
   inkscape:connector-curvature="0"
   style="fill:#231f20"
   d="m 191.54766,158.89766 c -22.49149,0.60909 -16.4125,34.64858 -16.4125,34.64858 l 10.59974,53.56857 -6.21166,0 0,-8.9186 c 4.27362,0 2.02306,-2.25101 2.02306,-2.25101 l -4.95794,0 c -5.40244,0 -5.38534,2.25101 -5.38534,2.25101 l 0,9.88739 -25.64453,0 0,3.81818 25.64453,0 c 7.65186,-3.36455 11.48304,0 11.48304,0 l 4.01763,0 3.84668,0 72.17508,0 c 0.58811,7.86433 7.12188,14.076 15.13027,14.076 8.01475,0 14.57064,-6.21167 15.15875,-14.076 l 61.46137,0 c 13.98526,0 0,-15.81411 0,-15.81411 l -6.0977,0 0,-34.33518 c 0,-43.45936 -156.83048,-42.85483 -156.83048,-42.85483 z m 19.88875,19.94574 15.38672,0 c 3.14752,0 5.67027,3.42879 5.67027,7.69335 l 0,16.86839 c 0,4.26456 -2.52275,7.69336 -5.67027,7.69336 l -15.38672,0 c -3.14753,0 -5.69878,-3.4288 -5.69878,-7.69336 l 0,-16.86839 c 0,-4.26456 2.55125,-7.69335 5.69878,-7.69335 z m 36.58618,0.19946 15.3867,0 c 3.14753,0 5.6703,3.42878 5.6703,7.69336 l 0,16.86839 c 0,4.26457 -2.52277,7.69336 -5.6703,7.69336 l -15.3867,0 c -3.14752,0 -5.69879,-3.42879 -5.69879,-7.69336 l 0,-16.86839 c 0,-4.26458 2.55127,-7.69336 5.69879,-7.69336 z m 34.99052,0 15.38672,0 c 3.14753,0 5.69877,3.42878 5.69877,7.69336 l 0,16.86839 c 0,4.26457 -2.55124,7.69336 -5.69877,7.69336 l -15.38672,0 c -3.14752,0 -5.67028,-3.42879 -5.67028,-7.69336 l 0,-16.86839 c 0,-4.26458 2.52276,-7.69336 5.67028,-7.69336 z m -5.75576,62.28769 c 4.69761,0 8.51968,3.82115 8.51968,8.51967 0,4.70493 -3.82207,8.51967 -8.51968,8.51967 -4.69854,0 -8.49119,-3.81474 -8.49119,-8.51967 0,-4.69852 3.79265,-8.51967 8.49119,-8.51967 z"
   id="path9" /></svg>