<svg
	version="1.1"
	xmlns="http://www.w3.org/2000/svg"
	xmlns:xlink="http://www.w3.org/1999/xlink"
   x="0px"
   y="0px"
   width="512px"
   height="512px"
   viewBox="0 0 512 512"
   enable-background="new 0 0 512 512"
   id="spa-marker">
<path
   id="spa-marker-shell"
   d="M256,50c-93.061,0-168.5,75.44-168.5,168.5C87.5,313,169.43,375.333,256,462  c86.57-86.667,168.5-149,168.5-243.5C424.5,125.44,349.061,50,256,50z M256,336.958c-68.275,0-123.624-55.349-123.624-123.624  c0-68.276,55.349-123.625,123.624-123.625c68.276,0,123.625,55.348,123.625,123.625C379.625,281.609,324.276,336.958,256,336.958z" />
<path
   id="spa-marker-content"
   d="m 351.14359,234.64767 c 0,21.07268 -16.955,38.15409 -37.87538,38.15409 l -117.16206,0 c -20.92038,0 -37.87538,-17.08141 -37.87538,-38.15409 0,-19.03186 13.82525,-34.79894 31.91641,-37.68197 -0.23607,-1.3377 -0.36451,-2.7094 -0.36451,-4.12426 0,-13.35161 10.73864,-24.17656 24.00698,-24.17656 5.91634,0 11.33871,2.15454 15.4975,5.73815 7.45914,-16.91389 17.01897,-32.35351 43.81255,-32.35351 32.49515,0 47.88553,25.25431 47.88553,51.90014 0,1.11484 -0.0407,2.2185 -0.10764,3.3115 17.27636,3.54553 30.26599,18.93541 30.26599,37.38651 z"/>
</svg>
