<svg
	version="1.1"
	xmlns="http://www.w3.org/2000/svg"
	xmlns:xlink="http://www.w3.org/1999/xlink"
   x="0px"
   y="0px"
   width="512px"
   height="512px"
   viewBox="0 0 512 512"
   enable-background="new 0 0 512 512"
   id="stadium-marker">
   <path
     id="stadium-marker-shell"
     d="M 256,50 C 162.939,50 87.5,125.44 87.5,218.5 87.5,313 169.43,375.333 256,462 342.57,375.333 424.5,313 424.5,218.5 424.5,125.44 349.061,50 256,50 z m 0,286.958 c -68.275,0 -123.624,-55.349 -123.624,-123.624 0,-68.276 55.349,-123.625 123.624,-123.625 68.276,0 123.625,55.348 123.625,123.625 0,68.275 -55.349,123.624 -123.625,123.624 z"/>
     <path
     id="stadium-marker-content"
     d="m 220.56722,199.25926 c -8.70422,-2.9547 -14.01355,-6.80848 -14.01355,-11.03808 0,-9.28977 25.442,-16.82083 56.82454,-16.82083 31.38254,0 56.82453,7.53106 56.82453,16.82083 0,2.45844 -1.82307,4.78607 -5.02486,6.89153 19.24605,-3.99289 31.38462,-9.81094 31.38462,-16.28512 0,-11.84995 -40.2944,-21.47193 -90.5534,-21.82907 -0.95929,-0.006 -1.9165,-0.0166 -2.8841,-0.0166 -0.32184,0 -0.63953,0.004 -0.96137,0.006 -10.56882,0.0249 -20.71198,0.45888 -30.1637,1.2396 -1.29151,0.1059 -2.56642,0.2201 -3.83301,0.34053 -13.54014,1.27698 -25.50221,3.27446 -35.02661,5.78897 -1.3102,0.34676 -2.57057,0.70182 -3.78525,1.06726 -12.31299,3.69805 -19.66756,8.34709 -19.66756,13.40309 0,9.35829 25.33402,17.34616 60.87972,20.43167 z"/>
     <path
     id="path12"
     d="m 160.8835,195.73563 13.24113,60.5558 c 2.97962,0.64991 6.06306,1.26452 9.24824,1.84176 0.44019,-14.70499 1.20223,-30.13463 2.15114,-30.2343 0,-1.76285 1.42855,-3.19141 3.19141,-3.19141 1.75247,-0.18687 3.47795,2.50413 3.8517,6.00907 0.6333,0 2.58926,12.9629 4.83176,29.63215 7.77192,1.0465 15.98611,1.87705 24.53461,2.47298 0.52948,-15.22824 1.34134,-29.49303 2.32555,-29.59893 0,-2.0577 1.66734,-3.72504 3.72504,-3.72504 2.04525,-0.21802 4.05727,2.92148 4.49539,7.01197 0.6416,0 2.44391,11.38276 4.61788,27.0948 5.25534,0.18272 10.59789,0.28861 16.02973,0.28861 5.43183,0 10.77438,-0.10589 16.02972,-0.28861 2.17398,-15.71204 3.97628,-27.0948 4.61789,-27.0948 0.43604,-4.09049 2.44806,-7.22999 4.49538,-7.01197 2.0577,0 3.72504,1.66734 3.72504,3.72504 0.98421,0.1059 1.79608,14.37069 2.32556,29.59893 8.54849,-0.59593 16.76268,-1.42648 24.53461,-2.47298 2.2425,-16.66925 4.19638,-29.63215 4.83175,-29.63215 0.37375,-3.50702 2.09923,-6.19594 3.85171,-6.00907 1.76285,0 3.19141,1.42856 3.19141,3.19141 0.94891,0.10175 1.70886,15.52931 2.15113,30.2343 3.18311,-0.57724 6.26655,-1.19185 9.24824,-1.84176 l 13.24113,-60.5558 c -11.53849,7.54144 -48.45461,16.02764 -92.24565,16.03595 -43.79104,-0.008 -80.70716,-8.49451 -92.2415,-16.03595 z"/>
</svg>
