<svg
	version="1.1"
	xmlns="http://www.w3.org/2000/svg"
	xmlns:xlink="http://www.w3.org/1999/xlink"
   x="0px"
   y="0px"
   width="512px"
   height="512px"
   viewBox="0 0 512 512"
   enable-background="new 0 0 512 512"
   id="storage-marker">
   <path
   id="storage-marker-shell"
   d="M256,50c-93.061,0-168.5,75.44-168.5,168.5C87.5,313,169.43,375.333,256,462  c86.57-86.667,168.5-149,168.5-243.5C424.5,125.44,349.061,50,256,50z M256,336.958c-68.275,0-123.624-55.349-123.624-123.624  c0-68.276,55.349-123.625,123.624-123.625c68.276,0,123.625,55.348,123.625,123.625C379.625,281.609,324.276,336.958,256,336.958z" />
   <path
   id="storage-marker-content"
   d="m 187.53243,295.42986 0,-84.65355 -10.58164,8.23046 -15.28441,-22.92707 91.70796,-68.78136 91.708,68.78136 -15.28444,22.92707 -10.58212,-8.23046 0,84.65355 -14.10883,0 0,-84.65355 -103.46517,0 0,84.65355 -14.10935,0 z m 108.16844,-56.43584 -84.65354,0 0,-18.81164 84.65354,0 0,18.81164 z m 0,28.21814 -84.65354,0 0,-18.81211 84.65354,0 0,18.81211 z m 0,28.2177 -84.65354,0 0,-18.81163 84.65354,0 0,18.81163 z" />
 </svg>
