<svg
	version="1.1"
	xmlns="http://www.w3.org/2000/svg"
	xmlns:xlink="http://www.w3.org/1999/xlink"
   x="0px"
   y="0px"
   width="512px"
   height="512px"
   viewBox="0 0 512 512"
   enable-background="new 0 0 512 512"
   id="store-marker">
   <path
   id="store-marker-shell"
   d="M256,50c-93.061,0-168.5,75.44-168.5,168.5C87.5,313,169.43,375.333,256,462  c86.57-86.667,168.5-149,168.5-243.5C424.5,125.44,349.061,50,256,50z M256,336.958c-68.275,0-123.624-55.349-123.624-123.624  c0-68.276,55.349-123.625,123.624-123.625c68.276,0,123.625,55.348,123.625,123.625C379.625,281.609,324.276,336.958,256,336.958z" />
   <path
   id="store-marker-content"
   d="m 180.76257,210.99578 c 0,5.47971 8.41105,9.92196 13.89075,9.92196 5.47971,0 7.93757,-4.44225 7.93757,-9.92196 l 1.9844,-57.54739 -19.84393,0 -3.96879,57.54739 z m 130.96953,13.89076 c -4.14142,0 -5.80435,-2.11418 -7.93757,-5.32254 -2.13283,3.20836 -7.76493,5.32254 -11.90635,5.32254 l -3.96879,0 c -4.14143,0 -6.79654,-2.11418 -8.92977,-5.32254 -2.13282,3.20797 -6.77194,5.32254 -10.91297,5.32254 l -3.96958,0 c -4.14222,0 -8.78133,-2.11457 -10.91416,-5.32254 -0.3171,0.47665 -0.66716,0.92909 -1.04736,1.35374 l 0.0552,0 0,43.65665 59.53139,0 0,-39.68785 z m -68.46155,0 -3.96839,0 c -4.14142,0 -8.78134,-2.11418 -10.91455,-5.32254 -2.13284,3.20836 -5.78054,5.32293 -9.92197,5.32293 l -3.96839,0 c -4.14143,0 -7.78914,-2.11457 -9.92236,-5.32293 -2.13283,3.20836 -3.79614,5.32254 -7.93758,5.32254 l -3.96878,0 c -3.04921,0 -5.83094,-1.14619 -7.93717,-3.03136 l 0,62.56314 7.93757,0 0,-51.59422 43.65664,0 0,51.59422 91.28168,0 0,-64.16654 c -3.30283,2.81903 -8.06855,4.63476 -11.90596,4.63476 l 0,47.62542 -67.46976,0 0,-7.93717 4e-4,-4e-4 0,-40.76737 c -1.51013,0.69335 -3.19051,1.07952 -4.96138,1.07952 z m -66.47676,59.53178 0,-130.96953 0,-11.90636 158.75103,0 0,11.90636 0,130.96953 3.9e-4,7.93757 -158.75142,0 0,-7.93757 z m 53.5786,-73.42254 c 0,5.47971 5.43407,9.92196 10.91416,9.92196 5.47971,0 9.92197,-4.44225 9.92197,-9.92196 l 0.9922,-57.54699 -19.84394,0 -1.98439,57.54699 z m 50.60162,0 c 0,5.47971 3.45007,9.92196 8.92977,9.92196 5.4797,0 11.90636,-4.44225 11.90636,-9.92196 l -1.9844,-57.54699 -19.84392,0 0.99219,57.54699 z m -52.58601,73.42254 0,-43.65664 -27.7815,0 0,43.65664 27.7815,0 z m 37.08116,-30.19691 -2.70672,-2.90277 14.51267,-13.53316 2.70671,2.90237 -14.51266,13.53356 z m 24.80491,-3.96878 -2.70671,-2.90277 14.51265,-13.53356 2.70672,2.90277 -14.51266,13.53356 z m -65.85485,6.38419 0,11.90636 -7.93758,0 0,-11.90636 7.93758,0 z"/>
</svg>
