<svg
	version="1.1"
	xmlns="http://www.w3.org/2000/svg"
	xmlns:xlink="http://www.w3.org/1999/xlink"
   x="0px"
   y="0px"
   width="512px"
   height="512px"
   viewBox="0 0 512 512"
   enable-background="new 0 0 512 512"
   id="tag-marker">
   <path
     id="tag-marker-shell"
     d="M 256,50 C 162.939,50 87.5,125.44 87.5,218.5 87.5,313 169.43,375.333 256,462 342.57,375.333 424.5,313 424.5,218.5 424.5,125.44 349.061,50 256,50 z m 0,286.958 c -68.275,0 -123.624,-55.349 -123.624,-123.624 0,-68.276 55.349,-123.625 123.624,-123.625 68.276,0 123.625,55.348 123.625,123.625 0,68.275 -55.349,123.624 -123.625,123.624 z"/>
     <g
     id="tag-marker-content"
     transform="matrix(2.006497,0,0,2.006497,155.32203,132.61763)">
     <path
       d="m 1.7778447,47.922646 c -1.56191262,1.561913 -1.55673775,4.099448 0.00664,5.662831 L 37.834314,89.635301 c 1.565582,1.565583 4.098238,1.571238 5.662831,0.0066 L 87.941326,45.197765 c 1.561912,-1.561912 2.772055,-4.618512 2.703227,-6.817609 L 89.628157,5.9060163 C 89.559196,3.7026672 87.712872,1.8604622 85.513775,1.7916335 L 53.039635,0.77523844 C 50.836286,0.7062767 47.786619,1.9138723 46.222026,3.4784652 L 1.7778447,47.922646 l 0,0 z M 80.9653,10.45449 c 2.291868,2.291868 2.303922,5.995665 0.02692,8.272663 -2.276998,2.276998 -5.980795,2.264944 -8.272663,-0.02692 -2.291867,-2.291868 -2.303921,-5.995665 -0.02692,-8.272663 2.276998,-2.276998 5.980795,-2.264944 8.272662,0.02692 l 0,0 0,0 z"/>
     </g>
</svg>
