<svg
	version="1.1"
	xmlns="http://www.w3.org/2000/svg"
	xmlns:xlink="http://www.w3.org/1999/xlink"
   x="0px"
   y="0px"
   width="512px"
   height="512px"
   viewBox="0 0 512 512"
   enable-background="new 0 0 512 512"
   id="trainstation-marker">
   <path
   id="trainstation-marker-shell"
   d="M256,50c-93.061,0-168.5,75.44-168.5,168.5C87.5,313,169.43,375.333,256,462  c86.57-86.667,168.5-149,168.5-243.5C424.5,125.44,349.061,50,256,50z M256,336.958c-68.275,0-123.624-55.349-123.624-123.624  c0-68.276,55.349-123.625,123.624-123.625c68.276,0,123.625,55.348,123.625,123.625C379.625,281.609,324.276,336.958,256,336.958z" />
   <path
   id="trainstation-marker-content"
   d="m 177.11426,280.44295 5.81734,-16.57944 -13.18584,0 7.3685,-20.26533 12.928,0 5.17047,-14.73558 -12.572,-4.6e-4 5.52649,-16.57946 12.86286,0 5.81734,-16.57945 -9.46924,0 7.36848,-12.89497 6.62527,0 4.52451,-12.89497 -9.3073,0 7.36848,-9.21096 5.17047,0 7.1102,-20.26392 17.19375,0 -5.33241,20.26392 40.13972,0 -5.33241,-20.26392 17.19375,0 7.1102,20.26392 5.17047,0 7.36848,9.21096 -9.3073,0 4.52451,12.89497 6.62527,0 7.36848,12.89497 -9.46878,0 5.81688,16.57945 11.02039,0 5.52649,16.58131 -10.72906,0 5.17,14.73419 12.92754,0 7.36896,20.26533 -13.18584,0 5.81734,16.57944 -29.47488,0 -4.363,-16.57944 -94.4347,0 -4.363,16.57944 -29.47488,0 z m 55.16802,-97.63469 51.77442,0 -3.3936,-12.89497 -44.98768,0 -3.39314,12.89497 z m -7.75662,29.47442 67.2872,0 -4.36301,-16.57897 -58.56118,0 -4.36301,16.57897 z m -8.24063,31.3155 83.76892,0 -3.87761,-14.73465 -76.0137,-9.3e-4 -3.87761,14.73558 z"/>
</svg>
