<svg
   
   xmlns:cc="http://creativecommons.org/ns#"
   xmlns:rdf="http://www.w3.org/1999/02/22-rdf-syntax-ns#"
   xmlns:svg="http://www.w3.org/2000/svg"
   xmlns="http://www.w3.org/2000/svg"
   xmlns:sodipodi="http://sodipodi.sourceforge.net/DTD/sodipodi-0.dtd"
   xmlns:inkscape="http://www.inkscape.org/namespaces/inkscape"
   version="1.1"
   x="0px"
   y="0px"
   width="512px"
   height="512px"
   viewBox="0 0 512 512"
   enable-background="new 0 0 512 512"
   
   id="svg2"
   
   sodipodi:docname="city_hall.svg"><metadata
   id="metadata9"><rdf:RDF><cc:Work
       rdf:about=""><dc:format>image/svg+xml</dc:format><dc:type
         rdf:resource="http://purl.org/dc/dcmitype/StillImage" /><dc:title></dc:title></cc:Work></rdf:RDF></metadata><defs
   id="defs7"><inkscape:perspective
     sodipodi:type="inkscape:persp3d"
     inkscape:vp_x="0 : 0.5 : 1"
     inkscape:vp_y="0 : 1000 : 0"
     inkscape:vp_z="1 : 0.5 : 1"
     inkscape:persp3d-origin="0.5 : 0.33333333 : 1"
     id="perspective2831" /><inkscape:perspective
     sodipodi:type="inkscape:persp3d"
     inkscape:vp_x="0 : 0.5 : 1"
     inkscape:vp_y="0 : 1000 : 0"
     inkscape:vp_z="1 : 0.5 : 1"
     inkscape:persp3d-origin="0.5 : 0.33333333 : 1"
     id="perspective3716" /><inkscape:perspective
     sodipodi:type="inkscape:persp3d"
     inkscape:vp_x="0 : 0.5 : 1"
     inkscape:vp_y="0 : 1000 : 0"
     inkscape:vp_z="1 : 0.5 : 1"
     inkscape:persp3d-origin="0.5 : 0.33333333 : 1"
     id="perspective3283" /><inkscape:perspective
     id="perspective3273"
     inkscape:persp3d-origin="372.04724 : 350.78739 : 1"
     inkscape:vp_z="744.09448 : 526.18109 : 1"
     inkscape:vp_y="0 : 1000 : 0"
     inkscape:vp_x="0 : 526.18109 : 1"
     sodipodi:type="inkscape:persp3d" /><inkscape:perspective
     sodipodi:type="inkscape:persp3d"
     inkscape:vp_x="0 : 0.5 : 1"
     inkscape:vp_y="0 : 1000 : 0"
     inkscape:vp_z="1 : 0.5 : 1"
     inkscape:persp3d-origin="0.5 : 0.33333333 : 1"
     id="perspective3707" /><inkscape:perspective
     sodipodi:type="inkscape:persp3d"
     inkscape:vp_x="0 : 0.5 : 1"
     inkscape:vp_y="0 : 1000 : 0"
     inkscape:vp_z="1 : 0.5 : 1"
     inkscape:persp3d-origin="0.5 : 0.33333333 : 1"
     id="perspective3676" /><inkscape:perspective
     sodipodi:type="inkscape:persp3d"
     inkscape:vp_x="0 : 0.5 : 1"
     inkscape:vp_y="0 : 1000 : 0"
     inkscape:vp_z="1 : 0.5 : 1"
     inkscape:persp3d-origin="0.5 : 0.33333333 : 1"
     id="perspective2884" /><inkscape:perspective
     id="perspective10"
     inkscape:persp3d-origin="372.04724 : 350.78739 : 1"
     inkscape:vp_z="744.09448 : 526.18109 : 1"
     inkscape:vp_y="0 : 1000 : 0"
     inkscape:vp_x="0 : 526.18109 : 1"
     sodipodi:type="inkscape:persp3d" /><style
     type="text/css"
     id="style6">
   
    .fil0 {fill:#EF7900}
   
  </style></defs><sodipodi:namedview
   pagecolor="#ffffff"
   bordercolor="#666666"
   borderopacity="1"
   objecttolerance="10"
   gridtolerance="10"
   guidetolerance="10"
   inkscape:pageopacity="0"
   inkscape:pageshadow="2"
   inkscape:window-width="913"
   inkscape:window-height="1041"
   id="namedview5"
   showgrid="false"
   inkscape:zoom="1.28"
   inkscape:cx="240.07385"
   inkscape:cy="256.98028"
   inkscape:window-x="2911"
   inkscape:window-y="0"
   inkscape:window-maximized="0"
   inkscape:current-layer="svg2" />
<path
   id="location-5-icon"
   d="M 256,50 C 162.939,50 87.5,125.44 87.5,218.5 87.5,313 169.43,375.333 256,462 342.57,375.333 424.5,313 424.5,218.5 424.5,125.44 349.061,50 256,50 z m 0,286.958 c -68.275,0 -123.624,-55.349 -123.624,-123.624 0,-68.276 55.349,-123.625 123.624,-123.625 68.276,0 123.625,55.348 123.625,123.625 0,68.275 -55.349,123.624 -123.625,123.624 z"
   inkscape:connector-curvature="0" />
<path
   id="path10643"
   d="m 254.34375,116.73955 c 53.23208,0 96.38545,43.15337 96.38545,96.38545 0,53.23208 -43.15337,96.38545 -96.38545,96.38545 -53.23208,0 -96.38545,-43.15337 -96.38545,-96.38545 0,-53.23208 43.15337,-96.38545 96.38545,-96.38545 z m 0,13.76948 c -4.17906,0 -8.28594,0.31046 -12.29847,0.90921 -0.85877,1.87016 -1.47101,3.92294 -1.47101,5.9753 0,6.88496 -6.88451,-6.88451 -13.76904,6.88496 -6.88495,13.76904 0,0 0,13.76904 0,6.88495 -9.96391,1.90321 -6.88495,3.44248 6.88495,3.44247 6.88495,3.44247 0,10.32699 0,0 -13.76904,-6.88452 -13.76904,0 0,6.88452 -6.88495,6.88452 -13.76947,6.88452 -6.88452,0 0,13.76948 -6.88452,13.76948 -5.29351,0 -2.44718,-8.14029 -7.10714,-11.90279 -1.77147,4.12732 -3.21638,8.42769 -4.30212,12.86896 4.63996,4.15732 5.41699,20.58051 11.40926,26.57277 6.88452,-6.88495 6.88452,0 13.76904,0 6.88495,0 6.88495,0 10.32699,6.88453 6.88495,0 10.327,6.88451 17.21195,13.76904 6.88453,6.88495 20.65357,6.88495 20.65357,13.76947 0,6.88452 -6.88453,0 -6.88453,13.76947 0,6.88452 0,6.88452 -6.88451,6.88452 -4.33473,0 -8.66989,8.18812 -11.28622,14.25343 9.82609,4.12254 20.61704,6.40056 31.94021,6.40056 23.12334,0 44.0278,-9.49953 59.02346,-24.80914 l -3.94644,-7.89287 c 0,0 8.60598,-13.76947 1.72147,-20.65399 -6.88496,-6.88452 -6.88496,-13.76947 -6.88496,-13.76947 0,0 -13.76904,13.76947 -20.65399,6.88451 -6.88453,-6.88451 -6.88453,0 -13.76904,-13.76904 -6.88495,-13.76947 6.88451,-20.65399 6.88451,-20.65399 0,0 0,-13.76948 6.88453,-13.76948 6.88495,0 13.76947,-13.76904 27.53895,0 0,0 7.95679,-5.30437 19.2143,-6.60101 -3.53119,-8.26856 -8.37161,-15.84401 -14.26126,-22.46589 -1.23663,0.88921 -2.85503,1.5284 -4.95304,1.5284 -6.88496,0 6.88451,13.76946 0,13.76946 -6.88496,0 -6.88496,-6.88495 -13.76948,-6.88495 -6.88452,0 -6.88452,6.88495 -13.76947,13.76948 -6.88453,6.88451 0,0 -6.88453,-6.88453 -6.88451,-6.88495 13.76948,0 6.88453,-6.88495 -6.88453,-6.88451 6.88495,-6.88451 6.88495,-13.76904 0,-5.40004 8.47031,-6.56449 12.12411,-6.81581 -3.9734,-2.86504 -8.21116,-5.38569 -12.12411,-6.95366 6.88452,6.88452 -6.88495,13.76947 -13.76948,13.76947 -6.46708,0 -0.78485,-12.14933 -0.0713,-19.32953 -7.09497,-1.98451 -14.57563,-3.04591 -22.3037,-3.04591 z M 171.72778,213.125 c 0,24.29997 10.49092,46.14928 27.19065,61.26626 l -6.53666,-13.07375 c -6.88452,0 -10.32699,-15.49006 -10.32699,-22.37501 0,-5.52484 -2.21715,-9.94132 0.46569,-15.02872 -9.71347,-9.75565 -3.90818,-4.46648 -3.90818,-10.78878 0,-3.27724 -3.12027,-6.55492 -6.39013,-9.0895 -0.32698,2.98504 -0.49438,6.01749 -0.49438,9.0895 z"
   inkscape:connector-curvature="0"
   style="fill:#000000;fill-opacity:1;stroke-width:0.2;stroke-linejoin:round" /></svg>