<?xml version="1.0" encoding="UTF-8" standalone="no"?><svg
   xmlns:dc="http://purl.org/dc/elements/1.1/"
   xmlns:cc="http://creativecommons.org/ns#"
   xmlns:rdf="http://www.w3.org/1999/02/22-rdf-syntax-ns#"
   xmlns:svg="http://www.w3.org/2000/svg"
   xmlns="http://www.w3.org/2000/svg"
   xmlns:sodipodi="http://sodipodi.sourceforge.net/DTD/sodipodi-0.dtd"
   xmlns:inkscape="http://www.inkscape.org/namespaces/inkscape"
   version="1.1"
   x="0px"
   y="0px"
   width="512px"
   height="512px"
   viewBox="0 0 512 512"
   enable-background="new 0 0 512 512"
   xml:space="preserve"
   id="svg2"
   inkscape:version="0.91 r13725"
   sodipodi:docname="university.svg"><metadata
     id="metadata9"><rdf:RDF><cc:Work
         rdf:about=""><dc:format>image/svg+xml</dc:format><dc:type
           rdf:resource="http://purl.org/dc/dcmitype/StillImage" /><dc:title></dc:title></cc:Work></rdf:RDF></metadata><defs
     id="defs7"><inkscape:perspective
       sodipodi:type="inkscape:persp3d"
       inkscape:vp_x="0 : 0.5 : 1"
       inkscape:vp_y="0 : 1000 : 0"
       inkscape:vp_z="1 : 0.5 : 1"
       inkscape:persp3d-origin="0.5 : 0.33333333 : 1"
       id="perspective2831" /><inkscape:perspective
       sodipodi:type="inkscape:persp3d"
       inkscape:vp_x="0 : 0.5 : 1"
       inkscape:vp_y="0 : 1000 : 0"
       inkscape:vp_z="1 : 0.5 : 1"
       inkscape:persp3d-origin="0.5 : 0.33333333 : 1"
       id="perspective3716" /><inkscape:perspective
       sodipodi:type="inkscape:persp3d"
       inkscape:vp_x="0 : 0.5 : 1"
       inkscape:vp_y="0 : 1000 : 0"
       inkscape:vp_z="1 : 0.5 : 1"
       inkscape:persp3d-origin="0.5 : 0.33333333 : 1"
       id="perspective3283" /><inkscape:perspective
       id="perspective3273"
       inkscape:persp3d-origin="372.04724 : 350.78739 : 1"
       inkscape:vp_z="744.09448 : 526.18109 : 1"
       inkscape:vp_y="0 : 1000 : 0"
       inkscape:vp_x="0 : 526.18109 : 1"
       sodipodi:type="inkscape:persp3d" /></defs><sodipodi:namedview
     pagecolor="#ffffff"
     bordercolor="#666666"
     borderopacity="1"
     objecttolerance="10"
     gridtolerance="10"
     guidetolerance="10"
     inkscape:pageopacity="0"
     inkscape:pageshadow="2"
     inkscape:window-width="1920"
     inkscape:window-height="1005"
     id="namedview5"
     showgrid="false"
     inkscape:zoom="1.28"
     inkscape:cx="259.32897"
     inkscape:cy="241.16659"
     inkscape:window-x="-9"
     inkscape:window-y="-9"
     inkscape:window-maximized="1"
     inkscape:current-layer="svg2" /><path
     id="location-5-icon"
     d="M 256,50 C 162.939,50 87.5,125.44 87.5,218.5 87.5,313 169.43,375.333 256,462 342.57,375.333 424.5,313 424.5,218.5 424.5,125.44 349.061,50 256,50 z m 0,286.958 c -68.275,0 -123.624,-55.349 -123.624,-123.624 0,-68.276 55.349,-123.625 123.624,-123.625 68.276,0 123.625,55.348 123.625,123.625 0,68.275 -55.349,123.624 -123.625,123.624 z"
     inkscape:connector-curvature="0" /><g
     transform="matrix(2.1312855,0,0,2.1312855,145.78039,98.272076)"
     id="g4"><path
       style="fill:#000000"
       inkscape:connector-curvature="0"
       d="M 73.694,55.353 56.535,47.365 c 0.054,-1.823 -0.88,-3.608 -2.596,-4.529 -0.745,-0.402 -1.551,-0.593 -2.342,-0.593 -1.771,0 -3.486,0.951 -4.381,2.62 -1.297,2.415 -0.388,5.426 2.027,6.723 0.739,0.395 1.533,0.583 2.316,0.583 1.033,0 2.047,-0.325 2.894,-0.926 l 15.999,7.366 0,4.76 0,23.758 c 0,1.215 0.985,2.201 2.201,2.201 1.216,0 2.2,-0.986 2.2,-2.201 l 0,-26.107 0,-3.729 c 0,-0.176 -0.026,-0.346 -0.069,-0.51 -0.143,-0.602 -0.528,-1.129 -1.09,-1.428 z"
       id="path6" /><path
       style="fill:#000000"
       inkscape:connector-curvature="0"
       d="M 95.892,42.075 51.801,21.46 C 51.23,21.193 50.615,21.06 50,21.06 c -0.615,0 -1.23,0.134 -1.801,0.401 L 4.11,42.075 c -1.458,0.681 -2.406,2.129 -2.45,3.738 -0.042,1.609 0.827,3.104 2.247,3.863 l 15.208,8.123 0,11.262 L 50,85.27 l 17.265,-9.025 0,-11.173 0,-1.492 0,-2.928 L 66.864,60.466 50,69.475 5.911,45.925 50,25.311 94.09,45.925 77.433,54.822 c 0.389,0.75 0.61,1.59 0.61,2.469 l 0,2.023 0.069,-0.037 0,11.145 6.03,-3.152 0,-11.211 11.951,-6.383 c 1.42,-0.759 2.29,-2.253 2.246,-3.863 -0.042,-1.609 -0.989,-3.058 -2.447,-3.738 z"
       id="path8" /></g></svg>