<svg
	version="1.1"
	xmlns="http://www.w3.org/2000/svg"
	xmlns:xlink="http://www.w3.org/1999/xlink"
   x="0px"
   y="0px"
   width="512px"
   height="512px"
   viewBox="0 0 512 512"
   enable-background="new 0 0 512 512"
   id="vertinarycare-marker">
   <path
   id="vertinarycare-marker-shell"
   d="M256,50c-93.061,0-168.5,75.44-168.5,168.5C87.5,313,169.43,375.333,256,462  c86.57-86.667,168.5-149,168.5-243.5C424.5,125.44,349.061,50,256,50z M256,336.958c-68.275,0-123.624-55.349-123.624-123.624  c0-68.276,55.349-123.625,123.624-123.625c68.276,0,123.625,55.348,123.625,123.625C379.625,281.609,324.276,336.958,256,336.958z" />
   <path
   id="vertinarycare-marker-content"
   d="m 186.89548,218.17778 0.0559,0.065 c 0.43341,-8.52502 3.37629,-16.545 8.26626,-23.61996 -9.81283,-12.5887 -9.61366,-29.15599 0.45168,-37.01993 10.07415,-7.87048 26.2164,-4.04285 36.0548,8.54987 l 2.0348,2.87969 c 7.07895,-1.90393 14.67539,-2.93743 22.58022,-2.93743 7.9045,0 15.50094,1.0335 22.57989,2.93743 l 2.0348,-2.87969 c 9.8384,-12.59272 25.98065,-16.42035 36.0548,-8.54987 10.06534,7.86394 10.26451,24.43123 0.45168,37.01993 4.88997,7.07496 7.83285,15.09494 8.26626,23.61996 l 0.0559,-0.065 c 0,0 0,17.36099 23.14778,40.50877 -17.36063,0 -23.14778,-5.78712 -23.14778,-5.78712 0,0 5.78715,5.78712 11.57391,17.36103 -5.78676,0 -11.57391,-5.78715 -11.57391,-5.78715 l 0,5.78715 -11.57387,-5.78715 0,11.5739 -11.57391,-11.5739 0,11.5739 -7.14253,-10.71326 c -11.14671,5.96582 -24.62927,9.45542 -39.15303,9.45542 -14.52409,0 -28.00669,-3.4896 -39.15336,-9.45542 l -7.14253,10.71326 0,-11.5739 -11.57391,11.5739 0,-11.5739 -11.57387,5.78715 0,-5.78715 c 0,0 -5.78715,5.78715 -11.57391,5.78715 5.78676,-11.57391 11.57391,-17.36103 11.57391,-17.36103 0,0 -5.78715,5.78712 -23.14778,5.78712 23.14778,-23.14778 23.14778,-40.50877 23.14778,-40.50877 z m 15.89997,-51.45343 c -4.62174,3.61094 -4.41161,11.75115 0.21451,18.90577 5.41035,-5.07053 11.97882,-9.35748 19.38738,-12.61211 -5.9015,-7.36183 -14.62312,-10.18338 -19.60189,-6.29366 z m 107.08671,0 c -4.97841,-3.88972 -13.70003,-1.06817 -19.6019,6.29366 7.40893,3.25463 13.9774,7.54158 19.38738,12.61211 4.62649,-7.15462 4.83662,-15.29483 0.21452,-18.90577 z m -82.47791,34.09277 c -6.39228,0 -11.57387,5.18159 -11.57387,11.57387 0,6.39196 5.18159,11.57391 11.57387,11.57391 6.39196,0 11.57391,-5.18195 11.57391,-11.57391 0,-6.39228 -5.18195,-11.57387 -11.57391,-11.57387 z m 57.86947,0 c -6.39196,0 -11.57391,5.18159 -11.57391,11.57387 0,6.39196 5.18195,11.57391 11.57391,11.57391 6.39192,0 11.57387,-5.18195 11.57387,-11.57391 0,-6.39228 -5.18195,-11.57387 -11.57387,-11.57387 z m -28.93494,40.50841 c 0,0 -11.57387,0 -11.57387,2.89357 0,11.18618 5.18196,20.25421 11.57387,20.25421 6.39232,0 11.57391,-9.06803 11.57391,-20.25421 3.7e-4,-2.89357 -11.57391,-2.89357 -11.57391,-2.89357 z m 3.7e-4,-17.36099 c -3.19612,0 -5.78712,2.59095 -5.78712,5.78711 0,3.19616 2.591,5.78712 5.78712,5.78712 3.19579,0 5.78679,-2.59096 5.78679,-5.78712 0,-3.19616 -2.591,-5.78711 -5.78679,-5.78711 z"/>
</svg>
