<svg
	version="1.1"
	xmlns="http://www.w3.org/2000/svg"
	xmlns:xlink="http://www.w3.org/1999/xlink"
   x="0px"
   y="0px"
   width="512px"
   height="512px"
   viewBox="0 0 512 512"
   enable-background="new 0 0 512 512"
   id="zoo-marker">
<path
   id="zoo-marker-shell"
   d="M256,50c-93.061,0-168.5,75.44-168.5,168.5C87.5,313,169.43,375.333,256,462  c86.57-86.667,168.5-149,168.5-243.5C424.5,125.44,349.061,50,256,50z M256,336.958c-68.275,0-123.624-55.349-123.624-123.624  c0-68.276,55.349-123.625,123.624-123.625c68.276,0,123.625,55.348,123.625,123.625C379.625,281.609,324.276,336.958,256,336.958z" />
<path
   id="zoo-marker-content"
   d="m 247.04687,178.2899 c 3.29664,0 5.96863,2.67237 5.96863,5.96863 0,3.29664 -2.67237,5.969 -5.96863,5.969 -3.29664,0 -5.96863,-2.67236 -5.96863,-5.969 0,-3.29626 2.67199,-5.96863 5.96863,-5.96863 z m 19.39832,0 c 3.29664,0 5.96901,2.67237 5.96901,5.96863 0,3.29664 -2.67237,5.969 -5.96901,5.969 -3.29626,0 -5.96863,-2.67236 -5.96863,-5.969 0,-3.29626 2.67237,-5.96863 5.96863,-5.96863 z m -56.92795,77.98911 c -2.7342,-8.79932 -4.25152,-18.52299 -4.25152,-28.74689 l 0.0569,-3.42368 c -8.41783,4.61793 -17.86555,9.3923 -20.94769,9.3923 -7.96432,0 6.88242,-18.40914 26.31052,-38.21422 1.83247,-5.12232 4.0879,-9.89179 6.70184,-14.21681 1.91088,-24.17458 18.46908,-43.06889 38.61268,-43.06889 20.1436,0 36.70142,18.89431 38.61268,43.06889 2.61394,4.32502 4.86937,9.09449 6.70184,14.21681 19.4281,19.80508 34.27484,38.21422 26.31052,38.21422 -3.08214,0 -12.52986,-4.77399 -20.94769,-9.3923 l 0.0569,3.42368 c 0,10.2239 -1.51732,19.94757 -4.25152,28.74689 l -7.68574,-1.88751 c 0,-22.9611 -10.40448,-42.55771 -25.04124,-50.24421 l -13.75578,23.38483 -13.75427,-23.38181 c -14.63752,7.69969 -25.04237,27.35699 -25.042,50.58575 l -7.68649,1.54295 z m 31.56063,-91.4188 c -8.24103,0 -14.92176,8.0171 -14.92176,17.90626 0,9.88953 6.68073,17.90626 14.92176,17.90626 8.2414,0 14.92213,-8.01673 14.92213,-17.90626 0,-9.88916 -6.68073,-17.90626 -14.92213,-17.90626 z M 256,182.76647 c 0,6.59289 6.68073,13.42969 14.92176,13.42969 8.24102,0 14.92175,-6.8368 14.92175,-13.42969 0,-6.5929 -6.68073,-13.4297 -14.92175,-13.4297 -8.24103,0 -14.92176,6.8368 -14.92176,13.4297 z m -29.84389,74.60954 c 11.55048,0 21.18555,5.12646 23.39764,11.93725 l 1.96969,0 0,5.96901 -1.96969,0 c -2.21209,6.81078 -11.84716,11.93725 -23.39764,11.93725 -13.18579,0 -23.87489,-6.68073 -23.87489,-14.92176 0,-8.24102 10.6891,-14.92175 23.87489,-14.92175 z m 59.6874,0 c 13.1858,0 23.87527,6.68073 23.87527,14.92175 0,8.24103 -10.68947,14.92176 -23.87527,14.92176 -11.55048,0 -21.18517,-5.12647 -23.39726,-11.93725 l -1.96969,0 0,-5.96901 1.96969,0 c 2.21209,-6.81079 11.84678,-11.93725 23.39726,-11.93725 z"/>
</svg>
